<svg width="735" height="464" fill="none" xmlns="http://www.w3.org/2000/svg"><path d="M426.613 31.105h-9.68v13.921h9.68V31.105z" fill="#2F1A31"/><path d="M438.614 24.046A16.332 16.332 0 00428.529 8.95a16.345 16.345 0 00-17.809 3.54 16.335 16.335 0 0011.558 27.887 16.336 16.336 0 0016.336-16.331z" fill="#2F1A31"/><path d="M430.444 24.046a10.283 10.283 0 00-12.293-10.086 10.284 10.284 0 109.28 17.357 10.283 10.283 0 003.013-7.271z" fill="#56335B"/><path d="M426.613 20.314a3.443 3.443 0 10-6.885 0 3.443 3.443 0 006.885 0z" fill="#CFD3A3"/><path d="M132.041 33.87c-4.875 4.797-7.847 4.674-9.725 2.767-1.879-1.907-1.953-4.882 2.918-9.678 8.874-8.732 16.565-9.497 16.565-9.497s-.757 7.55-9.758 16.409zM142.569 76.887c-3.058 6.114-5.911 6.957-8.309 5.762-2.399-1.195-3.426-3.99-.369-10.1 5.571-11.134 12.599-14.346 12.599-14.346s1.727 7.39-3.921 18.684zM168.073 189.31l-1.277.205c-.033-.196-3.344-19.994-17.019-46.769-12.624-24.708-36.908-60.58-80.926-91.164l.737-1.064c44.263 30.756 68.679 66.836 81.363 91.692 13.762 26.947 17.089 46.904 17.122 47.1z" fill="#009688"/><path d="M115.676 91.525l-1.228-.41C129.36 46.574 102.824 3.726 102.554 3.3l1.093-.692c.274.434 27.137 43.782 12.029 88.918zM91.666 75.93c-12.746 3.208-23.982-.745-24.108-.794l.438-1.228c.143.05 14.538 5.1 28.983-1.154l.516 1.187a38.094 38.094 0 01-5.829 1.989zM158.839 161.586c-26.507 3.556-50.555-3.748-71.475-21.713a18.39 18.39 0 00-1.592-1.297.618.618 0 00.147.033l.095-1.289c.38.029.68.274 2.194 1.575 20.625 17.711 44.333 24.913 70.459 21.406l.172 1.285z" fill="#009688"/><path d="M119 157.253l-1.293-.025c.311-17.551-16.733-38.957-16.905-39.17l1.007-.818a107.136 107.136 0 018.686 13.14c3.982 7.046 8.673 17.428 8.505 26.873zM66.252 44.793c8.145 4.317 9.55 7.517 8.297 9.886-1.253 2.37-4.695 3-12.84-1.313-14.838-7.861-19.738-15.96-19.738-15.96s9.226-.589 24.28 7.387zM69.89 70.234c9.07 1.66 11.375 4.288 10.892 6.923-.483 2.636-3.569 4.277-12.64 2.62-16.515-3.025-23.625-9.253-23.625-9.253s8.616-3.356 25.373-.29z" fill="#009688"/><path d="M103.512 113.037c4.503 5.128 4.236 8.086 2.227 9.858-2.01 1.772-4.982 1.682-9.505-3.445-8.231-9.339-8.575-17.057-8.575-17.057s7.499 1.159 15.853 10.644zM99.443 52.72c3.139 6.072 2.141 8.875-.237 10.103-2.379 1.227-5.244.409-8.383-5.652-5.73-11.048-4.167-18.631-4.167-18.631s7.003 2.959 12.787 14.18zM133.92 146.429c1.305 6.711-.438 9.117-3.07 9.629-2.632.511-5.149-1.068-6.455-7.775-2.374-12.219 1.228-19.049 1.228-19.049s5.89 4.796 8.297 17.195zM92.75 137.328c5.51 4.039 5.866 6.994 4.282 9.154-1.584 2.161-4.502 2.709-10.02-1.334-10.04-7.366-12.03-14.826-12.03-14.826s7.577-.462 17.769 7.006zM105.014-3.138c4.269 8.184 3.618 11.6 1.228 12.84-2.39 1.24-5.567-.18-9.824-8.347-7.777-14.875-7.245-24.311-7.245-24.311s7.945 4.722 15.841 19.818zM598.481 282.611s121.567-152.755 170.77-116.307c49.204 36.449-109.045 83.267-142.744 128.923l-28.026-12.616z" fill="#009688"/><path d="M613.044 289.06c12.587-17.727 37.416-45.247 84.221-75.663 27.981-18.182 50.878-28.924 51.103-29.026l.43.913c-.229.106-23.069 10.819-50.993 28.968-46.662 30.331-71.401 57.74-83.934 75.393l-.827-.585z" fill="#74A1BD"/><g opacity=".4"><path opacity=".4" d="M554.414 96.292s88.191-146.24 134.984-120.181c46.793 26.058-85.191 84.551-109.246 127.956l-25.738-7.775z" fill="#009688"/><path opacity=".4" d="M567.778 100.241c8.927-16.802 27.346-43.475 64.5-75.148 22.218-18.938 40.862-30.838 41.05-30.957l.475.75c-.184.114-18.792 11.99-40.96 30.887-37.047 31.583-55.409 58.153-64.283 74.885l-.782-.417z" fill="#74A1BD"/></g><g opacity=".5"><path opacity=".5" d="M579.28 107.938s169.407-148.02 217.637-96.545c48.23 51.475-140.845 71.845-188.465 116.625l-29.172-20.08z" fill="#009688"/><path opacity=".5" d="M594.457 118.259c17.932-17.494 51.766-43.557 111.113-68.363 35.476-14.83 63.649-22.27 63.931-22.343l.295 1.125c-.278.074-28.39 7.497-63.796 22.302-59.163 24.745-92.866 50.689-110.728 68.122l-.815-.843z" fill="#74A1BD"/></g><path d="M274.123 356.036S142.421 139.03 84.871 176.972c-57.55 37.943 120.478 125.866 156.813 190.239l32.439-11.175z" fill="#009688" fill-opacity=".76"/><path d="M212.823 317.316S61.241 156.569 9.23 202.327c-52.012 45.759 130.874 83.57 173.181 131.865l30.412-16.876z" fill="#009688"/><path d="M195.911 326.908c-28.612-33.883-71.107-60.563-101.72-77.006-33.187-17.809-59.927-27.711-60.194-27.826l.614-1.666c.267.099 27.126 10.051 60.42 27.917 30.747 16.516 73.443 43.34 102.238 77.427l-1.358 1.154z" fill="#74A1BD"/><path d="M495.558 420.691v-72.512H349.232v72.512c0 18.824-12.546 34.125-28.022 34.125h-5.898v9.363h214.166v-9.363h-5.898c-15.476.012-28.022-15.268-28.022-34.125z" fill="#3B3A3B"/><path d="M528.279 464.191H316.511a4.682 4.682 0 010-9.363h211.768a4.682 4.682 0 110 9.363zM671.667 392.705l-494.863-5.679a19.343 19.343 0 01-13.53-5.74 19.329 19.329 0 01-5.585-13.592V65.748a19.342 19.342 0 0119.041-19.331l488.453-7.476a19.343 19.343 0 0113.735 5.414 19.331 19.331 0 015.912 13.524l6.382 315.094a19.333 19.333 0 01-11.988 18.283 19.328 19.328 0 01-7.557 1.449z" fill="#3B3A3B"/><path d="M427.154 376h-17.682c-1.319 0-2.392-1.145-2.392-2.552v-13.426c0-.49.372-.888.832-.888.459 0 .832.398.832.888v13.426c0 .428.326.777.728.777h17.682c.401 0 .728-.349.728-.777v-13.426c0-.49.372-.888.832-.888.459 0 .832.398.832.888v13.426c0 1.407-1.073 2.552-2.392 2.552z" fill="#fff"/><path d="M430.795 363.128a.803.803 0 01-.589-.26l-10.348-11.039a2.092 2.092 0 00-3.089 0l-10.348 11.039a.796.796 0 01-1.177 0 .93.93 0 010-1.255l10.348-11.039c1.501-1.601 3.942-1.601 5.443 0l10.348 11.039a.93.93 0 010 1.255.8.8 0 01-.588.26z" fill="#fff"/><path d="M418.115 360.843c-3.615 0-6.561 2.869-6.561 6.426a6.396 6.396 0 001.003 3.406h3.152a4.097 4.097 0 01-1.403-2.054 4.19 4.19 0 01.027-2.51 4.079 4.079 0 011.448-2.021 3.9 3.9 0 012.323-.771c.834 0 1.646.27 2.323.771a4.085 4.085 0 011.448 2.021c.265.813.274 1.691.027 2.51a4.093 4.093 0 01-1.404 2.054h3.178a6.377 6.377 0 00.987-3.406c0-3.553-2.934-6.426-6.561-6.426" fill="#fff"/><path d="M415.969 368.316c.145.468.432.876.818 1.166.386.289.852.445 1.329.445.478 0 .944-.156 1.33-.445a2.32 2.32 0 00.818-1.166h-4.295z" fill="#fff"/><g clip-path="url(#clip0)" fill="#fff"><path d="M428.571 342a.221.221 0 00-.221.222v1.775c0 .122.099.222.221.222 4.527 0 8.21 3.683 8.21 8.21 0 .122.1.222.222.222h1.775c.123 0 .222-.1.222-.222 0-5.751-4.678-10.429-10.429-10.429z"/><path d="M428.572 345.55c-.123 0-.222.1-.222.222v1.775c0 .123.099.222.222.222 2.569 0 4.66 2.09 4.66 4.66 0 .122.099.222.221.222h1.775c.123 0 .222-.1.222-.222a6.886 6.886 0 00-6.878-6.879z"/><path d="M429.902 352.651a1.554 1.554 0 100-3.109 1.554 1.554 0 000 3.109z"/></g><path d="M655.72 69.354H186.415c-5.27 0-9.542 4.27-9.542 9.538v244.386c0 5.268 4.272 9.539 9.542 9.539H655.72c5.269 0 9.541-4.271 9.541-9.539V78.892c0-5.268-4.272-9.538-9.541-9.538z" fill="#E7F2F0"/><path d="M490.434 94.512v89.245a10.366 10.366 0 01-10.376 10.366H348.037a10.37 10.37 0 01-10.372-10.366V94.512a10.369 10.369 0 0110.372-10.37h132.021a10.375 10.375 0 0110.376 10.37zM490.434 217.677v89.253a10.375 10.375 0 01-3.039 7.334 10.383 10.383 0 01-7.337 3.036H348.037a10.382 10.382 0 01-10.372-10.37v-89.253a10.363 10.363 0 016.402-9.584 10.38 10.38 0 013.97-.79h132.021a10.38 10.38 0 0110.376 10.374zM652.097 94.512v89.245a10.353 10.353 0 01-6.402 9.58c-1.258.52-2.608.787-3.97.786H509.7a10.349 10.349 0 01-10.355-10.366V94.512a10.372 10.372 0 0110.372-10.37h132.025a10.377 10.377 0 0110.355 10.37zM652.097 217.677v89.253a10.371 10.371 0 01-10.372 10.37H509.7a10.366 10.366 0 01-10.364-10.37v-89.253a10.374 10.374 0 0110.372-10.374h132.025a10.38 10.38 0 017.329 3.043 10.37 10.37 0 013.035 7.331zM317.404 84.143H206.361c-5.907 0-10.696 4.787-10.696 10.692v211.768c0 5.905 4.789 10.693 10.696 10.693h111.043c5.907 0 10.695-4.788 10.695-10.693V94.835c0-5.905-4.788-10.692-10.695-10.692z" fill="gray"/><path d="M224.669 211.052a11.524 11.524 0 01-19.678 8.142 11.52 11.52 0 011.749-17.728 11.526 11.526 0 016.403-1.942 11.51 11.51 0 0110.656 7.113c.578 1.4.873 2.9.87 4.415z" fill="#3B3A3B"/><path d="M208.902 207.553a4.248 4.248 0 012.619-3.924 4.246 4.246 0 015.789 3.093 4.239 4.239 0 01-1.807 4.357 4.245 4.245 0 01-2.36.713 4.242 4.242 0 01-4.241-4.239zM221.289 219.207a11.521 11.521 0 01-16.287 0 8.443 8.443 0 018.143-6.22 8.44 8.44 0 018.144 6.22z" fill="#DEF7E5"/><path d="M242.053 201.611h61.013a4.809 4.809 0 014.809 4.809v9.256a4.809 4.809 0 01-4.809 4.808h-61.013a4.816 4.816 0 01-4.81-4.808v-9.256a4.81 4.81 0 014.81-4.809z" fill="#3B3A3B"/><path d="M243.522 207.222h15.964c.173 0 .34.069.463.191.122.123.191.29.191.463v.307a.657.657 0 01-.654.655h-15.964a.658.658 0 01-.659-.659v-.303a.657.657 0 01.407-.606.66.66 0 01.252-.048zM266.751 211.052h-23.098a.786.786 0 00-.786.785v.045c0 .434.352.786.786.786h23.098a.786.786 0 00.786-.786v-.045a.786.786 0 00-.786-.785zM292.615 211.052h-20.367a.737.737 0 00-.737.736v.144c0 .406.33.736.737.736h20.367c.407 0 .737-.33.737-.736v-.144a.737.737 0 00-.737-.736zM280.537 207.222h-15.955a.654.654 0 00-.655.654v.307c0 .362.293.655.655.655h15.955a.655.655 0 00.655-.655v-.307a.654.654 0 00-.655-.654z" fill="#FEFEFE"/><path d="M224.669 174.525a11.523 11.523 0 01-13.775 11.302 11.523 11.523 0 012.249-22.825 11.506 11.506 0 018.159 3.367 11.485 11.485 0 013.367 8.156z" fill="#3B3A3B"/><path d="M213.178 175.244a4.24 4.24 0 10-.022-8.479 4.24 4.24 0 10.022 8.479zM221.289 182.681a11.521 11.521 0 01-16.287 0 8.443 8.443 0 018.143-6.22 8.44 8.44 0 018.144 6.22z" fill="#DEF7E5"/><path d="M242.052 165.085h61.013a4.808 4.808 0 014.81 4.808v9.261a4.813 4.813 0 01-4.814 4.812h-61.009a4.81 4.81 0 01-4.813-4.812v-9.257a4.812 4.812 0 014.813-4.812z" fill="#3B3A3B"/><path d="M243.522 170.699h15.963a.656.656 0 01.655.655v.307a.653.653 0 01-.655.638h-15.963a.659.659 0 01-.659-.659v-.302a.653.653 0 01.659-.639zM266.751 174.525h-23.098a.786.786 0 00-.786.786v.045c0 .434.352.786.786.786h23.098a.786.786 0 00.786-.786v-.045a.786.786 0 00-.786-.786zM292.615 174.525h-20.367a.737.737 0 00-.737.737v.143c0 .407.33.737.737.737h20.367c.407 0 .737-.33.737-.737v-.143a.737.737 0 00-.737-.737zM280.537 170.699h-15.955a.655.655 0 00-.655.655v.307c0 .362.293.655.655.655h15.955a.655.655 0 00.655-.655v-.307a.655.655 0 00-.655-.655z" fill="#FEFEFE"/><path d="M225.991 106.183a11.518 11.518 0 01-7.117 10.643 11.534 11.534 0 01-12.56-2.499 11.526 11.526 0 01-2.499-12.556 11.53 11.53 0 0110.646-7.116 11.51 11.51 0 0110.659 7.113c.578 1.4.874 2.9.871 4.415z" fill="#3B3A3B"/><path d="M210.224 102.688a4.244 4.244 0 118.487-.014 4.244 4.244 0 01-8.487.014zM222.61 114.338a11.519 11.519 0 01-16.287 0 8.439 8.439 0 018.144-6.22 8.442 8.442 0 018.143 6.22z" fill="#DEF7E5"/><path d="M243.375 96.742h61.012a4.815 4.815 0 014.814 4.813v9.26a4.809 4.809 0 01-4.81 4.808h-61.016a4.808 4.808 0 01-4.81-4.808v-9.26a4.812 4.812 0 014.81-4.813z" fill="#3B3A3B"/><path d="M260.8 102.353h-15.956a.654.654 0 00-.654.654v.307c0 .362.293.655.654.655H260.8a.654.654 0 00.654-.655v-.307a.654.654 0 00-.654-.654zM268.073 106.183h-23.098a.785.785 0 00-.785.786v.045c0 .434.351.785.785.785h23.098a.785.785 0 00.786-.785v-.045a.786.786 0 00-.786-.786zM293.942 106.183h-20.368a.737.737 0 00-.737.736v.144c0 .407.33.736.737.736h20.368a.735.735 0 00.736-.736v-.144a.736.736 0 00-.736-.736zM265.908 102.353h15.963a.658.658 0 01.659.658v.303a.654.654 0 01-.655.655h-15.963a.654.654 0 01-.655-.655v-.307a.652.652 0 01.651-.654z" fill="#FEFEFE"/><path d="M322.635 247.107a11.522 11.522 0 01-7.119 10.644 11.533 11.533 0 01-12.56-2.501 11.519 11.519 0 011.749-17.728 11.528 11.528 0 016.403-1.942 11.513 11.513 0 018.159 3.369 11.504 11.504 0 013.368 8.158z" fill="#3B3A3B"/><path d="M315.38 243.648a4.24 4.24 0 10-8.48-.021 4.24 4.24 0 008.48.021zM319.246 255.263a11.521 11.521 0 01-16.287 0 8.443 8.443 0 018.143-6.22 8.44 8.44 0 018.144 6.22z" fill="#DEF7E5"/><path d="M222.316 237.667h61.012a4.815 4.815 0 014.81 4.812v9.261a4.816 4.816 0 01-4.814 4.812h-61.008a4.808 4.808 0 01-4.81-4.808v-9.265a4.814 4.814 0 014.81-4.812z" fill="#009688"/><path d="M223.787 243.277h15.963a.662.662 0 01.609.407c.033.08.05.166.05.252v.303a.654.654 0 01-.655.655h-15.963a.652.652 0 01-.655-.655v-.307a.652.652 0 01.651-.655zM247.013 247.108h-23.097a.785.785 0 00-.786.785v.045c0 .434.352.786.786.786h23.097a.786.786 0 00.786-.786v-.045a.785.785 0 00-.786-.785zM272.882 247.108h-20.367a.736.736 0 00-.737.736v.143c0 .407.33.737.737.737h20.367c.407 0 .737-.33.737-.737v-.143a.736.736 0 00-.737-.736zM260.799 243.277h-15.955a.655.655 0 00-.655.655v.307c0 .362.293.655.655.655h15.955a.655.655 0 00.655-.655v-.307a.655.655 0 00-.655-.655z" fill="#FEFEFE"/><path d="M322.635 140.606a11.525 11.525 0 01-13.778 11.297 11.53 11.53 0 01-9.054-9.055 11.519 11.519 0 014.902-11.828 11.53 11.53 0 016.403-1.942 11.514 11.514 0 0111.527 11.528z" fill="#3B3A3B"/><path d="M306.864 137.107a4.24 4.24 0 012.618-3.923 4.244 4.244 0 11-1.374 6.922 4.238 4.238 0 01-1.244-2.999zM319.246 148.761a11.528 11.528 0 01-16.287 0 8.443 8.443 0 0113.268-4.487 8.443 8.443 0 013.019 4.487z" fill="#DEF7E5"/><path d="M608.313 135.634a29.47 29.47 0 01-18.208 27.224 29.482 29.482 0 01-32.127-6.396 29.465 29.465 0 01-6.387-32.121 29.476 29.476 0 0127.238-18.194 29.456 29.456 0 0120.864 8.625 29.427 29.427 0 018.62 20.862z" fill="#3B3A3B"/><path d="M567.972 126.684a10.857 10.857 0 1120.889 4.141 10.858 10.858 0 01-10.032 6.703 10.855 10.855 0 01-10.031-6.692 10.852 10.852 0 01-.826-4.152zM599.643 156.495a29.484 29.484 0 01-41.659 0 21.591 21.591 0 0141.659 0z" fill="#DEF7E5"/><path d="M222.316 131.165h61.012a4.814 4.814 0 014.81 4.808v9.261a4.809 4.809 0 01-4.81 4.808h-61.012a4.808 4.808 0 01-4.81-4.808v-9.261a4.812 4.812 0 014.81-4.808z" fill="#009688"/><path d="M223.787 136.776h15.963a.66.66 0 01.659.658v.303a.657.657 0 01-.655.655h-15.963a.654.654 0 01-.655-.655v-.307a.656.656 0 01.655-.654h-.004zM247.013 140.606h-23.097a.786.786 0 00-.786.786v.045c0 .433.352.785.786.785h23.097a.786.786 0 00.786-.785v-.045a.786.786 0 00-.786-.786zM272.882 140.606h-20.367a.737.737 0 00-.737.736v.144c0 .406.33.736.737.736h20.367c.407 0 .737-.33.737-.736v-.144a.737.737 0 00-.737-.736zM260.799 136.776h-15.955a.654.654 0 00-.655.654v.307c0 .362.293.655.655.655h15.955a.655.655 0 00.655-.655v-.307a.654.654 0 00-.655-.654z" fill="#FEFEFE"/><path d="M299.317 382.83l-75.903-2.533-86.043 2.234-.217 6.474 83.206-3.683c8.366.282 14.895 7.93 14.592 17.093-.307 9.158-7.335 16.368-15.697 16.073l-82.993-2.77-.16 4.784 161.762 5.405c10.855.361 19.979-9.002 20.376-20.869.413-11.913-8.068-21.844-18.923-22.208z" fill="#009688"/><path d="M242.348 402.48c.41-11.892-8.079-21.823-18.934-22.183l-86.043 2.234-.217 6.474 83.206-3.683c8.366.282 14.895 7.93 14.592 17.093-.307 9.158-7.335 16.368-15.697 16.073l-82.993-2.77-.16 4.784 85.854 2.864c10.872.344 19.995-8.998 20.392-20.886z" fill="#009688"/><path d="M220.377 385.322l-83.206 3.683c7.507 1.203 9.774 8.826 10.818 12.894 2.108 8.254-4.134 13.005-11.706 13.701v.114l82.993 2.775c8.362.278 15.39-6.92 15.693-16.078.303-9.159-6.226-16.811-14.592-17.089z" fill="#E6EDFF"/><path d="M148.291 405.647l-.015.454 66.988 2.234.015-.454-66.988-2.234z" fill="#2F1A31"/><path opacity=".4" d="M234.293 421.316a.9.9 0 01-.838-.638.9.9 0 01.335-.999c.065-.045 6.606-4.579 7.658-17.256 1.044-12.592-7.777-17.425-7.875-17.47a.894.894 0 01-.442-.533.91.91 0 01.288-.964.904.904 0 011.001-.103c.409.217 9.975 5.451 8.833 19.233-1.134 13.615-8.162 18.415-8.461 18.616a.932.932 0 01-.499.114z" fill="#009688"/><path d="M199.475 400.819l-51.456.817.007.454 51.457-.817-.008-.454z" fill="#2F1A31"/><path opacity=".4" d="M261.067 416.835h-.029l-16.225-.54a.912.912 0 01-.762-.466.897.897 0 010-.892 48.754 48.754 0 004.454-11.413c1.571-6.274-2.706-12.805-2.751-12.87a.907.907 0 01-.037-.941.926.926 0 01.819-.463l15.39.512a.907.907 0 01.712.384c9.632 13.762-.79 26.252-.896 26.374a.914.914 0 01-.675.315zm-14.736-2.304l14.326.479c1.523-1.972 8.457-12.063.782-23.46l-13.319-.425c1.289 2.455 3.459 7.635 2.157 12.849a51.599 51.599 0 01-3.946 10.557z" fill="#009688"/><path d="M138.022 420.911h75.945l85.903 5.107v6.482l-83.038-6.482c-8.367 0-15.145 7.427-15.145 16.594 0 9.162 6.782 16.593 15.145 16.593h83.038v4.784H138.022c-10.863 0-19.668-9.641-19.668-21.537 0-11.896 8.805-21.541 19.668-21.541z" fill="#009688"/><path d="M194.303 442.452c0-11.896 8.804-21.541 19.647-21.541l85.92 5.107v6.482l-83.038-6.482c-8.367 0-15.145 7.427-15.145 16.594 0 9.162 6.783 16.593 15.145 16.593h83.038v4.784h-85.903c-10.86 0-19.664-9.641-19.664-21.537z" fill="#009688"/><path d="M216.832 426.034l83.038 6.466c-7.544.949-10.061 8.491-11.24 12.526-2.386 8.184 3.684 13.132 11.24 14.081v.115h-83.038c-8.366 0-15.145-7.432-15.145-16.594-.004-9.162 6.779-16.594 15.145-16.594z" fill="#E6EDFF"/><path d="M288.18 448.799h-67.026v.454h67.026v-.454zM201.225 461.382c-.291-.208-7.159-5.242-7.831-18.885-.683-13.803 9.054-18.713 9.468-18.918l.794 1.637-.409-.818.409.818c-.373.18-9.079 4.628-8.457 17.187.328 6.65 2.235 11.049 3.778 13.578 1.67 2.729 3.275 3.912 3.299 3.924l-1.051 1.477zM237.26 442.259l-.022.453 51.399 2.577.022-.454-51.399-2.576zM175.143 430h15.402s-4.789 6.698-3.331 13.504a49.126 49.126 0 004.162 11.793h-16.233s-9.783-12.284 0-25.297z" fill="#2F1A31"/><path d="M257.242 293.578c0 7.722-6.197 13.131-13.892 13.262H242.343c-7.449-.409-14.129-5.7-14.129-13.246 0-7.808 7.134-14.191 14.899-15.006 10.56-1.121 14.129 7.182 14.129 14.99z" fill="#009688"/><path d="M233.698 287.149s3.406-2.533 6.202-1.837c2.795.695 10.486 8.736 11.46 10.922.975 2.185-.262 5.774-1.571 5.729-1.31-.045-4.982-2.844-4.634-3.978.348-1.134 2.186-1.4 1.924-2.271-.262-.872-6.643-6.904-7.167-6.642-.524.262-1.31 2.456-3.32 1.662s-3.671-3.086-2.894-3.585zM294.711 293.578c0 7.722-6.201 13.131-13.917 13.262H279.779c-7.449-.409-13.937-5.467-13.368-14.118.512-7.775 8.53-14.236 16.34-14.236 7.81 0 11.96 7.284 11.96 15.092z" fill="#DEF7E5"/><path d="M269.493 296.291s.753-4.182 3.274-5.582c2.522-1.399 13.622-.818 15.82.131 2.198.949 3.762 4.391 2.772 5.25-.991.86-5.579 1.334-6.099.266-.52-1.068.634-2.512-.156-2.971-.79-.458-9.566-.487-9.766.062-.201.548.716 2.68-1.285 3.482-2.002.802-4.777.229-4.56-.638z" fill="#009688"/><path d="M416.379 211.272s4.644-11.225 9.042-12.201c4.397-.976 22.956 8.297 17.835 16.841-5.121 8.543-10.507 8.049-15.393 5.88-4.885-2.17-11.484-10.52-11.484-10.52z" fill="#263238" stroke="#263238" stroke-miterlimit="10"/><path d="M436.416 203.216s4.886-1.705 7.329-1.705c2.443 0 2.943 7.809 2.943 7.809s-1.725-7.568-10.272-6.104z" fill="#263238" stroke="#263238" stroke-miterlimit="10"/><path d="M383.645 219.816s-2.69 3.657-3.42 6.833c-.73 3.175 1.219 6.585.489 9.273-.73 2.687-4.156 5.121-3.909 6.832.248 1.711 5.127 4.393 5.127 4.393s4.156 9.996 5.887 10.737c1.73.741 7.552-.982 10.207-2.193 2.654-1.212 6.11-.977 6.11-.977l15.893-8.055s-1.713-3.176.241-7.809c1.955-4.634 2.944-12.448-9.035-20.257-11.979-7.809-27.59 1.223-27.59 1.223z" fill="#fff" stroke="#263238" stroke-miterlimit="10"/><path d="M385.841 246.659a2.6 2.6 0 013.179-.976" stroke="#263238" stroke-miterlimit="10"/><path d="M383.898 234.699c0 1.217.383 2.199.854 2.199s.859-.982.859-2.199c0-1.218-.382-2.194-.859-2.194s-.854.982-.854 2.194z" fill="#263238"/><path d="M386.33 228.601a2.247 2.247 0 00-3.42.241M384.499 239.579c-2.36 0-4.274-3.059-4.274-6.833 0-3.773 1.914-6.832 4.274-6.832 2.36 0 4.273 3.059 4.273 6.832 0 3.774-1.913 6.833-4.273 6.833zM388.772 232.746l19.055 1.958" stroke="#263238" stroke-miterlimit="10"/><path d="M411.741 239.338s4.638 5.127 7.328 5.127c2.691 0 7.818-3.422 10.26-7.056 2.443-3.634-2.442-12.936-5.133-18.304-2.69-5.369-7.569-14.401-17.588-16.353-10.019-1.952-13.927-1.217-22.474 3.175-8.547 4.393-7.576 10.737-6.11 12.689a22.776 22.776 0 003.667 3.664s-5.374-2.94-7.329-1.952c-1.954.987-1.96 2.193-1.96 2.193s6.11.247 6.846.247c.736 0 3.173 1.217 3.173 1.217s5.133 1.223 7.817.488c2.684-.735 6.351-3.44 6.61-.5.259 2.94 3.909 8.056 5.375 8.544 1.465.488 3.667.729 5.621 2.193 1.954 1.464 3.897 4.628 3.897 4.628z" fill="#263238" stroke="#263238" stroke-miterlimit="10"/><path d="M406.119 237.139s3.42-7.056 6.84-4.146c3.42 2.911-.241 10.49-1.707 11.225-1.466.735-4.397-1.223-4.397-1.223s-.247 3.176-1.224 4.64" fill="#fff"/><path d="M406.119 237.139s3.42-7.056 6.84-4.146c3.42 2.911-.241 10.49-1.707 11.225-1.466.735-4.397-1.223-4.397-1.223s-.247 3.176-1.224 4.64" stroke="#263238" stroke-miterlimit="10"/><path d="M425.662 254.714s-4.121-4.151-4.121-6.832c0-2.682-1.465-4.887-10.748-.488-9.283 4.398-12.491 9.508-10.537 10.978 1.955 1.47 6.11 2.94 7.064 3.904.953.965 4.397 5.616 4.397 5.616s5.886-13.178 13.945-13.178z" fill="#009688" stroke="#263238" stroke-miterlimit="10"/><path d="M415.543 245.953s2.072.417 1.654 1.864a4.982 4.982 0 000 2.681l1.242 1.864M410.764 247.394s2.302 2.487 2.095 3.31c-.206.823-.623 2.07.207 2.482.737.329 1.496.606 2.272.829M409.963 256.972c.43.629.824 1.176.824 1.176M406.443 250.292s-.412 1.859.418 3.099c.83 1.241 1.86 1.241 2.066 1.858M401.893 253.597a17.618 17.618 0 001.448 3.099c.624.829 2.896.623 3.314 1.652a6.63 6.63 0 001.654 2.07M354.36 292.4c1.819-.723 6.911-1.452 6.911-1.452M363.455 290.219s-4.003-1.088-6.546 0" stroke="#263238" stroke-miterlimit="10"/><path d="M355.172 298.651s-2.16 3.722-2.748 4.898c-.589 1.176-.783 1.764-.195 1.764.589 0 2.749-.976 2.943-2.152.08-.621.28-1.22.589-1.764 0 0-1.107 4.31-.783 4.504 1.278.782 2.155-.588 2.155-.588l1.571-4.704s.589 2.352.783 2.94c.194.588 1.378-.976 1.378-2.152a26.525 26.525 0 00-.201-2.746l1.178-.982s-1.766-1.764-3.726-1.764c-1.961 0-2.944 2.746-2.944 2.746z" fill="#fff" stroke="#263238" stroke-miterlimit="10"/><path d="M385.387 292.77l-.765-.052c-3.385-.224-16.818-1.124-17.659-1.124-.983 0-6.67 3.135-6.67 3.135a27.115 27.115 0 00-5.297.199c-1.966.389-3.732 2.741-4.515 3.529-.783.788-3.338 1.764-1.96 2.152 1.377.388 1.96.588 2.743.394.783-.194 3.926-2.352 3.926-2.352l5.103-.782s4.71 2.546 5.298 2.74c.589.194-.789 1.57-2.16 2.552-1.372.982-3.532 2.352-3.338 3.916.195 1.564.789 1.376 2.355 0 1.566-1.376 3.143-2.152 5.498-3.722a53.167 53.167 0 006.08-5.098l1.178-1.176s13.733 4.51 18.442 5.88a99.306 99.306 0 0013.132 2.746c2.943.394 8.63-.782 10.201-1.958 1.572-1.176 5.692-4.904 5.692-4.904l-7.063-14.113s-8.441 7.844-11.773 8.626c-3.332.783-18.448-.588-18.448-.588z" fill="#fff" stroke="#263238" stroke-miterlimit="10"/><path d="M403.835 293.359c3.332-.783 11.773-8.627 11.773-8.627l7.063 14.113s-4.12 3.728-5.692 4.904c-1.571 1.176-7.258 2.352-10.201 1.958a100.695 100.695 0 01-11.943-2.411c-.106-.9-.189-1.864-.224-2.881-.076-2.223 0-4.74.112-6.98 3.791.218 7.623.294 9.112-.076z" fill="#92E3A9" stroke="#263238" stroke-miterlimit="10"/><path d="M408.721 270.185a19.487 19.487 0 013.667-11.296 12.023 12.023 0 014.48-3.934c8.158-3.704 13.891-1.017 19.06 5.881 10.26 13.671 17.276 29.906 20.013 36.609 5.775 13.971 6.834 19.011 6.834 19.011h-38.602s1.954-4.881 1.954-6.098c0-1.217-1.954-3.663-1.954-3.663s-11.726-4.152-13.922-10.496c-1.595-4.669-1.63-18.846-1.53-26.014z" fill="#009688" stroke="#263238" stroke-miterlimit="10"/><path d="M351.818 273.507a63.627 63.627 0 00-9.124 2.546M345.996 272.419a25.77 25.77 0 00-6.187 3.634" stroke="#263238" stroke-miterlimit="10"/><path d="M433.726 280.093s-11.973 32.705-15.145 33.681c-3.173.976-6.352-.488-7.817-1.464-1.466-.976-43.978-30.994-43.978-30.994s-7.575 4.398-9.041 4.398c-1.466 0-4.397 4.393-5.127 5.881-.73 1.487-1.466 2.193-1.713.729-.247-1.464 1.713-4.634 2.202-5.61.28-.554.524-1.125.729-1.711a8 8 0 00-2.442.735c-.73.488-3.173 3.657-3.909 4.633-.736.977-2.443 1.953-2.443.489 0-1.465 2.69-4.146 3.179-5.369a3.401 3.401 0 011.466-1.705s-4.645.729-5.887 1.217c-1.242.488-1.96 3.416-3.426 3.663-1.465.247.736-2.94 1.225-4.392.488-1.453 6.598-3.417 6.598-3.417s-3.908-.488-5.133-.488c-1.224 0-3.902 2.405-4.62 2.405-.719 0-.73-.735 1.224-2.199s5.374-2.94 6.84-2.94a26.621 26.621 0 004.397-.488c1.466-.241 12.461-2.44 14.657-2.44 2.196 0 35.183 15.376 35.183 15.376l2.137-1.899a.26.26 0 01.147-.065l.359-.041a5.113 5.113 0 013.455.976c.177.118.353.1.501-.194.488-.976 3.661-20.498 5.374-24.649 1.713-4.152 7.063-13.419 16.364-8.05" fill="#fff"/><path d="M433.726 280.093s-11.973 32.705-15.145 33.681c-3.173.976-6.352-.488-7.817-1.464-1.466-.976-43.978-30.994-43.978-30.994s-7.575 4.398-9.041 4.398c-1.466 0-4.397 4.393-5.127 5.881-.73 1.487-1.466 2.193-1.713.729-.247-1.464 1.713-4.634 2.202-5.61.28-.554.524-1.125.729-1.711a8 8 0 00-2.442.735c-.73.488-3.173 3.657-3.909 4.633-.736.977-2.443 1.953-2.443.489 0-1.465 2.69-4.146 3.179-5.369a3.401 3.401 0 011.466-1.705s-4.645.729-5.887 1.217c-1.242.488-1.96 3.416-3.426 3.663-1.465.247.736-2.94 1.225-4.392.488-1.453 6.598-3.417 6.598-3.417s-3.908-.488-5.133-.488c-1.224 0-3.902 2.405-4.62 2.405-.719 0-.73-.735 1.224-2.199s5.374-2.94 6.84-2.94a26.621 26.621 0 004.397-.488c1.466-.241 12.461-2.44 14.657-2.44 2.196 0 35.183 15.376 35.183 15.376l2.137-1.899a.26.26 0 01.147-.065l.359-.041a5.113 5.113 0 013.455.976c.177.118.353.1.501-.194.488-.976 3.661-20.498 5.374-24.649 1.713-4.152 7.063-13.419 16.364-8.05" stroke="#263238" stroke-miterlimit="10"/><path d="M433.726 280.093s-11.973 32.705-15.145 33.681c-3.173.976-6.352-.488-7.817-1.464-.777-.517-12.95-9.108-24.311-17.117l4.226-9.737a1645.424 1645.424 0 0110.066 4.645l2.137-1.899a.253.253 0 01.147-.065l.359-.041a5.102 5.102 0 013.455.976c.177.118.353.1.501-.194.488-.976 3.661-20.498 5.374-24.65 1.713-4.151 7.063-13.418 16.364-8.049" fill="#009688"/><path d="M433.726 280.093s-11.973 32.705-15.145 33.681c-3.173.976-6.352-.488-7.817-1.464-.777-.517-12.95-9.108-24.311-17.117l4.226-9.737a1645.424 1645.424 0 0110.066 4.645l2.137-1.899a.253.253 0 01.147-.065l.359-.041a5.102 5.102 0 013.455.976c.177.118.353.1.501-.194.488-.976 3.661-20.498 5.374-24.65 1.713-4.151 7.063-13.418 16.364-8.049M407.308 289.672a51.398 51.398 0 006.134 6.297M408.709 291.247s4.027 1.4 7.358 2.276" stroke="#263238" stroke-miterlimit="10"/><path d="M462.776 316.456l6.739-59.037a5.409 5.409 0 013.994-4.618 5.414 5.414 0 016.755 5.906l-7.346 57.843-10.142-.094zM422.212 125.171l1.198 5.993s-8.094 2.395-13.636 3.744c-5.542 1.348-4.896.88-8.176 5.156-1.035 2.975-2.228 9.033-2.228 9.033l-3.858 26.865-.458 1.947 12.594 2.098 2.245-7.492s1.372 2.4 1.372 4.046c0 1.645-1.496 17.279-1.496 17.279h46.738l5.245-32.712s2.414-16.277 2.711-18.823c.298-2.547-3.626-9.491-5.875-11.443-2.25-1.952-16.17.151-16.618 0-.448-.151-1.65-.599-1.65-.599l-.458-4.342a18.144 18.144 0 01-7.494 1.796c-4.047 0-10.06-4.045-10.06-4.045l-.096 1.499z" fill="#263238" stroke="#263238" stroke-miterlimit="10"/><path d="M423.542 173.093s8.432 3.552 14.203 4.292M409.188 153.053s-2.697 11.236-2.249 14.682a9.069 9.069 0 002.396 5.244" stroke="#263238" stroke-miterlimit="10"/><path d="M407.209 184.087s1.371-1.902-.526-4.325c-1.898-2.423-6.859-3.479-9.178-3.163-2.318.315-3.9 1.897-5.903 3.794-2.003 1.897-4.01 3.479-4.01 3.479s-3.165-2.743-4.431-3.164c-1.267-.42-5.693 3.799-6.859 4.96-1.166 1.161-2.323 1.372.315 3.054 2.639 1.682 3.375 1.476 5.908 1.586 2.533.11 9.388-.53 10.545-1.161s4.856-.425 7.595-1.371c4.522-1.564 4.522-1.687 6.544-3.689zM372.771 184.32s-2.917.489-3.767 1.083c-.851.594-2.552 2.185-1.83 3.035.723.851 2.804-1.079 3.169-1.079.366 0 4.253.851 4.253.851s-.366-3.264-1.825-3.89z" fill="#fff" stroke="#263238" stroke-miterlimit="10"/><path d="M376.054 180.919s-3.767.731-4.115 1.828c-.348 1.097.123 6.683.489 7.41.366.727 1.459.731 1.944-.119.484-.85.484-4.374.85-5.225.366-.85.832-3.894.832-3.894z" fill="#fff" stroke="#263238" stroke-miterlimit="10"/><path d="M380.55 180.434s-2.913-1.092-4.253-.608c-1.34.485-2.204 8.868-1.459 9.357a1.595 1.595 0 001.389.068 1.615 1.615 0 00.921-1.041c.366-1.093 1.093-3.767 1.093-3.767l1.829-1.458" fill="#fff"/><path d="M380.55 180.434s-2.913-1.092-4.253-.608c-1.34.485-2.204 8.868-1.459 9.357a1.595 1.595 0 001.389.068 1.615 1.615 0 00.921-1.041c.366-1.093 1.093-3.767 1.093-3.767l1.829-1.458" stroke="#263238" stroke-miterlimit="10"/><path d="M384.016 179.387s3.859 3.872 4.943 4.494c1.05.597 2.24.901 3.448.882 1.431-.055 2.661-1.234 4.088-.489a1.366 1.366 0 01.782.937c.1.59-.362 1.125-.833 1.499a7.764 7.764 0 01-6.946 1.344 1.112 1.112 0 00-.457-.073c-.155.04-.299.115-.42.22a9.157 9.157 0 01-2.401 1.476c-1.71.585-3.892.069-3.892.069" fill="#fff"/><path d="M384.016 179.387s3.859 3.872 4.943 4.494c1.05.597 2.24.901 3.448.882 1.431-.055 2.661-1.234 4.088-.489a1.366 1.366 0 01.782.937c.1.59-.362 1.125-.833 1.499a7.764 7.764 0 01-6.946 1.344 1.112 1.112 0 00-.457-.073c-.155.04-.299.115-.42.22a9.157 9.157 0 01-2.401 1.476c-1.71.585-3.892.069-3.892.069M382.324 184.233s1.047 1.047 2.442-.457" stroke="#263238" stroke-miterlimit="10"/><path d="M382.74 181.892s-1.093 4.736-1.582 5.586c-.49.851-1.702 1.216-2.429.366-.727-.85.97-7.286 1.093-8.26a1.105 1.105 0 011.093-.974s1.829-.242 2.552.124c.722.365 1.948 2.793 1.948 2.793" fill="#fff"/><path d="M382.74 181.892s-1.093 4.736-1.582 5.586c-.49.851-1.702 1.216-2.429.366-.727-.85.97-7.286 1.093-8.26a1.105 1.105 0 011.093-.974s1.829-.242 2.552.124c.722.365 1.948 2.793 1.948 2.793" stroke="#263238" stroke-miterlimit="10"/><path d="M442.174 130.547a53.306 53.306 0 01-1.65-.598l-.458-4.343a18.144 18.144 0 01-7.494 1.796c-4.047 0-10.06-4.045-10.06-4.045l-.101 1.499 1.198 5.993s-2.995 1.134-6.795 2.185c1.769 3.945 6.347 13.302 12.493 15.195 6.04 1.856 14.866-11.218 18.538-17.197-3.178-.27-5.524-.434-5.671-.485z" fill="#fff" stroke="#263238" stroke-miterlimit="10"/><path d="M440.523 129.949l.517 3.62M442.394 137.148s-7.275 1.97-8.51 2.341c-1.234.37-2.346.864-2.592 1.481M421.671 138.383l5.77 2.596" stroke="#263238" stroke-miterlimit="10"/><path d="M443.944 108.884s.878-1.997 1.751-.374c.873 1.622 1.495 3.62.375 5.485a9.658 9.658 0 01-2.126 2.624l-.997-8.114.997.379z" fill="#fff" stroke="#263238" stroke-miterlimit="10"/><path d="M414.981 113.501a7.46 7.46 0 00.114 5.243c1.125 2.871 4.371 2.62 4.371 2.62s2.996 4.745 5.245 6.857c2.25 2.111 8.739 5.618 11.359 4.74 2.62-.878 6.37-6.24 7.495-10.857 1.124-4.617.123-11.359.123-11.359s.498-4.114-.873-7.488c-1.372-3.373-3.114-4.736-6.228-4.36-3.114.374-11.117 1.499-15.484 4.493-4.367 2.994-5.368 5.243-5.368 6.614 0 1.372-.754 3.497-.754 3.497z" fill="#fff" stroke="#263238" stroke-miterlimit="10"/><path d="M439.33 102.768s1.248 2.743 2.373 3.493l1.125.749s.622 2.743.873 3.744c.252 1.001 1.116.626 1.244-.64.128-1.266.124-2.871.124-2.871a8.225 8.225 0 002.624-3.743c.874-2.496 1.747-5.993-1.001-8.864-2.748-2.87-5.743-3.497-7.115-3.122-1.372.375-1.377 7.63-.247 11.254z" fill="#263238" stroke="#263238" stroke-miterlimit="10"/><path d="M414.98 113.501a1.373 1.373 0 011.87.252c.878.996.503 2.368 1.002 2.87.498.503 1.623.874 1.747-.626.123-1.499-.874-3.867-.389-4.969.485-1.101 2.122-2.372 3.622-1.499 1.499.873 4.115 2.871 5.994.498 1.88-2.372 1.747-6.112 3.119-6.24 1.372-.128 1.125 1.248 4.371.874 3.247-.375 4.619-1.12 4.87-7.986.252-6.866-3.228-12.754-7.851-14.253-4.623-1.5-17.23 1-21.853 7.487-4.623 6.487-4.367 13.106-2.497 15.73 1.871 2.624 6.37 7.218 5.995 7.862z" fill="#263238" stroke="#263238" stroke-miterlimit="10"/><path d="M436.23 92.524s-4.87-1.413-6.914.942c-2.044 2.354-2.2 7.542-4.573 8.328-2.373.787-4.083-1.572-5.812 0-1.728 1.573-.457 4.242-2.83 5.184-2.373.942-5.341-1.412-5.341-1.412" stroke="#737373" stroke-miterlimit="10"/><path d="M421.954 96.921a5.518 5.518 0 00-4.573 1.102c-2.044 1.728-.155 4.242-2.986 4.713-2.83.471-4.879-1.572-4.879-1.572" stroke="#737373" stroke-miterlimit="10"/><path d="M435.082 116.514l.375 3.122s2.373 2.871-.251 3.492c-2.625.622-2.497-.996-2.497-.996M430.212 124.861s2.995 1.746 5.245 1.371 3.621-2.994 3.621-2.994" stroke="#263238" stroke-miterlimit="10"/><path d="M429.087 117.181c0 .864-.457 1.563-.997 1.563-.539 0-1.001-.699-1.001-1.563s.457-1.559 1.001-1.559c.544 0 .997.7.997 1.559zM439.202 115.311c0 .86-.457 1.559-1.002 1.559-.544 0-.996-.699-.996-1.559 0-.859.457-1.558.996-1.558.54 0 1.002.694 1.002 1.558z" fill="#263238"/><path d="M423.719 114.123s2.744-2.121 6.118-1.495M435.955 111.485a4.454 4.454 0 014.495-.996M430.93 114.114l-7.079 1.33a1.174 1.174 0 00-.937 1.371l.503 2.473a1.293 1.293 0 001.545 1.011l6.594-1.385a1.304 1.304 0 001.02-1.408l-.256-2.364a1.174 1.174 0 00-.471-.817 1.159 1.159 0 00-.438-.201 1.164 1.164 0 00-.481-.01zM436.294 113.003l7.284-1.243a1 1 0 011.142.537.99.99 0 01.097.441v2.491a1.544 1.544 0 01-1.312 1.49l-6.813.992a1.098 1.098 0 01-1.308-.955l-.252-2.286a1.403 1.403 0 011.162-1.467v0zM432.617 115.664a2.285 2.285 0 012.598-.43M423.102 117.807l-5.794-2.93" stroke="#263238" stroke-miterlimit="10"/><path d="M451.901 150.205l-1.303 24.465s.915.457 5.099 3.145 10.641 2.999 11.541 1.952c.901-1.047-2.775-38.472-2.775-38.472" fill="#263238"/><path d="M451.901 150.205l-1.303 24.465s.915.457 5.099 3.145 10.641 2.999 11.541 1.952c.901-1.047-2.775-38.472-2.775-38.472" stroke="#263238" stroke-miterlimit="10"/><path d="M394.766 184.822s-.425.421-2.007.631c-1.582.211-3.69-.525-4.216 1.056-.526 1.582 1.897 2.533 3.269 2.322a27.84 27.84 0 003.901-1.142s2.954.105 4.326.63c1.371.526 2.423 1.372 4.536.846 2.112-.526 3.951-.169 4.614-1.033.663-.864 2.451-1.828-2.822-3.2a20.53 20.53 0 00-9.388-.315l-2.213.205z" fill="#fff" stroke="#263238" stroke-miterlimit="10"/><path d="M399.088 180.708s-1.898-.631-2.954.105c-1.057.736-2.529 6.222-2.95 7.79-.42 1.568-.425 3.273.316 3.588.741.316 1.582-.315 2.108-1.687.526-1.371 3.48-7.382 3.8-8.123.32-.74.946-1.883-.32-1.673z" fill="#fff" stroke="#263238" stroke-miterlimit="10"/><path d="M403.816 181.07s-3.754-.677-4.705-.362c-.952.316-3.293 5.906-3.398 6.981-.105 1.074-1.267 4.534.105 4.85 1.372.315 2.218-.951 2.849-2.213.631-1.261 1.898-5.275 2.638-6.221a6.692 6.692 0 012.003-1.582s1.601-.777.508-1.453z" fill="#fff" stroke="#263238" stroke-miterlimit="10"/><path d="M466.553 180.914s3.681-1.147-2.012-4.448c-5.693-3.3-11.541-3.744-13.489-2.994-1.948.75-31.094 10.148-31.094 10.148s-14.089-2.249-16.188-2.55c-2.099-.302-3.15 1.951-4.047 3.748-.896 1.796-2.098 6.742-1.801 7.341.297.599 1.801.151 2.099-.599.297-.749 1.198-3.295 1.499-3.748.302-.452 2.547-1.796 2.547-1.796l3.599.598s-2.378 3.164-4.275 4.325c-1.898 1.161-1.162 2.423-.211 2.423.952 0 3.796-1.687 4.852-2.528 1.056-.841 2.954-2.003 2.954-2.003a7.073 7.073 0 002.849.631 35.977 35.977 0 006.328-.951c1.157-.315 26.778-1.691 30.18-2.427 3.402-.736 11.889-2.002 16.21-5.17z" fill="#fff" stroke="#263238" stroke-miterlimit="10"/><path d="M406.996 192.66h-73.139V194h73.139v-1.34z" fill="#009688" stroke="#263238" stroke-miterlimit="10"/><path d="M407 192.66h-26.018V194H407v-1.34zM381.944 192.66h-47.247l-5.841-32.868a1.532 1.532 0 01.332-1.246 1.52 1.52 0 011.168-.546h44.157a1.52 1.52 0 011.5 1.257l5.931 33.403z" fill="#263238" stroke="#263238" stroke-miterlimit="10"/><path d="M381.104 192.66h-47.246l-5.834-32.868a1.536 1.536 0 01.331-1.248 1.517 1.517 0 011.169-.544h44.149a1.517 1.517 0 011.5 1.258l5.931 33.402z" fill="#009688" stroke="#263238" stroke-miterlimit="10"/><path d="M543.089 271.411l-4.633 10.675a2.35 2.35 0 00-.168 1.911 2.36 2.36 0 001.319 1.399l2.832 1.234c2.636.352 5.164-1.959 5.813-2.801l5.744-6.983-10.907-5.435z" fill="#fff" stroke="#3B3A3B" stroke-linecap="round" stroke-linejoin="round"/><path d="M576.067 240.288l-19.858 7.933v57.868h42.903v-56.82l-18.737-9.402-4.308.421z" fill="#009688" stroke="#3B3A3B" stroke-linecap="round" stroke-linejoin="round"/><path d="M573.855 236.469v6.689l5.37 9.93 4.987-9.548v-6.875l-10.357-.196zM569.252 225.393s-1.161-4.789-2.302-2.478c-1.141 2.312 2.302 7.061 2.302 7.061v-4.583zM588.815 225.207s2.685-3.251 3.068-1.146c.384 2.106-2.685 5.876-2.685 5.876l-.383-4.73z" fill="#fff" stroke="#3B3A3B" stroke-linecap="round" stroke-linejoin="round"/><path d="M579.224 239.906a9.997 9.997 0 01-7.052-2.908 9.91 9.91 0 01-2.921-7.022v-19.86h19.947v19.86a9.91 9.91 0 01-2.921 7.022 9.997 9.997 0 01-7.053 2.908z" fill="#fff" stroke="#3B3A3B" stroke-linecap="round" stroke-linejoin="round"/><path d="M572.861 225.775s1.514 1.812 4.141 0h-4.141z" fill="#fff"/><path d="M572.861 225.775s1.514 1.812 4.141 0" stroke="#3B3A3B" stroke-linecap="round" stroke-linejoin="round"/><path d="M581.153 225.775s1.514 1.812 4.15 0h-4.15z" fill="#fff"/><path d="M581.153 225.775s1.514 1.812 4.15 0M572.605 222.778s1.515-2.771 4.8-.675M580.356 222.191s.501-1.176 2.783-1.176a2.605 2.605 0 011.651.459c.483.334.837.822 1.005 1.383M577.405 231.161l1.603.921 1.426-.833M575.212 232.503a3.145 3.145 0 001.967 1.097" stroke="#3B3A3B" stroke-linecap="round" stroke-linejoin="round"/><path d="M588.431 216.804l.383 8.403s.187 1.146.571-1.146c.384-2.291 2.311-8.598 1.918-10.508-.394-1.91-3.069-1.959-4.22-1.332-1.15.627 1.348 4.583 1.348 4.583z" fill="#3B3A3B" stroke="#3B3A3B" stroke-linecap="round" stroke-linejoin="round"/><path d="M569.252 222.915s-1.151-8.814-1.731-13.367c-.581-4.554 5.566-4.966 5.566-4.966s4.22-3.447 12.275-4.397c8.056-.95 11.892 1.959 11.695 4.016-.197 2.056-4.79 3.623-4.79 3.623s5.557.578 2.301 3.633c-3.255 3.056-6.334 2.86-6.334 2.86s2.882 1.342 1.151 2.292c-1.731.949-13.996-2.674-13.996-2.674s.384 2.292-1.347 2.869c-1.732.578-2.302.382-2.489 1.332-.187.95-.197 6.689-1.151 7.257-.954.568-1.15-2.478-1.15-2.478z" fill="#3B3A3B" stroke="#3B3A3B" stroke-linecap="round" stroke-linejoin="round"/><path d="M556.102 248.466l-15.403 25.07 13.849 5.641 1.554-7.942v-22.769z" fill="#009688" stroke="#3B3A3B" stroke-linecap="round" stroke-linejoin="round"/><path d="M614.967 272.244l4.161 7.452c.161.289.26.609.289.938a2.355 2.355 0 01-1.44 2.372l-5.901 2.458a2.368 2.368 0 01-2.803-.773l-5.203-7.012 10.897-5.435z" fill="#fff" stroke="#3B3A3B" stroke-linecap="round" stroke-linejoin="round"/><path d="M599.112 249.269l17.527 23.396-13.632 6.267-3.895-6.639v-23.024z" fill="#009688" stroke="#3B3A3B" stroke-linecap="round" stroke-linejoin="round"/><path d="M538.082 282.174c.541-1.704 1.23-2.938 7.279-5.533 6.048-2.595 14.989-5.269 17.546-7.952.433-.872 8.272-8.932 8.272-8.932s2.784-.47 3.295-.636a12.504 12.504 0 013.865.323c.718.255.787.656.492.832-.789.201-1.591.348-2.4.441l-.246.127a15.65 15.65 0 012.725 2.85c.088.274.305.304-.246.49-.551.186-2.302-1.058-2.302-1.058h-1.613l2.046 1.244s1.967 1.89 1.289 2.311c-.679.421-.886.402-.984 0-.098-.401-1.446-1.253-1.446-1.253l-2.754-.294a25.883 25.883 0 012.518 1.694c.392.43.75.888 1.072 1.371 0 0-.246.793-1.131.274s-2.331-1.449-2.331-1.449l-1.19-.216a48.32 48.32 0 01-3.934 3.918 6.14 6.14 0 01-2.026.705v.078a58.59 58.59 0 01-11.016 10.587c-6.256 4.426-10.819 6.267-12.914 5.876-2.095-.392-4.417-4.094-3.866-5.798z" fill="#fff" stroke="#3B3A3B" stroke-linecap="round" stroke-linejoin="round"/><path d="M574.769 263.107l-3.403-.588M572.901 265.153l-2.203-.284M576.215 260.825l-3.767-.088" stroke="#3B3A3B" stroke-width=".75" stroke-linecap="round" stroke-linejoin="round"/><path d="M553.642 301.888h48.086v.411a17.1 17.1 0 01-5.041 12.118 17.25 17.25 0 01-12.171 5.02h-13.662a17.25 17.25 0 01-12.171-5.02 17.1 17.1 0 01-5.041-12.118v-.411z" fill="#3B3A3B" stroke="#3B3A3B" stroke-linecap="round" stroke-linejoin="round"/><path d="M587.349 361.371s2.243 6.963 5.036 9.745c2.793 2.781 7.554 3.349 7.278-1.665-.275-5.014-6.717-10.861-6.717-10.861s-5.597.274-5.597 2.781z" fill="#fff" stroke="#3B3A3B" stroke-linecap="round" stroke-linejoin="round"/><path d="M592.946 358.59s-16.219-31.475-20.704-40.671c-4.485-9.196-9.226-18.94-13.701-20.566-4.475-1.625-11.468 3.056-10.347 11.135 1.121 8.08 11.744 22.005 16.779 28.4 5.036 6.395 22.376 24.483 22.376 24.483s3.364 1.117 5.597-2.781z" fill="#3B3A3B" stroke="#3B3A3B" stroke-linecap="round" stroke-linejoin="round"/><path d="M564.953 361.371s-2.242 6.963-5.036 9.745c-2.793 2.781-7.553 3.349-7.278-1.665.275-5.014 6.718-10.861 6.718-10.861s5.596.274 5.596 2.781z" fill="#fff" stroke="#3B3A3B" stroke-linecap="round" stroke-linejoin="round"/><path d="M559.357 358.59s16.219-31.475 20.655-40.671c4.436-9.196 9.235-18.94 13.711-20.566 4.475-1.625 11.468 3.056 10.347 11.135-1.122 8.08-11.744 22.005-16.78 28.4-5.036 6.395-22.376 24.483-22.376 24.483s-3.324 1.117-5.557-2.781z" fill="#3B3A3B" stroke="#3B3A3B" stroke-linecap="round" stroke-linejoin="round"/><path d="M603.853 309.722c-.521-.832-1.632-1.391-3.609-1.782-2.548-.509-8.548-.402-15.157 0-1.702 3.104-3.384 6.561-5.036 9.94-4.475 9.196-20.655 40.671-20.655 40.671 2.233 3.917 5.597 2.781 5.597 2.781s17.34-18.107 22.376-24.483c4.741-6.072 14.556-18.93 16.484-27.127z" stroke="#3B3A3B" stroke-linecap="round" stroke-linejoin="round"/><path d="M574.779 261.804h7.298c.563 0 1.104.223 1.502.62.398.396.622.934.622 1.495v16.913c0 .496-.198.972-.55 1.323-.352.351-.83.548-1.328.548h-7.79c-.498 0-.976-.197-1.329-.548a1.869 1.869 0 01-.55-1.323V263.91c.003-.56.228-1.095.626-1.49a2.131 2.131 0 011.499-.616z" fill="#3B3A3B"/><path d="M620.554 281.439c-1.062-1.439-2.095-2.35-8.665-2.938-6.57-.587-15.894-.244-19.179-1.958-.689-.686-10.692-5.876-10.692-5.876s-2.803.441-3.334.441c-1.26.323-2.462.842-3.56 1.537-.6.46-.531.862-.197.931a17.33 17.33 0 002.41-.333h.275a15.44 15.44 0 00-1.672 3.535c0 .294-.187.392.393.392.581 0 1.84-1.734 1.84-1.734l1.544-.489-1.544 1.831s-1.259 2.409-.492 2.605c.767.196.983.088.983-.294a6.144 6.144 0 01.984-1.635l2.518-1.156a24.247 24.247 0 00-1.839 2.409 10.895 10.895 0 00-.581 1.636s.482.675 1.161-.098a70.77 70.77 0 001.741-2.116l1.062-.577a46.806 46.806 0 005.026 2.497c.709.13 1.436.13 2.144 0v.068a59.172 59.172 0 0013.829 6.542c7.347 2.213 12.285 2.507 14.114 1.45 1.83-1.058 2.803-5.22 1.731-6.67z" fill="#fff" stroke="#3B3A3B" stroke-linecap="round" stroke-linejoin="round"/><path d="M579.687 274.996l3.039-1.626M582.107 276.347l1.996-.97M577.583 273.292l3.54-1.274" stroke="#3B3A3B" stroke-width=".75" stroke-linecap="round" stroke-linejoin="round"/><path d="M571.041 315.5l-10.111.979 12.462 18.147-2.951 8.618c2.626 2.938 5.656 6.209 8.42 9.167l2.793-1.959s4.052 5.66 8.134 10.772a5.517 5.517 0 003.098-2.712s-16.219-31.476-20.704-40.671a49.29 49.29 0 00-1.141-2.341z" stroke="#3B3A3B" stroke-linecap="round" stroke-linejoin="round"/><defs><clipPath id="clip0"><path fill="#fff" transform="translate(428.35 342)" d="M0 0h10.651v10.651H0z"/></clipPath></defs></svg>