<svg width="1347" height="557" fill="none" xmlns="http://www.w3.org/2000/svg"><path d="M1274 160.701c4.6 4.786 7.41 4.663 9.18 2.76 1.77-1.902 1.84-4.871-2.75-9.656-8.38-8.713-15.64-9.477-15.64-9.477s.72 7.533 9.21 16.373zM1264.07 203.622c2.88 6.1 5.58 6.941 7.84 5.749 2.26-1.192 3.23-3.981.35-10.077-5.26-11.11-11.89-14.315-11.89-14.315s-1.63 7.374 3.7 18.643zM1240 315.796l1.21.204c.03-.196 3.15-19.95 16.06-46.665 11.91-24.654 34.83-60.446 76.36-90.962l-.69-1.062c-41.77 30.688-64.81 66.688-76.78 91.489-12.99 26.887-16.13 46.8-16.16 46.996z" fill="#009688"/><path d="M1289.45 218.227l1.15-.408c-14.07-44.444 10.97-87.197 11.23-87.622l-1.03-.69c-.26.433-25.61 43.684-11.35 88.72zM1312.1 202.667c12.03 3.201 22.63-.743 22.75-.792l-.41-1.225c-.13.049-13.72 5.087-27.35-1.152l-.49 1.185c1.78.817 3.62 1.48 5.5 1.984zM1248.71 288.133c25.02 3.548 47.71-3.74 67.45-21.664.48-.461.98-.893 1.51-1.295a.733.733 0 01-.14.033l-.09-1.286c-.36.028-.64.273-2.07 1.572-19.47 17.671-41.84 24.857-66.49 21.358l-.17 1.282z" fill="#009688"/><path d="M1286.31 283.809l1.22-.024c-.29-17.512 15.79-38.871 15.95-39.083l-.95-.817a107.42 107.42 0 00-8.19 13.111c-3.76 7.031-8.19 17.39-8.03 26.813zM1336.09 171.599c-7.69 4.308-9.01 7.501-7.83 9.865 1.18 2.364 4.43 2.993 12.11-1.311 14.01-7.844 18.63-15.924 18.63-15.924s-8.71-.588-22.91 7.37zM1332.65 196.983c-8.56 1.658-10.73 4.279-10.28 6.909.46 2.629 3.37 4.267 11.93 2.613 15.59-3.017 22.3-9.232 22.3-9.232s-8.13-3.348-23.95-.29z" fill="#009688"/><path d="M1300.93 239.692c-4.25 5.116-4 8.068-2.11 9.836 1.9 1.768 4.7 1.678 8.97-3.438 7.77-9.317 8.1-17.018 8.1-17.018s-7.08 1.155-14.96 10.62zM1304.76 179.508c-2.96 6.059-2.02 8.856.23 10.081 2.24 1.225 4.95.408 7.91-5.639 5.41-11.024 3.93-18.59 3.93-18.59s-6.61 2.952-12.07 14.148zM1272.23 273.01c-1.23 6.696.41 9.097 2.9 9.607 2.48.51 4.86-1.066 6.09-7.758 2.24-12.192-1.16-19.006-1.16-19.006s-5.56 4.785-7.83 17.157zM1311.08 263.929c-5.2 4.03-5.54 6.978-4.04 9.134 1.49 2.156 4.25 2.703 9.46-1.331 9.47-7.35 11.35-14.793 11.35-14.793s-7.15-.462-16.77 6.99zM1299.51 123.774c-4.03 8.166-3.42 11.576-1.16 12.813 2.25 1.237 5.25-.18 9.27-8.33 7.34-14.841 6.84-24.257 6.84-24.257s-7.5 4.712-14.95 19.774zM470.003 56.701c4.6 4.786 7.404 4.663 9.177 2.76 1.773-1.902 1.843-4.87-2.754-9.656-8.374-8.713-15.632-9.477-15.632-9.477s.715 7.533 9.209 16.373zM460.068 99.622c2.885 6.1 5.578 6.941 7.841 5.749 2.264-1.192 3.233-3.981.348-10.077-5.257-11.11-11.89-14.315-11.89-14.315s-1.63 7.374 3.701 18.643zM436 211.796l1.205.204c.031-.196 3.156-19.95 16.061-46.665 11.912-24.654 34.829-60.446 76.368-90.962l-.695-1.062c-41.771 30.688-64.811 66.688-76.782 91.489-12.986 26.887-16.126 46.8-16.157 46.996z" fill="#009688"/><path d="M485.446 114.227l1.159-.408c-14.072-44.444 10.969-87.198 11.224-87.622l-1.031-.69c-.259.433-25.609 43.684-11.352 88.72zM508.104 98.667c12.028 3.201 22.631-.743 22.751-.792l-.414-1.225c-.135.049-13.72 5.087-27.351-1.152l-.487 1.184c1.78.818 3.62 1.481 5.501 1.985zM444.714 184.133c25.014 3.548 47.707-3.74 67.449-21.664.478-.461.979-.893 1.503-1.295a.563.563 0 01-.139.033l-.089-1.286c-.359.028-.641.273-2.07 1.572-19.464 17.671-41.837 24.857-66.492 21.358l-.162 1.282z" fill="#009688"/><path d="M482.309 179.809l1.22-.024c-.293-17.512 15.791-38.871 15.953-39.083l-.95-.817a107.715 107.715 0 00-8.197 13.111c-3.758 7.031-8.184 17.39-8.026 26.813zM532.087 67.599c-7.687 4.308-9.012 7.5-7.83 9.865 1.182 2.364 4.431 2.993 12.117-1.311C550.376 68.309 555 60.229 555 60.229s-8.706-.588-22.913 7.37zM528.653 92.983c-8.559 1.658-10.734 4.28-10.278 6.909.455 2.629 3.368 4.267 11.928 2.613 15.585-3.017 22.295-9.232 22.295-9.232s-8.131-3.348-23.945-.29z" fill="#009688"/><path d="M496.925 135.692c-4.249 5.116-3.998 8.068-2.101 9.836 1.896 1.768 4.701 1.678 8.969-3.438 7.768-9.317 8.092-17.018 8.092-17.018s-7.076 1.155-14.96 10.62zM500.765 75.508c-2.963 6.059-2.02 8.856.224 10.08 2.244 1.226 4.948.41 7.911-5.638 5.407-11.024 3.932-18.59 3.932-18.59s-6.609 2.952-12.067 14.148zM468.23 169.01c-1.232 6.696.413 9.097 2.897 9.607 2.483.51 4.859-1.066 6.091-7.758 2.24-12.192-1.159-19.006-1.159-19.006s-5.558 4.785-7.829 17.157zM507.08 159.929c-5.199 4.03-5.535 6.978-4.04 9.134 1.495 2.156 4.249 2.703 9.455-1.331 9.476-7.35 11.353-14.793 11.353-14.793s-7.15-.462-16.768 6.99zM495.508 19.774c-4.029 8.166-3.415 11.576-1.159 12.813 2.256 1.237 5.253-.18 9.27-8.33C510.958 9.416 510.456 0 510.456 0s-7.497 4.712-14.948 19.774zM90.07 77.827c-4.875 4.796-7.847 4.674-9.725 2.767-1.88-1.907-1.953-4.882 2.918-9.678 8.874-8.733 16.565-9.498 16.565-9.498s-.757 7.55-9.758 16.41zM100.598 120.844c-3.058 6.113-5.91 6.956-8.31 5.761-2.398-1.194-3.425-3.989-.368-10.099 5.57-11.135 12.599-14.347 12.599-14.347s1.727 7.39-3.921 18.685zM126.102 233.267l-1.277.204c-.033-.196-3.344-19.994-17.02-46.768-12.623-24.709-36.908-60.58-80.925-91.165l.736-1.064c44.264 30.757 68.68 66.837 81.364 91.692 13.761 26.947 17.089 46.904 17.122 47.101z" fill="#009688"/><path d="M73.705 135.481l-1.228-.409C87.39 90.529 60.853 47.681 60.583 47.255l1.093-.692c.274.434 27.137 43.782 12.03 88.918zM49.695 119.886c-12.746 3.209-23.982-.744-24.109-.794l.438-1.227c.144.049 14.54 5.099 28.984-1.154l.516 1.187a38.052 38.052 0 01-5.829 1.988zM116.868 205.543c-26.507 3.556-50.555-3.749-71.475-21.713a18.191 18.191 0 00-1.592-1.297.573.573 0 00.147.032l.094-1.289c.381.029.68.275 2.194 1.576 20.626 17.711 44.333 24.913 70.46 21.406l.172 1.285z" fill="#009688"/><path d="M77.03 201.209l-1.294-.024c.31-17.552-16.733-38.957-16.905-39.17l1.007-.819a107.168 107.168 0 018.686 13.14c3.982 7.047 8.673 17.428 8.505 26.873zM24.28 88.75c8.146 4.317 9.55 7.517 8.297 9.886-1.252 2.369-4.694 2.999-12.84-1.314C4.9 89.462 0 81.363 0 81.363s9.226-.59 24.28 7.386zM27.92 114.19c9.07 1.661 11.374 4.288 10.891 6.924-.483 2.635-3.57 4.276-12.64 2.619-16.516-3.024-23.625-9.253-23.625-9.253s8.616-3.355 25.373-.29z" fill="#009688"/><path d="M61.54 156.994c4.503 5.127 4.237 8.086 2.228 9.858-2.01 1.771-4.982 1.681-9.505-3.446-8.231-9.338-8.575-17.056-8.575-17.056s7.499 1.158 15.853 10.644zM57.472 96.676c3.14 6.072 2.14 8.876-.238 10.103-2.378 1.228-5.243.409-8.382-5.651-5.73-11.049-4.167-18.632-4.167-18.632s7.003 2.96 12.787 14.18zM91.949 190.386c1.305 6.711-.438 9.117-3.07 9.628-2.632.512-5.15-1.068-6.455-7.775-2.374-12.219 1.228-19.049 1.228-19.049s5.89 4.796 8.297 17.196zM50.78 181.285c5.51 4.038 5.865 6.993 4.281 9.154-1.584 2.16-4.502 2.709-10.02-1.334-10.04-7.366-12.03-14.826-12.03-14.826s7.577-.463 17.769 7.006zM63.043 40.818c4.269 8.184 3.618 11.601 1.228 12.841-2.39 1.24-5.567-.18-9.824-8.348C46.67 30.436 47.202 21 47.202 21s7.945 4.722 15.84 19.818z" fill="#009688"/><g opacity=".8"><path d="M525 145.867s-17.795-54.51-106-66c-88.205-11.489-96.014 3.598-161.012 32.345-33.994 15.068-72.81 9.217-108.896 16.506C33.708 152.024-9.766 298.032 38.3 381.071c41.61 71.91 80.689 65.667 192.2 74.296 111.511 8.629 171.142 9.955 271-60.5s70.128-146.921 23.5-249z" fill="#DEF7E5"/><path d="M525 145.867s-17.795-54.51-106-66c-88.205-11.489-96.014 3.598-161.012 32.345-33.994 15.068-72.81 9.217-108.896 16.506C33.708 152.024-9.766 298.032 38.3 381.071c41.61 71.91 80.689 65.667 192.2 74.296 111.511 8.629 171.142 9.955 271-60.5s70.128-146.921 23.5-249z" fill="#92E3A9"/></g><g opacity=".8" fill="#DEF7E5"><path d="M506 167.867s-17.795-54.511-106-66c-88.205-11.489-96.014 3.598-161.012 32.345-33.994 15.068-72.81 9.217-108.896 16.506C14.708 174.024-28.766 320.032 19.3 403.071c41.61 71.91 80.689 65.667 192.2 74.296 111.511 8.629 171.142 9.955 271-60.5s70.128-146.921 23.5-249z"/><path d="M506 167.867s-17.795-54.511-106-66c-88.205-11.489-96.014 3.598-161.012 32.345-33.994 15.068-72.81 9.217-108.896 16.506C14.708 174.024-28.766 320.032 19.3 403.071c41.61 71.91 80.689 65.667 192.2 74.296 111.511 8.629 171.142 9.955 271-60.5s70.128-146.921 23.5-249z"/></g><path d="M219.6 265.487a.516.516 0 01.395.146 3.365 3.365 0 011.665 1.977c.229.895-.146 2.081-1.478 3.226a1.176 1.176 0 01-.395.229s-.895 0-2.227.166c-.686 0-1.477.25-2.372.395-1.009.212-2.003.49-2.976.833l-.395.146-.395.124a32.29 32.29 0 00-3.455 1.603 37.278 37.278 0 00-11.674 10.655 68.671 68.671 0 00-8.115 14.88 110.03 110.03 0 00-5.245 16.962 154.949 154.949 0 00-3.683 36.898 124.166 124.166 0 006.077 37.939 49.544 49.544 0 009.197 16.649 22.668 22.668 0 007.221 5.515 49.348 49.348 0 009.156 3.309 107.961 107.961 0 0019.957 2.976c6.825.437 13.734.521 20.684.396 13.922-.229 27.968-1.29 42.222-1.873 3.559-.125 7.138-.229 10.738-.208 3.6.021 7.263.249 10.821.499 7.117.5 14.171 1.166 21.163 1.395h5.223c1.728 0 3.476 0 5.203-.125 1.727-.125 3.412-.271 5.119-.417a49.644 49.644 0 004.994-.853 29.751 29.751 0 009.135-3.309 23.104 23.104 0 003.913-2.726 18.54 18.54 0 003.1-3.413 21.532 21.532 0 003.413-8.678c.603-3.226.749-6.66 1.061-10.24a34.454 34.454 0 012.393-11.155 18.483 18.483 0 013.371-5.14 12.498 12.498 0 012.56-2.081 12.024 12.024 0 013.038-1.374 26.267 26.267 0 0111.632-.229 73.94 73.94 0 0110.405 2.643c3.371 1.041 6.68 2.29 9.822 3.33.375.125.77.25 1.124.333.28.088.565.157.853.208v1.041c-.021.43.035.86.167 1.269 0 .25.228.188 0 .167a3.931 3.931 0 00-1.103.395c-.52.375-1.582.729-1.228.333a6.142 6.142 0 01-.25-.645l-.208-.52a18.735 18.735 0 00-2.081-3.913 38.475 38.475 0 00-6.596-6.826c-2.498-2.081-5.182-4.016-7.929-5.91-5.493-3.767-11.237-7.305-16.647-11.446a54.323 54.323 0 01-7.741-7.014c-.292-.312-.562-.687-.853-1.02l-.458-.562a5.209 5.209 0 01-.458-.707 23.744 23.744 0 01-1.353-2.352 22.17 22.17 0 01-1.103-2.476l-.499-1.249-.396-1.29a40.37 40.37 0 01-1.602-10.281c-.125-3.392 0-6.681.188-9.886.333-6.368.728-12.486-.729-18.001a20.54 20.54 0 00-3.558-7.326 23.806 23.806 0 00-6.243-5.453 20.16 20.16 0 00-1.81-1.082 20.49 20.49 0 00-1.873-.999l-1.894-.895-1.956-.707c-1.29-.5-2.705-.833-4.162-1.228a49.235 49.235 0 00-4.162-.937 164.008 164.008 0 00-17.001-2.247c-11.299-.999-22.329-1.29-33.004-2.081-10.675-.791-20.809-1.79-30.319-2.373-4.786-.291-9.468-.541-14.005-.666-2.268 0-4.495 0-6.7-.125H238.245c-.874 0-2.081-.124-3.517-.145-2.83 0-6.409-.208-9.364-.208h-5.119c-.957 0-1.29-.354-1.082-.666a5.138 5.138 0 012.081-1.145c.52-.208 1.144-.437 1.831-.645.687-.208 1.415-.396 2.081-.583a9.833 9.833 0 012.081-.478c1.373-.209 3.288-.583 5.223-.791 1.935-.208 3.891-.479 5.348-.583l2.476-.229h10.114c8.552.208 17.625.749 27.156 1.498l14.566 1.208c4.974.457 10.01.77 15.233 1.061 10.405.583 21.392 1.04 32.754 2.539a83.225 83.225 0 0117.376 3.975 38.877 38.877 0 018.324 4.349 28.467 28.467 0 017.158 6.722 25.794 25.794 0 014.162 9.116 41.239 41.239 0 011.165 9.74c0 6.43-.686 12.611-.499 18.73a35.376 35.376 0 001.186 8.72 24.677 24.677 0 001.498 4.037c.292.652.625 1.285.999 1.894l.562.916s.354.437.562.707a70.754 70.754 0 0014.379 11.8c5.39 3.642 11.05 7.159 16.46 11.426a51.479 51.479 0 017.658 7.304 31.46 31.46 0 013.143 4.6 27.68 27.68 0 011.186 2.643s.145.374 0 .187c.093.147.176.3.249.458a3.072 3.072 0 01-.673 3.646 3.08 3.08 0 01-1.137.662 3.097 3.097 0 01-1.207.166 4.835 4.835 0 01-1.124-.124 26.081 26.081 0 01-2.788-.77l-2.435-.854-4.765-1.644a89.586 89.586 0 00-9.531-2.726 30.62 30.62 0 00-9.281-.833 9.51 9.51 0 00-3.808 1.103 8.7 8.7 0 00-.708.479l-.333.271-.353.374a10.973 10.973 0 00-1.332 1.624 18.852 18.852 0 00-2.83 8.491c-.437 3.225-.541 6.701-.937 10.28a34.065 34.065 0 01-2.83 10.926 24.635 24.635 0 01-3.163 4.995 25.641 25.641 0 01-4.162 4.017 26.559 26.559 0 01-2.372 1.602c-.832.5-1.644 1.041-2.497 1.457l-2.622 1.165c-.871.352-1.76.658-2.664.916a55.543 55.543 0 01-5.41 1.353c-.895.166-1.81.27-2.705.416-.895.146-1.811.271-2.726.333-7.134.562-14.301.562-21.434 0-7.034-.437-14.047-1.165-20.81-1.457-6.763-.291-13.755 0-20.809.312-13.921.687-27.864 1.644-41.806 1.686-6.971 0-13.942-.187-20.809-.853-3.476-.333-6.93-.833-10.405-1.457a71.446 71.446 0 01-10.259-2.664c-.853-.27-1.686-.603-2.518-.936-.832-.333-1.665-.666-2.476-1.062a26.415 26.415 0 01-4.828-2.809 33.487 33.487 0 01-7.575-7.867 64.734 64.734 0 01-8.74-18.834 136.74 136.74 0 01-5.16-39.271 157.26 157.26 0 014.536-37.648 106.15 106.15 0 015.889-17.44 69.275 69.275 0 019.281-15.588 40.417 40.417 0 0114.026-11.3c.707-.291 1.394-.624 2.08-.874h.562l.479-.167a36.827 36.827 0 013.559-.999c1.082-.187 2.08-.395 2.85-.457 1.624-.396 2.581-.396 2.685-.396z" fill="#263238"/><path d="M26.97 323.259a.583.583 0 01-.292.313 3.053 3.053 0 01-2.684.52c-.853-.312-1.478-1.394-1.977-2.872a1.41 1.41 0 010-.437 52.232 52.232 0 002.622-8.325c.25-.936.458-1.789.77-2.788.278-.947.626-1.873 1.04-2.768l1.124-2.706c.416-.874.874-1.706 1.31-2.58.438-.874.833-1.728 1.333-2.539l1.477-2.456.75-1.228.811-1.186 1.623-2.352c1.124-1.561 2.351-3.018 3.538-4.516a36.79 36.79 0 013.87-4.162c1.374-1.27 2.685-2.706 4.162-3.954l2.206-1.873 2.247-1.707 4.37-3.288.999-.812c.312-.249.562-.499.853-.749a4.85 4.85 0 00.957-1.374c.42-1.492.657-3.029.708-4.578l.416-5.557a86.639 86.639 0 0131.713-58.792 104.907 104.907 0 0118.916-12.487l2.518-1.311c.832-.437 1.706-.77 2.56-1.165 1.727-.77 3.412-1.582 5.202-2.248l2.643-1.061c.894-.354 1.81-.604 2.726-.916a69.43 69.43 0 012.726-.874l2.746-.707a94.849 94.849 0 0145.136 0 98.947 98.947 0 0140.432 19.978 78.4 78.4 0 0125.429 37.461c.146.458.312.895.416 1.373l.25.999v.354l.187.687.333 1.374c.239.911.427 1.835.562 2.767 0 0 .229 2.082.499 5.058a38.62 38.62 0 01-.624 9.823c-1.561 10.072-2.643 5.972-3.059-.292-.104.333-.125-3.434-.707-6.951 0-.437-.146-.874-.229-1.311-.084-.437-.208-.832-.312-1.228-.208-.916-.417-1.748-.583-2.476l-.562-2.29c-.125-.832-.354-1.665-.562-2.497l-.312-1.249v-.312l-.187-.749a9.348 9.348 0 00-.354-1.249l-.811-2.476a24.84 24.84 0 00-.895-2.456 75.042 75.042 0 00-25.471-32.715 95.344 95.344 0 00-38.289-17.024 88.899 88.899 0 00-41.618 1.436c-1.665.541-3.351 1.04-4.974 1.644-1.623.603-3.288 1.249-4.89 2.081-1.602.833-3.246 1.436-4.848 2.081L110.207 194a100.213 100.213 0 00-17.293 12.092 82.205 82.205 0 00-23.722 34.193 84.121 84.121 0 00-4.454 20.478l-.416 5.453a28.398 28.398 0 01-.374 2.976 10.721 10.721 0 01-1.25 3.454 11.878 11.878 0 01-2.309 2.664c-.79.708-1.54 1.29-2.289 1.852l-4.349 3.268a68.679 68.679 0 00-14.566 14.963c-.978 1.457-2.081 2.851-2.872 4.37l-1.353 2.227c-.437.77-.811 1.54-1.207 2.31-.395.77-.811 1.54-1.165 2.331l-.999 2.352-.5 1.186c-.145.396-.249.791-.374 1.186-.229.75-.458 1.665-.686 2.498a53.638 53.638 0 01-3.06 9.406z" fill="#263238"/><path d="M28.717 321.865a.386.386 0 01-.144.128.385.385 0 01-.19.039 3.85 3.85 0 01-2.538 0c-.853-.396-1.54-1.291-1.456-3.247.017-.165.059-.326.124-.479a54.696 54.696 0 016.992-6.722 71.846 71.846 0 0112.153-7.887c1.581-.791 3.184-1.582 4.807-2.269l1.373-.499c.874-.271 2.08-.687 3.517-1.082a73.282 73.282 0 019.468-2.081 24.917 24.917 0 015.202-.375c.978 0 1.29.291 1.082.603a18.288 18.288 0 01-5.66 2.81c.333 0-3.163 1.186-6.596 2.664-3.434 1.477-6.784 3.246-6.784 3.246-1.332.562-2.58 1.228-3.87 1.853a65.243 65.243 0 00-11.154 7.242 49.903 49.903 0 00-6.326 6.056z" fill="#263238"/><path d="M64.947 301.054a.462.462 0 010-.396c0-1.519.895-3.912 4.474-2.663.15.056.29.133.417.228l2.33 3.809c.79 1.269 1.769 2.393 2.622 3.6a86.266 86.266 0 0016.169 16.42c.75.604 1.457 1.27 2.268 1.811l2.373 1.665c1.602 1.082 3.142 2.268 4.827 3.226l4.974 2.976 5.181 2.643a115.906 115.906 0 0021.788 8.012c1.852.52 3.766.833 5.66 1.249.957.187 1.893.416 2.85.562l2.872.395 2.955.396c.869.127 1.744.204 2.622.228l4.828.687c.686.125 1.435.167 2.205.229l2.352.187 2.414.229 1.165.125h1.124c10.009.146 6.388 1.769 0 3.101a6.608 6.608 0 01-2.081.354l-5.285.458a27.37 27.37 0 01-2.893 0h-5.036c-.916 0-1.831-.187-2.726-.292l-3.85-.52c-2.081-.208-3.953-.687-5.91-1.082a56.63 56.63 0 01-5.847-1.374 114.778 114.778 0 01-22.391-8.324 110.578 110.578 0 01-20.247-12.841l-2.33-1.914a24.94 24.94 0 01-2.269-1.957l-4.37-4.162c-1.436-1.415-2.705-2.976-4.162-4.454-.645-.77-1.373-1.477-1.956-2.289l-1.83-2.435c-.916-1.29-1.957-2.497-2.81-3.85l-2.477-4.037zM237.373 333.332a.665.665 0 01.375.354 3.043 3.043 0 01.499 2.893c-.395.936-1.519 1.456-3.101 2.081-.13.021-.264.021-.395 0a7.863 7.863 0 00-6.826 0c-2.705 1.415-3.287 3.725-1.706 6.722 0 .125.167.312.229.416.081.081.151.172.208.271.165.189.346.363.541.52.421.331.901.579 1.415.728.305.143.627.248.957.312.944.205 1.916.24 2.872.105a11.219 11.219 0 003.912-1.187 8.19 8.19 0 003.038-2.705 6.408 6.408 0 00.542-4.495c-.188-.958-.125-1.395.291-1.312a3.89 3.89 0 011.789 1.915c.373.735.606 1.532.687 2.352a7.618 7.618 0 01-.374 2.997 6.54 6.54 0 01-1.249 2.435 13.43 13.43 0 01-5.098 4.162 14.571 14.571 0 01-6.68 1.436 12.727 12.727 0 01-2.456-.354l-.936-.291a10.283 10.283 0 01-2.851-1.79 9.514 9.514 0 01-1.145-1.27l-.52-.707-.353-.666a13.424 13.424 0 01-1.395-3.809 10.227 10.227 0 010-4.412 9.636 9.636 0 012.081-3.996 11.68 11.68 0 013.371-2.58 13.806 13.806 0 016.035-1.478 13.24 13.24 0 016.243 1.353zM273.559 334.768a.644.644 0 01.395.271 2.934 2.934 0 01.936 2.559c-.187.916-1.144 1.686-2.538 2.394-.111.064-.23.113-.354.145a6.5 6.5 0 00-6.076 1.332 6.095 6.095 0 00-1.748 2.31c-.186.43-.332.876-.437 1.332a6.629 6.629 0 000 1.436 5.522 5.522 0 002.622 4.579 5.183 5.183 0 003.288.52h1.04a9.81 9.81 0 002.643-.895 7.081 7.081 0 004.162-5.744 10.269 10.269 0 00-1.249-4.37c-.395-.874-.395-1.27 0-1.27a4.166 4.166 0 012.081 1.249 8.053 8.053 0 012.289 4.162 5.23 5.23 0 01.104 2.623 10.592 10.592 0 01-2.872 5.681 14.082 14.082 0 01-5.348 3.517l-1.186.354-.957.208a7.69 7.69 0 01-.853.125 10.395 10.395 0 01-5.764-1.249 9.944 9.944 0 01-3.975-3.954 11.147 11.147 0 01-1.54-5.203 11.84 11.84 0 01.146-2.705 12.193 12.193 0 014.037-6.909 12.177 12.177 0 0111.154-2.498zM310.578 335.393a.689.689 0 01.437.249 2.962 2.962 0 011.04 2.498c-.124.936-1.019 1.727-2.414 2.539a1.764 1.764 0 01-.353.125 4.988 4.988 0 00-2.893.104 3.927 3.927 0 00-1.935 1.748 6.117 6.117 0 00-.479 3.808 5.374 5.374 0 001.519 3.33 3.298 3.298 0 002.664.604c.329-.014.656-.056.978-.125a8.049 8.049 0 002.477-.999 7.39 7.39 0 002.517-2.498 5.073 5.073 0 00.666-3.475 12.148 12.148 0 00-2.081-4.162c-.52-.791-.582-1.187-.208-1.249.293.001.582.057.853.167.479.178.934.416 1.353.707a8.113 8.113 0 013.017 3.725c.424.801.639 1.696.625 2.602a8.836 8.836 0 01-.417 3.08 11.262 11.262 0 01-1.685 3.101 12.755 12.755 0 01-5.202 3.933c-.711.297-1.45.52-2.206.666a5.35 5.35 0 01-.895 0 8.657 8.657 0 01-6.056-1.915 10.905 10.905 0 01-3.433-6.722 11.569 11.569 0 011.082-7.325 9.318 9.318 0 014.807-4.287c2-.719 4.174-.799 6.222-.229zM134.618 242.137l.166.145c.335.678.479 1.433.417 2.186a14.835 14.835 0 01-.729 3.35.588.588 0 010 .229H133.661c.52.437.478.354.728.396.25.041.291 0 .437 0 .185-.064.366-.14.541-.229.367-.191.687-.461.937-.791h.208c.117.018.236.018.353 0a1.067 1.067 0 00.687-1.145 9.8 9.8 0 00-.499-1.394 1.118 1.118 0 010-.958 1.454 1.454 0 011.019-.395c.269-.049.544-.049.812 0 .348.142.688.302 1.019.479h.25l.583.603c.303.308.537.677.687 1.082.221.464.355.965.395 1.478a6.125 6.125 0 010 1.623c-.121.459-.267.91-.437 1.353-.312.645-.583 1.082-.583 1.082a8.862 8.862 0 01-2.934 2.29 7.72 7.72 0 01-4.037.811 5.66 5.66 0 01-1.269-.25 4.935 4.935 0 01-1.249-.52l-.582-.333a5.196 5.196 0 01-.458-.333 6.727 6.727 0 01-.895-.791 6.008 6.008 0 01-1.831-5.202 5.777 5.777 0 012.892-3.913 7.745 7.745 0 013.101-.978c.363.014.725.055 1.082.125zM167.014 243.427v.167a4.15 4.15 0 010 2.206 13.356 13.356 0 01-1.477 3.121l-.146.208a4.167 4.167 0 00-1.477-.166.91.91 0 00-.437.146v.229c0 .228 0 0 0 0a.387.387 0 000 .166.957.957 0 00.174.362.968.968 0 00.304.262c.339.244.732.401 1.145.458h.583a.493.493 0 00.395.208.696.696 0 00.52-.229c.209-.332.356-.698.437-1.082.091-.569.217-1.132.375-1.686a.98.98 0 01.707-.645c.562 0 1.436.458 2.081 1.561 0 0 .209.208.396.791a5.304 5.304 0 01-1.124 5.453 5.167 5.167 0 01-1.186.936 5.912 5.912 0 01-1.311.458 7.91 7.91 0 01-2.997 0 8.317 8.317 0 01-3.662-1.582 6.986 6.986 0 01-2.705-4.349 7.507 7.507 0 010-1.374c.014-.493.09-.983.229-1.457a6.51 6.51 0 011.29-2.414 6.23 6.23 0 012.081-1.581 6.734 6.734 0 012.081-.583 9.508 9.508 0 012.788 0c.325.108.639.247.936.416zM109.518 255.331a.651.651 0 01.125-.437 3.587 3.587 0 012.081-1.852 3.764 3.764 0 013.496 1.477c.105.121.196.254.271.396.194 2.93.899 5.803 2.081 8.491a27.426 27.426 0 007.553 9.656 36.322 36.322 0 0011.091 6.036 41.765 41.765 0 0025.221.666c.812-.209 1.581-.542 2.372-.812.79-.286 1.561-.62 2.31-.999 0 0 .479-.167 1.29-.52l1.374-.645.853-.417.874-.499a31.528 31.528 0 007.345-5.807c.833-.957 1.478-1.81 2.081-2.476.393-.571.816-1.12 1.269-1.644.708-.77 1.083-.895 1.249-.541a12.213 12.213 0 01-2.081 6.701 12.09 12.09 0 01-1.228 2.081c-.457.624-1.061 1.332-1.706 2.081-.645.749-1.477 1.519-2.247 2.31-.77.791-1.686 1.395-2.497 2.081-.812.687-1.665 1.124-2.373 1.603a16.92 16.92 0 01-1.748 1.02l-.686.374a25.24 25.24 0 01-2.352.958c-.786.323-1.592.594-2.414.811a47.374 47.374 0 01-28.841-.728 40.988 40.988 0 01-12.922-7.034 33.313 33.313 0 01-9.219-11.821 31.674 31.674 0 01-2.622-10.51zM199.48 280.805v-.167a9.237 9.237 0 011.123-5.432.752.752 0 01.146-.208l1.873.188c.499 0 1.29 0 2.081.124l2.434.146 6.638.271c1.268.402 2.489.939 3.642 1.602 2.56 1.353 1.498 2.622-.146 3.288a32.653 32.653 0 01-3.87.999h-2.081c-1.249 0-2.893 0-4.578-.187l-2.476-.125c-.812 0-1.499 0-2.248-.146l-2.538-.353zM192.235 291.834v-.166a10.416 10.416 0 011.415-5.37.774.774 0 01.146-.208s.687.188 1.686.375l1.727.27 2.081.208 2.081.105h3.6a16.99 16.99 0 013.288 1.394c2.351 1.124 1.519 2.476.124 3.267a5.6 5.6 0 01-1.643.687l-1.79.562h-3.85l-2.289-.104-2.31-.229-2.081-.312c-1.311-.25-2.143-.479-2.185-.479zM185.014 303.739v-.167a13.05 13.05 0 01.687-5.494.467.467 0 010-.229l9.01.895c.87.467 1.669 1.056 2.373 1.748 1.602 1.415.728 2.643-.417 3.247-.86.369-1.751.661-2.663.874l-8.99-.874zM177.192 319.017v-.166a7.984 7.984 0 011.353-1.646 29.13 29.13 0 002.416-2.415l.125-.209a.488.488 0 00-.146-.125c-1.353 2.416-.374.667-.687 1.208a3.12 3.12 0 00.292-.52c.092-.217.168-.44.229-.667 0-.125 0 0 0 0h.166c.354 0 .917.104.917.104.245.493.441 1.009.583 1.541a4.5 4.5 0 010 3.27s-.188.333-.396.604l-.458.479h-.458c-.313 0-.687 0-1.166-.167a3.634 3.634 0 01-.729-.166l-.396-.104-.416-.188-.354-.166-.396-.25-.479-.417z" fill="#263238"/><path d="M181.853 317.27v-.146a34.174 34.174 0 011.853-5.227l.104-.209 3.165.896c.288.536.472 1.123.541 1.728a3.58 3.58 0 01-1.062 3.103s-.312.271-.604.459l-.562.374-3.435-.978z" fill="#263238"/><path d="M218.461 175.886l-7.703 17.771a3.909 3.909 0 00-.279 3.182 3.923 3.923 0 002.193 2.328l4.709 2.055c4.383.587 8.586-3.261 9.665-4.663l9.55-11.625-18.135-9.048z" fill="#fff" stroke="#3B3A3B" stroke-linecap="round" stroke-linejoin="round"/><path d="M273.293 124.072l-33.017 13.206v96.339h71.332v-94.594l-31.152-15.652-7.163.701z" fill="#009688" stroke="#3B3A3B" stroke-linecap="round" stroke-linejoin="round"/><path d="M269.614 117.714v11.135l8.929 16.532 8.291-15.896V118.04l-17.22-.326zM261.96 99.275s-1.929-7.973-3.826-4.125c-1.897 3.847 3.826 11.755 3.826 11.755v-7.63zM294.487 98.965s4.465-5.413 5.102-1.908c.638 3.505-4.464 9.782-4.464 9.782l-.638-7.874z" fill="#fff" stroke="#3B3A3B" stroke-linecap="round" stroke-linejoin="round"/><path d="M278.542 123.436a16.602 16.602 0 01-11.725-4.842 16.505 16.505 0 01-4.857-11.69V73.841h33.164v33.063c0 4.385-1.747 8.59-4.857 11.69a16.604 16.604 0 01-11.725 4.842z" fill="#fff" stroke="#3B3A3B" stroke-linecap="round" stroke-linejoin="round"/><path d="M267.961 99.91s2.519 3.016 6.885 0h-6.885z" fill="#fff"/><path d="M267.961 99.91s2.519 3.016 6.885 0" stroke="#3B3A3B" stroke-linecap="round" stroke-linejoin="round"/><path d="M281.748 99.91s2.518 3.016 6.901 0h-6.901z" fill="#fff"/><path d="M281.748 99.91s2.518 3.016 6.901 0M267.536 94.921s2.519-4.614 7.981-1.125M280.422 93.943s.835-1.956 4.628-1.956a4.328 4.328 0 012.746.763 4.308 4.308 0 011.67 2.302M275.517 108.877l2.665 1.533 2.371-1.386M271.871 111.111a5.219 5.219 0 003.27 1.826" stroke="#3B3A3B" stroke-linecap="round" stroke-linejoin="round"/><path d="M293.849 84.976l.638 13.989s.31 1.907.948-1.908c.638-3.815 3.843-14.315 3.189-17.494-.654-3.18-5.102-3.26-7.015-2.217-1.914 1.043 2.24 7.63 2.24 7.63z" fill="#3B3A3B" stroke="#3B3A3B" stroke-linecap="round" stroke-linejoin="round"/><path d="M261.96 95.15s-1.913-14.674-2.878-22.255c-.965-7.581 9.256-8.266 9.256-8.266s7.016-5.739 20.409-7.32c13.393-1.582 19.771 3.26 19.444 6.684-.327 3.424-7.964 6.032-7.964 6.032s9.24.962 3.827 6.05c-5.413 5.086-10.532 4.76-10.532 4.76s4.792 2.234 1.913 3.815c-2.878 1.581-23.27-4.451-23.27-4.451s.638 3.815-2.241 4.777c-2.878.962-3.826.636-4.137 2.217-.311 1.582-.327 11.136-1.913 12.081-1.586.946-1.914-4.124-1.914-4.124z" fill="#3B3A3B" stroke="#3B3A3B" stroke-linecap="round" stroke-linejoin="round"/><path d="M240.097 137.686l-25.609 41.738 23.025 9.391 2.584-13.223v-37.906z" fill="#009688" stroke="#3B3A3B" stroke-linecap="round" stroke-linejoin="round"/><path d="M337.97 177.271l6.917 12.408a3.893 3.893 0 01.279 3.181 3.912 3.912 0 01-2.192 2.329l-9.812 4.093a3.932 3.932 0 01-4.66-1.288l-8.651-11.674 18.119-9.049z" fill="#fff" stroke="#3B3A3B" stroke-linecap="round" stroke-linejoin="round"/><path d="M311.609 139.023l29.141 38.95-22.665 10.434-6.476-11.054v-38.33z" fill="#009688" stroke="#3B3A3B" stroke-linecap="round" stroke-linejoin="round"/><path d="M210.137 193.804c.899-2.837 2.044-4.892 12.101-9.212 10.057-4.321 24.922-8.771 29.174-13.239.72-1.451 13.753-14.869 13.753-14.869s4.628-.782 5.478-1.059a20.776 20.776 0 016.427.538c1.194.424 1.309 1.092.818 1.385-1.312.335-2.645.58-3.99.734l-.409.212a26.03 26.03 0 014.53 4.744c.147.457.507.506-.409.816-.916.309-3.827-1.761-3.827-1.761h-2.682l3.402 2.07s3.27 3.147 2.142 3.848c-1.128.701-1.472.669-1.635 0-.164-.668-2.404-2.087-2.404-2.087l-4.579-.489c1.45.858 2.847 1.8 4.186 2.821a19.252 19.252 0 011.783 2.282s-.409 1.321-1.881.457c-1.472-.864-3.875-2.413-3.875-2.413l-1.979-.359a80.348 80.348 0 01-6.541 6.522 10.194 10.194 0 01-3.369 1.173v.131a97.492 97.492 0 01-18.316 17.624c-10.4 7.369-17.988 10.435-21.472 9.782-3.483-.652-7.342-6.815-6.426-9.651z" fill="#fff" stroke="#3B3A3B" stroke-linecap="round" stroke-linejoin="round"/><path d="M271.135 162.06l-5.659-.978M268.028 165.468l-3.663-.473M273.538 158.261l-6.263-.146" stroke="#3B3A3B" stroke-width=".75" stroke-linecap="round" stroke-linejoin="round"/><path d="M236.007 226.623h79.951v.685a28.488 28.488 0 01-8.382 20.175 28.664 28.664 0 01-20.236 8.356h-22.715a28.664 28.664 0 01-20.236-8.356 28.488 28.488 0 01-8.382-20.175v-.685z" fill="#3B3A3B" stroke="#3B3A3B" stroke-linecap="round" stroke-linejoin="round"/><path d="M292.05 325.652s3.729 11.592 8.373 16.222c4.644 4.63 12.559 5.576 12.101-2.772-.457-8.347-11.169-18.081-11.169-18.081s-9.305.457-9.305 4.631z" fill="#fff" stroke="#3B3A3B" stroke-linecap="round" stroke-linejoin="round"/><path d="M301.356 321.022s-26.967-52.401-34.424-67.71c-7.457-15.309-15.339-31.531-22.78-34.238-7.44-2.706-19.068 5.087-17.203 18.538 1.864 13.45 19.525 36.634 27.898 47.28 8.373 10.647 37.204 40.76 37.204 40.76s5.593 1.858 9.305-4.63z" fill="#3B3A3B" stroke="#3B3A3B" stroke-linecap="round" stroke-linejoin="round"/><path d="M254.814 325.652s-3.729 11.592-8.373 16.222c-4.644 4.63-12.559 5.576-12.101-2.772.457-8.347 11.169-18.081 11.169-18.081s9.305.457 9.305 4.631z" fill="#fff" stroke="#3B3A3B" stroke-linecap="round" stroke-linejoin="round"/><path d="M245.509 321.022s26.967-52.401 34.342-67.71c7.375-15.309 15.356-31.531 22.796-34.238 7.441-2.706 19.068 5.087 17.204 18.538-1.864 13.45-19.526 36.634-27.899 47.28-8.373 10.647-37.203 40.76-37.203 40.76s-5.528 1.858-9.24-4.63z" fill="#3B3A3B" stroke="#3B3A3B" stroke-linecap="round" stroke-linejoin="round"/><path d="M319.491 239.666c-.867-1.386-2.715-2.315-6.002-2.967-4.235-.848-14.211-.669-25.2 0-2.829 5.168-5.625 10.923-8.373 16.548-7.44 15.309-34.341 67.709-34.341 67.709 3.712 6.522 9.305 4.631 9.305 4.631s28.83-30.146 37.203-40.76c7.882-10.108 24.203-31.515 27.408-45.161z" stroke="#3B3A3B" stroke-linecap="round" stroke-linejoin="round"/><path d="M271.15 159.892h12.134a3.54 3.54 0 012.498 1.031 3.518 3.518 0 011.034 2.49v28.157c0 .826-.329 1.618-.914 2.202a3.13 3.13 0 01-2.209.912h-12.952a3.126 3.126 0 01-2.208-.912 3.108 3.108 0 01-.915-2.202v-28.173a3.516 3.516 0 011.04-2.48 3.541 3.541 0 012.492-1.025z" fill="#3B3A3B"/><path d="M347.259 192.581c-1.766-2.397-3.483-3.913-14.407-4.891-10.924-.979-26.427-.408-31.889-3.261-1.145-1.141-17.776-9.782-17.776-9.782s-4.66.733-5.544.733a20.694 20.694 0 00-5.919 2.56c-.998.766-.883 1.435-.327 1.549a28.466 28.466 0 004.006-.555h.458a25.731 25.731 0 00-2.78 5.886c0 .489-.311.652.654.652.965 0 3.058-2.885 3.058-2.885l2.568-.816-2.568 3.049s-2.093 4.011-.818 4.337c1.276.326 1.636.147 1.636-.489.399-.987.951-1.906 1.635-2.723l4.186-1.924a40.457 40.457 0 00-3.058 4.011 18.235 18.235 0 00-.964 2.723s.801 1.125 1.929-.163c1.129-1.288 2.895-3.522 2.895-3.522l1.766-.962a77.83 77.83 0 008.356 4.158 9.843 9.843 0 003.565 0v.114a98.378 98.378 0 0022.993 10.891c12.216 3.684 20.425 4.173 23.467 2.413 3.042-1.761 4.66-8.69 2.878-11.103z" fill="#fff" stroke="#3B3A3B" stroke-linecap="round" stroke-linejoin="round"/><path d="M279.311 181.853l5.053-2.707M283.334 184.103l3.32-1.614M275.812 179.016l5.887-2.119" stroke="#3B3A3B" stroke-width=".75" stroke-linecap="round" stroke-linejoin="round"/><path d="M264.936 249.285l-16.811 1.63 20.719 30.211-4.905 14.348c4.366 4.891 9.403 10.336 13.998 15.26l4.644-3.261s6.738 9.424 13.524 17.934a9.182 9.182 0 005.152-4.516s-26.967-52.4-34.424-67.709a83.119 83.119 0 00-1.897-3.897z" stroke="#3B3A3B" stroke-linecap="round" stroke-linejoin="round"/><g opacity=".8"><path d="M1307 220.867s-17.79-54.511-106-66c-88.21-11.489-96.01 3.598-161.01 32.345-34 15.068-72.812 9.217-108.898 16.506C815.708 227.024 772.234 373.032 820.3 456.071c41.61 71.91 80.689 65.667 192.2 74.296 111.51 8.629 171.14 9.955 271-60.5 99.86-70.455 70.13-146.921 23.5-249z" fill="#DEF7E5"/><path d="M1307 220.867s-17.79-54.511-106-66c-88.21-11.489-96.01 3.598-161.01 32.345-34 15.068-72.812 9.217-108.898 16.506C815.708 227.024 772.234 373.032 820.3 456.071c41.61 71.91 80.689 65.667 192.2 74.296 111.51 8.629 171.14 9.955 271-60.5 99.86-70.455 70.13-146.921 23.5-249z" fill="#92E3A9"/></g><g opacity=".8" fill="#DEF7E5"><path d="M1288 242.867s-17.79-54.511-106-66c-88.21-11.489-96.01 3.598-161.01 32.345-33.996 15.068-72.812 9.217-108.898 16.506C796.708 249.024 753.234 395.032 801.3 478.071c41.61 71.91 80.689 65.667 192.2 74.296 111.51 8.629 171.14 9.955 271-60.5 99.86-70.455 70.13-146.921 23.5-249z"/><path d="M1288 242.867s-17.79-54.511-106-66c-88.21-11.489-96.01 3.598-161.01 32.345-33.996 15.068-72.812 9.217-108.898 16.506C796.708 249.024 753.234 395.032 801.3 478.071c41.61 71.91 80.689 65.667 192.2 74.296 111.51 8.629 171.14 9.955 271-60.5 99.86-70.455 70.13-146.921 23.5-249z"/></g><path d="M1116.52 439.651c0 .046.02.089.04.126a.28.28 0 00.1.086c.67.668 2.17 1.491 3.18-.808.01-.104.01-.209 0-.313 0-.127-.55-2.313-1.33-5.549-2.48-10.417-5.15-21.671-7.96-33.536-.89-3.548-1.74-7.138-2.56-10.771-.85-3.634-1.77-7.309-2.58-10.999-1.66-7.408-3.08-15.072-4.7-22.864a205.598 205.598 0 00-6.06-23.53c-.33-.979-.66-1.959-.98-2.938-.19-.497-.43-.993-.64-1.504-.2-.509-.43-1.006-.68-1.49-.5-.997-1.09-1.947-1.75-2.839-.32-.462-.66-.903-1.03-1.32l-1.2-1.192a15.466 15.466 0 00-5.78-3.207 20.05 20.05 0 00-6.33-.568c-2.06.167-4.1.533-6.09 1.093a52.938 52.938 0 00-5.76 2.029l-5.48 2.143c-1.83.696-3.64 1.42-5.52 2.058-3.73 1.249-7.46 2.526-11.25 3.676l-5.68 1.802-5.68 1.874c-3.59 1.107-8.24 2.583-11.02 6.698a14.094 14.094 0 00-2.28 6.784 28.3 28.3 0 00.33 6.756c.33 2.157.78 4.257 1.26 6.301.48 2.044.96 4.059 1.45 6.088.95 4.045 1.91 8.09 2.87 12.106l11.21 47.203c.88 3.784 1.77 7.569 2.65 11.354.85 3.647 1.51 7.465 2.35 11.197.79 3.732 1.78 7.41 2.99 11.013a34.814 34.814 0 005.13 10.19c1.21 1.6 2.74 2.902 4.46 3.818.43.231.87.43 1.33.596.24.071.49.17.71.213l.67.142 1.32.255c.46.085.89 0 1.33.128 3.41.188 6.82-.175 10.13-1.079 6.38-1.618 12.1-4.158 17.63-5.918l2.06-.624 2.04-.526 2.02-.397 2.09-.355c2.79-.454 5.55-.922 8.23-1.547 2.65-.588 5.25-1.39 7.79-2.398a31.02 31.02 0 003.62-1.788l.49-.327c.59-.354 1.08-.723 1.49-1.021.41-.299.69-.582.9-.753l.32-.269.88-.795c.56-.691 1.06-1.437 1.48-2.228a11.25 11.25 0 001.14-6.898c-.07-.44-.14-.851-.22-1.206-.08-.355-.2-.681-.29-.965a7.612 7.612 0 00-.56-1.235c-.33-.567-.54-.667-.66-.44-.13.46-.17.943-.12 1.42v2.554c-.08.403-.14.81-.18 1.221a9.71 9.71 0 01-.96 2.838c-.49.86-1.1 1.639-1.8 2.313l-.74.639-.3.227-.26.213c-.23.205-.47.395-.73.568-.17.142-.36.27-.55.383l-.32.213-.17.113c-.11.078-.23.144-.35.199l-.7.411c-.49.242-.98.497-1.49.724a58.705 58.705 0 01-14.13 3.79l-3.98.667-2.1.411c-.7.142-1.33.341-2.09.511-2.78.766-5.52 1.746-8.27 2.753-5.51 1.973-11.16 4.258-17.08 4.826-.73.099-1.46.071-2.2.113-.75.043-1.45-.085-2.19-.128-.74-.042-1.42-.255-2.14-.383-.32-.099-.61-.184-.91-.312-.31-.134-.6-.285-.89-.454-2.46-1.742-4.4-4.206-5.59-7.096a58.708 58.708 0 01-3.4-9.807c-.91-3.448-1.67-7.025-2.4-10.672-.37-1.831-.73-3.662-1.17-5.578-.43-1.916-.87-3.676-1.32-5.535l-2.66-11.197c-3.58-15.086-7.28-30.669-11.04-46.522-.94-3.959-1.89-7.947-2.84-11.935-.47-2.001-.94-3.974-1.32-5.947-.4-1.912-.64-3.86-.71-5.818-.09-1.806.18-3.61.8-5.294a8.35 8.35 0 013.09-3.889l.52-.397.57-.327c.38-.212.77-.439 1.17-.638l1.24-.511.63-.256.69-.227 5.49-1.845c3.69-1.248 7.46-2.37 11.17-3.562 1.88-.582 3.73-1.235 5.6-1.845l2.8-.936 1.33-.469 1.33-.539 5.52-2.157 2.73-1.065c.88-.354 1.75-.709 2.66-1.007.9-.298 1.77-.582 2.65-.866l1.33-.326c.45-.114.89-.213 1.32-.284 1.75-.359 3.54-.473 5.31-.341 1.7.105 3.36.589 4.87 1.419.74.399 1.44.874 2.08 1.42.64.586 1.22 1.232 1.74 1.93a19.539 19.539 0 012.58 4.768l1.87 5.592a244.43 244.43 0 015.58 22.892c1.58 7.621 2.96 15.214 4.7 22.608 1.74 7.394 3.43 14.504 5.08 21.501 2.66 11.353 5.23 22.026 7.58 31.946l1.45 5.45z" fill="#3B3A3B"/><path d="M1103.98 430.028c0 .044.01.087.03.127.01.039.04.073.07.1.59.753 1.98 1.803 3.25-.326a.7.7 0 00.11-.312c0-.114-.25-2.384-.66-5.677-.12-.823-.24-1.646-.36-2.498-.2-1.277-.36-2.569-.57-3.874l-.68-3.917c-.12-.653-.22-1.32-.34-1.987-.12-.667-.26-1.32-.39-1.987l-.79-4.016c-.58-2.697-1.15-5.422-1.78-8.175-2.55-10.999-5.67-22.424-8.93-34.175-1.62-5.875-3.28-11.836-4.87-17.896-.8-3.008-1.57-6.06-2.34-9.125-.38-1.533-.73-3.066-1.1-4.613l-.92-3.86v-.298c0-.099 0-.213-.15-.142l-.55.142-1.09.27-1.85.454c-5.87 1.419-11.84 2.838-17.68 4.655-2.93.88-5.89 1.703-8.81 2.64l-8.74 2.838c-1.46.483-2.92.951-4.37 1.419l-4.34 1.533-4.33 1.533-2.16.766-1.55.554-1.08.383-.54.198c-.09 0-.19 0-.13.171v.312l.46 3.747c.08.823.27 1.632.4 2.455.13.823.29 1.632.46 2.427.18.795.34 1.618.54 2.398.75 3.179 1.61 6.273 2.42 9.339.43 1.532.81 3.051 1.18 4.555.2.738.35 1.533.5 2.299l.45 2.328c.61 3.08 1.2 6.159 1.8 9.211.6 3.051 1.22 6.102 1.86 9.139.64 3.037 1.33 6.032 1.9 9.026.57 2.995 1.32 5.904 2.01 8.799.69 2.896 1.33 5.762 2.07 8.601.75 2.838 1.33 5.677 2.07 8.402.75 2.724 1.44 5.492 2.14 8.174.7 2.682 1.41 5.351 2.1 7.962l.63 2.455.51 1.916c0 .099 0 .17.14.128H1050.67l.92-.142 2.51-.369c.63-.085 1.32-.185 1.87-.327 4.7-1.001 9.34-2.29 13.9-3.86 4.37-1.419 8.47-2.838 12.45-3.761 2.01-.468 3.98-.979 5.84-1.419l3.28-.667 1.58-.326 1.32-.27 3.03-.894 2.84-.88c.98-.355 1.96-.724 2.85-1.079 6.01-2.27 3.32-2.469-.54-1.986-.45.008-.89.06-1.33.156l-1.47.241-1.73.227-4.77.653-1.33.269-3.69.753c-1.79.34-3.65.837-5.56 1.277l-2.89.71-2.96.865c-3.98 1.192-8.07 2.597-12.33 3.917-1.06.312-2.14.653-3.22.951l-3.31.852-3.38.723-2.19.327c-1.15-4.4-2.35-8.936-3.58-13.61-1.44-5.266-2.66-10.744-4.05-16.321-.67-2.839-1.35-5.677-2.04-8.515-.36-1.42-.65-2.839-.96-4.258-.31-1.419-.6-2.838-.9-4.343-.61-2.909-1.24-5.847-1.85-8.813-.61-2.966-1.18-6.003-1.79-9.026-.61-3.023-1.18-6.089-1.79-9.154-.61-3.066-1.55-6.145-2.36-9.154-.81-3.009-1.59-6.032-2.2-9.069-.16-.752-.28-1.518-.42-2.27-.13-.753-.25-1.519-.33-2.285v-.298l1.25-.44c5.65-2.001 11.33-4.059 17.05-5.904l4.29-1.419c1.43-.483 2.85-.966 4.3-1.42l8.61-2.554c1.44-.398 2.86-.88 4.31-1.221l4.33-1.078 6.84-1.689v.127l.15.568.54 2.313c.36 1.533.75 3.052 1.13 4.585.76 3.037 1.55 6.045 2.34 9.054 1.6 5.975 3.24 11.879 4.84 17.669 3.21 11.581 6.24 22.793 8.69 33.55 1.18 5.379 2.31 10.63 3.16 15.753.21 1.278.45 2.555.64 3.818l.54 3.747c0 .525.15 1.05.21 1.561.35 3.236.6 5.435.67 5.577zM1084.07 453.176a.28.28 0 00-.13.056.342.342 0 00-.11.114c-.21.216-.38.485-.48.783-.1.299-.14.619-.1.935.13.624.69 1.092 1.59 1.603.08.036.17.06.25.071.73-.255 1.65-.369 2.76-.681a6.016 6.016 0 001.85-.866c.34-.252.65-.558.92-.908.13-.191.24-.39.35-.596l.22-.525c.43-1.147.55-2.402.34-3.619a8.869 8.869 0 00-1.14-3.094 10.433 10.433 0 00-1.94-2.427 6.466 6.466 0 00-2.97-1.66 2.642 2.642 0 00-.93 0 7.01 7.01 0 00-.82 0c-.45.085-.92.156-1.33.255l-1.33.298-1.23.369c-.84.256-1.65.511-2.47.837-.41.157-.82.313-1.33.526-.22.113-.39.17-.66.326-.26.156-.58.397-.91.61-.34.213-.36.483-.47.625a4.77 4.77 0 00-.32.525c-.19.361-.34.741-.46 1.135a7.633 7.633 0 00-.33 2.228c.04.839.16 1.671.36 2.484.17.681.39 1.419.66 2.228.08.185.14.383.21.582l.32.965c.2.653.41 1.32.62 1.987l2.17-.767.49-.17.33-.142.58-.255c5.93-2.427 3.31-2.569-.59-1.959h-1.23v-1.036a34.07 34.07 0 01-.33-2.2 13.29 13.29 0 010-1.546v-.398-.142c.02-.315.09-.625.19-.922.05-.127.11-.251.17-.369 0 0 0-.1.11-.156.1-.057 0 0 0 0 2.53-1.2 5.21-1.98 7.96-2.314a3.4 3.4 0 011.33.824c.48.452.9.978 1.24 1.561.33.47.55 1.015.64 1.591.1.577.06 1.169-.09 1.73-.03.06-.05.121-.07.184a.326.326 0 01-.14.142c-.25.165-.52.28-.8.341-.86.397-1.87.468-2.95.837zM983.476 299.007a.229.229 0 000 .156c.093.639.611 1.419 1.805.724a.453.453 0 00.133-.114 9.81 9.81 0 011.486-2.838 8.83 8.83 0 013.294-2.584 8.259 8.259 0 014.031-.708c2.895.118 5.681 1.211 7.965 3.122 1.72 1.321 3.02 3.173 3.74 5.308.71 2.136.79 4.453.24 6.641a18.276 18.276 0 01-1.71 4.258c-1.45 2.621-3.69 4.627-6.36 5.677a9.86 9.86 0 01-4.191.535 9.986 9.986 0 01-4.05-1.273 10.055 10.055 0 01-3.23-2.764 10.875 10.875 0 01-1.892-3.935v-.269a.555.555 0 010-.199v-.369l-.08-.483a7.768 7.768 0 010-.965v-.511-1.305c.015-.584.059-1.167.133-1.746 0-.298.093-.61.133-.908.04-.298.119-.596.172-.88.054-.284.107-.454.146-.653l.146-.525c.08-.331.133-.587.16-.766 0-.398 0-.525-.133-.483-.133.043-.332.27-.597.639a8.037 8.037 0 00-.81 1.419 4.98 4.98 0 00-.345.766c-.093.27-.199.596-.305.937a7.471 7.471 0 00-.292 1.135c-.079.398-.186.781-.225 1.164l-.12 1.05a4.968 4.968 0 000 .752v.951l.08.568.079.582v.142a.582.582 0 000 .156l.08.326c.104.428.228.849.371 1.263a13.02 13.02 0 002.656 4.421 12.028 12.028 0 004.086 2.917 11.758 11.758 0 004.796 1.027 11.76 11.76 0 004.797-1.027c2.995-1.408 5.465-3.859 6.995-6.954.81-1.493 1.4-3.111 1.75-4.797.37-1.719.41-3.502.11-5.237-.67-3.465-2.53-6.535-5.22-8.601-2.6-2.1-5.74-3.285-8.996-3.391a11.263 11.263 0 00-4.843.936 10.043 10.043 0 00-3.981 3.179 12.465 12.465 0 00-2.004 3.534z" fill="#3B3A3B"/><path d="M995.764 277.478a.18.18 0 00.133 0 1.5 1.5 0 00.703-.639c.173-.326.2-.766-.278-1.419l-.159-.128a11.065 11.065 0 00-3.742-.071 21.953 21.953 0 00-8.957 4.017 46.336 46.336 0 00-7.312 6.542 49.844 49.844 0 00-3.145 3.832 26.662 26.662 0 00-2.654 4.258 33.233 33.233 0 00-1.911 4.754 32.31 32.31 0 00-1.141 5.095 31.232 31.232 0 00.252 10.303c.159.852.372 1.689.584 2.512.212.823.491 1.661.809 2.441.16.412.306.809.465 1.207l.531 1.163.265.582.266.483-.863.241-2.256.681-4.472 1.42-2.282.652-.504.185-1.234.411c-.996.369-2.256.71-3.305 1.079-3.609.908-2.163 1.22.226 1.192-.12 0 1.327-.099 2.72-.284l1.964-.34.889-.185.969-.269.491-.142 1.685-.497 4.406-1.419 1.088-.341 1.207-.326 2.216-.625c.306 0 .067-.241 0-.411l-.292-.525-.57-1.051-.425-.794a4.976 4.976 0 01-.265-.526l-.478-1.064c-.318-.71-.571-1.419-.849-2.171-.279-.752-.491-1.42-.65-2.257l-.266-1.135-.212-1.164a29.29 29.29 0 010-9.381 30.244 30.244 0 012.919-8.856 37.868 37.868 0 015.507-7.451 43.59 43.59 0 016.874-6.102 19.783 19.783 0 017.962-3.577 8.546 8.546 0 013.091.1z" fill="#3B3A3B"/><path d="M995.087 276.356v.128c.075.323.231.617.452.852.252.255.637.411 1.327 0a.839.839 0 00.159-.156c.423-1.294.608-2.662.544-4.031a41.656 41.656 0 00-1.048-7.167l-.425-1.987s-.212-.78-.531-1.873a275.52 275.52 0 01-.995-3.534c-.106-.482-.199-.88-.279-1.206-.079-.327-.132-.568-.185-.752-.054-.185-.226-.469-.319-.355a5.475 5.475 0 00-.345 2.54c.045.95.134 1.898.266 2.839.212 1.518.451 3.051.451 3.051l.358 1.689c.527 2.209.86 4.466.995 6.741a8.905 8.905 0 01-.425 3.221z" fill="#3B3A3B"/><path d="M993.774 258.12a.18.18 0 00.119-.085c.372-.398.863-1.348-.384-2.015a.346.346 0 00-.186 0c-1.115.269-2.243.539-3.344.851-7.205 1.801-14.082 4.86-20.356 9.055a50.18 50.18 0 00-8.585 7.55c-.637.724-1.327 1.419-1.884 2.2-.558.78-1.168 1.532-1.765 2.299a49.294 49.294 0 00-3.092 4.981c-3.75 6.908-5.795 14.722-5.945 22.707a48.724 48.724 0 001.208 11.851l.239 1.036c0 .17.079.355.132.525l.319 1.05s.292.809.716 1.874c.252.51.544 1.092.823 1.674.269.578.58 1.134.929 1.661 2.083 3.392 1.778 1.674.995-.596 0 0-.093-.256-.252-.753-.159-.496-.372-1.206-.597-1.901a18.218 18.218 0 01-.518-1.973l-.225-.908c-.093-.327-.199-.653-.279-.98l-.584-2.54a46.553 46.553 0 01-.809-11.112c.302-7.495 2.365-14.787 5.998-21.203a45.936 45.936 0 016.449-8.785 47.589 47.589 0 018.147-7.096c6.01-3.937 12.575-6.812 19.44-8.515 1.088-.313 2.19-.582 3.291-.852zM992.035 243.899a.216.216 0 000 .142c.056.205.163.39.311.534.147.144.329.242.525.283.196.041.398.023.586-.051a1.09 1.09 0 00.475-.369.707.707 0 00.107-.156c.093-.624.199-1.249.265-1.873l.133-1.873c0-.667 0-1.32.079-1.973.08-.653 0-1.32 0-1.973 0-1.32 0-2.625-.159-3.931 0-.681-.093-1.419-.159-2.058 0 0-.146-.823-.358-1.973-.213-1.149-.597-2.526-.929-3.661-1.234-3.846-1.327-2.115-1.102.298 0-.114.08 1.348.226 2.838.146 1.49.146 3.009.146 3.009l.119 1.717c.12 1.263.12 2.526.16 3.79V240.394l-.133 1.774a29.242 29.242 0 00-.292 1.731z" fill="#3B3A3B"/><path d="M992.088 224.896h.12c.303-.054.59-.185.836-.383.252-.241.464-.625.132-1.419a.726.726 0 00-.132-.199 8.36 8.36 0 00-3.756-.894 23.857 23.857 0 00-4.976.482c-1.605.313-3.184.696-4.737 1.036l-2.322.483c-.809.184-1.619.326-2.415.539l-2.362.71c-.796.241-1.552.568-2.322.851a74.782 74.782 0 00-8.864 4.258c-2.853 1.618-5.693 3.236-8.413 5.152a80.011 80.011 0 00-14.888 13.283c-.558.639-1.128 1.249-1.659 1.916l-1.526 2.016c-.517.681-1.035 1.334-1.526 2.029l-1.327 2.143-1.327 2.143-1.221 2.257-1.22 2.256-1.089 2.314c-5.825 12.436-8.933 26.126-9.089 40.035a77.9 77.9 0 002.521 20.579l.531 2.001.358 1.036.77 1.831c.239.511.477 1.107.783 1.674.305.568.637 1.136.942 1.647 1.977 3.448 1.738 1.731 1.008-.582a4.344 4.344 0 00-.239-.767 18.682 18.682 0 01-.623-1.901l-.796-2.839c-.106-.326-.239-.653-.319-.979l-1.035-3.96a77.437 77.437 0 01-1.804-19.727c.473-13.328 3.685-26.382 9.408-38.233 5.809-11.762 14.443-21.657 25.012-28.668l1.964-1.32a56.7 56.7 0 012.044-1.234 118.333 118.333 0 014.127-2.356 64.962 64.962 0 018.505-4.017 43.612 43.612 0 014.406-1.419l4.591-.965c1.553-.355 3.065-.724 4.591-1.008 1.474-.3 2.972-.443 4.472-.425a6.254 6.254 0 012.866.624z" fill="#3B3A3B"/><path d="M943.416 330.584a.275.275 0 00.079-.156 1.26 1.26 0 00-.119-1.022 1.394 1.394 0 00-.611-.399 1.31 1.31 0 00-.716-.026.3.3 0 00-.146 0 7.09 7.09 0 01-2.468 1.703 24.844 24.844 0 01-6.383 1.419l-1.884.227s-.77.128-1.832.383a19.898 19.898 0 00-3.436 1.079 9.917 9.917 0 00-1.102.525c-.22.138-.433.289-.637.454-.292.241-.318.383-.186.44a8.525 8.525 0 002.27-.256c-.107 0 1.207-.184 2.654-.298 1.446-.113 2.826-.184 2.826-.184l1.632-.185c1.128-.141 2.283-.298 3.437-.525.571-.099 1.155-.269 1.738-.397a16.683 16.683 0 001.726-.61 8.705 8.705 0 003.158-2.172z" fill="#3B3A3B"/><path d="M992.924 244.51h.12c.191-.065.361-.186.49-.35a1.18 1.18 0 00.241-.576 1.22 1.22 0 00-.084-.624 1.117 1.117 0 00-.382-.48.37.37 0 00-.159-.113l-.903-.1H989.567a37.275 37.275 0 00-7.219 1.263 61.28 61.28 0 00-6.913 2.314 73.079 73.079 0 00-6.635 2.98 45.35 45.35 0 00-6.37 3.775 57.49 57.49 0 00-10.801 10.346c-.809.965-1.539 1.987-2.309 2.98-.77.994-1.459 2.058-2.189 3.08-.73 1.022-1.327 2.129-2.031 3.193l-1.884 3.335a57.028 57.028 0 00-5.241 14.462 70.503 70.503 0 00-1.619 15.413 57.71 57.71 0 002.508 15.27l.822 2.739s1.221 3.108 2.243 5.209c1.645 3.619 1.579 1.944 1.048-.468 0 .113-.305-1.32-.676-2.839-.186-.738-.372-1.419-.518-2.015l-.239-.923-.292-1.007-.146-.497-.252-.837a26.717 26.717 0 01-.491-1.774 53.04 53.04 0 01-1.964-14.476c0-1.221.08-2.441.159-3.662.08-1.22.239-2.455.372-3.676.133-1.22.345-2.441.557-3.647.213-1.206.465-2.412.77-3.59a54.637 54.637 0 015.308-13.54 75.155 75.155 0 018.161-11.907 53.695 53.695 0 0110.297-9.665l1.433-.993 1.513-.88a80.726 80.726 0 013.091-1.646 81.045 81.045 0 016.397-2.839 46.459 46.459 0 0113.269-3.349h2.442l.756.114z" fill="#3B3A3B"/><path d="M989.634 223.009a.216.216 0 000-.142 1.154 1.154 0 00-.371-.485 1.025 1.025 0 00-1.124-.083 1.125 1.125 0 00-.429.426.57.57 0 00-.093.184v1.888l.093 1.873c.141 2.108.385 4.207.729 6.287l.332 2.016s.186.794.465 1.916c.278 1.121.623 2.455.955 3.59.942 3.86 1.194 2.271 1.115-.255a29.935 29.935 0 00-.239-2.839 387.36 387.36 0 00-.332-3.037l-.279-1.717a62.8 62.8 0 01-.69-6.06l-.093-1.76-.039-1.802zM985.003 224.995a.165.165 0 00-.028-.067.144.144 0 00-.052-.046c-.411-.383-1.327-.809-1.845.582a.82.82 0 000 .198l.943 3.463.902 3.818c.146.653.292 1.32.425 1.973 0 0 .889 3.221 1.711 5.435 1.327 3.789 1.394 2.1 1.102-.355 0 .114-.186-1.334-.412-2.838l-.544-2.98c-.119-.568-.252-1.136-.385-1.718l-.902-3.874-.915-3.591zM980.159 224.811v-.128a1.106 1.106 0 00-.428-.435 1.017 1.017 0 00-1.134.092c-.162.127-.287.3-.362.499a.637.637 0 000 .185c.124 1.266.323 2.522.597 3.761l.557 2.185.637 2.157.598 1.945.716 1.816c.438 1.05.955 2.342 1.433 3.421 1.407 3.675 1.473 2.072 1.075-.44 0 .127-.265-1.334-.624-2.839l-.743-2.952c-.159-.553-.345-1.107-.504-1.646l-.61-2.1-.531-2.101a28.06 28.06 0 01-.677-3.42zM975.342 225.819s0-.071-.119-.114a1.129 1.129 0 00-.942-.128c-.332.128-.598.483-.704 1.192a.38.38 0 000 .171c.536.992.98 2.038 1.327 3.122a47.68 47.68 0 011.182 4.669l.398 1.973.517 1.902c.306 1.092.717 2.469 1.142 3.576.69 1.902 1.128 2.37 1.234 2.115.08-.831.03-1.67-.146-2.484 0 .114-.186-1.32-.385-2.838l-.398-3.023-.359-1.732a46.493 46.493 0 00-1.247-4.896 18.817 18.817 0 00-1.5-3.505zM971.455 227.806l-.119-.1c-.518-.326-1.42-.411-1.659 1.036a.413.413 0 000 .185l.385.738c.132.241.225.525.345.78.212.54.451 1.051.623 1.618.173.568.505 1.419.717 2.243.212.823.371 1.263.531 1.916l.623 1.844c.359 1.065.823 2.413 1.327 3.506 1.433 3.732 1.447 2.029 1.075-.383 0 .113-.212-1.334-.478-2.839a103.488 103.488 0 00-.583-3.008c-.146-.568-.319-1.136-.478-1.703-.212-.795-.478-1.576-.743-2.356-.195-.6-.421-1.188-.677-1.76-.119-.284-.225-.582-.371-.866l-.518-.851zM965.722 229.239a.343.343 0 00-.159-.085 1.084 1.084 0 00-.956.099 1.44 1.44 0 00-.378.607c-.074.234-.09.484-.046.727a.678.678 0 000 .156 11.863 11.863 0 011.672 2.839 48.809 48.809 0 012.189 6.429l.544 1.93.637 1.859c.385 1.05.889 2.398 1.327 3.477.257.636.578 1.24.956 1.802.238.298.371.341.424.199a8.944 8.944 0 00-.318-2.455c0 .113-.266-1.306-.571-2.839l-.624-2.98-.464-1.689a49.684 49.684 0 00-2.296-6.741 13.95 13.95 0 00-1.937-3.335zM962.524 233.738s.001-.071-.119-.114a1.057 1.057 0 00-.49-.195 1.032 1.032 0 00-.518.067c-.306.157-.492.611-.638 1.193a.439.439 0 000 .184 24.663 24.663 0 011.327 3.151c.425 1.249.85 2.498 1.248 3.761l.624 1.93s1.194 3.108 2.269 5.208c.889 1.803 1.327 2.228 1.459 1.945a8.78 8.78 0 00-.384-2.498c0 .113-.332-1.278-.704-2.739l-.756-2.938-.531-1.661a67.921 67.921 0 00-1.327-3.817 26.765 26.765 0 00-1.46-3.477zM958.397 235.157s0-.071-.093-.114c-.425-.34-1.327-.737-1.818.668a.73.73 0 000 .198l1.194 3.449 1.645 4.428c.239.638.518 1.263.77 1.887l.876 1.76a37.347 37.347 0 001.831 3.222c2.017 3.392 1.765 1.717.995-.596.067.099-.464-1.263-.955-2.668l-.982-2.839c-.199-.525-.438-1.05-.637-1.589l-1.619-4.372-1.207-3.434zM954.708 236.364a.171.171 0 00-.079-.128 1.097 1.097 0 00-.483-.355 1.02 1.02 0 00-.584-.035 1.06 1.06 0 00-.517.293 1.187 1.187 0 00-.301.537.439.439 0 000 .184l.425 1.831.517 1.774c.571 1.888 1.327 3.704 1.978 5.492l.783 1.874s.371.752.915 1.745c.544.994 1.221 2.214 1.832 3.194 1.977 3.406 1.765 1.774.995-.582.08.099-.425-1.278-.955-2.683l-.704-1.944-.318-.894-.664-1.575a87.218 87.218 0 01-1.898-5.308l-.504-1.703-.438-1.717zM950.13 239.216a.192.192 0 00-.106-.1c-.491-.298-1.433-.454-1.672 1.022a.413.413 0 000 .185c.57 1.007 1.048 2.086 1.526 3.15a105.532 105.532 0 012.202 5.55l.69 1.887s1.327 3.037 2.442 5.109c1.844 3.52 1.685 1.831 1.035-.525 0 .1-.358-1.305-.783-2.739l-.876-2.909-.597-1.632a119.31 119.31 0 00-2.242-5.677c-.504-1.107-1.009-2.228-1.619-3.321zM947.131 242.225l-.08-.128a1.089 1.089 0 00-.482-.355 1.02 1.02 0 00-.584-.035 1.06 1.06 0 00-.517.293 1.17 1.17 0 00-.301.537v.199l.451 1.816c.173.61.372 1.192.558 1.788.371 1.292.902 2.498 1.326 3.747.425 1.249 1.049 2.427 1.646 3.576.305.611.597 1.235.915 1.831l1.049 1.646c.61.937 1.433 2.087 2.136 3.009 2.375 3.122 1.951 1.505.929-.709.079.099-.544-1.221-1.194-2.555l-1.327-2.711-.743-1.518c-.597-1.136-1.062-2.314-1.593-3.477a26.822 26.822 0 01-1.327-3.562c-.172-.568-.358-1.122-.517-1.689l-.345-1.703zM944.358 246.184a.203.203 0 00-.106-.113 1.056 1.056 0 00-.519-.29 1.01 1.01 0 00-.583.044 1.08 1.08 0 00-.476.364 1.204 1.204 0 00-.227.577.828.828 0 000 .199l1.327 3.434c.717 1.76 1.473 3.52 2.23 5.266l.836 1.845s1.552 2.937 2.839 4.867c2.071 3.35 1.805 1.703.982-.61.08.1-.464-1.263-1.008-2.654l-1.088-2.838-.704-1.561c-.743-1.732-1.486-3.463-2.202-5.195l-1.301-3.335zM940.43 249.86a.192.192 0 00-.106-.1c-.438-.312-1.407-.667-1.792.767a1.091 1.091 0 000 .198l.704 1.704c.238.567.517 1.107.769 1.66 1.089 2.342 2.296 4.584 3.477 6.812l.929 1.774 2.88 4.769c1.884 3.42 1.725 1.831.995-.596-.285-.92-.622-1.82-1.008-2.697l-1.208-2.838-.796-1.533c-1.181-2.242-2.376-4.456-3.424-6.713-.252-.539-.518-1.078-.757-1.618l-.663-1.589zM936.874 254.671s0-.071-.093-.114c-.425-.34-1.327-.766-1.831.653a.716.716 0 000 .185l.61 1.759c.199.582.451 1.136.677 1.718a87.244 87.244 0 003.649 7.706l.915 1.788s1.726 2.839 3.026 4.712c2.096 3.307 1.818 1.703.969-.639.079.1-.492-1.249-1.089-2.625-.597-1.377-1.234-2.839-1.234-2.839l-.796-1.532c-1.327-2.484-2.521-4.968-3.556-7.522-.212-.554-.464-1.093-.65-1.646l-.597-1.604zM932.8 259.894a.242.242 0 00-.133-.085c-.531-.185-1.46-.128-1.433 1.419a.517.517 0 000 .184l1.048 1.32.956 1.419c1.658 2.612 3.078 5.45 4.538 8.303l.916 1.788s.438.681 1.035 1.646a37.519 37.519 0 002.163 3.009c2.481 3.08 1.977 1.419.915-.724 0 .1-.57-1.192-1.207-2.526-.319-.653-.624-1.419-.85-1.859l-.384-.866-.797-1.533c-1.433-2.838-2.892-5.677-4.631-8.515l-1.008-1.533-1.128-1.447zM930.558 265.315l-.119-.085c-.505-.241-1.46-.312-1.566 1.192a.48.48 0 000 .185l.955 1.419c.305.497.584 1.008.889 1.518 1.619 2.839 3.092 5.777 4.578 8.743l.903 1.788 1.008 1.675c.611.936 1.327 2.128 2.084 3.051 2.309 3.193 1.911 1.533.929-.681l-2.336-5.336-.783-1.533c-1.473-2.966-2.959-5.961-4.631-8.87-.305-.525-.61-1.05-.929-1.576l-.982-1.49zM927.334 270.467a.188.188 0 00-.133-.071c-.53-.185-1.459-.114-1.419 1.419a.574.574 0 000 .185l1.061 1.305c.332.454.637.965.955 1.42a90.264 90.264 0 014.857 9.011l.902 1.803.995 1.675c.624.936 1.327 2.143 2.097 3.051 2.389 3.15 1.937 1.419.929-.696a4.877 4.877 0 00-.319-.738c-.225-.482-.517-1.149-.822-1.83-.305-.682-.597-1.42-.823-1.874l-.372-.88-.769-1.532a92.089 92.089 0 00-4.976-9.239c-.345-.511-.664-1.036-1.035-1.547l-1.128-1.462zM924.48 276.328a.246.246 0 00-.146-.085 1.114 1.114 0 00-.968.071 1.59 1.59 0 00-.369.611 1.668 1.668 0 00-.069.723.41.41 0 000 .156c.654.874 1.21 1.827 1.659 2.838.504 1.079.968 2.2 1.539 3.336.292.596.597 1.107.916 1.632l.915 1.575a51.41 51.41 0 001.911 3.122l1.964 3.066 1.114 1.646s2.004 2.611 3.57 4.258c2.561 2.937 2.043 1.419.876-.781.093.099-.65-1.164-1.407-2.441l-1.526-2.569-.955-1.419-1.938-3.023c-.663-.993-1.327-2.015-1.871-3.051l-.902-1.547c-.292-.525-.61-1.036-.849-1.547-.518-1.022-.995-2.143-1.526-3.278a15.98 15.98 0 00-1.938-3.293zM923.512 284.517a.173.173 0 00-.08-.128 1.071 1.071 0 00-.509-.311 1.017 1.017 0 00-.586.017c-.19.063-.361.181-.493.34-.132.16-.221.355-.256.564a.446.446 0 000 .199 32.449 32.449 0 001.327 3.52c2.388 5.449 5.878 10.09 9.129 14.731l1.128 1.632 3.344 4.314c2.256 3.151 1.937 1.576.929-.723.079.113-.571-1.221-1.327-2.541-.757-1.32-1.54-2.611-1.54-2.611l-.981-1.419c-3.265-4.67-6.635-9.211-8.891-14.349a29.251 29.251 0 01-1.194-3.235zM921.283 291.414s0-.071-.106-.113c-.438-.284-1.42-.639-1.765.823a.477.477 0 000 .199c.265.553.491 1.149.77 1.688l.836 1.661c3.542 6.528 8.465 11.822 12.579 17.555.385.526.756 1.065 1.114 1.604 0 0 1.978 2.526 3.291 4.414 2.07 3.264 1.845 1.703.956-.667a26.376 26.376 0 00-1.234-2.597c-.704-1.419-1.513-2.668-1.513-2.668a12.57 12.57 0 00-.597-.866l-.703-.979c-.584-.823-1.195-1.618-1.805-2.427l-3.676-4.712a72.202 72.202 0 01-6.634-9.764l-.783-1.561c-.279-.511-.491-1.065-.73-1.59zM919.65 299.12a.177.177 0 00-.132 0c-.544-.142-1.487 0-1.327 1.42a.568.568 0 000 .184l1.141 1.249c.385.426.716.908 1.075 1.419 2.892 3.775 5.215 8.118 7.961 12.276a68.327 68.327 0 004.339 6.018l3.623 4.555 1.261 1.42 1.207 1.319 1.168 1.42c2.468 2.98 2.043 1.419.889-.753 0 0-.106-.255-.372-.738l-.464-.823-.597-.908-1.686-2.526-1.459-1.817c-.756-.936-1.5-1.859-2.216-2.838a59.567 59.567 0 01-4.127-5.776c-2.574-4.002-4.87-8.303-7.869-12.205-.384-.483-.729-.98-1.141-1.42l-1.274-1.476zM920.712 308.53h-.119c-.531-.17-1.5-.128-1.447 1.419a1.428 1.428 0 000 .185c.744.908 1.513 1.774 2.216 2.71 3.105 4.017 5.919 8.331 8.785 12.631l1.114 1.661s2.017 2.597 3.636 4.257c2.654 2.839 2.07 1.277.849-.809.093.085-.69-1.121-1.433-2.398l-1.061-1.746-.478-.809-.955-1.419c-2.866-4.258-5.693-8.643-8.878-12.773-.676-1.078-1.472-1.972-2.229-2.909zM921.507 319.543a.218.218 0 00-.159 0 1.16 1.16 0 00-.915.312 1.478 1.478 0 00-.26.687c-.027.249.007.502.1.733a.41.41 0 000 .156c.855.663 1.63 1.435 2.309 2.299.611.724 1.168 1.533 1.725 2.342.359.539.717 1.078 1.062 1.646 0 0 .464.624 1.115 1.547.65.922 1.459 2.029 2.189 2.938 1.208 1.561 1.725 1.901 1.778 1.603a7.664 7.664 0 00-.849-2.327c.08.099-.571-1.207-1.247-2.541-.677-1.334-1.42-2.682-1.42-2.682a22.892 22.892 0 00-.956-1.419c-.584-.852-1.168-1.703-1.844-2.512a16.175 16.175 0 00-2.628-2.782zM989.86 259.198v-.127a1.119 1.119 0 00-.397-.465 1.017 1.017 0 00-1.131 0c-.17.112-.307.273-.396.465a.475.475 0 000 .184c0 .625 0 1.277.146 1.902l.305 1.873a45.7 45.7 0 001.327 5.095c.199.667.438 1.306.65 1.944 0 0 .305.781.769 1.803.465 1.022 1.049 2.313 1.58 3.349 1.632 3.591 1.592 1.973 1.048-.482 0 .113-.332-1.32-.743-2.839-.199-.723-.412-1.419-.571-2.001-.159-.582-.252-.908-.252-.908-.172-.554-.371-1.093-.531-1.632a41.843 41.843 0 01-1.247-4.84l-.279-1.717c-.278-.454-.278-1.078-.278-1.604zM985.587 260.135v-.128a1.113 1.113 0 00-.423-.44 1.016 1.016 0 00-1.132.075 1.13 1.13 0 00-.369.493.943.943 0 000 .184c.079.639.106 1.306.239 1.931l.411 1.859c.345 1.192.69 2.398 1.115 3.534l.677 1.915.225.497c.146.327.345.767.557 1.263.213.497.478 1.079.704 1.661.225.582.438 1.178.663 1.717.531 1.859.85 2.441 1.009 2.2a6.392 6.392 0 00.079-2.555 4.722 4.722 0 00-.132-.837 19.704 19.704 0 00-.452-2.044c-.371-1.419-.822-2.966-.822-2.966l-.73-1.675c-.411-1.121-.73-2.242-1.062-3.349l-.358-1.689c-.119-.511-.119-1.078-.199-1.646zM981.168 262.15v-.099l-.557-.639a.755.755 0 00-.491-.27 1.024 1.024 0 00-.47.138c-.145.083-.27.201-.366.345a1.09 1.09 0 00-.119.227 7.195 7.195 0 00.132 2.186c.13.632.289 1.258.478 1.873.425 1.419.916 2.668 1.433 3.96l.783 1.887.889 1.732c.531.979 1.208 2.213 1.778 3.221.942 1.717 1.327 2.214 1.407 1.959a5.552 5.552 0 00-.385-2.512c0 .099-.398-1.306-.915-2.725l-1.009-2.839-.663-1.589c-.491-1.249-.969-2.512-1.327-3.775a13.393 13.393 0 01-.412-1.632 4.877 4.877 0 01-.186-1.448zM976.364 263.115a.177.177 0 00-.026-.074.16.16 0 00-.054-.053 1.08 1.08 0 00-.5-.336 1.022 1.022 0 00-.59-.007 1.079 1.079 0 00-.506.323 1.197 1.197 0 00-.275.559v.199l1.035 3.533c.597 1.874 1.327 3.704 1.964 5.549l.809 1.888.916 1.746a29.231 29.231 0 001.964 3.15c2.176 3.293 1.831 1.618.955-.653.093.1-.504-1.22-1.061-2.597l-1.009-2.838-.676-1.561c-.637-1.803-1.327-3.577-1.911-5.407l-1.035-3.421zM972.609 265.798a.191.191 0 00-.035-.068.185.185 0 00-.058-.046c-.438-.326-1.327-.695-1.805.724a.946.946 0 000 .199l1.327 3.406a315.72 315.72 0 002.415 5.776l.863 1.831.969 1.703a31.504 31.504 0 002.043 3.094c2.243 3.25 1.871 1.575.942-.667.08.099-.517-1.235-1.128-2.569l-1.101-2.839-.73-1.546a212.512 212.512 0 01-2.362-5.677l-1.34-3.321zM969.332 269.8s-.001-.071-.093-.128a1.089 1.089 0 00-.476-.37 1.004 1.004 0 00-.586-.047 1.049 1.049 0 00-.521.289c-.146.146-.25.333-.302.54a.82.82 0 000 .198c.146.611.279 1.249.452 1.859l.636 1.789c.177.485.381.959.611 1.419l.65 1.419c.478.894.969 1.802 1.473 2.682l1.048 1.732.332.454.849 1.093c.677.894 1.579 1.958 2.349 2.838 2.521 2.966 2.03 1.419.876-.78.092.099-.637-1.164-1.327-2.441l-1.022-1.774c-.265-.483-.438-.824-.438-.824l-.876-1.419c-.491-.851-.955-1.703-1.327-2.569l-.61-1.305c-.216-.43-.402-.876-.557-1.334l-.584-1.632c-.319-.582-.425-1.136-.557-1.689zM965.47 273.22a.19.19 0 00-.106-.099 1.04 1.04 0 00-.544-.248 1.01 1.01 0 00-.584.097c-.183.09-.338.233-.448.413-.11.18-.171.389-.176.603a.953.953 0 000 .185l1.606 3.307c.876 1.717 1.871 3.349 2.826 5.024l1.049 1.703s1.924 2.696 3.423 4.428c2.455 3.037 1.991 1.419.903-.738.079.085-.611-1.192-1.327-2.498l-1.433-2.64-.89-1.419c-.928-1.632-1.897-3.236-2.76-4.896l-1.539-3.222zM960.944 275.235a.187.187 0 00-.035-.067.171.171 0 00-.058-.046 1.064 1.064 0 00-.524-.286 1.024 1.024 0 00-.587.047 1.097 1.097 0 00-.478.368 1.208 1.208 0 00-.229.58.828.828 0 000 .199l.663 1.732c.226.596.518 1.135.77 1.688a71.145 71.145 0 004.897 8.516l1.101 1.674s1.977 2.612 3.477 4.343c2.441 3.037 2.004 1.419.902-.752.186.17-2.866-5.081-2.866-5.081l-.929-1.419a67.636 67.636 0 01-4.737-8.274c-.239-.539-.531-1.05-.73-1.604l-.637-1.618zM958.61 280.501l-.119-.1c-.491-.227-1.46-.383-1.619 1.121a.953.953 0 000 .185l1.858 3.08 4.179 6.883 1.035 1.717s1.871 2.682 3.331 4.47c2.388 3.094 1.951 1.42.902-.738.173.185-2.654-5.194-2.654-5.194l-.875-1.419-4.167-6.897-1.871-3.108zM956.885 285.014l-.12-.086c-.491-.227-1.486-.369-1.619 1.107a.513.513 0 000 .199l1.911 3.037 5.228 8.288 1.075 1.689s1.924 2.654 3.41 4.414c2.442 3.037 1.977 1.419.889-.766.173.184-2.76-5.138-2.76-5.138l-.915-1.419-5.215-8.26-1.884-3.065zM954.244 288.505a.197.197 0 00-.093-.114 1.06 1.06 0 00-.522-.289 1.013 1.013 0 00-.586.048 1.079 1.079 0 00-.475.37c-.123.168-.2.369-.222.581a.477.477 0 000 .199l.69 1.745.358.866.412.823a81.861 81.861 0 007.391 11.567l1.154 1.603 3.53 4.258c2.388 3.037 1.99 1.504.902-.752a5.775 5.775 0 00-.358-.738 89.998 89.998 0 00-1.035-1.746 86.925 86.925 0 00-1.566-2.583l-1.008-1.419a78.443 78.443 0 01-7.179-11.24l-.398-.781-.332-.808-.663-1.59zM952.147 294.168a.261.261 0 00-.106-.1 1.014 1.014 0 00-1.119-.213c-.187.08-.348.214-.467.387a1.203 1.203 0 00-.206.791c.491 1.122.956 2.271 1.473 3.378A99.989 99.989 0 00963.2 315.91c.412.511.823 1.05 1.248 1.547l1.327 1.419c.844.88 1.73 1.714 2.653 2.498 2.84 2.625 2.163 1.121.783-.88.106.085-.769-1.065-1.632-2.257l-1.751-2.398-1.049-1.32a97.829 97.829 0 01-11.212-17.03c-.504-1.15-.956-2.285-1.42-3.321zM950.912 299.901l-.119-.099c-.491-.227-1.5-.398-1.646 1.078a1.322 1.322 0 000 .199l1.898 3.065c1.327 2.243 2.787 4.414 4.22 6.585l4.219 6.529 1.075 1.674.332.44.783 1.122c.637.894 1.46 2.015 2.176 2.923 2.362 3.108 1.964 1.533.929-.709.093.099-.571-1.207-1.261-2.555-.331-.667-.69-1.334-.942-1.845-.252-.511-.464-.837-.464-.837l-.929-1.42-4.233-6.556c-1.42-2.157-2.853-4.258-4.18-6.543l-1.858-3.051zM950.423 307.593l-.133-.071c-.531-.17-1.473-.099-1.407 1.42a1.13 1.13 0 000 .184l1.115 1.306 1.022 1.419c.703.894 1.327 1.916 1.937 2.838.61.923 1.221 1.987 1.818 3.009l1.009 1.717s1.844 2.739 3.357 4.513c2.534 2.995 2.004 1.42.889-.752.08.1-.597-1.192-1.327-2.498l-1.327-2.668-.863-1.419c-.597-1.022-1.234-2.044-1.844-3.051-.611-1.008-1.327-2.03-2.017-2.995l-1.075-1.419-1.154-1.533zM951.935 318.251h-.066a2.18 2.18 0 00-.904.424 2.37 2.37 0 00-.649.797v.113l.637.965c.385.554.876 1.306 1.327 2.101.452.795.969 1.533 1.327 2.114l.637.98c.168.172.345.333.531.482.349.302.717.577 1.101.823 1.181.823 1.168 0 .85-.809.093 0-.903-1.845-.876-1.873l-.597-.922c-.359-.54-.836-1.292-1.327-2.073-.491-.78-.956-1.532-1.327-2.114l-.664-1.008zM1000.04 294.451l-.123-.085c-.505-.241-1.447-.298-1.553 1.207a1.309 1.309 0 000 .198c.624.98 1.261 1.93 1.856 2.938l1 1.845.94 1.746 1.03 1.646 1 1.533c.37.525.77 1.036 1.13 1.419 2.37 3.151 1.92 1.49.93-.71-.09-.254-.2-.496-.34-.724-.23-.468-.55-1.121-.84-1.816-.63-1.419-1.24-2.739-1.24-2.739l-.83-1.533-1.01-1.873c-.61-.979-1.3-2.016-1.95-3.052zM994.106 293.245l-.12-.085c-.491-.256-1.459-.355-1.592 1.135a.513.513 0 000 .199c.61.993 1.234 1.973 1.778 3.023 1.632 2.966 3.052 6.102 4.578 9.225.292.61.61 1.206.916 1.802 0 0 .414.724 1.004 1.675a37.876 37.876 0 002.18 3.009c2.47 3.079 1.96 1.419.9-.724-.09-.25-.2-.488-.34-.71l-.85-1.817a36.41 36.41 0 01-.85-1.859l-.37-.865c-.25-.511-.52-1.008-.76-1.533-1.512-3.08-2.945-6.245-4.63-9.31-.544-1.093-1.207-2.129-1.844-3.165zM990.098 295.204l-.093-.128a1.07 1.07 0 00-.49-.352 1.014 1.014 0 00-.59-.022 1.06 1.06 0 00-.511.315c-.14.153-.237.346-.28.556a.359.359 0 000 .184 35.41 35.41 0 001.048 3.576 65.95 65.95 0 004.406 9.935c.305.61.637 1.192.955 1.788l1.075 1.618a61.932 61.932 0 002.136 2.98c2.336 3.151 1.938 1.547.943-.695.079.099-.558-1.221-1.208-2.555-.65-1.334-1.327-2.71-1.327-2.71a32.007 32.007 0 01-.809-1.505 63.396 63.396 0 01-4.26-9.565 33.811 33.811 0 01-.995-3.42zM985.679 300.228l-.106-.114c-.438-.326-1.327-.667-1.791.752a.828.828 0 000 .199l1.327 3.392c.411 1.093.942 2.143 1.419 3.221.478 1.079.956 2.143 1.526 3.18l.969 1.788 1.075 1.646c.335.5.703.975 1.101 1.419.398.497.81.994 1.194 1.419 2.522 3.009 2.004 1.42.889-.78.093.099-.623-1.164-1.327-2.427a35.827 35.827 0 01-1.327-2.697l-.809-1.419c-.557-.993-.982-2.072-1.486-3.108s-.982-2.058-1.393-3.15l-1.261-3.321zM984.379 307.281h-.08a1.66 1.66 0 00-.999.115 1.794 1.794 0 00-.779.68v.099l.637 1.504c.186.44.412.937.637 1.49.226.554.544 1.079.836 1.633.292.553.544 1.106.823 1.617.279.511.584.965.809 1.42l.796 1.319.173.199c.106.128.278.298.464.497.385.383.876.851 1.327 1.206 1.42 1.249 1.327.313.889-.766.106 0-1.327-2.455-1.207-2.484.119-.028-.306-.496-.743-1.249l-.77-1.277-.783-1.547a57.873 57.873 0 01-.77-1.533c-.238-.496-.424-.993-.597-1.419l-.663-1.504z" fill="#3B3A3B"/><path d="M1198.49 189.071s2.11-8.797-1.76-15.515c-3.86-6.719-7.05-2.11-9.86-.714-2.81 1.396-8.09-3.103-10.2-.341-2.11 2.761.36 4.918-.7 6.671-1.05 1.754-8.44-.357-9.5 4.655-1.06 5.011 4.57 4.918 2.45 7.37-2.11 2.451-7.03 3.103-4.56 7.758 2.47 4.654 6.68 3.522 6.68 5.275 0 1.753-4.57 5.275-1.76 8.782 2.81 3.506 6.69 1.055 7.76 2.824 1.08 1.768 2.46 6.671 4.57 7.757 2.11 1.086 7.39-.357 12.31-9.138 4.93-8.782 4.57-25.384 4.57-25.384z" fill="#3B3A3B" stroke="#3B3A3B" stroke-linecap="round" stroke-linejoin="round"/><path d="M1246.42 257.851c-1.13 2.436-10.62 8.937-10.62 8.937a7.227 7.227 0 01.67-3.103c.68-1.039 1.16-2.048 1.55-2.668a6.48 6.48 0 00-1.55-4.655c-1.29-1.428-2.32 2.157-2.87 4.546-.56 2.389-4.31 6.02-4.14 7.758.32 2.042.74 4.067 1.26 6.066l-10.63 8.611c-3.34 2.778-12.91 7.758-12.91 7.758a57.965 57.965 0 00-4.24-10.612 222.848 222.848 0 00-12.31-20.9c-3.74 5.213-.79 12.413 1.32 21.272 2.11 8.859 10.96 27.168 10.96 27.168a44.16 44.16 0 0014.23-7.479c7.88-5.927 18.37-22.125 18.37-22.125s3.1-1.381 6.94-2.7c3.83-1.319 3.27-2.436 3.89-6.206.62-3.77 3.84-8.906 3.65-10.861-.18-1.955-2.44-3.243-3.57-.807z" fill="#fff" stroke="#3B3A3B" stroke-linecap="round" stroke-linejoin="round"/><path d="M1184.76 214.377s-2.08 12.987-3.83 19.658c-1.76 6.672-3.92 6.315-3.92 6.315a28.657 28.657 0 00-14.41-3.103c-7.39.698-15.83 8.782-12.31 27.075 3.53 18.292 15.12 35.856 15.12 35.856l-5.97 22.141s-5.78 18.618-10.35 35.887c-4.56 17.269-10.94 43.211-13.77 48.486-2.82 5.275-13.38 12.412-21.83 28.518-8.45 16.105-20.19 46.376-20.19 46.376l3.11 3.522s36.94-41.148 46.44-50.984c9.51-9.837 24.99-35.516 29.19-50.628a92.806 92.806 0 0111.54-25.569s5.36 31.201 2.55 39.983c-2.81 8.782-7.77 23.91-7.39 34.802.37 10.892 7.43 52.334 7.43 52.334l6.34.341s6.33-29.883 11.6-57.656c5.26-27.773 8.1-39.72 8.1-68.268 0-28.549-9.5-61.519-11.61-66.096-2.11-4.577-2.47-5.617-2.47-5.617s4.92-6.33 4.92-11.962c0-5.633-6.32-15.516-6.32-15.516s2.81-5.617.34-10.194a13.306 13.306 0 00-5.91-5.973l2.41-12.304-8.81-17.424z" fill="#fff" stroke="#3B3A3B" stroke-linecap="round" stroke-linejoin="round"/><path d="M1162.63 310.465l-3.19 11.838s-5.78 18.619-10.35 35.887c-4.56 17.269-10.94 43.211-13.77 48.487-2.82 5.275-13.38 12.412-21.83 28.517-8.45 16.105-20.19 46.376-20.19 46.376l3.11 3.522s36.94-41.147 46.44-50.984c9.51-9.837 24.99-35.515 29.19-50.627a92.812 92.812 0 0111.54-25.57s5.36 31.202 2.55 39.984c-2.81 8.782-7.77 23.909-7.39 34.801.37 10.892 7.43 52.349 7.43 52.349l6.34.342s6.33-29.883 11.6-57.656c5.26-27.773 8.1-39.72 8.1-68.268 0-18.727-4.11-39.425-7.53-52.753-22.2 4.934-34.87 5.011-42.05 3.755z" fill="#3B3A3B" stroke="#3B3A3B" stroke-linecap="round" stroke-linejoin="round"/><path d="M1185.02 357.911l11.9-15.065" stroke="#fff" stroke-width=".75" stroke-linecap="round" stroke-linejoin="round"/><path d="M1196.73 186.961s-10.87.698-12.67 15.516c-1.8 14.817 1.06 33.746 10.87 36.197 9.81 2.452 20.76-14.057 21.82-28.114 1.05-14.057-7.7-26.423-20.02-23.599z" fill="#fff" stroke="#3B3A3B" stroke-linecap="round" stroke-linejoin="round"/><path d="M1210.63 221.84c0 1.164-.51 2.11-1.13 2.11-.62 0-1.14-.946-1.14-2.11s.5-2.095 1.14-2.095c.63 0 1.13.931 1.13 2.095zM1201.72 217.806c0 1.148-.5 2.095-1.12 2.095-.62 0-1.13-.947-1.13-2.095 0-1.148.49-2.11 1.13-2.11.64 0 1.12.931 1.12 2.11z" fill="#3B3A3B"/><path d="M1215.27 198.8c-2.98-8.317-9.89-13.825-18.54-11.839 0 0-10.87.698-12.67 15.516-.42 3.542-.57 7.11-.45 10.674l.1.218s-1.43-4.143 12.63-4.841c4.65-.28 16.29-10.442 18.93-9.728z" fill="#3B3A3B" stroke="#3B3A3B" stroke-linecap="round" stroke-linejoin="round"/><path d="M1207.7 198.598s6.21-7.448 11.33-2.917c5.12 4.53-4.21 14.553-2.27 17.47 1.94 2.917 7.44-.651 7.44-.651s-2.9 6.206-6.78 6.206c-3.89 0-8.75-5.167-8.75-10.349a50.924 50.924 0 00-.97-9.697" fill="#3B3A3B"/><path d="M1207.7 198.598s6.21-7.448 11.33-2.917c5.12 4.53-4.21 14.553-2.27 17.47 1.94 2.917 7.44-.651 7.44-.651s-2.9 6.206-6.78 6.206c-3.89 0-8.75-5.167-8.75-10.349a50.924 50.924 0 00-.97-9.697v0" stroke="#3B3A3B" stroke-linecap="round" stroke-linejoin="round"/><path d="M1187.23 213.679s-4.58-10.194-6.69-4.934c-2.11 5.26 1.41 11.264 4.58 11.264" fill="#fff"/><path d="M1187.23 213.679s-4.58-10.194-6.69-4.934c-2.11 5.26 1.41 11.264 4.58 11.264" stroke="#3B3A3B" stroke-linecap="round" stroke-linejoin="round"/><path d="M1199.06 264.585a12.852 12.852 0 01-2.39-4.158c-1-4.25-1.55-8.591-1.66-12.955l-.47-.481c-.79 5.632-3.27 15.841-10.54 11.683-7.27-4.158-13.06-15.671-15.23-20.915-1.14-.33-2.33-.487-3.51-.465 2.5 4.297 7.58 14.088 6.77 21.023-.9 7.758-7.42 22.467-19.57 14.662 3.18 9.55 7.51 18.678 12.89 27.183l-5.45 20.171c17.55 8.425 38.82 4.235 48.14 1.675-2.85-14.569-6.32-26.004-7.5-28.564-2.11-4.561-2.47-5.616-2.47-5.616s4.92-6.331 4.92-11.963c.06-3.227-2.07-7.913-3.93-11.28z" fill="#009688" stroke="#3B3A3B" stroke-linecap="round" stroke-linejoin="round"/><path d="M1166.11 239.683s-4.22-3.863-13.37 2.467c-9.14 6.33-36.24 24.964-37.26 28.828-1.03 3.863 40.46 42.186 43.63 44.297 3.17 2.11 7.76-.699 7.76-.699s12.77 1.552 13.48.14c.72-1.412-4.89-8.053-8.41-9.806-3.53-1.753-11.96 3.103-11.96 3.103s-17.08-19.161-20.56-25.849a64.118 64.118 0 00-4.92-8.44l28.15-16.167" fill="#fff"/><path d="M1166.11 239.683s-4.22-3.863-13.37 2.467c-9.14 6.33-36.24 24.964-37.26 28.828-1.03 3.863 40.46 42.186 43.63 44.297 3.17 2.11 7.76-.699 7.76-.699s12.77 1.552 13.48.14c.72-1.412-4.89-8.053-8.41-9.806-3.53-1.753-11.96 3.103-11.96 3.103s-17.08-19.161-20.56-25.849a64.118 64.118 0 00-4.92-8.44l28.15-16.167" stroke="#3B3A3B" stroke-linecap="round" stroke-linejoin="round"/><path d="M1165.55 311.272l4.01-.388 7.37 3.491M1165.68 308.556s3.88-1.163 5.82 0c1.94 1.164 6.99 3.879 6.99 3.879M1166.7 306.307s4.15-.668 5.81 0c1.68.913 3.24 2.022 4.66 3.304" stroke="#3B3A3B" stroke-width=".75" stroke-linecap="round" stroke-linejoin="round"/><path d="M1158.02 260.427h8.45" stroke="#3B3A3B" stroke-linecap="round" stroke-linejoin="round"/><path d="M1242.54 248.868l-8.54 20.077c-.16.356-.22.744-.19 1.13.03.387.15.76.36 1.089l1.43 2.296c.23.368.55.669.93.869.39.2.82.294 1.25.27.43-.024.85-.164 1.21-.405.36-.242.65-.576.83-.967l9.55-20.015c.22-.456.29-.97.2-1.468a2.389 2.389 0 00-.7-1.309l-2.43-2.343a2.423 2.423 0 00-2.16-.64c-.38.077-.74.246-1.05.492-.3.247-.54.564-.69.924z" fill="#3B3A3B"/><path d="M1231.34 277.494c.81-2.037 2.2-3.788 4.01-5.027 2.1-1 4.32-1.73 6.6-2.172 0 0 2.34-8.177 3.43-6.92 1.09 1.257.65 7.556.65 7.556" fill="#fff"/><path d="M1231.34 277.494c.81-2.037 2.2-3.788 4.01-5.027 2.1-1 4.32-1.73 6.6-2.172 0 0 2.34-8.177 3.43-6.92 1.09 1.257.65 7.556.65 7.556" stroke="#3B3A3B" stroke-linecap="round" stroke-linejoin="round"/><path d="M1249.59 260.66c-.38-.383-.9-.608-1.44-.631a2.144 2.144 0 00-1.48.507c-1.43 1.303-3.62 4.996-5.95 6.966" stroke="#3B3A3B" stroke-linecap="round" stroke-linejoin="round"/><path d="M1093.29 481.57s-12.77 6.765-17.33 13.421c-4.57 6.656-.84 10.38 7.9 7.478 8.75-2.901 12.6-17.377 12.6-17.377l-3.17-3.522zM1186.17 485.045s.78 9.899 4.52 13.639c3.74 3.739 16.21 9.138 17.08 4.561.87-4.577-13.71-15.36-13.71-15.36l-1.55-2.498-4.66-.419-1.68.077z" fill="#fff" stroke="#3B3A3B" stroke-linecap="round" stroke-linejoin="round"/><path d="M1209.28 216.751c-.87.348-1.65.898-2.26 1.605a5.799 5.799 0 00-1.28 2.46 15.667 15.667 0 00-.72 6.005l-4.93-.699M1194.78 227.364c.35.993.97 1.867 1.79 2.523a5.65 5.65 0 002.86 1.185M1198.32 212.515s4.06-2.824 7.59-.17M1209.28 216.751s5.12-2.11 5.12 1.769" stroke="#3B3A3B" stroke-linecap="round" stroke-linejoin="round"/></svg>