<svg width="431" height="203" fill="none" xmlns="http://www.w3.org/2000/svg"><g clip-path="url(#clip0)"><g opacity=".5" stroke="#000" stroke-miterlimit="10"><path opacity=".5" d="M301.126 14.56h112.492v181.992H301.126V14.559z"/><g opacity=".5"><path opacity=".5" d="M305.568 24.734h103.598v62.997H305.568V24.734z"/><path opacity=".5" d="M351.327 49.551h15.892v14.632h-15.892V49.551z"/></g><g opacity=".5"><path opacity=".5" d="M305.568 97.275h103.598v62.997H305.568V97.276z"/><path opacity=".5" d="M351.327 122.092h15.892v14.633h-15.892v-14.633z"/></g><path opacity=".5" d="M305.568 170.456h103.598v25.456H305.568v-25.456z"/></g><path d="M115.466 179.209v-2.949l-2.269-.478 2.269-.572v-.812l-2.049-.954 2.049-.611v-12.122h2.498v-2.491l-1.153-.096 1.153-.544v-.954l-2.86.42 1.907-2.339.953-1.403v-.534l-3.06-.191s1.735-1.06 3.06-2.014v-10.099h-3.06s1.687-.802 3.06-1.489v-3.751h69.888v6.118l3.137 1.251-3.108 1.384v.716c.953.553 2.602 1.555 2.86 2.157.419.849 1.277 2.758 1.277 2.758s-2.126-.42-2.764-.639a2.21 2.21 0 00-1.411.181v.115l2.478 2.472-2.469 1.088v8.39h-5.491v.582c.395.095.784.216 1.163.363a32.64 32.64 0 013.613 2.128l-3.184-.21 1.487 2.339-3.079.191v11.597h6.988v4.219c.5.103.975.301 1.401.582.497.36.954.773 1.363 1.231a30.384 30.384 0 011.821 2.176l-3.613-1.069 1.907 2.558-1.487.42 1.277 1.909-2.679.191v4.267h-69.85v-2.864l-2.44.096.858-.42-2.126-.64 2.126-2.128.629-2.549.953-.162v-6.834l-4.023.019z" fill="#B5B5B5"/><path d="M184.792 141.745h-42.49M184.372 145.363h-24.223M123.608 150.469h42.49M180.33 161.312h-57.361M181.398 153.867h-41.641M121.911 165.569h30.592M123.179 171.315h56.093M168.223 176.202h-33.147M121.482 179.18h55.245M185.011 187.055h-39.944M148.89 183.008h29.324M173.752 189.393h-42.499M124.885 182.588h11.469" stroke="#263238" stroke-miterlimit="10"/><path d="M96.4 119.677v-2.949l-2.269-.477 2.27-.573v-.811l-2.05-.955 2.05-.62v-12.141h2.497v-2.492l-1.154-.095 1.154-.544v-.954l-2.86.429 1.906-2.348.954-1.403v-.525l-3.06-.191s1.735-1.069 3.06-2.024v-10.07h-3.06s1.687-.801 3.06-1.479v-3.76h69.888v6.127l3.108 1.241-3.108 1.384v.716c.953.554 2.602 1.565 2.86 2.157.419.85 1.277 2.768 1.277 2.768s-2.126-.43-2.764-.64a2.151 2.151 0 00-1.411.173v.076l2.469 2.472-2.469 1.088v8.39h-5.492v.592c.397.09.786.212 1.164.363a31.574 31.574 0 013.613 2.119l-3.184-.21 1.525 2.367-3.079.191v11.597h6.987v4.228c.502.098.978.296 1.402.582.495.36.952.769 1.363 1.222.953 1.021 1.821 2.176 1.821 2.176l-3.613-1.059 1.906 2.548-1.487.43 1.278 1.909-2.679.191v4.266h-69.85v-2.863l-2.44.105.858-.43-2.126-.639 2.126-2.129.629-2.548.953-.163v-6.834l-4.023.019z" fill="#B5B5B5"/><path d="M165.726 82.214h-42.49M165.306 85.831h-24.224M104.541 90.938h42.49M161.264 101.79h-57.361M162.332 94.336h-41.641M102.844 106.038h30.592M104.112 111.784h56.094M149.157 116.68H116.01M102.415 119.658h55.245M165.945 127.523h-39.944M129.824 123.486h29.324M154.686 129.862h-42.499M105.819 123.056h11.468" stroke="#263238" stroke-miterlimit="10"/><path d="M51.66 179.209v-2.949l-2.269-.478 2.27-.572v-.812l-2.06-.954 2.06-.611v-12.122h2.497v-2.491l-1.154-.096 1.154-.544v-.954l-2.86.42 1.907-2.339.953-1.403v-.534l-3.07-.191s1.735-1.06 3.07-2.014v-10.099h-3.07s1.697-.802 3.07-1.489v-3.751h69.888v6.118l3.07 1.251-3.108 1.384v.716c.953.553 2.593 1.555 2.86 2.157.419.849 1.268 2.758 1.268 2.758s-2.126-.42-2.755-.639a2.21 2.21 0 00-1.411.181v.115l2.545 2.472-2.469 1.088v8.39h-5.51v.582c.395.096.783.218 1.163.363a33.733 33.733 0 013.613 2.128l-3.194-.21 1.487 2.339-3.069.191v11.597h6.988v4.219c.499.103.975.301 1.401.582.495.363.952.775 1.363 1.231a30.384 30.384 0 011.821 2.176l-3.613-1.069 1.907 2.558-1.488.42 1.268 1.909-2.669.191v4.267H55.617v-2.864l-2.44.096.848-.42-2.126-.64 2.126-2.128.638-2.549.954-.162v-6.834l-3.957.019z" fill="#B5B5B5" stroke="#263238" stroke-miterlimit="10"/><path d="M120.986 141.745h-42.49M120.566 145.363H96.342M59.801 150.469h42.49M116.524 161.312H59.163M117.592 153.867h-41.65M58.095 165.569h30.602M59.373 171.315h56.093M104.417 176.202H71.27M57.676 179.18h55.236M121.196 187.055H81.261M85.084 183.008h29.314M109.937 189.393h-42.49M61.07 182.588h11.477" stroke="#263238" stroke-miterlimit="10"/><path d="M34.12 179.209v-2.949l-2.27-.478 2.27-.572v-.812l-2.06-.954 2.06-.611v-12.122h2.497v-2.491l-1.153-.096 1.153-.544v-.954l-2.86.42 1.907-2.339.953-1.403v-.534l-3.07-.191s1.735-1.06 3.07-2.014v-10.099h-3.07s1.697-.802 3.07-1.489v-3.751h69.888v6.118l3.108 1.251-3.108 1.384v.716c.953.553 2.593 1.555 2.86 2.157.419.849 1.268 2.758 1.268 2.758s-2.126-.42-2.755-.639a2.21 2.21 0 00-1.411.181v.115l2.536 2.472-2.469 1.088v8.39h-5.491v.582c.394.096.783.218 1.163.363a33.733 33.733 0 013.613 2.128l-3.194-.21 1.487 2.339-3.069.191v11.597h6.987v4.219c.5.103.976.301 1.402.582.495.363.952.775 1.363 1.231a30.696 30.696 0 011.821 2.176l-3.613-1.069 1.906 2.558-1.487.42 1.268 1.909-2.669.191v4.267H38.133v-2.864l-2.44.096.848-.42-2.126-.64 2.135-2.109.639-2.549.953-.162v-6.834H34.12z" fill="#fff" stroke="#263238" stroke-miterlimit="10"/><path d="M103.445 141.745h-42.49M103.026 145.363H78.802M42.26 150.469h42.49M98.983 161.312H41.622M100.051 153.867h-41.65M40.554 165.569h30.602M41.832 171.315h56.093M86.876 176.202H53.73M40.135 179.18H95.37M103.655 187.055H63.72M67.543 183.008h29.314M92.396 189.393h-42.49M43.528 182.588h11.478" stroke="#263238" stroke-miterlimit="10"/><path d="M34.118 120.661v-2.95l-2.269-.477 2.27-.563v-.812l-2.06-.954 2.06-.62v-12.113h2.497v-2.5l-1.154-.096 1.154-.544v-.955l-2.86.42 1.907-2.338.953-1.413v-.525l-3.07-.19s1.735-1.06 3.07-2.015V81.927h-3.07s1.697-.811 3.07-1.489v-3.76h69.888v6.127l3.108 1.241-3.108 1.394v.716c.953.553 2.593 1.555 2.86 2.147.419.85 1.268 2.768 1.268 2.768s-2.126-.43-2.755-.64a2.209 2.209 0 00-1.411.182v.105l2.469 2.482-2.469 1.078v8.39h-5.491v.592c.394.097.783.218 1.163.363a32.241 32.241 0 013.613 2.128l-3.194-.219 1.487 2.348-3.069.191v11.597h6.987v4.219c.5.103.976.301 1.402.582.495.363.952.775 1.363 1.231a28.243 28.243 0 011.821 2.177l-3.613-1.07 1.906 2.559-1.487.419 1.268 1.909-2.669.191v4.267H38.065v-2.864l-2.44.096.848-.43-2.126-.63 2.202-2.109.639-2.558.953-.153v-6.843h-4.023z" fill="#fff" stroke="#263238" stroke-miterlimit="10"/><path d="M103.445 83.206h-42.49M103.026 86.814H78.802M42.26 91.92h42.49M98.983 102.773H41.622M100.051 95.328h-41.65M40.554 107.03h30.602M41.832 112.767h56.093M86.876 117.663H53.73M40.135 120.641H95.37M103.655 128.516H63.72M67.543 124.469h29.314M92.396 130.854h-42.49M43.529 124.049h11.477" stroke="#263238" stroke-miterlimit="10"/><path d="M159.281 193.67h81.499v-4.353l-81.499-4.352v8.705zM112.816 177.51l20.973-52.058 3.546 1.441v.85l-20.706 51.294a7.932 7.932 0 00-.522 3.798 7.926 7.926 0 007.882 7.083h27.484v4.152h-27.484a12.072 12.072 0 01-9.952-5.328 12.119 12.119 0 01-1.221-11.232z" fill="#fff" stroke="#263238" stroke-miterlimit="10"/><path d="M123.518 53.59l6.474-.782 14.644 121.522-6.473.782L123.518 53.59zM150.787 193.736h35.273v-4.152a8.774 8.774 0 00-2.255-5.878 8.749 8.749 0 00-5.61-2.846l-17.799-1.804a8.736 8.736 0 00-6.745 2.218 8.745 8.745 0 00-2.129 2.943 8.753 8.753 0 00-.754 3.554l.019 5.965z" fill="#fff" stroke="#263238" stroke-miterlimit="10"/><path d="M307.465 22.31s7.521-18.221 14.643-19.806c7.121-1.584 37.179 13.468 28.885 27.337-8.293 13.868-17.016 13.067-24.929 9.545-7.912-3.522-18.599-17.076-18.599-17.076z" fill="#263238" stroke="#263238" stroke-miterlimit="10"/><path d="M339.916 9.233s7.913-2.768 11.869-2.768c3.956 0 4.766 12.676 4.766 12.676s-2.793-12.284-16.635-9.908z" fill="#263238" stroke="#263238" stroke-miterlimit="10"/><path d="M254.451 36.179s-4.357 5.936-5.539 11.09c-1.182 5.155 1.973 10.691.791 15.053S242.501 69.5 244.501 73c.4 2.778 7.176 7.543 7.176 7.543s8.521 12.666 11.324 13.869c2.803 1.203 10.44 1.966 14.739 0 4.3-1.966 9.896-1.585 9.896-1.585l25.74-13.076s-2.775-5.154.39-12.676c3.165-7.521 4.767-20.206-14.633-32.882-19.4-12.675-44.682 1.986-44.682 1.986z" fill="#fff" stroke="#263238" stroke-miterlimit="10"/><path d="M258.007 79.751a4.202 4.202 0 015.148-1.584" stroke="#263238" stroke-miterlimit="10"/><path d="M254.861 60.337c0 1.975.619 3.57 1.382 3.57.763 0 1.392-1.594 1.392-3.57 0-1.976-.62-3.56-1.392-3.56-.772 0-1.382 1.593-1.382 3.56z" fill="#263238"/><path d="M258.798 50.439a3.629 3.629 0 00-5.539.391M255.833 68.259c-3.822 0-6.921-4.966-6.921-11.091 0-6.126 3.099-11.091 6.921-11.091 3.823 0 6.921 4.965 6.921 11.09 0 6.126-3.098 11.092-6.921 11.092zM262.754 57.168l30.859 3.178" stroke="#263238" stroke-miterlimit="10"/><path d="M299.953 67.868s7.512 8.323 11.868 8.323c4.357 0 12.661-5.556 16.617-11.454 3.956-5.899-3.956-20.999-8.313-29.713-4.357-8.715-12.26-23.376-28.485-26.545-16.226-3.169-22.556-1.976-36.398 5.154-13.842 7.13-12.269 17.43-9.896 20.598a37.074 37.074 0 005.939 5.947s-8.703-4.773-11.868-3.17c-3.165 1.604-3.175 3.561-3.175 3.561s9.896.401 11.087.401c1.192 0 5.139 1.976 5.139 1.976s8.313 1.985 12.66.792c4.347-1.193 10.286-5.584 10.706-.811.419 4.772 6.33 13.076 8.703 13.868 2.374.793 5.94 1.184 9.105 3.56 3.165 2.377 6.311 7.513 6.311 7.513z" fill="#263238" stroke="#263238" stroke-miterlimit="10"/><path d="M290.849 64.298s5.538-11.454 11.077-6.73c5.539 4.725-.391 17.029-2.764 18.222-2.374 1.193-7.122-1.986-7.122-1.986s-.4 5.155-1.983 7.531" fill="#fff"/><path d="M290.849 64.298s5.538-11.454 11.077-6.73c5.539 4.725-.391 17.029-2.764 18.222-2.374 1.193-7.122-1.986-7.122-1.986s-.4 5.155-1.983 7.531" stroke="#263238" stroke-miterlimit="10"/><path d="M322.499 92.828s-6.673-6.74-6.673-11.092-2.374-7.931-17.408-.792c-15.034 7.14-20.229 15.434-17.064 17.82 3.165 2.387 9.895 4.773 11.439 6.338 1.545 1.566 7.122 9.116 7.122 9.116s9.533-21.39 22.584-21.39z" fill="#009688" stroke="#263238" stroke-miterlimit="10"/><path d="M306.112 78.606s3.355.677 2.678 3.025a8.082 8.082 0 000 4.353l2.012 3.026M298.371 80.944s3.727 4.038 3.393 5.374c-.333 1.336-1.01 3.36.334 4.028 1.194.534 2.423.984 3.68 1.346M297.074 96.493a102 102 0 001.335 1.909M291.373 85.65s-.667 3.016.677 5.03c1.344 2.014 3.012 2.014 3.346 3.016M284.004 91.014a28.595 28.595 0 002.345 5.03c1.011 1.346 4.69 1.012 5.367 2.682a10.78 10.78 0 002.679 3.36M207.023 154.001c2.946-1.174 11.192-2.358 11.192-2.358M221.752 150.459s-6.483-1.765-10.601 0" stroke="#263238" stroke-miterlimit="10"/><path d="M208.339 164.147s-3.499 6.042-4.452 7.951c-.954 1.909-1.268 2.863-.315 2.863.953 0 4.452-1.584 4.767-3.493a7.818 7.818 0 01.953-2.864s-1.792 6.997-1.268 7.312c2.069 1.269 3.489-.955 3.489-.955l2.546-7.636s.953 3.818 1.268 4.773c.314.954 2.23-1.585 2.23-3.494a43.144 43.144 0 00-.324-4.457l1.907-1.594s-2.86-2.864-6.035-2.864c-3.174 0-4.766 4.458-4.766 4.458z" fill="#fff" stroke="#263238" stroke-miterlimit="10"/><path d="M257.273 154.602l-1.24-.086c-5.481-.363-27.236-1.823-28.599-1.823-1.592 0-10.801 5.087-10.801 5.087a43.798 43.798 0 00-8.58.325c-3.184.63-6.044 4.448-7.312 5.727-1.268 1.279-5.406 2.863-3.175 3.493 2.231.63 3.175.955 4.443.64 1.267-.315 6.358-3.818 6.358-3.818l8.266-1.27s7.626 4.133 8.579 4.448c.954.315-1.277 2.549-3.498 4.143-2.222 1.594-5.72 3.818-5.406 6.357.315 2.539 1.278 2.233 3.814 0 2.536-2.234 5.09-3.494 8.904-6.042a86.074 86.074 0 009.848-8.276l1.906-1.909s22.241 7.321 29.868 9.545a160.185 160.185 0 0021.268 4.458c4.767.639 13.976-1.27 16.521-3.179 2.546-1.909 9.219-7.96 9.219-7.96l-11.44-22.908s-13.67 12.733-19.066 14.002c-5.396 1.27-29.877-.954-29.877-.954z" fill="#fff" stroke="#263238" stroke-miterlimit="10"/><path d="M287.15 155.556c5.396-1.269 19.066-14.002 19.066-14.002l11.44 22.908s-6.673 6.051-9.219 7.96c-2.545 1.909-11.754 3.818-16.521 3.179a162.717 162.717 0 01-19.343-3.914 57.069 57.069 0 01-.362-4.677c-.124-3.608 0-7.693.181-11.329 6.14.353 12.346.477 14.758-.125z" fill="#92E3A9" stroke="#263238" stroke-miterlimit="10"/><path d="M295.062 117.94a31.679 31.679 0 015.94-18.336 19.456 19.456 0 017.254-6.385c13.213-6.013 22.499-1.651 30.869 9.545 16.616 22.192 27.98 48.545 32.413 59.426 9.352 22.679 11.068 30.859 11.068 30.859h-62.519s3.165-7.922 3.165-9.898-3.165-5.947-3.165-5.947-18.99-6.738-22.546-17.037c-2.584-7.579-2.641-30.592-2.479-42.227z" fill="#009688" stroke="#263238" stroke-miterlimit="10"/><path d="M202.905 123.333a102.722 102.722 0 00-14.776 4.133M193.477 121.567a41.709 41.709 0 00-10.019 5.899" stroke="#263238" stroke-miterlimit="10"/><path d="M335.56 134.023s-19.391 53.089-24.529 54.673c-5.139 1.585-10.287-.792-12.66-2.376-2.374-1.585-71.223-50.311-71.223-50.311s-12.269 7.139-14.643 7.139c-2.374 0-7.121 7.13-8.304 9.545-1.182 2.415-2.373 3.56-2.774 1.184-.4-2.377 2.774-7.522 3.566-9.106.455-.899.85-1.827 1.182-2.778-1.374.184-2.71.587-3.956 1.193-1.183.793-5.139 5.937-6.33 7.522-1.192 1.584-3.957 3.169-3.957.792s4.357-6.729 5.148-8.714a5.53 5.53 0 012.374-2.768s-7.522 1.183-9.533 1.975c-2.012.793-3.175 5.546-5.549 5.947-2.373.401 1.192-4.773 1.983-7.13.792-2.358 10.687-5.546 10.687-5.546s-6.33-.792-8.313-.792c-1.983 0-6.32 3.904-7.484 3.904-1.163 0-1.182-1.193 1.983-3.57s8.704-4.772 11.078-4.772a43.012 43.012 0 007.121-.793c2.374-.391 20.182-3.961 23.738-3.961 3.556 0 56.98 24.96 56.98 24.96l3.461-3.083a.42.42 0 01.238-.105l.581-.067a8.255 8.255 0 015.596 1.585c.286.191.572.162.811-.315.791-1.585 5.929-33.274 8.704-40.012 2.774-6.739 11.439-21.782 26.502-13.067" fill="#fff"/><path d="M335.56 134.023s-19.391 53.089-24.529 54.673c-5.139 1.585-10.287-.792-12.66-2.376-2.374-1.585-71.223-50.311-71.223-50.311s-12.269 7.139-14.643 7.139c-2.374 0-7.121 7.13-8.304 9.545-1.182 2.415-2.373 3.56-2.774 1.184-.4-2.377 2.774-7.522 3.566-9.106.455-.899.85-1.827 1.182-2.778-1.374.184-2.71.587-3.956 1.193-1.183.793-5.139 5.937-6.33 7.522-1.192 1.584-3.957 3.169-3.957.792s4.357-6.729 5.148-8.714a5.53 5.53 0 012.374-2.768s-7.522 1.183-9.533 1.975c-2.012.793-3.175 5.546-5.549 5.947-2.373.401 1.192-4.773 1.983-7.13.792-2.358 10.687-5.546 10.687-5.546s-6.33-.792-8.313-.792c-1.983 0-6.32 3.904-7.484 3.904-1.163 0-1.182-1.193 1.983-3.57s8.704-4.772 11.078-4.772a43.012 43.012 0 007.121-.793c2.374-.391 20.182-3.961 23.738-3.961 3.556 0 56.98 24.96 56.98 24.96l3.461-3.083a.42.42 0 01.238-.105l.581-.067a8.255 8.255 0 015.596 1.585c.286.191.572.162.811-.315.791-1.585 5.929-33.274 8.704-40.012 2.774-6.739 11.439-21.782 26.502-13.067" stroke="#263238" stroke-miterlimit="10"/><path d="M335.56 134.023s-19.391 53.089-24.529 54.673c-5.139 1.585-10.287-.792-12.66-2.376-1.259-.84-20.973-14.785-39.373-27.785l6.845-15.807c9.2 4.219 16.302 7.541 16.302 7.541l3.461-3.083a.414.414 0 01.238-.105l.581-.067a8.26 8.26 0 015.596 1.584c.286.191.572.163.811-.315.791-1.584 5.929-33.273 8.704-40.012 2.774-6.739 11.44-21.781 26.502-13.067" fill="#009688"/><path d="M335.56 134.023s-19.391 53.089-24.529 54.673c-5.139 1.585-10.287-.792-12.66-2.376-1.259-.84-20.973-14.785-39.373-27.785l6.845-15.807c9.2 4.219 16.302 7.541 16.302 7.541l3.461-3.083a.407.407 0 01.238-.105l.581-.067a8.26 8.26 0 015.596 1.584c.286.191.572.163.811-.315.791-1.584 5.929-33.273 8.704-40.012 2.774-6.739 11.44-21.781 26.502-13.067M292.775 149.572a83.276 83.276 0 009.933 10.222M295.044 152.13s6.52 2.272 11.916 3.694" stroke="#263238" stroke-miterlimit="10"/><path d="M382.606 193.049l10.915-95.83a8.799 8.799 0 013.348-5.954 8.765 8.765 0 016.595-1.75 8.771 8.771 0 015.736 3.367 8.792 8.792 0 011.729 6.426l-11.897 93.894-16.426-.153z" fill="#263238" stroke="#263238" stroke-miterlimit="10"/><path d="M330.259 167.889a4.857 4.857 0 015.815-.84c3.327 1.832 3.995 9.325 2.498 14.651-1.497 5.326-8.313 2.329-8.313 2.329l.162-3.493s5.653.658 5.987-2.329c.334-2.988.496-6.825-2.86-6.825s-4.328.831-4.328.831l1.039-4.324z" fill="#DEF7E5" stroke="#263238" stroke-miterlimit="10"/><path d="M304.405 161.36h26.397v31.632h-26.397V161.36z" fill="#DEF7E5" stroke="#263238" stroke-miterlimit="10"/><path d="M20.21 192.82h410.081v9.268H20.211v-9.268z" fill="#263238" stroke="#263238" stroke-miterlimit="10"/></g><defs><clipPath id="clip0"><path fill="#fff" transform="matrix(-1 0 0 1 430.768 -111.281)" d="M0 0h430.768v313.846H0z"/></clipPath></defs></svg>