<svg width="577" height="442" fill="none" xmlns="http://www.w3.org/2000/svg"><path d="M154.752 8.762c46.801-12.695 100.191-12.568 145.727 7.279a284.296 284.296 0 0144.955 24.86c108.439 72.902 112.568 181.402 93.644 233.959-10.831 30.066-40.41 48.061-65.57 64.321-22.275 14.399-61.357 31.685-71.587 58.683-13.809 36.424-32.837 87.405-91.3 69.368-58.463-18.038-103.999-36.075-150.26-120.465C14.097 262.377-3.29 203.408 7.862 149.486 22.917 76.766 84.876 27.667 154.752 8.762z" fill="#92E3A9"/><path opacity=".7" d="M150.943 20.025C197.745 7.33 251.134 7.457 296.67 27.304a284.296 284.296 0 0144.955 24.86c108.439 72.902 112.569 181.402 93.645 233.959-10.832 30.066-40.411 48.061-65.57 64.321-22.275 14.398-61.358 31.685-71.588 58.683-13.809 36.424-32.836 87.405-91.299 69.367-58.463-18.037-103.999-36.075-150.261-120.465s-63.65-143.358-52.498-197.28C19.108 88.028 81.068 38.93 150.943 20.025z" fill="#fff"/><path d="M372.917 294.486l2.485 12.678s-16.788 5.068-28.284 7.921c-11.495 2.852-10.155 1.861-16.958 10.908-2.147 6.294-4.623 19.11-4.623 19.11l-8.002 56.834-.948 4.12 26.121 4.439 4.657-15.851s2.845 5.078 2.845 8.559c0 3.482-3.101 36.555-3.101 36.555h96.943l10.879-69.203s5.008-34.436 5.625-39.823c.616-5.386-7.521-20.078-12.188-24.207-4.666-4.129-33.538.319-34.468 0-.929-.319-3.424-1.267-3.424-1.267l-.948-9.187a37.065 37.065 0 01-15.546 3.801c-8.394 0-20.866-8.559-20.866-8.559l-.199 3.172z" fill="#3B3A3B" stroke="#263238" stroke-miterlimit="10"/><path d="M375.676 395.868s17.49 7.514 29.46 9.08M345.904 353.471s-5.596 23.771-4.667 31.063a19.365 19.365 0 004.97 11.092" stroke="#263238" stroke-miterlimit="10"/><path d="M341.796 419.126s2.846-4.023-1.091-9.149c-3.936-5.125-14.227-7.359-19.035-6.692-4.809.667-8.091 4.013-12.245 8.027-4.155 4.013-8.318 7.359-8.318 7.359s-6.564-5.802-9.191-6.692c-2.627-.89-11.809 8.036-14.227 10.493-2.419 2.456-4.818 2.901.654 6.46 5.473 3.559 7 3.123 12.255 3.356 5.254.232 19.472-1.122 21.871-2.457 2.4-1.334 10.073-.899 15.755-2.901 9.38-3.307 9.38-3.569 13.572-7.804zM270.367 419.619s-6.052 1.035-7.816 2.292c-1.764 1.257-5.292 4.622-3.794 6.421 1.499 1.799 5.815-2.282 6.573-2.282.759 0 8.821 1.799 8.821 1.799s-.759-6.905-3.784-8.23z" fill="#fff" stroke="#263238" stroke-miterlimit="10"/><path d="M277.177 412.424s-7.815 1.547-8.536 3.868c-.721 2.321.256 14.139 1.015 15.676.758 1.538 3.025 1.548 4.031-.251 1.005-1.799 1.005-9.255 1.764-11.054.759-1.798 1.726-8.239 1.726-8.239z" fill="#fff" stroke="#263238" stroke-miterlimit="10"/><path d="M286.5 411.399s-6.042-2.312-8.821-1.286c-2.779 1.025-4.571 18.761-3.025 19.795a3.276 3.276 0 004.081-.736c.33-.381.573-.834.709-1.323.758-2.312 2.266-7.969 2.266-7.969l3.794-3.085" fill="#fff"/><path d="M286.5 411.399s-6.042-2.312-8.821-1.286c-2.779 1.025-4.571 18.761-3.025 19.795a3.276 3.276 0 004.081-.736c.33-.381.573-.834.709-1.323.758-2.312 2.266-7.969 2.266-7.969l3.794-3.085" stroke="#263238" stroke-miterlimit="10"/><path d="M293.69 409.184s8.005 8.191 10.253 9.506a13.796 13.796 0 007.151 1.867c2.969-.116 5.521-2.611 8.48-1.035.402.18.758.453 1.039.797.281.344.481.75.583 1.186.208 1.247-.75 2.379-1.726 3.172a15.983 15.983 0 01-6.869 3.189 15.826 15.826 0 01-7.539-.346 2.23 2.23 0 00-.948-.155 2.14 2.14 0 00-.873.464 18.922 18.922 0 01-4.979 3.124c-3.548 1.238-8.072.145-8.072.145" fill="#fff"/><path d="M293.69 409.184s8.005 8.191 10.253 9.506a13.796 13.796 0 007.151 1.867c2.969-.116 5.521-2.611 8.48-1.035.402.18.758.453 1.039.797.281.344.481.75.583 1.186.208 1.247-.75 2.379-1.726 3.172a15.983 15.983 0 01-6.869 3.189 15.826 15.826 0 01-7.539-.346 2.23 2.23 0 00-.948-.155 2.14 2.14 0 00-.873.464 18.922 18.922 0 01-4.979 3.124c-3.548 1.238-8.072.145-8.072.145M290.181 419.435s2.172 2.215 5.065-.967" stroke="#263238" stroke-miterlimit="10"/><path d="M291.044 414.484s-2.267 10.019-3.282 11.817c-1.015 1.799-3.528 2.573-5.036.774-1.509-1.799 2.01-15.415 2.266-17.475.065-.567.332-1.09.75-1.469a2.26 2.26 0 011.517-.591s3.794-.512 5.293.261c1.498.774 4.04 5.909 4.04 5.909" fill="#fff"/><path d="M291.044 414.484s-2.267 10.019-3.282 11.817c-1.015 1.799-3.528 2.573-5.036.774-1.509-1.799 2.01-15.415 2.266-17.475.065-.567.332-1.09.75-1.469a2.26 2.26 0 011.517-.591s3.794-.512 5.293.261c1.498.774 4.04 5.909 4.04 5.909" stroke="#263238" stroke-miterlimit="10"/><path d="M414.323 305.86c-.948-.31-3.424-1.267-3.424-1.267l-.948-9.187a37.065 37.065 0 01-15.546 3.801c-8.394 0-20.866-8.559-20.866-8.559l-.209 3.172 2.485 12.678s-6.213 2.398-14.095 4.623c3.67 8.345 13.166 28.142 25.913 32.145 12.53 3.927 30.835-23.732 38.451-36.381-6.591-.571-11.457-.919-11.761-1.025z" fill="#fff" stroke="#263238" stroke-miterlimit="10"/><path d="M410.9 304.593l1.071 7.659M414.779 319.824s-15.091 4.169-17.651 4.952c-2.561.783-4.866 1.828-5.378 3.133M371.794 322.436l11.969 5.492" stroke="#263238" stroke-miterlimit="10"/><path d="M417.994 260.031s1.821-4.227 3.633-.793c1.812 3.433 3.102 7.659.778 11.604a20.325 20.325 0 01-4.411 5.551l-2.067-17.165 2.067.803z" fill="#fff" stroke="#263238" stroke-miterlimit="10"/><path d="M357.918 269.798a16.084 16.084 0 00.237 11.092c2.333 6.073 9.068 5.541 9.068 5.541s6.212 10.039 10.879 14.507c4.666 4.467 17.463 6.919 22.898 5.062 5.435-1.857 13.874-8.234 16.207-18.002 2.334-9.767.256-24.032.256-24.032s1.034-8.703-1.811-15.84c-2.846-7.137-6.459-10.019-12.918-9.226-6.46.793-23.058 3.172-32.116 9.506-9.058 6.335-11.135 11.093-11.135 13.994s-1.565 7.398-1.565 7.398z" fill="#fff" stroke="#263238" stroke-miterlimit="10"/><path d="M408.424 247.091s2.59 5.803 4.923 7.389l2.333 1.586s1.29 5.802 1.812 7.92c.521 2.118 2.314 1.325 2.58-1.354.265-2.679.256-6.073.256-6.073a17.415 17.415 0 005.444-7.921c1.812-5.28 3.623-12.678-2.077-18.751s-11.913-7.398-14.758-6.605c-2.846.793-2.855 16.14-.513 23.809z" fill="#3B3A3B" stroke="#263238" stroke-miterlimit="10"/><path d="M357.918 269.798a2.806 2.806 0 013.879.532c1.821 2.108 1.044 5.009 2.077 6.073 1.034 1.064 3.368 1.847 3.624-1.325.256-3.172-1.812-8.181-.807-10.512 1.006-2.331 4.401-5.019 7.512-3.172 3.111 1.847 8.537 6.073 12.435 1.054 3.898-5.019 3.623-12.93 6.468-13.2 2.846-.271 2.334 2.64 9.068 1.847 6.734-.793 9.579-2.37 10.101-16.895.522-14.525-6.696-26.981-16.285-30.153-9.589-3.172-35.739 2.118-45.328 15.84-9.589 13.723-9.058 27.726-5.179 33.277 3.88 5.551 13.213 15.27 12.435 16.634z" fill="#3B3A3B" stroke="#263238" stroke-miterlimit="10"/><path d="M399.613 276.171l.778 6.605s4.922 6.073-.522 7.388c-5.444 1.316-5.179-2.108-5.179-2.108M389.512 293.83s6.212 3.694 10.879 2.901c4.666-.793 7.512-6.335 7.512-6.335" stroke="#263238" stroke-miterlimit="10"/><path d="M387.178 277.583c0 1.828-.948 3.307-2.067 3.307-1.119 0-2.077-1.479-2.077-3.307 0-1.828.948-3.298 2.077-3.298s2.067 1.48 2.067 3.298zM408.159 273.628c0 1.818-.949 3.297-2.077 3.297-1.129 0-2.068-1.479-2.068-3.297 0-1.819.949-3.298 2.068-3.298 1.119 0 2.077 1.47 2.077 3.298z" fill="#263238"/><path d="M376.043 271.113s5.691-4.487 12.691-3.162M401.424 265.533a9.169 9.169 0 014.373-2.381 9.05 9.05 0 014.951.273M391.001 271.094l-14.682 2.814a2.435 2.435 0 00-1.562 1.04 2.53 2.53 0 00-.383 1.861l1.044 5.232c.069.357.208.695.408.997.2.301.456.558.755.757a2.641 2.641 0 002.042.383l13.677-2.93a2.695 2.695 0 001.616-1.077c.391-.55.568-1.227.499-1.901l-.531-5a2.53 2.53 0 00-.311-.969 2.476 2.476 0 00-.665-.76 2.422 2.422 0 00-.908-.427 2.42 2.42 0 00-.999-.02zM402.127 268.744l15.109-2.631a2.028 2.028 0 011.784.391 2.115 2.115 0 01.786 1.679v5.27a3.314 3.314 0 01-.801 2.08 3.194 3.194 0 01-1.921 1.073l-14.132 2.099a2.247 2.247 0 01-1.793-.402 2.347 2.347 0 01-.92-1.62l-.522-4.835a3.005 3.005 0 01.624-2.021 2.9 2.9 0 011.786-1.083v0zM394.501 274.372a4.704 4.704 0 012.552-1.324 4.66 4.66 0 012.835.415M374.763 278.908l-12.017-6.199" stroke="#263238" stroke-miterlimit="10"/><path d="M434.5 347.446l-2.703 51.758s1.897.967 10.575 6.654c8.679 5.686 22.071 6.344 23.94 4.129 1.868-2.215-5.757-81.39-5.757-81.39" fill="#3B3A3B"/><path d="M434.5 347.446l-2.703 51.758s1.897.967 10.575 6.654c8.679 5.686 22.071 6.344 23.94 4.129 1.868-2.215-5.757-81.39-5.757-81.39" stroke="#263238" stroke-miterlimit="10"/><path d="M315.988 420.683s-.882.889-4.164 1.334c-3.282.445-7.654-1.112-8.745 2.234-1.091 3.346 3.936 5.358 6.782 4.913a56.88 56.88 0 008.09-2.418s6.127.223 8.973 1.335c2.845 1.112 5.027 2.901 9.409 1.789 4.382-1.112 8.195-.358 9.57-2.186 1.375-1.828 5.084-3.868-5.852-6.769a41.77 41.77 0 00-19.472-.668l-4.591.436z" fill="#fff" stroke="#263238" stroke-miterlimit="10"/><path d="M324.951 411.979s-3.936-1.335-6.127.222-5.245 13.162-6.118 16.479c-.872 3.317-.882 6.925.655 7.592 1.536.667 3.281-.667 4.372-3.569 1.091-2.901 7.218-15.618 7.882-17.185.664-1.566 1.963-3.984-.664-3.539z" fill="#fff" stroke="#263238" stroke-miterlimit="10"/><path d="M334.758 412.743s-7.787-1.431-9.76-.764c-1.972.667-6.829 12.494-7.047 14.767-.218 2.273-2.627 9.593.218 10.261 2.846.667 4.601-2.012 5.909-4.681 1.309-2.669 3.937-11.16 5.473-13.162a13.906 13.906 0 014.154-3.346s3.32-1.644 1.053-3.075z" fill="#fff" stroke="#263238" stroke-miterlimit="10"/><path d="M464.889 412.414s7.635-2.427-4.173-9.409c-11.809-6.983-23.94-7.921-27.98-6.335-4.041 1.586-64.497 21.469-64.497 21.469s-29.222-4.758-33.576-5.396c-4.353-.638-6.535 4.129-8.394 7.93s-4.353 14.264-3.737 15.531c.617 1.267 3.737.319 4.354-1.267.616-1.586 2.485-6.972 3.111-7.93.626-.957 5.283-3.8 5.283-3.8l7.464 1.267s-4.932 6.692-8.868 9.148c-3.936 2.456-2.409 5.126-.436 5.126 1.973 0 7.872-3.569 10.063-5.348 2.191-1.78 6.127-4.236 6.127-4.236a14.429 14.429 0 005.909 1.334 73.386 73.386 0 0013.127-2.011c2.4-.667 55.543-3.578 62.6-5.135 7.056-1.557 24.66-4.236 33.623-10.938z" fill="#fff" stroke="#263238" stroke-miterlimit="10"/><path d="M372.834 437.73H179.527v3.607h193.307v-3.607z" fill="#009688" stroke="#263238" stroke-miterlimit="10"/><path d="M372.845 437.73H304.08v3.607h68.765v-3.607zM306.622 437.73H181.748l-15.438-88.485a4.174 4.174 0 01.878-3.355c.378-.46.85-.83 1.383-1.083a3.957 3.957 0 011.703-.386h116.708c.945 0 1.86.34 2.585.959a4.127 4.127 0 011.378 2.427l15.677 89.923z" fill="#263238" stroke="#263238" stroke-miterlimit="10"/><path d="M304.402 437.73H179.528l-15.417-88.484a4.172 4.172 0 01.873-3.36c.378-.46.851-.83 1.385-1.083a3.965 3.965 0 011.705-.382h116.688a3.97 3.97 0 012.587.956 4.113 4.113 0 011.376 2.43l15.677 89.923z" fill="#009688" stroke="#263238" stroke-miterlimit="10"/><path d="M560.632 424.241h-83.497a8.38 8.38 0 00-5.973 2.529 8.712 8.712 0 00-2.473 6.093 8.71 8.71 0 002.477 6.086 8.373 8.373 0 005.969 2.526h83.497v-17.234z" fill="#fff" stroke="#263238" stroke-miterlimit="10"/><path d="M476.17 432.863a8.757 8.757 0 01.639-3.298 8.64 8.64 0 011.83-2.798 8.428 8.428 0 012.742-1.869 8.292 8.292 0 013.234-.657h-2.552a8.384 8.384 0 00-5.787 2.628 8.713 8.713 0 00-2.373 5.989c0 2.234.851 4.382 2.373 5.989a8.388 8.388 0 005.787 2.628h2.552a8.365 8.365 0 01-5.972-2.523 8.696 8.696 0 01-2.473-6.089zM501.049 432.863a8.738 8.738 0 01.64-3.298 8.607 8.607 0 011.83-2.798 8.413 8.413 0 012.741-1.869 8.292 8.292 0 013.234-.657h-2.552a8.384 8.384 0 00-5.787 2.628 8.713 8.713 0 00-2.373 5.989c0 2.234.851 4.382 2.373 5.989a8.388 8.388 0 005.787 2.628h2.552a8.365 8.365 0 01-5.972-2.523 8.696 8.696 0 01-2.473-6.089z" fill="#fff" stroke="#263238" stroke-miterlimit="10"/><path d="M517.317 424.241l-7.387 3.639-1.484 5.533 1.971 4.518 4.897 3.544h45.318v-17.234h-43.315z" fill="#fff" stroke="#263238" stroke-miterlimit="10"/><path d="M515.864 438.872a5.839 5.839 0 01-4.167-1.76 6.07 6.07 0 01-1.726-4.249c0-1.593.621-3.122 1.726-4.249a5.839 5.839 0 014.167-1.76h47.725v-2.613h-48.274a8.384 8.384 0 00-5.787 2.628 8.713 8.713 0 00-2.373 5.989c0 2.234.851 4.382 2.373 5.989a8.388 8.388 0 005.787 2.628h48.305v-2.603h-47.756z" fill="#fff" stroke="#263238" stroke-miterlimit="10"/><path d="M512.389 431.403h12.564M521.01 434.418h9.11M559.927 431.15h-13.301M551.793 435.17h-13.052M544.904 431.403h-3.206" stroke="#263238" stroke-miterlimit="10"/><path d="M560.632 406.595h-83.497a8.38 8.38 0 00-5.973 2.529 8.712 8.712 0 00-2.473 6.093 8.71 8.71 0 002.477 6.086 8.373 8.373 0 005.969 2.526h83.497v-17.234z" fill="#009688" stroke="#263238" stroke-miterlimit="10"/><path d="M476.17 415.217a8.757 8.757 0 01.639-3.298 8.64 8.64 0 011.83-2.798 8.428 8.428 0 012.742-1.869 8.292 8.292 0 013.234-.657h-2.552a8.384 8.384 0 00-5.787 2.628 8.713 8.713 0 00-2.373 5.989c0 2.234.851 4.382 2.373 5.989a8.388 8.388 0 005.787 2.628h2.552a8.365 8.365 0 01-5.972-2.523 8.696 8.696 0 01-2.473-6.089zM501.049 415.217a8.738 8.738 0 01.64-3.298 8.607 8.607 0 011.83-2.798 8.413 8.413 0 012.741-1.869 8.292 8.292 0 013.234-.657h-2.552a8.384 8.384 0 00-5.787 2.628 8.713 8.713 0 00-2.373 5.989c0 2.234.851 4.382 2.373 5.989a8.388 8.388 0 005.787 2.628h2.552a8.365 8.365 0 01-5.972-2.523 8.696 8.696 0 01-2.473-6.089z" fill="#fff" stroke="#263238" stroke-miterlimit="10"/><path d="M517.317 406.595l-7.387 3.639-1.484 5.533 1.971 4.518 4.897 3.544h45.318v-17.234h-43.315z" fill="#fff" stroke="#263238" stroke-miterlimit="10"/><path d="M515.864 421.226a5.852 5.852 0 01-4.013-1.848 6.082 6.082 0 01-1.642-4.166 6.08 6.08 0 011.642-4.166 5.852 5.852 0 014.013-1.848h47.725v-2.603h-48.274a8.384 8.384 0 00-5.787 2.628 8.713 8.713 0 00-2.373 5.989c0 2.234.851 4.382 2.373 5.989a8.388 8.388 0 005.787 2.628h48.305v-2.603h-47.756z" fill="#263238" stroke="#263238" stroke-miterlimit="10" stroke-linecap="round"/><path d="M512.389 413.757h12.564M521.01 416.772h9.11M559.927 413.504h-13.301M551.793 417.524h-13.052M544.904 413.757h-3.206" stroke="#263238" stroke-miterlimit="10"/><path d="M517.369 438.036H373.022v4.094h34.082l54.365-2.517 49.79 2.517h6.11v-4.094z" fill="#BABABA" stroke="#263238" stroke-miterlimit="10"/><path d="M406.886 438.036v4.094l49.25-.655.767.655h9.13l1.069-.804 50.267.804v-4.094H406.886z" fill="#263238" stroke="#263238" stroke-miterlimit="10"/><path d="M372.918 428.96s27.888-1.344 38.149-3.968c10.261-2.623 22.493-3.173 27.338-2.613a97.277 97.277 0 0110.531 2.042s19.94-2.042 33.604-.878c13.664 1.164 15.096 14.229 15.096 14.229H376.031l-3.113-8.812z" fill="#fff" stroke="#263238" stroke-miterlimit="10"/><path d="M460.794 438.036v-8.622s-14.712-8.177-28.521-5.004c-13.809 3.174-25.833 4.55-25.833 4.55v9.076h54.354zM460.794 438.036v-8.622s14.702-8.177 28.511-5.004c13.809 3.174 25.844 4.55 25.844 4.55v9.076h-54.355zM406.429 428.959h-33.511v9.088h33.511v-9.088z" fill="#fff" stroke="#263238" stroke-miterlimit="10"/><path d="M429.399 431.213c4.835-.518 9.867-1.058 13.208-1.322 6.857-.603 16.101 3.343 16.101 3.343M416.949 432.63c1.722-.222 4.638-.56 7.989-.931M457.225 435.667s-7.159-2.116-13.124-1.217M446.487 427.457c-4.098-.154-8.2.151-12.232.91M491.816 432.377c-5.032-.476-11.185-.963-14.909-.963-4.318 0-8.621.512-12.824 1.523M500.178 433.234l-3.631-.392M468.555 429.943a25.952 25.952 0 0114.618-.306M468.856 435.973a54.03 54.03 0 0112.232-1.216c5.364.307 19.09 1.523 19.09 1.523M102.369 441.887h486.753" stroke="#263238" stroke-miterlimit="10"/><path d="M132.426 338.62c2.473 1.111 8.489.916 8.489.916s-1.292-4.002-1.413-4.248c-1.324-2.802-5.5-7.434-8.889-6.962a4.011 4.011 0 00-1.57.628c-.474.32-.878.738-1.183 1.226a4.216 4.216 0 00-.488 3.329c.532 2.426 2.95 4.197 5.054 5.111z" fill="#92E3A9"/><path d="M134.526 356.359c2.547.368 7.9-1.227 8.332-1.346a73.764 73.764 0 003.269 9.158c.742 1.738 1.554 3.464 2.36 5.183-.515-.705-.928-1.378-1-1.462-2.01-2.35-7.234-5.688-10.381-4.324a4.075 4.075 0 00-1.349 1.033 4.144 4.144 0 00-.821 1.502 4.221 4.221 0 00.392 3.34c1.164 2.156 3.953 3.217 6.214 3.542 2.261.326 6.883-.933 8.093-1.284l.961 1.971c1.566 3.147 3.133 6.282 4.584 9.405a97.927 97.927 0 011.436 3.304c-.468-.641-.81-1.189-.908-1.243-1.999-2.349-7.228-5.692-10.377-4.317a4.054 4.054 0 00-1.35 1.029 4.16 4.16 0 00-.823 1.501 4.212 4.212 0 00.391 3.339c1.175 2.157 3.959 3.211 6.218 3.548 2.26.337 6.441-.816 7.891-1.24.446 1.146.908 2.3 1.275 3.417.261.799.53 1.501.71 2.311l.642 2.323c.353 1.486.732 3.022 1.038 4.484.224 1.016.453 1.958.617 2.959-.498-1.097-1.508-3.229-1.613-3.399-1.633-2.636-6.304-6.742-9.621-5.877a4.016 4.016 0 00-1.489.809 4.107 4.107 0 00-1.035 1.358 4.184 4.184 0 00-.1 3.364c.851 2.343 3.422 3.789 5.61 4.469 2.404.735 7.724.043 8.387-.052.323 1.619.617 3.199.879 4.694.58 3.297.996 6.22 1.35 8.752l2.247-.002a215.69 215.69 0 00-1.603-9.138c-.32-1.641-.695-3.399-1.098-5.195a42.821 42.821 0 004.669-2.252c1.757 1.924 6.27 4.208 6.832 4.468-.606 1.526-1.211 3.013-1.827 4.377a189.472 189.472 0 01-3.445 7.7l2.427-.009a209.924 209.924 0 002.888-6.898 185.688 185.688 0 001.89-4.944c.647.136 5.916 1.207 8.357.628 2.226-.525 4.92-1.814 5.909-4.059a4.198 4.198 0 00.143-3.366 4.135 4.135 0 00-.936-1.433 4.045 4.045 0 00-1.429-.919c-3.248-1.101-8.19 2.664-9.996 5.182-.11.143-1.088 1.882-1.714 3.006.258-.705.512-1.386.762-2.114.544-1.41.993-2.897 1.507-4.454l.667-2.31c.244-.764.399-1.609.591-2.443a79.184 79.184 0 001.085-5.806c1.234.458 5.654 2.013 7.942 1.84 2.288-.173 5.12-1.019 6.437-3.096a4.172 4.172 0 00.656-1.584 4.224 4.224 0 00-.034-1.72 4.172 4.172 0 00-.717-1.556 4.065 4.065 0 00-1.276-1.124c-3.045-1.585-8.487 1.374-10.651 3.576-.151.114-1.535 1.913-2.245 2.881.175-1.179.36-2.357.503-3.552a332.96 332.96 0 001.05-10.484l.311-3.227c.435.168 5.649 2.127 8.213 1.944 2.27-.17 5.115-1.025 6.443-3.101a4.203 4.203 0 00-.096-4.824 4.07 4.07 0 00-1.258-1.123c-3.049-1.591-8.492 1.367-10.651 3.576-.182.138-2.134 2.697-2.605 3.364.232-2.359.482-4.692.842-7.008a74.254 74.254 0 012.051-9.153c.202.076 5.635 2.148 8.268 1.952 2.271-.17 5.115-1.025 6.437-3.096a4.208 4.208 0 00.616-3.28 4.156 4.156 0 00-.706-1.547 4.053 4.053 0 00-1.258-1.125c-3.048-1.591-8.487 1.373-10.651 3.575-.188.144-2.291 2.897-2.641 3.422.048-.176.079-.359.133-.54a53.686 53.686 0 013.577-8.697c.789-1.595 1.601-2.999 2.431-4.378.972.488 5.441 2.684 7.825 2.777 2.384.093 5.206-.446 6.734-2.355.375-.435.656-.947.824-1.501a4.202 4.202 0 00-.396-3.34 4.095 4.095 0 00-1.15-1.258c-2.855-1.927-8.584.412-10.981 2.362-.132.1-1.327 1.327-2.191 2.232.386-.622.769-1.262 1.141-1.863a80.382 80.382 0 014.151-5.824 68.546 68.546 0 012.09-2.584c1.203-.027 6.042-.185 8.156-1.212 2.113-1.028 4.418-2.849 4.94-5.278a4.215 4.215 0 00.051-1.718 4.178 4.178 0 00-.64-1.591 4.09 4.09 0 00-1.218-1.187 3.992 3.992 0 00-1.588-.579c-3.422-.391-7.43 4.398-8.673 7.246-.103.247-1.338 4.295-1.282 4.292h.079a96.865 96.865 0 00-2.049 2.454c-1.332 1.669-2.808 3.568-4.286 5.746a74.467 74.467 0 00-4.464 7.268 55.03 55.03 0 00-3.793 8.762l-.027.11c.022-1.013-.038-3.878-.062-4.098-.409-3.089-2.96-8.815-6.321-9.441a4.011 4.011 0 00-3.182.886 4.11 4.11 0 00-1.054 1.342 4.209 4.209 0 00-.428 1.663c-.17 2.442 1.565 4.911 3.284 6.475 1.918 1.743 7.27 3.448 7.68 3.555a73.641 73.641 0 00-2.228 9.486c-.329 1.864-.589 3.756-.852 5.63a61.45 61.45 0 00-.052-1.784c-.403-3.092-2.954-8.819-6.321-9.44a3.955 3.955 0 00-1.683.098 4.02 4.02 0 00-1.499.788 4.123 4.123 0 00-1.054 1.342 4.187 4.187 0 00-.427 1.663c-.171 2.442 1.564 4.911 3.284 6.475 1.719 1.564 6.245 3.09 7.437 3.49l-.258 2.189c-.383 3.49-.765 6.98-1.275 10.417-.162 1.209-.376 2.388-.579 3.569-.016-.785-.033-1.45-.047-1.549-.397-3.087-2.959-8.815-6.32-9.441a3.97 3.97 0 00-1.683.1 4.019 4.019 0 00-1.498.79c-.44.368-.798.825-1.053 1.344a4.21 4.21 0 00-.425 1.663c-.175 2.436 1.56 4.905 3.284 6.476 1.724 1.57 5.807 2.944 7.23 3.408a414.02 414.02 0 01-.776 3.579c-.213.78-.369 1.556-.632 2.334l-.72 2.291c-.509 1.443-1.025 2.931-1.561 4.325-.364.974-.726 1.897-1.088 2.819.183-1.195.487-3.548.498-3.746a16.362 16.362 0 00-2.137-7.795 4.641 4.641 0 00-.072-.942 4.188 4.188 0 00-.56-1.622 4.09 4.09 0 00-1.159-1.248 4.003 4.003 0 00-1.557-.66 3.973 3.973 0 00-1.685.043c-3.306.907-5.382 6.829-5.531 9.942-.01.187.112 2.187.211 3.447-.17-.728-.324-1.447-.508-2.195-.347-1.491-.745-2.972-1.162-4.559l-.701-2.298c-.214-.774-.547-1.578-.814-2.372a87.716 87.716 0 00-2.216-5.442c1.283-.317 5.806-1.51 7.624-2.941 1.819-1.431 3.725-3.746 3.696-6.206a4.188 4.188 0 00-1.269-3.103 3.992 3.992 0 00-3.111-1.114c-3.4.39-6.338 5.92-6.944 8.972-.044.193-.236 2.432-.323 3.664-.489-1.084-.967-2.166-1.501-3.245-1.525-3.118-3.169-6.224-4.78-9.326l-1.477-2.864c.452-.104 5.864-1.405 7.891-3.005 1.806-1.421 3.725-3.746 3.696-6.206a4.19 4.19 0 00-.311-1.689 4.14 4.14 0 00-.958-1.414 4.037 4.037 0 00-1.44-.894 3.976 3.976 0 00-1.671-.22c-3.4.39-6.338 5.921-6.955 8.97-.038.229-.321 3.454-.364 4.264a188.57 188.57 0 01-3.087-6.326 74.087 74.087 0 01-3.357-8.782c.209-.049 5.847-1.362 7.929-3.033 1.806-1.422 3.724-3.746 3.696-6.206a4.188 4.188 0 00-1.269-3.103 4.023 4.023 0 00-3.112-1.114c-3.399.39-6.338 5.921-6.949 8.977-.045.233-.341 3.707-.353 4.333-.054-.168-.124-.344-.177-.523a54.136 54.136 0 01-1.756-9.28c-.195-1.726-.28-3.395-.34-5.014 1.079-.142 5.999-.819 8.015-2.101 2.015-1.282 4.103-3.307 4.348-5.755a4.226 4.226 0 00-.128-1.715 4.18 4.18 0 00-.801-1.515 4.083 4.083 0 00-1.336-1.051 4 4 0 00-1.64-.407c-3.423.009-6.956 5.194-7.871 8.142-.057.163-.39 1.861-.65 3.125-.018-.734-.044-1.492-.038-2.194.016-2.653.152-5.049.298-7.203a103.7 103.7 0 01.328-3.338c.989-.692 4.94-3.553 6.156-5.594 1.217-2.04 2.148-4.86 1.249-7.147a4.142 4.142 0 00-.892-1.464 4.042 4.042 0 00-1.4-.964 3.976 3.976 0 00-3.304.12c-3.036 1.609-3.806 7.874-3.307 10.924.046.264 1.205 4.327 1.254 4.3l.057-.043c-.13.986-.259 2.04-.38 3.199-.195 2.141-.413 4.559-.462 7.207-.094 2.854-.02 5.71.219 8.555.25 3.186.778 6.344 1.576 9.436l.03.107c-.532-.862-2.127-3.218-2.266-3.382-2.01-2.35-7.238-5.694-10.381-4.323a4.067 4.067 0 00-1.35 1.029 4.16 4.16 0 00-.823 1.501 4.203 4.203 0 00.391 3.339c1.225 2.119 4.033 3.205 6.27 3.499z" fill="#92E3A9"/><path d="M193.162 339.824c.033.045 1.082-4.071 1.114-4.334.414-3.086-.56-9.302-3.615-10.809a3.983 3.983 0 00-3.299 0 4.047 4.047 0 00-1.363 1.013c-.379.431-.665.94-.839 1.492-.824 2.31.225 5.151 1.475 7.102 1.449 2.318 6.516 5.535 6.527 5.536z" fill="#92E3A9"/><path d="M184.021 417.026h-31.156l2.604 24.734h25.959l2.593-24.734z" fill="#3B3A3B" stroke="#3B3A3B" stroke-miterlimit="10" stroke-linecap="round"/></svg>