<svg width="445" height="188" fill="none" xmlns="http://www.w3.org/2000/svg"><path d="M404.674 6.995c.479 1.652 2.974 4.519 2.974 4.519s1.321-2.225 1.386-2.382c.758-1.762 1.215-5.648-.357-7.12a2.517 2.517 0 00-.917-.518 2.427 2.427 0 00-2.013.261 2.491 2.491 0 00-.747.734c-.902 1.225-.748 3.113-.326 4.506z" fill="#92E3A9"/><path d="M397.408 15.16c.849 1.385 3.724 3.361 3.951 3.525a44.622 44.622 0 00-2.9 5.218c-.502 1.05-.971 2.128-1.439 3.202.118-.53.262-.998.272-1.066.276-1.91-.28-5.776-2.166-6.769a2.466 2.466 0 00-1.014-.248 2.444 2.444 0 00-1.866.799c-.238.26-.418.57-.531.91-.524 1.42.103 3.198.858 4.429.755 1.23 3.183 2.983 3.828 3.433l-.521 1.249c-.82 2.008-1.634 4.013-2.489 5.956a59.461 59.461 0 01-.944 2.008c.108-.482.223-.865.208-.935.28-1.903-.275-5.774-2.167-6.763a2.466 2.466 0 00-1.013-.25 2.417 2.417 0 00-1.866.796c-.238.26-.418.57-.531.91-.521 1.425.108 3.2.857 4.433.749 1.234 2.952 2.814 3.726 3.353-.348.67-.693 1.353-1.06 1.974-.263.443-.478.852-.778 1.26l-.81 1.233c-.542.76-1.096 1.553-1.646 2.28-.377.512-.719.997-1.113 1.473.305-.677.881-2.013.917-2.131.558-1.84.577-5.74-1.148-7.014a2.493 2.493 0 00-.967-.405 2.427 2.427 0 00-1.968.5c-.273.22-.497.5-.657.817-.736 1.342-.372 3.167.191 4.502.624 1.462 3.07 3.78 3.379 4.065-.615.798-1.223 1.567-1.806 2.286a143.89 143.89 0 01-3.482 4.123l.9 1.093a127.866 127.866 0 003.558-4.398 112.02 112.02 0 001.948-2.592c.941.52 1.91.982 2.903 1.383-.181 1.618.574 4.72.679 5.097-.943.31-1.868.603-2.742.843-1.834.561-3.488 1.004-4.916 1.37l.975 1.18a120.64 120.64 0 007.353-2.362c.196.37 1.812 3.36 3.054 4.32 1.132.876 2.802 1.678 4.23 1.27.34-.081.659-.236.935-.453.277-.218.505-.494.669-.81a2.58 2.58 0 00.284-1.023 2.637 2.637 0 00-.15-1.06c-.793-2.017-4.5-2.935-6.38-2.817-.11.003-1.3.215-2.066.355.426-.153.841-.3 1.276-.466.865-.293 1.728-.663 2.649-1.029l1.329-.59c.448-.183.899-.442 1.359-.679a45.73 45.73 0 003.102-1.77c.283.782 1.337 3.55 2.331 4.597.995 1.046 2.517 2.09 3.998 1.91a2.424 2.424 0 001.767-1.006c.208-.286.354-.615.429-.965.075-.35.077-.714.006-1.067-.49-2.11-4.027-3.59-5.904-3.772-.113-.029-1.493.01-2.222.047.612-.382 1.227-.758 1.834-1.161a195.765 195.765 0 005.237-3.64l1.608-1.126c.097.279 1.282 3.594 2.392 4.77.986 1.039 2.517 2.086 4.002 1.911a2.42 2.42 0 00.981-.309c.301-.172.564-.408.77-.692.206-.283.352-.609.428-.956.076-.346.08-.706.013-1.057-.489-2.115-4.026-3.595-5.904-3.773-.137-.034-2.094.029-2.588.063 1.176-.82 2.348-1.622 3.557-2.364a42.979 42.979 0 015.027-2.625c.046.129 1.267 3.596 2.41 4.8.987 1.04 2.518 2.086 3.998 1.91a2.42 2.42 0 00.982-.308c.302-.172.565-.407.771-.69.207-.284.353-.61.429-.957a2.62 2.62 0 00.014-1.058c-.488-2.115-4.026-3.59-5.904-3.772-.141-.036-2.248.03-2.629.068.1-.047.197-.104.302-.15a31.049 31.049 0 015.427-1.7 34.256 34.256 0 012.985-.55c.164.667.942 3.714 1.854 4.912.911 1.197 2.287 2.359 3.776 2.347a2.416 2.416 0 001.867-.797c.237-.261.417-.572.529-.91.111-.34.151-.7.118-1.06-.257-2.153-3.623-4.018-5.478-4.413-.099-.025-1.141-.121-1.903-.183.441-.059.888-.125 1.313-.182 1.585-.176 3.04-.261 4.337-.284a41.416 41.416 0 012.024-.005c.493.575 2.502 2.87 3.819 3.492 1.318.623 3.077 1.025 4.402.317a2.45 2.45 0 00.81-.655 2.55 2.55 0 00.475-.942 2.628 2.628 0 00-.311-2.066c-1.189-1.822-4.993-1.878-6.799-1.356-.155.048-2.51 1.05-2.486 1.075l.032.039a58.94 58.94 0 00-1.947-.027c-1.3.012-2.764.045-4.356.188a43.325 43.325 0 00-5.126.703 31.893 31.893 0 00-5.544 1.621l-.061.03a54.853 54.853 0 001.859-1.652c1.255-1.422 2.866-4.932 1.81-6.817a2.593 2.593 0 00-.718-.781 2.508 2.508 0 00-.962-.418 2.433 2.433 0 00-1.974.468c-1.19.884-1.631 2.707-1.662 4.163-.033 1.624 1.323 4.906 1.438 5.149a42.6 42.6 0 00-5.25 2.67c-.989.578-1.962 1.2-2.928 1.814.397-.358.753-.682.799-.732 1.26-1.42 2.871-4.93 1.81-6.816a2.584 2.584 0 00-.719-.781 2.5 2.5 0 00-.961-.418 2.435 2.435 0 00-1.974.468c-1.191.884-1.631 2.706-1.662 4.163-.031 1.457 1.078 4.266 1.371 5.005l-1.109.74c-1.757 1.196-3.514 2.392-5.297 3.504-.621.4-1.248.763-1.872 1.131.354-.319.653-.59.693-.636 1.26-1.416 2.867-4.931 1.811-6.817a2.595 2.595 0 00-.72-.78 2.498 2.498 0 00-.962-.416 2.433 2.433 0 00-1.973.47c-1.19.88-1.63 2.702-1.662 4.164-.032 1.461.969 3.994 1.326 4.87-.649.348-1.298.695-1.956 1.04-.443.205-.862.436-1.325.616l-1.341.556c-.867.324-1.757.662-2.612.953-.593.208-1.162.397-1.731.586a68.576 68.576 0 001.921-1.24 9.827 9.827 0 002.728-4.128c.148-.121.283-.258.403-.408.235-.263.413-.575.522-.915a2.63 2.63 0 00-.904-2.882c-1.739-1.252-5.291.082-6.781 1.242-.09.069-.96.92-1.5 1.468.267-.371.536-.732.805-1.117.547-.76 1.069-1.54 1.631-2.371l.776-1.251c.27-.411.506-.891.764-1.336a53.279 53.279 0 001.614-3.234c.659.5 3.017 2.23 4.402 2.55 1.385.318 3.211.33 4.331-.658.271-.222.493-.502.652-.82a2.64 2.64 0 00-.467-2.983c-1.539-1.502-5.256-.743-6.9.17-.107.055-1.213.848-1.814 1.293.303-.667.609-1.328.891-2.016.823-1.977 1.593-4.008 2.374-6.02l.725-1.854c.229.179 2.992 2.3 4.538 2.654 1.376.317 3.211.331 4.33-.656a2.49 2.49 0 00.652-.82 2.602 2.602 0 00.102-2.083 2.621 2.621 0 00-.568-.9c-1.539-1.503-5.256-.744-6.904.163a77.74 77.74 0 00-2.106 1.51 117.597 117.597 0 011.673-4.008 44.934 44.934 0 012.693-5.112c.106.082 2.965 2.31 4.566 2.662 1.375.316 3.211.33 4.33-.657a2.49 2.49 0 00.652-.82c.158-.319.249-.669.267-1.027a2.638 2.638 0 00-.733-1.957c-1.54-1.501-5.256-.743-6.906.17-.125.07-1.84 1.301-2.132 1.543.055-.093.108-.196.169-.293a32.15 32.15 0 013.563-4.53 38.364 38.364 0 012.168-2.15c.497.469 2.776 2.597 4.172 3.072 1.395.474 3.161.69 4.383-.161.295-.19.546-.443.738-.742.191-.298.319-.635.375-.99a2.63 2.63 0 00-.52-2.026c-1.374-1.664-5.17-1.332-6.891-.61-.097.036-1.011.546-1.695.92.33-.3.668-.612.992-.887a67.061 67.061 0 013.43-2.707 60.06 60.06 0 011.665-1.162c.714.208 3.609 1 5.034.784 1.424-.215 3.092-.878 3.784-2.221a2.57 2.57 0 00.315-1.014 2.647 2.647 0 00-.645-1.993 2.55 2.55 0 00-.848-.633c-1.954-.842-5.141 1.264-6.344 2.714-.103.127-1.506 2.3-1.474 2.314l.043.01c-.505.327-1.041.682-1.622 1.082-1.062.753-2.261 1.604-3.498 2.629a42.984 42.984 0 00-3.843 3.493 32.503 32.503 0 00-3.706 4.504l-.037.057c.183-.6.628-2.31.648-2.443.275-1.91-.279-5.78-2.167-6.768a2.463 2.463 0 00-1.013-.25 2.416 2.416 0 00-1.866.796c-.238.261-.418.57-.53.91-.484 1.435.14 3.233.9 4.44z" fill="#92E3A9"/><path d="M428.478 36.934c-.008.034 2.302-1.09 2.436-1.179 1.583-1.025 4.049-3.975 3.519-6.07a2.651 2.651 0 00-.495-.95 2.556 2.556 0 00-.825-.664 2.45 2.45 0 00-1.01-.264 2.403 2.403 0 00-1.021.183c-1.39.516-2.276 2.16-2.672 3.548-.485 1.63.064 5.39.068 5.396zM430.526 210.524c5.381-78.353-35.363-153.36-105.962-191.58a213.475 213.475 0 00-41.676-17.121C169.886-31.29 127.734-3.406 98.138 31.449c-29.595 34.855-1.793 94.108-35.873 118.506-34.08 24.399-75.335 59.253-58.295 110.664 17.04 51.411 59.192 85.394 98.653 81.909 39.461-3.486 80.716-48.797 108.518-19.17 27.802 29.626 116.589 58.381 174.884 8.713 31.156-26.542 41.559-78.719 44.501-121.547z" fill="#92E3A9"/><path opacity=".7" d="M442.526 196.524c5.381-78.353-35.363-153.36-105.962-191.579a213.475 213.475 0 00-41.676-17.123C181.886-45.288 139.734-17.406 110.139 17.45c-29.596 34.855-1.794 94.108-35.874 118.506-34.08 24.399-75.335 59.253-58.295 110.664 17.04 51.411 59.192 85.394 98.653 81.909 39.461-3.486 80.716-48.797 108.518-19.17 27.802 29.626 116.589 58.381 174.884 8.713 31.156-26.542 41.559-78.719 44.501-121.547z" fill="#fff"/><path opacity=".5" d="M369.772 4.798H106.74v176.443h263.032V4.798z" stroke="#009688" stroke-miterlimit="10"/><path opacity=".5" d="M366.252 7.171H110.273V178.88h255.979V7.171z" stroke="#009688" stroke-miterlimit="10"/><path opacity=".3" d="M141.252 32.888s2.81 15.197 2.81 19.702v15.75s11.206.564 20.163 0c8.958-.565 19.613-6.187 19.613-6.187s-3.922-15.197-3.922-19.138c0-3.94-2.294-13.503-2.294-13.503l-36.37 3.376zM142.376 127.446s-1.674 12.939-1.674 18.573-2.81 14.633-2.81 14.633 13.453 5.069 16.814 5.069c3.361 0 17.927-1.152 17.927-1.152l2.237-33.205s-28.009-2.789-32.494-3.918zM204.575 57.648l6.767 30.947s8.407.565 17.365.565c8.958 0 24.086-8.446 24.086-8.446s-7.283-14.632-7.283-18.573c0-3.94-2.294-15.197-2.294-15.197s-22.939 7.317-26.38 7.881c-3.441.565-12.261 2.823-12.261 2.823zM254.996 49.214s-1.674 20.255-1.674 22.513c0 2.259-.562 11.257-.562 11.257a159.09 159.09 0 0017.365 1.682c6.17 0 16.814-.564 16.814-.564s-.562-19.69.562-21.385c1.124-1.693 1.675-10.692 1.675-10.692s-31.955-2.258-34.18-2.81zM267.326 94.24v13.504c0 2.247-1.147 18.573-1.147 18.573s14.566.565 20.175 0c5.608-.565 16.802-3.94 16.802-3.94l-1.674-18.009-1.147-12.386s-26.85 3.94-33.009 2.259zM351.937 18.313l-12.892.565h-6.721v9.563c0 2.81-.562 11.82-.562 13.503 0 1.682 8.969 2.823 12.891 2.823h14.005l.562-27.583-7.283 1.129z" fill="#fff" stroke="#009688" stroke-miterlimit="10"/><g opacity=".5" stroke="#009688" stroke-miterlimit="10"><path opacity=".5" d="M319.444 79.044h24.086M319.444 84.666h24.086M319.444 90.3h24.086M319.444 95.923h24.086"/></g><g opacity=".5" stroke="#009688" stroke-miterlimit="10"><path opacity=".5" d="M195.057 14.88h79.553M195.056 20.502h79.553"/></g><g opacity=".5" stroke="#009688" stroke-miterlimit="10"><path opacity=".5" d="M276.295 137.574h24.098M276.295 143.208h24.098M276.295 148.83h24.098M276.295 154.464h24.098"/></g><g opacity=".5" stroke="#009688" stroke-miterlimit="10"><path opacity=".5" d="M126.698 100.428h24.086M126.697 106.062h24.086M126.697 111.685h24.086M126.697 117.319h24.086"/></g><g opacity=".5" stroke="#009688" stroke-miterlimit="10"><path opacity=".5" d="M296.47 29.512h24.086M296.47 35.135h24.086M296.47 40.769h24.086M296.47 46.391h24.086"/></g><path opacity=".5" d="M208.246 83.26l-13.821 3.964 3.555 3.088c-6.457 4.275-20.14 11.591-29.098 4.16-12.009-9.967-8.774-18.574-8.636-18.942l-1.056-.427-1.066-.438c-.172.415-4.084 10.474 9.301 21.58a16.46 16.46 0 0010.839 3.768c8.362 0 16.987-5 21.54-8.065l4.496 3.906 3.946-12.593zM347.727 59.572l-3.991-13.365-7.318 10.692 4.061.956-4.221 15.244 2.213.622 4.244-15.336 5.012 1.187z" fill="#3B3A3B"/><path opacity=".3" d="M164.226 34.57a3.39 3.39 0 00-.545-1.889 3.347 3.347 0 00-5.18-.556 3.387 3.387 0 00.501 5.208 3.35 3.35 0 004.227-.41 3.382 3.382 0 00.997-2.353z" fill="#fff" stroke="#009688" stroke-miterlimit="10"/><path opacity=".3" d="M225.864 55.966a3.381 3.381 0 00-2.075-3.12 3.346 3.346 0 00-3.662.733 3.383 3.383 0 00.509 5.194 3.35 3.35 0 004.243-.42 3.381 3.381 0 00.985-2.387z" fill="#3B3A3B" stroke="#009688" stroke-miterlimit="10"/><path opacity=".3" d="M273.496 54.272a3.369 3.369 0 003.361-3.376 3.369 3.369 0 00-3.361-3.376 3.368 3.368 0 00-3.36 3.376 3.368 3.368 0 003.36 3.376zM284.702 100.992a3.368 3.368 0 003.361-3.375 3.369 3.369 0 00-3.361-3.376 3.368 3.368 0 00-3.36 3.376 3.367 3.367 0 003.36 3.375z" fill="#fff" stroke="#009688" stroke-miterlimit="10"/><path opacity=".3" d="M164.226 133.633a3.369 3.369 0 00-2.061-3.136 3.35 3.35 0 00-3.672.722 3.39 3.39 0 00.511 5.202 3.351 3.351 0 004.234-.42 3.38 3.38 0 00.988-2.368zM349.126 18.313c0-.668-.197-1.32-.566-1.876a3.347 3.347 0 00-5.17-.511 3.383 3.383 0 00.509 5.194 3.348 3.348 0 004.243-.42c.63-.633.984-1.492.984-2.387z" fill="#3B3A3B" stroke="#009688" stroke-miterlimit="10"/></svg>