<svg width="1204" height="790" fill="none" xmlns="http://www.w3.org/2000/svg"><path opacity=".7" d="M187.35 301.795s-65.497 169.301 26.547 339.777 281.63 260.535 433.368 337.543c151.739 77.005 309.304 39.505 384.175-86.626 74.87-126.129-27.81-216.163-27.96-396.022-.14-179.858 26.9-227.474-70.474-379.421C835.629-34.901 596.921-68.55 416.403 44.152 235.886 156.856 187.35 301.795 187.35 301.795z" fill="#fff"/><path d="M610.664-29.658C87.976-.383-24.225 693.514 150.819 905.728c135.858 164.712 378.09 137.532 505.937-23.702 105.294-132.737 275.71-34.683 416.194-178.213 183.03-187.006 124.21-766.32-462.286-733.47z" fill="#92E3A9"/><path opacity=".7" d="M649.664 3.342C126.976 32.617 14.775 726.514 189.819 938.728c135.858 164.712 378.09 137.532 505.937-23.702 105.294-132.737 275.71-34.683 416.194-178.213 183.03-187.006 124.21-766.32-462.286-733.47z" fill="#fff"/><path d="M757 139.631v561.023a5.632 5.632 0 01-5.613 5.631H414.514a5.635 5.635 0 01-5.634-5.631V139.631a5.633 5.633 0 015.634-5.631h92.942l3.045 10.347h145.077L658.643 134h92.843a5.634 5.634 0 015.514 5.631z" fill="#009688"/><path opacity=".5" d="M756.999 188.244v512.41a5.632 5.632 0 01-5.614 5.631H414.512a5.633 5.633 0 01-5.633-5.631v-512.41h348.12z" fill="#fff"/><path d="M757 139.631v561.023a5.632 5.632 0 01-5.613 5.631H414.514a5.635 5.635 0 01-5.634-5.631V139.631a5.633 5.633 0 015.634-5.631h92.942l3.045 10.347h145.077L658.643 134h92.843a5.634 5.634 0 015.514 5.631zM408.88 188.721H757" stroke="#3B3A3B" stroke-width="1.145" stroke-linecap="round" stroke-linejoin="round"/><path d="M661.471 224.4H375.797a6.767 6.767 0 00-6.768 6.765v106.259a6.767 6.767 0 006.768 6.765h285.674a6.767 6.767 0 006.768-6.765V231.165a6.767 6.767 0 00-6.768-6.765z" fill="#fff"/><path d="M480.862 238.349h-97.301v91.872h97.301v-91.872z" fill="#fff" stroke="#3B3A3B" stroke-width="1.145" stroke-linecap="round" stroke-linejoin="round"/><path d="M589.072 246.427h-87.07a3.983 3.983 0 01-3.981-3.979 3.98 3.98 0 013.981-3.98h87.07a3.978 3.978 0 013.981 3.98 3.98 3.98 0 01-3.981 3.979zM537.833 264.257h-35.831a3.984 3.984 0 01-3.981-3.98 3.98 3.98 0 013.981-3.98h35.831a3.982 3.982 0 013.982 3.98 3.982 3.982 0 01-3.982 3.98z" fill="#3B3A3B"/><path d="M650.344 329.882a1.852 1.852 0 11-3.562-.708c.14-.338.377-.627.682-.83a1.851 1.851 0 012.88 1.538zM631.472 329.882a1.844 1.844 0 01-1.143 1.71 1.848 1.848 0 01-2.418-2.418c.14-.338.377-.627.682-.83a1.851 1.851 0 012.879 1.538z" fill="#fff" stroke="#3B3A3B" stroke-width="1.145" stroke-linecap="round" stroke-linejoin="round"/><path d="M661.471 224.4H375.797a6.767 6.767 0 00-6.768 6.765v106.259a6.767 6.767 0 006.768 6.765h285.674a6.767 6.767 0 006.768-6.765V231.165a6.767 6.767 0 00-6.768-6.765z" stroke="#3B3A3B" stroke-width="1.145" stroke-linecap="round" stroke-linejoin="round"/><path d="M668.239 482.266v106.299a6.744 6.744 0 01-6.768 6.726H375.797a6.775 6.775 0 01-2.584-.506 6.769 6.769 0 01-2.194-1.456 6.744 6.744 0 01-1.99-4.764V482.266a6.762 6.762 0 016.768-6.745h285.674a6.766 6.766 0 016.768 6.745z" fill="#fff"/><path d="M668.239 482.266v106.299a6.744 6.744 0 01-6.768 6.726H375.797a6.775 6.775 0 01-2.584-.506 6.769 6.769 0 01-2.194-1.456 6.744 6.744 0 01-1.99-4.764V482.266a6.762 6.762 0 016.768-6.745h285.674a6.766 6.766 0 016.768 6.745z" stroke="#3B3A3B" stroke-width="1.145" stroke-linecap="round" stroke-linejoin="round"/><path d="M662.327 601.081H374.941a5.911 5.911 0 00-5.912 5.91v107.97a5.911 5.911 0 005.912 5.91h287.386a5.911 5.911 0 005.912-5.91v-107.97a5.911 5.911 0 00-5.912-5.91z" fill="#fff" stroke="#3B3A3B" stroke-width="1.145" stroke-linecap="round" stroke-linejoin="round"/><path d="M480.862 615.03h-97.301v91.872h97.301V615.03zM481.339 492.812h-97.301v91.872h97.301v-91.872z" fill="#fff" stroke="#3B3A3B" stroke-width="1.145" stroke-linecap="round" stroke-linejoin="round"/><path d="M589.072 623.129h-87.07a3.982 3.982 0 01-3.981-3.98 3.978 3.978 0 013.981-3.98h87.07a3.981 3.981 0 012.815 6.794 3.986 3.986 0 01-2.815 1.166zM589.55 500.911h-87.07a3.98 3.98 0 110-7.959h87.07a3.983 3.983 0 013.981 3.979 3.98 3.98 0 01-3.981 3.98zM537.833 640.958h-35.831a3.982 3.982 0 01-3.981-3.98 3.977 3.977 0 013.981-3.98h35.831a3.982 3.982 0 013.981 3.98 3.977 3.977 0 01-3.981 3.98zM538.311 518.74H502.48a3.983 3.983 0 01-3.981-3.979 3.98 3.98 0 013.981-3.98h35.831c1.056 0 2.069.419 2.816 1.165a3.984 3.984 0 010 5.629 3.985 3.985 0 01-2.816 1.165z" fill="#3B3A3B"/><path d="M644.113 328.37H274.912a5.911 5.911 0 00-5.912 5.91v140.723a5.911 5.911 0 005.912 5.91h369.201a5.911 5.911 0 005.912-5.91V334.28a5.911 5.911 0 00-5.912-5.91z" fill="#fff" stroke="#3B3A3B" stroke-width="1.145" stroke-linecap="round" stroke-linejoin="round"/><path d="M411.389 346.14H287.493v117.004h123.896V346.14z" fill="#fff" stroke="#3B3A3B" stroke-width="1.145" stroke-linecap="round" stroke-linejoin="round"/><path d="M550.633 346.14H436.869a3.702 3.702 0 00-3.703 3.701v2.885a3.702 3.702 0 003.703 3.701h113.764a3.701 3.701 0 003.702-3.701v-2.885a3.701 3.701 0 00-3.702-3.701zM436.869 368.844h48.512a3.708 3.708 0 012.618 1.084 3.7 3.7 0 011.084 2.617v2.865a3.722 3.722 0 01-3.722 3.721h-48.492a3.722 3.722 0 01-3.722-3.721v-2.865a3.703 3.703 0 011.091-2.624 3.711 3.711 0 012.631-1.077zM687.767 723a3.825 3.825 0 01-3.822-3.821V237.97a3.82 3.82 0 017.644 0v481.209a3.817 3.817 0 01-3.822 3.821z" fill="#3B3A3B"/><path d="M687.766 272.037a7.637 7.637 0 01-5.418-2.231 7.637 7.637 0 01-2.246-5.41V232.14a7.66 7.66 0 017.664-7.661 7.666 7.666 0 017.664 7.661v32.335a7.661 7.661 0 01-7.664 7.562z" fill="#fff" stroke="#3B3A3B" stroke-width="1.145" stroke-linecap="round" stroke-linejoin="round"/><g clip-path="url(#clip0)"><path d="M434.837 234.361s4.295-10.288 8.361-11.182c4.066-.895 21.23 7.603 16.494 15.433-4.736 7.83-9.717 7.378-14.235 5.389-4.518-1.988-10.62-9.64-10.62-9.64z" fill="#3B3A3B" stroke="#3B3A3B" stroke-miterlimit="10"/><path d="M453.367 226.978s4.518-1.563 6.777-1.563c2.259 0 2.721 7.157 2.721 7.157s-1.595-6.936-9.498-5.594z" fill="#3B3A3B" stroke="#3B3A3B" stroke-miterlimit="10"/><path d="M404.566 242.19s-2.487 3.352-3.162 6.262c-.675 2.91 1.127 6.036.452 8.498-.675 2.463-3.843 4.694-3.615 6.262.229 1.568 4.741 4.026 4.741 4.026s3.843 9.161 5.444 9.84c1.6.679 6.984-.9 9.439-2.01 2.455-1.111 5.65-.895 5.65-.895l14.697-7.383s-1.584-2.91.223-7.156c1.808-4.246 2.722-11.408-8.355-18.564-11.078-7.157-25.514 1.12-25.514 1.12z" fill="#fff" stroke="#3B3A3B" stroke-miterlimit="10"/><path d="M406.597 266.79a2.42 2.42 0 012.939-.894" stroke="#3B3A3B" stroke-miterlimit="10"/><path d="M404.801 255.83c0 1.115.353 2.015.789 2.015.435 0 .795-.9.795-2.015 0-1.116-.354-2.01-.795-2.01-.441 0-.789.899-.789 2.01z" fill="#3B3A3B"/><path d="M407.05 250.241a2.092 2.092 0 00-2.492-.365 2.077 2.077 0 00-.671.586" stroke="#3B3A3B" stroke-miterlimit="10"/><path d="M405.356 260.302c-2.183 0-3.952-2.803-3.952-6.261 0-3.459 1.769-6.262 3.952-6.262 2.182 0 3.952 2.803 3.952 6.262 0 3.458-1.77 6.261-3.952 6.261zM409.308 254.04l17.62 1.795" stroke="#3B3A3B" stroke-miterlimit="10"/><path d="M430.548 260.081s4.289 4.699 6.777 4.699c2.487 0 7.229-3.136 9.488-6.466 2.259-3.33-2.259-11.856-4.747-16.775-2.488-4.92-7-13.198-16.265-14.987-9.265-1.789-12.879-1.115-20.783 2.91-7.904 4.026-7.006 9.84-5.65 11.629a21.032 21.032 0 003.391 3.357s-4.97-2.694-6.777-1.789c-1.807.906-1.813 2.01-1.813 2.01s5.651.227 6.331.227c.681 0 2.934 1.115 2.934 1.115s4.747 1.121 7.229.448c2.482-.674 5.873-3.153 6.113-.459.239 2.695 3.614 7.383 4.97 7.83 1.355.448 3.391.669 5.198 2.01 1.807 1.342 3.604 4.241 3.604 4.241z" fill="#3B3A3B" stroke="#3B3A3B" stroke-miterlimit="10"/><path d="M425.349 258.066s3.163-6.467 6.326-3.799c3.162 2.667-.224 9.613-1.579 10.287-1.355.674-4.066-1.121-4.066-1.121s-.229 2.91-1.132 4.252" fill="#fff"/><path d="M425.349 258.066s3.163-6.467 6.326-3.799c3.162 2.667-.224 9.613-1.579 10.287-1.355.674-4.066-1.121-4.066-1.121s-.229 2.91-1.132 4.252" stroke="#3B3A3B" stroke-miterlimit="10"/><path d="M443.421 274.173s-3.81-3.805-3.81-6.262c0-2.457-1.356-4.478-9.94-.447s-11.551 8.714-9.744 10.061c1.807 1.347 5.65 2.694 6.532 3.578.882.884 4.066 5.146 4.066 5.146s5.444-12.076 12.896-12.076z" fill="#009688" stroke="#3B3A3B" stroke-miterlimit="10"/><path d="M434.064 266.144s1.916.382 1.529 1.708a4.517 4.517 0 000 2.457l1.149 1.708M429.645 267.464s2.128 2.279 1.937 3.034c-.19.754-.577 1.897.191 2.274.681.302 1.384.556 2.101.76M428.904 276.242c.397.577.762 1.078.762 1.078M425.649 270.121s-.381 1.702.387 2.839c.767 1.138 1.72 1.138 1.91 1.703M421.441 273.149c.352.988.801 1.939 1.339 2.84.577.76 2.678.571 3.065 1.514a6.081 6.081 0 001.53 1.897M385.895 306.711s-3.701-.997-6.053 0" stroke="#3B3A3B" stroke-miterlimit="10"/><path d="M378.236 314.438s-1.997 3.411-2.542 4.489c-.544 1.078-.724 1.617-.179 1.617.544 0 2.542-.895 2.721-1.973a4.384 4.384 0 01.545-1.616s-1.024 3.95-.724 4.128c1.181.716 1.992-.539 1.992-.539l1.453-4.311s.545 2.155.724 2.694c.18.539 1.274-.895 1.274-1.972a24.068 24.068 0 00-.185-2.517l1.089-.9s-1.633-1.616-3.446-1.616c-1.813 0-2.722 2.516-2.722 2.516z" fill="#fff" stroke="#3B3A3B" stroke-miterlimit="10"/><path d="M406.177 309.049l-.708-.048c-3.13-.205-15.551-1.029-16.33-1.029-.909 0-6.167 2.872-6.167 2.872a25.234 25.234 0 00-4.899.183c-1.818.356-3.451 2.511-4.175 3.233-.724.722-3.087 1.617-1.813 1.973 1.274.355 1.813.539 2.537.361.724-.178 3.63-2.156 3.63-2.156l4.72-.717s4.355 2.334 4.899 2.512c.544.177-.73 1.438-1.998 2.338-1.268.9-3.266 2.156-3.086 3.589.179 1.434.729 1.261 2.177 0s2.907-1.972 5.084-3.411a48.925 48.925 0 005.623-4.672l1.089-1.078s12.699 4.134 17.054 5.389a92.315 92.315 0 0012.144 2.517c2.722.361 7.98-.717 9.434-1.795 1.453-1.077 5.264-4.494 5.264-4.494l-6.533-12.933s-7.805 7.189-10.886 7.905c-3.081.717-17.06-.539-17.06-.539z" fill="#fff" stroke="#3B3A3B" stroke-miterlimit="10"/><path d="M423.237 309.588c3.081-.716 10.886-7.905 10.886-7.905l6.533 12.933s-3.811 3.417-5.264 4.494c-1.454 1.078-6.712 2.156-9.434 1.795a93.828 93.828 0 01-11.044-2.21 31.9 31.9 0 01-.207-2.64c-.071-2.037 0-4.344.103-6.397 3.506.2 7.049.27 8.427-.07z" fill="#92E3A9" stroke="#3B3A3B" stroke-miterlimit="10"/><path d="M427.755 288.351a17.752 17.752 0 013.391-10.352 11.083 11.083 0 014.143-3.605c7.544-3.395 12.846-.932 17.625 5.389 9.488 12.529 15.977 27.407 18.508 33.55 5.34 12.804 6.32 17.422 6.32 17.422h-35.698s1.807-4.472 1.807-5.588c0-1.115-1.807-3.357-1.807-3.357s-10.843-3.804-12.874-9.619c-1.475-4.279-1.507-17.271-1.415-23.84z" fill="#009688" stroke="#3B3A3B" stroke-miterlimit="10"/><path d="M450.879 297.431s-11.072 29.973-14.006 30.867c-2.934.895-5.873-.447-7.229-1.342-1.355-.894-40.668-28.404-40.668-28.404s-7.005 4.031-8.361 4.031c-1.355 0-4.066 4.025-4.741 5.389-.675 1.363-1.355 2.01-1.584.668-.228-1.342 1.584-4.246 2.036-5.141.26-.507.485-1.031.675-1.568a7.486 7.486 0 00-2.259.673c-.675.448-2.934 3.352-3.614 4.247-.681.894-2.259 1.789-2.259.447 0-1.342 2.487-3.799 2.939-4.92a3.138 3.138 0 011.355-1.563s-4.294.669-5.443 1.116c-1.149.447-1.813 3.131-3.168 3.357-1.355.226.68-2.694 1.132-4.025.452-1.331 6.102-3.131 6.102-3.131s-3.614-.448-4.746-.448c-1.133 0-3.609 2.204-4.274 2.204-.664 0-.674-.673 1.133-2.015s4.97-2.694 6.325-2.694a24.777 24.777 0 004.066-.448c1.356-.221 11.524-2.236 13.554-2.236 2.031 0 32.536 14.092 32.536 14.092l1.975-1.741a.246.246 0 01.137-.059l.332-.038a4.752 4.752 0 013.195.895c.163.108.326.091.463-.178.451-.895 3.385-18.785 4.969-22.59 1.584-3.804 6.532-12.297 15.133-7.377" fill="#fff"/><path d="M450.879 297.431s-11.072 29.973-14.006 30.867c-2.934.895-5.873-.447-7.229-1.342-1.355-.894-40.668-28.404-40.668-28.404s-7.005 4.031-8.361 4.031c-1.355 0-4.066 4.025-4.741 5.389-.675 1.363-1.355 2.01-1.584.668-.228-1.342 1.584-4.246 2.036-5.141.26-.507.485-1.031.675-1.568a7.495 7.495 0 00-2.259.673c-.675.448-2.934 3.352-3.614 4.247-.681.894-2.259 1.789-2.259.447 0-1.342 2.487-3.799 2.939-4.92a3.138 3.138 0 011.355-1.563s-4.294.669-5.443 1.116c-1.149.447-1.813 3.131-3.168 3.357-1.355.226.68-2.694 1.132-4.025.452-1.331 6.102-3.131 6.102-3.131s-3.614-.448-4.746-.448c-1.133 0-3.609 2.204-4.274 2.204-.664 0-.674-.673 1.133-2.015s4.97-2.694 6.325-2.694a24.777 24.777 0 004.066-.448c1.356-.221 11.524-2.236 13.554-2.236 2.031 0 32.536 14.092 32.536 14.092l1.975-1.741a.246.246 0 01.137-.059l.332-.038a4.752 4.752 0 013.195.895c.163.108.326.091.463-.178.451-.895 3.385-18.785 4.969-22.59 1.584-3.804 6.532-12.297 15.133-7.377" stroke="#3B3A3B" stroke-miterlimit="10"/><path d="M450.879 297.431s-11.072 29.973-14.006 30.867c-2.934.895-5.873-.447-7.229-1.342-.718-.474-11.975-8.347-22.481-15.686l3.908-8.924c5.253 2.382 9.308 4.257 9.308 4.257l1.976-1.741a.246.246 0 01.137-.059l.332-.038a4.752 4.752 0 013.195.895c.163.108.326.091.463-.178.451-.895 3.385-18.785 4.969-22.59 1.584-3.804 6.532-12.297 15.133-7.377" fill="#009688"/><path d="M450.879 297.431s-11.072 29.973-14.006 30.867c-2.934.895-5.873-.447-7.229-1.342-.718-.474-11.975-8.347-22.481-15.686l3.908-8.924c5.253 2.382 9.308 4.257 9.308 4.257l1.976-1.741a.246.246 0 01.137-.059l.332-.038a4.752 4.752 0 013.195.895c.163.108.326.091.463-.178.451-.895 3.385-18.785 4.969-22.59 1.584-3.804 6.532-12.297 15.133-7.377M426.449 306.209a47.212 47.212 0 005.672 5.772M427.744 307.654s3.724 1.282 6.805 2.085" stroke="#3B3A3B" stroke-miterlimit="10"/><path d="M477.742 330.756l6.233-54.104a4.934 4.934 0 011.911-3.361 5.036 5.036 0 013.766-.988 5.016 5.016 0 013.275 1.901 4.92 4.92 0 01.988 3.628l-6.794 53.01-9.379-.086z" fill="#3B3A3B" stroke="#3B3A3B" stroke-miterlimit="10"/></g><g clip-path="url(#clip1)"><path d="M300.856 472.454c-3.135-3.876-5.006-15.005-5.006-15.005a31.45 31.45 0 00-6.909 7.043 54.831 54.831 0 01-10.253-2.554 41.67 41.67 0 01-9.688-4.795c6.67-9.8 17.959-26.496 24.911-31.745 2.687-2.027 11.013-4.005 11.013-4.005 1.884-1.703 5.995 0 5.995 0 22.241 5.647 42.581-1.666 42.581-1.666s2.883-1.329 5.246 0c2.3-.254 4.621-.254 6.921 0 5.092.698 10.657 6.504 12.952 9.144l19.542 22.594s.656 8.893-.724 10.069c-11.044 9.451-27.328-12.023-27.328-12.023-.105.043-.356 18.699-9.075 28.456 0 0-6.178 2.817-30.205.612-23.843-2.186-29.973-6.125-29.973-6.125z" fill="#009688"/><path d="M300.856 472.454c-3.135-3.877-5.006-15.005-5.006-15.005a31.45 31.45 0 00-6.909 7.043" stroke="#3B3A3B" stroke-linecap="round" stroke-linejoin="round"/><path d="M269 457.143c6.67-9.8 17.959-26.496 24.911-31.745 2.687-2.027 11.013-4.005 11.013-4.005 1.884-1.703 5.995 0 5.995 0 22.241 5.647 42.581-1.666 42.581-1.666s2.883-1.329 5.246 0c2.3-.254 4.621-.254 6.921 0 5.092.698 10.657 6.504 12.952 9.144l19.542 22.594s.656 8.893-.724 10.069c-11.044 9.451-27.328-12.023-27.328-12.023-.105.043-.356 18.699-9.075 28.456" stroke="#3B3A3B" stroke-linecap="round" stroke-linejoin="round"/><path d="M310.109 416.003l.294.123a1.042 1.042 0 01-.294-.123z" fill="#3B3A3B"/><path d="M303.488 399.479c-2.331.343-2.902-1.366-2.902-1.366s2.902 1.366 5.473-3.889c1.461-2.995.737-8.495-.153-12.672-1.798-2.959-4.406-7.05-4.749-11.901-.614-8.329 3.307-12.549 7.829-11.312 0 0 .331-7.037 6.694-9.561 6.362-2.523 7.363-.453 13.498-1.984 6.136-1.531 12.136-.196 14.333 3.767 2.196 3.962 2.945 11.159 6.694 13.946 3.749 2.786 10.308 9.493 8.234 16.996-2.074 7.502-.896 10.069 1.841 13.615 2.736 3.546 1.067 10.528-4.154 12.721 0 0 2.215-1.182.65-3.161 0 0-1.227 4.704-5.319 3.847-4.093-.858-9.29-1.146-11.94 1.751-2.651 2.897-12.339 3.675-14.523 1.47-2.185-2.205-3.878-.159-7.835 1.838-3.958 1.996-8.351.245-8.351.245s.368 1.709 1.313 2.217c-.804-.337-3.031-1.397-3.681-2.989-.651-1.592-1.019-3.13-.24-6.847-2.742-1.072-1.478-2.885-1.478-2.885-2.59 1.451-3.817-2.836-3.817-2.836 2.412-.037 2.583-1.01 2.583-1.01z" fill="#3B3A3B"/><path d="M308.691 422.158s17.321 7.693 22.886 8.005c5.565.313 24.493-9.738 24.493-9.738l-14.431-3.932c-1.963-3.736-2.012-8.134-1.54-13.284.148-1.599.338-3.106.546-4.459.491-3.265 1.037-5.543 1.037-5.543l-20.394.845a35.851 35.851 0 011.049 3.944c.564 2.766.886 5.576.963 8.397.233 7.044-.859 11.025-.859 11.025l-13.75 4.74z" fill="#fff" stroke="#3B3A3B" stroke-linecap="round" stroke-linejoin="round"/><path d="M350.855 423.071s-10.921 1.911-13.633 1.598c-2.712-.312-4.841 2.352-4.841 2.352" fill="#fff"/><path d="M350.855 423.071s-10.921 1.911-13.633 1.598c-2.712-.312-4.841 2.352-4.841 2.352" stroke="#3B3A3B" stroke-linecap="round" stroke-linejoin="round"/><path d="M312.477 423.763s11.13 1.225 13.823 1.286c2.694.062 3.492 1.972 3.492 1.972" fill="#fff"/><path d="M312.477 423.763s11.13 1.225 13.823 1.286c2.694.062 3.492 1.972 3.492 1.972" stroke="#3B3A3B" stroke-linecap="round" stroke-linejoin="round"/><path d="M322.337 397.996c.564 2.766.886 5.576.963 8.397a17.694 17.694 0 005.713 3.369c3.429 1.133 7.976-3.062 11.087-6.553a73.47 73.47 0 01.546-4.459l-18.309-.754z" fill="#3B3A3B"/><path d="M346.419 376.07s1.682-2.579 3.179-2.058c1.497.521 1.497 7.491 1.38 9.328-.116 1.837-3.779 5.874-5.313 4.765" fill="#fff"/><path d="M346.419 376.07s1.682-2.579 3.179-2.058c1.497.521 1.497 7.491 1.38 9.328-.116 1.837-3.779 5.874-5.313 4.765" stroke="#3B3A3B" stroke-linecap="round" stroke-linejoin="round"/><path d="M309.495 381.503s-2.35-1.985-3.638-1.054c-1.289.931.736 7.619 1.374 9.328.638 1.709 5.32 4.539 6.467 3.032" fill="#fff"/><path d="M309.495 381.503s-2.35-1.985-3.638-1.054c-1.289.931.736 7.619 1.374 9.328.638 1.709 5.32 4.539 6.467 3.032" stroke="#3B3A3B" stroke-linecap="round" stroke-linejoin="round"/><path d="M332.307 408.249c6.179-.912 12.314-11.373 13.057-14.319.822-3.277 2.632-19.44-.896-28.296-3.97-9.953-12.271-14.155-20.364-12.966-8.093 1.188-14.83 7.6-15.756 18.276-.822 9.493 5.583 24.45 7.32 27.353 1.558 2.609 10.117 10.908 16.639 9.952z" fill="#fff" stroke="#3B3A3B" stroke-linecap="round" stroke-linejoin="round"/><path d="M318.3 382.317c.165 1.145.816 1.997 1.448 1.899.632-.098 1-1.09.834-2.236-.166-1.145-.816-1.99-1.448-1.898-.632.092-1.006 1.09-.834 2.235zM338.474 379.353c.165 1.139-.209 2.144-.841 2.235-.632.092-1.276-.759-1.442-1.904-.165-1.146.203-2.144.835-2.236.632-.092 1.276.76 1.448 1.905z" fill="#3B3A3B"/><path d="M324.656 394.818s3.203 6.272 7.289 5.243 4.055-6.738 4.055-6.903l-.576.221a24.524 24.524 0 01-4.995 1.286 27.473 27.473 0 01-4.982.196 20.338 20.338 0 01-.791-.043z" fill="#757575"/><path d="M329.988 381.766c-.16 3.938 3.227 4.606 2.577 5.971a3.752 3.752 0 01-2.172 1.801" fill="#fff"/><path d="M329.988 381.766c-.16 3.938 3.227 4.606 2.577 5.971a3.752 3.752 0 01-2.172 1.801M336 393.14s.037 5.885-4.055 6.914c-4.093 1.029-7.289-5.248-7.289-5.248M342.124 374.153s-3.681-4.643-9.393-3.173M313.845 378.318s2.191-5.512 8.075-5.739" stroke="#3B3A3B" stroke-linecap="round" stroke-linejoin="round"/><path d="M318.042 361.187s3.884 5.083 12.314 6.553c10.56 1.838 16.389 10.951 16.241 14.755a32.363 32.363 0 001.81-16.776c-2.098-13.989-15.173-17.988-24.677-17.014-9.504.974-14.112 10.485-14.112 10.485s-7.136 5.549-6.136 12.544c.994 6.694 2.62 6.884 3.486 8.397 1.19 2.094-.375 2.97 3.797 6.418 0 0-1.65-9.346.399-16.316 2.05-6.97 6.878-9.046 6.878-9.046z" fill="#3B3A3B"/><path d="M315.429 358.841s3.724 14.197 24.892 16.414c0 0-14.259-2.572-20.861-15.575l-4.031-.839z" fill="#3B3A3B"/><path d="M331.492 396.98s-2.909-1.035-4.032 0c0 0 1.915 3.062 4.375 2.315 2.46-.747 2.982-3.675 2.982-3.675s-1.331-.643-3.325 1.36z" fill="#BFBFBF"/><path d="M325.043 394.867l.828.937a17.215 17.215 0 009.553-1.525l.289-1.017a26.889 26.889 0 01-5.283 1.403 32.759 32.759 0 01-5.387.202z" fill="#fff"/><path d="M336.916 392.772s-6.651 3.093-13.082 1.923" stroke="#3B3A3B" stroke-linecap="round" stroke-linejoin="round"/><path d="M315.993 355.313s4.509 5.899 15.498 6.799c10.989.9 14.173 5.445 14.173 5.445M340.738 355.779c1.018.196 2.454.557 2.908 1.592M314.636 350.732c6.627 4.943 15.186 5.512 23.88 4.814M356.617 395.945a6.861 6.861 0 011.926 4.93M348.695 368.377c3.068 1.746 5.553 4.955 5.719 8.575.276 6.125-4.111 11.637.441 16.972M349.99 388.295s-3.399 3.589-1.19 7.239c2.209 3.651 3.35 7.35-1.178 10.045M325.172 369.461c.723.453 1.473.862 2.245 1.225M317.232 360.421a19.443 19.443 0 006.019 7.687M314.637 360.93s-4.596 2.492-6.363 6.627c-1.767 4.134.724 9.952-.429 11.961M307.489 401.255a6.767 6.767 0 01-2.056.857M311.127 395.534a9.62 9.62 0 01-1.841 4.104M312.944 398.823s.429 4.667-2.553 7.754c-2.982 3.087-2.11 5.01-2.11 5.01M317.883 404.164s-1.779 4.728 1.043 6.302M311.127 359.631s-6.712 1.354-7.694 4.288c-.982 2.933 0 6.308 0 6.308" stroke="#757575" stroke-linecap="round" stroke-linejoin="round"/><path d="M397.437 461.534c5.694-3.154 4.589-14.497.822-28.664-1.841-6.957-8.234-24.498-8.105-25.111a16.698 16.698 0 011.411-3.393s-1.841-1.874-2.614-2.211c-3.319-1.415-9.872-3.197-12.885-1.954-.938.386-2.3 2.573-2.11 3.467.19.894 2.877 3.834 2.62 6.651-.258 2.818 2.19 12.115 2.123 15.82 0 .76-.043 1.715-.086 2.756 0 .662 0 12.25 4.466 18.166" fill="#009688"/><path d="M397.437 461.534c5.694-3.154 4.589-14.497.822-28.664-1.841-6.957-8.234-24.498-8.105-25.111a16.698 16.698 0 011.411-3.393s-1.841-1.874-2.614-2.211c-3.319-1.415-9.872-3.197-12.885-1.954-.938.386-2.3 2.573-2.11 3.467.19.894 2.877 3.834 2.62 6.651-.258 2.818 2.19 12.115 2.123 15.82 0 .76-.043 1.715-.086 2.756 0 .662 0 12.25 4.466 18.166" stroke="#3B3A3B" stroke-linecap="round" stroke-linejoin="round"/><path d="M378.926 373.54c-.123 1.127-2.559 9.187-3.314 17.376a16.475 16.475 0 01-4.295-2.327c-1.527-1.335-4.724-.27-4.595.612.129.882 3.068.735 5.553 4.067 2.485 3.332 2.994 7.025 6.295 8.801 3.301 1.776 8.43 2.407 10.43.037s4.222-14.944 3.442-16.255a9.735 9.735 0 00-2.454-2.45s-.84-2.45-2.117-2.64c-1.276-.189-4.295-.251-4.295-.251a3.524 3.524 0 00-2.454-.673s.994-9.433 1.841-12.599c.847-3.166-3.037-3.148-4.037 6.302z" fill="#fff" stroke="#3B3A3B" stroke-linecap="round" stroke-linejoin="round"/><path d="M381.079 379.837c-2.607 1.176-3.761 6.124-3.761 6.48a45.445 45.445 0 001.878 5.169c.65 1.408 2.055 0 2.055 0s.43 1.837 1.417 1.035c1.258-1.035 1.258-4.385 1.258-4.385s.154 2.786.884 4.146c.73 1.36 2.202.453 1.988-3.571 0 0 3.006-.735 3.11-1.47M383.927 388.136c.736-1.887 3.564-3.62 3.564-3.62" stroke="#3B3A3B" stroke-linecap="round" stroke-linejoin="round"/><path d="M381.251 391.486s-1.479-4.287-1.08-5.169c.399-.882 2.914-3.314 2.914-3.314M375.612 390.935s2.774.612 4.007 4.14M390.154 407.735s-4.479 3.675-9.295.612M386.386 418.643c.863.503 1.787.892 2.749 1.157M375.612 406.577a35.979 35.979 0 008.59 10.565M358.745 419.727s-8.743 8.195-13.86 10.412M367.464 428.596a14.21 14.21 0 00-.773 3.374M370.501 421.65a53.03 53.03 0 00-2.141 4.551M334.817 432.87s-14.308.196-23.493-6.063M304.924 421.393a18.542 18.542 0 013.35 2.915M297.739 431.86a22.873 22.873 0 004.976 3.895M294.622 428.05c.466.701.97 1.376 1.51 2.021M370.109 449.487s-3.491-4.514-3.417-9.928M295.85 457.449s.748-9.083-5.633-15.722M288.94 446.731c-.306.306 5.449 5.316 6.817 7.558" stroke="#3B3A3B" stroke-linecap="round" stroke-linejoin="round"/><path d="M329.086 449.131h2.485a.73.73 0 01.73.729v3.785a.73.73 0 01-.73.729h-2.485a.73.73 0 01-.73-.729v-3.785a.73.73 0 01.73-.729z" fill="#BFBFBF"/><path d="M329.086 454.766h2.454a1.12 1.12 0 001.117-1.121v-3.785a1.12 1.12 0 00-1.117-1.12h-2.454a1.128 1.128 0 00-.792.328 1.128 1.128 0 00-.324.792v3.785a1.107 1.107 0 00.324.793 1.128 1.128 0 00.792.328zm2.454-5.249a.347.347 0 01.338.343v3.785a.337.337 0 01-.338.337h-2.454a.323.323 0 01-.13-.024.323.323 0 01-.183-.183.32.32 0 01-.024-.13v-3.785a.323.323 0 01.024-.13.331.331 0 01.313-.213h2.454z" fill="#3B3A3B"/><path d="M322.442 417.442s-11.118 2.285 7.884 31.108c0 0 22.137-27.99 11.314-32.057" stroke="#3B3A3B" stroke-linecap="round" stroke-linejoin="round"/><path d="M329.933 448.262c0 .423.19.766.423.766.233 0 .424-.343.424-.766s-.191-.766-.424-.766c-.233 0-.423.343-.423.766z" fill="#3B3A3B"/></g><g clip-path="url(#clip2)"><path d="M383.423 576.175l-7.703 17.771a3.909 3.909 0 00.568 4.58c.378.401.836.718 1.345.931l4.71 2.054c4.383.587 8.586-3.26 9.665-4.663l9.55-11.624-18.135-9.049z" fill="#fff" stroke="#3B3A3B" stroke-linecap="round" stroke-linejoin="round"/><path d="M438.254 524.362l-33.017 13.206v96.339h71.333v-94.595l-31.153-15.651-7.163.701z" fill="#009688" stroke="#3B3A3B" stroke-linecap="round" stroke-linejoin="round"/><path d="M434.576 518.003v11.136l8.929 16.532 8.291-15.896V518.33l-17.22-.327zM426.922 499.564s-1.93-7.973-3.827-4.125 3.827 11.755 3.827 11.755v-7.63zM459.449 499.254s4.465-5.413 5.102-1.907c.638 3.505-4.464 9.782-4.464 9.782l-.638-7.875z" fill="#fff" stroke="#3B3A3B" stroke-linecap="round" stroke-linejoin="round"/><path d="M443.504 523.726a16.607 16.607 0 01-11.725-4.842 16.505 16.505 0 01-4.857-11.69V474.13h33.164v33.064c0 4.385-1.747 8.59-4.857 11.69a16.608 16.608 0 01-11.725 4.842z" fill="#fff" stroke="#3B3A3B" stroke-linecap="round" stroke-linejoin="round"/><path d="M432.923 500.2s2.518 3.016 6.884 0h-6.884z" fill="#fff"/><path d="M432.923 500.2s2.518 3.016 6.884 0" stroke="#3B3A3B" stroke-linecap="round" stroke-linejoin="round"/><path d="M446.71 500.2s2.518 3.016 6.901 0h-6.901z" fill="#fff"/><path d="M446.71 500.2s2.518 3.016 6.901 0M432.498 495.211s2.518-4.614 7.98-1.125M445.385 494.233s.834-1.957 4.628-1.957a4.324 4.324 0 012.745.763 4.306 4.306 0 011.67 2.302M440.478 509.167l2.666 1.532 2.371-1.386M436.833 511.401a5.226 5.226 0 003.271 1.826" stroke="#3B3A3B" stroke-linecap="round" stroke-linejoin="round"/><path d="M458.81 485.266l.638 13.988s.311 1.908.949-1.907c.637-3.815 3.843-14.315 3.189-17.494-.655-3.179-5.103-3.261-7.016-2.217-1.913 1.043 2.24 7.63 2.24 7.63z" fill="#3B3A3B" stroke="#3B3A3B" stroke-linecap="round" stroke-linejoin="round"/><path d="M426.922 495.439s-1.914-14.673-2.878-22.254c-.965-7.582 9.256-8.266 9.256-8.266s7.015-5.739 20.408-7.321c13.394-1.581 19.771 3.261 19.444 6.685-.327 3.424-7.964 6.032-7.964 6.032s9.24.962 3.827 6.049c-5.413 5.087-10.532 4.76-10.532 4.76s4.792 2.234 1.914 3.816c-2.878 1.581-23.271-4.451-23.271-4.451s.638 3.815-2.24 4.777c-2.878.962-3.827.635-4.138 2.217-.31 1.581-.327 11.135-1.913 12.081-1.586.946-1.913-4.125-1.913-4.125z" fill="#3B3A3B" stroke="#3B3A3B" stroke-linecap="round" stroke-linejoin="round"/><path d="M405.058 537.976l-25.609 41.737 23.025 9.391 2.584-13.222v-37.906z" fill="#009688" stroke="#3B3A3B" stroke-linecap="round" stroke-linejoin="round"/><path d="M502.932 577.561l6.917 12.407a3.909 3.909 0 01.279 3.182 3.921 3.921 0 01-2.192 2.329l-9.812 4.092a3.926 3.926 0 01-4.661-1.288l-8.651-11.673 18.12-9.049z" fill="#fff" stroke="#3B3A3B" stroke-linecap="round" stroke-linejoin="round"/><path d="M476.57 539.313l29.142 38.949-22.666 10.435-6.476-11.054v-38.33z" fill="#009688" stroke="#3B3A3B" stroke-linecap="round" stroke-linejoin="round"/><path d="M375.098 594.093c.9-2.837 2.045-4.891 12.102-9.211 10.057-4.321 24.922-8.772 29.174-13.239.719-1.451 13.753-14.869 13.753-14.869s4.628-.783 5.478-1.06a20.807 20.807 0 016.427.538c1.194.424 1.308 1.093.818 1.386a30.176 30.176 0 01-3.99.734l-.409.212a26.034 26.034 0 014.53 4.744c.147.456.506.505-.409.815-.916.31-3.827-1.761-3.827-1.761h-2.682l3.402 2.071s3.27 3.147 2.142 3.848c-1.128.701-1.472.668-1.635 0-.164-.669-2.404-2.087-2.404-2.087l-4.579-.489a43.039 43.039 0 014.186 2.82 19.181 19.181 0 011.783 2.283s-.409 1.32-1.881.456c-1.472-.864-3.876-2.413-3.876-2.413l-1.978-.358a80.188 80.188 0 01-6.542 6.521 10.183 10.183 0 01-3.368 1.174v.13a97.497 97.497 0 01-18.316 17.625c-10.401 7.369-17.989 10.434-21.472 9.782-3.483-.652-7.342-6.815-6.427-9.652z" fill="#fff" stroke="#3B3A3B" stroke-linecap="round" stroke-linejoin="round"/><path d="M436.097 562.35l-5.659-.979M432.99 565.757l-3.663-.473M438.499 558.551l-6.263-.147" stroke="#3B3A3B" stroke-width=".75" stroke-linecap="round" stroke-linejoin="round"/><path d="M436.112 560.181h12.134c.937 0 1.836.371 2.498 1.032a3.517 3.517 0 011.035 2.49v28.157a3.11 3.11 0 01-.915 2.202 3.133 3.133 0 01-2.209.912h-12.952a3.132 3.132 0 01-2.208-.912 3.11 3.11 0 01-.915-2.202v-28.173a3.516 3.516 0 011.04-2.48 3.538 3.538 0 012.492-1.026z" fill="#3B3A3B"/><path d="M512.221 592.87c-1.766-2.396-3.484-3.913-14.407-4.891-10.924-.978-26.427-.407-31.889-3.26-1.145-1.142-17.776-9.783-17.776-9.783s-4.661.734-5.544.734a20.684 20.684 0 00-5.92 2.56c-.997.766-.883 1.434-.327 1.548a28.478 28.478 0 004.007-.554h.458a25.69 25.69 0 00-2.78 5.886c0 .489-.311.652.654.652.965 0 3.058-2.886 3.058-2.886l2.567-.815-2.567 3.049s-2.093 4.011-.818 4.337c1.276.326 1.635.146 1.635-.489.4-.988.952-1.906 1.636-2.723l4.186-1.924a40.19 40.19 0 00-3.058 4.011c-.393.88-.716 1.791-.965 2.722 0 0 .802 1.125 1.93-.163s2.894-3.521 2.894-3.521l1.767-.962a77.544 77.544 0 008.356 4.157 9.843 9.843 0 003.565 0v.114a98.298 98.298 0 0022.993 10.891c12.216 3.685 20.425 4.174 23.467 2.413 3.041-1.761 4.66-8.69 2.878-11.103z" fill="#fff" stroke="#3B3A3B" stroke-linecap="round" stroke-linejoin="round"/><path d="M444.272 582.142l5.053-2.706M448.296 584.392l3.319-1.614M440.774 579.306l5.887-2.12" stroke="#3B3A3B" stroke-width=".75" stroke-linecap="round" stroke-linejoin="round"/></g><g clip-path="url(#clip3)"><path d="M459.135 607.564s1.31-5.475-1.089-9.656c-2.4-4.182-4.375-1.314-6.119-.445-1.745.869-5.021-1.931-6.332-.212-1.31 1.719.222 3.061-.433 4.152-.656 1.091-5.242-.222-5.898 2.897-.655 3.119 2.833 3.061 1.523 4.587-1.311 1.526-4.366 1.931-2.833 4.828 1.532 2.897 4.143 2.192 4.143 3.284 0 1.091-2.833 3.283-1.089 5.465 1.745 2.183 4.154.657 4.819 1.758s1.522 4.152 2.833 4.828c1.31.676 4.587-.222 7.642-5.688 3.054-5.465 2.833-15.798 2.833-15.798z" fill="#3B3A3B" stroke="#3B3A3B" stroke-linecap="round" stroke-linejoin="round"/><path d="M488.882 650.372c-.703 1.516-6.591 5.562-6.591 5.562a4.512 4.512 0 01.414-1.931c.424-.647.723-1.275.964-1.661a4.038 4.038 0 00-.964-2.897c-.8-.889-1.436 1.342-1.783 2.829-.346 1.487-2.669 3.747-2.563 4.828a37.91 37.91 0 00.781 3.776l-6.601 5.36c-2.072 1.728-8.008 4.828-8.008 4.828a36.44 36.44 0 00-2.631-6.605 139.52 139.52 0 00-7.642-13.008c-2.322 3.245-.491 7.726.819 13.239 1.311 5.514 6.804 16.909 6.804 16.909a27.303 27.303 0 008.827-4.654c4.895-3.689 11.4-13.771 11.4-13.771s1.927-.859 4.307-1.68c2.38-.821 2.034-1.516 2.419-3.863.385-2.346 2.38-5.542 2.265-6.759-.116-1.217-1.513-2.018-2.217-.502z" fill="#fff" stroke="#3B3A3B" stroke-linecap="round" stroke-linejoin="round"/><path d="M450.616 623.314s-1.291 8.083-2.38 12.235c-1.089 4.152-2.429 3.93-2.429 3.93a17.749 17.749 0 00-8.942-1.931c-4.587.434-9.829 5.466-7.642 16.851 2.188 11.385 9.386 22.316 9.386 22.316l-3.71 13.78s-3.585 11.588-6.418 22.336c-2.833 10.747-6.794 26.893-8.548 30.176-1.753 3.284-8.306 7.726-13.548 17.749-5.243 10.024-12.528 28.864-12.528 28.864l1.927 2.192s22.926-25.609 28.823-31.732c5.898-6.122 15.505-22.104 18.117-31.509a57.577 57.577 0 017.16-15.914s3.324 19.419 1.58 24.885c-1.744 5.465-4.818 14.881-4.587 21.66.231 6.778 4.616 32.571 4.616 32.571l3.932.213s3.931-18.599 7.198-35.884c3.267-17.285 5.03-24.721 5.03-42.489 0-17.768-5.897-38.289-7.208-41.137-1.31-2.849-1.532-3.496-1.532-3.496s3.055-3.94 3.055-7.445c0-3.505-3.922-9.657-3.922-9.657s1.744-3.495.212-6.344a8.277 8.277 0 00-3.672-3.718l1.494-7.658-5.464-10.844z" fill="#fff" stroke="#3B3A3B" stroke-linecap="round" stroke-linejoin="round"/><path d="M436.884 683.117l-1.985 7.368s-3.585 11.588-6.418 22.336-6.794 26.894-8.548 30.177c-1.753 3.283-8.306 7.725-13.548 17.749-5.243 10.023-12.528 28.863-12.528 28.863l1.927 2.192s22.926-25.609 28.823-31.731c5.898-6.123 15.505-22.104 18.117-31.51a57.59 57.59 0 017.16-15.914s3.324 19.42 1.58 24.885c-1.744 5.466-4.818 14.881-4.587 21.66.231 6.779 4.616 32.581 4.616 32.581l3.932.213s3.931-18.599 7.198-35.884c3.267-17.286 5.03-24.721 5.03-42.489 0-11.656-2.553-24.538-4.673-32.833-13.781 3.071-21.644 3.119-26.096 2.337z" fill="#3B3A3B" stroke="#3B3A3B" stroke-linecap="round" stroke-linejoin="round"/><path d="M450.779 712.647l7.382-9.376" stroke="#fff" stroke-width=".75" stroke-linecap="round" stroke-linejoin="round"/><path d="M458.045 606.251s-6.746.434-7.864 9.656c-1.117 9.223.656 21.004 6.746 22.529 6.09 1.526 12.884-8.749 13.539-17.497.656-8.749-4.779-16.446-12.421-14.688z" fill="#fff" stroke="#3B3A3B" stroke-linecap="round" stroke-linejoin="round"/><path d="M466.67 627.959c0 .724-.318 1.313-.704 1.313-.385 0-.703-.589-.703-1.313s.308-1.304.703-1.304c.396 0 .704.58.704 1.304zM461.139 625.448c0 .715-.309 1.304-.694 1.304-.385 0-.703-.589-.703-1.304 0-.714.308-1.313.703-1.313.395 0 .694.579.694 1.313z" fill="#3B3A3B"/><path d="M469.552 613.619c-1.851-5.176-6.139-8.604-11.506-7.368 0 0-6.746.435-7.864 9.657a44.408 44.408 0 00-.279 6.643l.058.135s-.887-2.578 7.844-3.012c2.881-.174 10.108-6.499 11.747-6.055z" fill="#3B3A3B" stroke="#3B3A3B" stroke-linecap="round" stroke-linejoin="round"/><path d="M464.849 613.493s3.855-4.635 7.035-1.815-2.612 9.058-1.407 10.873c1.204 1.816 4.616-.405 4.616-.405s-1.802 3.862-4.212 3.862c-2.409 0-5.425-3.215-5.425-6.441a32.1 32.1 0 00-.607-6.035" fill="#3B3A3B"/><path d="M464.849 613.493s3.855-4.635 7.035-1.815-2.612 9.058-1.407 10.873c1.204 1.816 4.616-.405 4.616-.405s-1.802 3.862-4.212 3.862c-2.409 0-5.425-3.215-5.425-6.441a32.1 32.1 0 00-.607-6.035v0" stroke="#3B3A3B" stroke-linecap="round" stroke-linejoin="round"/><path d="M452.148 622.879s-2.843-6.344-4.153-3.07c-1.311 3.273.877 7.01 2.842 7.01" fill="#fff"/><path d="M452.148 622.879s-2.843-6.344-4.153-3.07c-1.311 3.273.877 7.01 2.842 7.01" stroke="#3B3A3B" stroke-linecap="round" stroke-linejoin="round"/><path d="M459.491 654.563a7.936 7.936 0 01-1.484-2.588 39.608 39.608 0 01-1.031-8.063l-.289-.3c-.492 3.506-2.034 9.86-6.544 7.272-4.509-2.588-8.104-9.753-9.453-13.017a7.29 7.29 0 00-2.178-.29c1.552 2.675 4.703 8.768 4.202 13.085-.559 4.828-4.606 13.982-12.142 9.125a77.287 77.287 0 007.998 16.918l-3.382 12.554c10.889 5.243 24.091 2.636 29.873 1.043-1.764-9.068-3.922-16.185-4.655-17.778-1.31-2.839-1.532-3.496-1.532-3.496s3.055-3.939 3.055-7.445c.038-2.008-1.282-4.925-2.438-7.02z" fill="#009688" stroke="#3B3A3B" stroke-linecap="round" stroke-linejoin="round"/><path d="M439.042 639.064s-2.621-2.404-8.297 1.535c-5.675 3.94-22.491 15.538-23.127 17.942-.636 2.405 25.113 26.257 27.078 27.57 1.966 1.313 4.819-.435 4.819-.435s7.921.966 8.364.087c.443-.878-3.035-5.012-5.223-6.103-2.187-1.091-7.42 1.932-7.42 1.932s-10.6-11.926-12.759-16.088a40.145 40.145 0 00-3.054-5.253l17.471-10.063" fill="#fff"/><path d="M439.042 639.064s-2.621-2.404-8.297 1.535c-5.675 3.94-22.491 15.538-23.127 17.942-.636 2.405 25.113 26.257 27.078 27.57 1.966 1.313 4.819-.435 4.819-.435s7.921.966 8.364.087c.443-.878-3.035-5.012-5.223-6.103-2.187-1.091-7.42 1.932-7.42 1.932s-10.6-11.926-12.759-16.088a40.145 40.145 0 00-3.054-5.253l17.471-10.063" stroke="#3B3A3B" stroke-linecap="round" stroke-linejoin="round"/><path d="M438.695 683.62l2.486-.242 4.577 2.173M438.772 681.93s2.409-.725 3.614 0c1.204.724 4.336 2.414 4.336 2.414M439.408 680.529s2.573-.415 3.604 0a14.951 14.951 0 012.891 2.057" stroke="#3B3A3B" stroke-width=".75" stroke-linecap="round" stroke-linejoin="round"/><path d="M434.022 651.975h5.242" stroke="#3B3A3B" stroke-linecap="round" stroke-linejoin="round"/><path d="M486.473 644.781l-5.3 12.495a1.49 1.49 0 00.106 1.381l.887 1.429a1.491 1.491 0 002.621-.145l5.926-12.457a1.506 1.506 0 00-.308-1.728l-1.513-1.458a1.483 1.483 0 00-1.337-.398 1.484 1.484 0 00-1.082.881z" fill="#3B3A3B"/><path d="M479.525 662.597a6.823 6.823 0 012.486-3.129 17.04 17.04 0 014.095-1.352s1.456-5.089 2.13-4.306c.675.782.405 4.702.405 4.702" fill="#fff"/><path d="M479.525 662.597a6.823 6.823 0 012.486-3.129 17.04 17.04 0 014.095-1.352s1.456-5.089 2.13-4.306c.675.782.405 4.702.405 4.702M465.831 624.792a3.66 3.66 0 00-2.197 2.53 9.676 9.676 0 00-.443 3.737l-3.065-.435M456.831 631.397a3.481 3.481 0 002.891 2.308M459.028 622.155s2.525-1.757 4.713-.106M465.831 624.792s3.18-1.314 3.18 1.1" stroke="#3B3A3B" stroke-linecap="round" stroke-linejoin="round"/></g><path d="M555.832 161.432V173h-1.896v-7.472c0-.299.016-.621.048-.968l-3.496 6.568c-.165.315-.419.472-.76.472h-.304c-.341 0-.595-.157-.76-.472l-3.536-6.592c.016.176.029.349.04.52.011.171.016.328.016.472V173h-1.896v-11.568h1.624c.096 0 .179.003.248.008a.623.623 0 01.184.04.367.367 0 01.152.104.817.817 0 01.136.192l3.464 6.424c.091.171.173.347.248.528.08.181.157.368.232.56.075-.197.152-.387.232-.568.08-.187.165-.365.256-.536l3.416-6.408a.817.817 0 01.136-.192.454.454 0 01.152-.104.727.727 0 01.192-.04c.069-.005.152-.008.248-.008h1.624zm8.741 2.104a.757.757 0 01-.208.248.452.452 0 01-.264.072.726.726 0 01-.368-.12 7.117 7.117 0 00-.464-.28 3.631 3.631 0 00-.64-.272 2.567 2.567 0 00-.856-.128c-.299 0-.56.037-.784.112a1.637 1.637 0 00-.568.296 1.219 1.219 0 00-.336.464 1.476 1.476 0 00-.112.584c0 .272.075.499.224.68.155.181.357.336.608.464s.536.243.856.344c.32.101.648.211.984.328.336.112.664.245.984.4.32.149.605.341.856.576.251.229.451.512.6.848.155.336.232.744.232 1.224 0 .523-.091 1.013-.272 1.472a3.358 3.358 0 01-.784 1.192c-.341.336-.76.603-1.256.8-.496.192-1.064.288-1.704.288a5.28 5.28 0 01-1.088-.112 5.626 5.626 0 01-1.032-.304 5.535 5.535 0 01-.92-.48 4.486 4.486 0 01-.768-.624l.632-1.032a.628.628 0 01.208-.184.507.507 0 01.272-.08c.133 0 .277.056.432.168.155.107.339.227.552.36.213.133.461.256.744.368.288.107.632.16 1.032.16.613 0 1.088-.144 1.424-.432.336-.293.504-.712.504-1.256 0-.304-.077-.552-.232-.744a1.75 1.75 0 00-.6-.48 4.388 4.388 0 00-.856-.336 28.61 28.61 0 01-.976-.296 8.513 8.513 0 01-.976-.384 3.16 3.16 0 01-.856-.584 2.718 2.718 0 01-.608-.896c-.149-.363-.224-.808-.224-1.336 0-.421.083-.832.248-1.232.171-.4.416-.755.736-1.064a3.6 3.6 0 011.184-.744c.469-.187 1.008-.28 1.616-.28.683 0 1.312.107 1.888.32a4.254 4.254 0 011.472.896l-.536 1.016zm14.108-.336h-3.488v9.8h-2.152v-9.8h-3.488v-1.768h9.128v1.768zm3.673-.056v3.208h4.048v1.656h-4.048v3.272h5.136V173h-7.296v-11.568h7.296v1.712h-5.136zm13.155 5.488l-1.408-3.848a8.756 8.756 0 01-.216-.608 22.001 22.001 0 01-.224-.76c-.069.272-.141.528-.216.768-.074.235-.146.44-.216.616l-1.4 3.832h3.68zm3.8 4.368h-1.664a.725.725 0 01-.456-.136.907.907 0 01-.264-.352l-.864-2.36h-4.792l-.864 2.36a.756.756 0 01-.248.336.691.691 0 01-.456.152h-1.68l4.552-11.568h2.192L599.309 173zm13.742-11.568V173h-1.896v-7.472c0-.299.016-.621.048-.968l-3.496 6.568c-.166.315-.419.472-.76.472h-.304c-.342 0-.595-.157-.76-.472l-3.536-6.592c.016.176.029.349.04.52.01.171.016.328.016.472V173h-1.896v-11.568h1.624c.096 0 .178.003.248.008a.63.63 0 01.184.04.373.373 0 01.152.104.817.817 0 01.136.192l3.464 6.424c.09.171.173.347.248.528.08.181.157.368.232.56a10.813 10.813 0 01.488-1.104l3.416-6.408a.79.79 0 01.136-.192.444.444 0 01.152-.104.71.71 0 01.192-.04c.069-.005.152-.008.248-.008h1.624zm8.741 2.104a.769.769 0 01-.208.248.456.456 0 01-.264.072.726.726 0 01-.368-.12 7.117 7.117 0 00-.464-.28 3.664 3.664 0 00-.64-.272 2.572 2.572 0 00-.856-.128c-.299 0-.56.037-.784.112a1.628 1.628 0 00-.568.296c-.15.128-.262.283-.336.464a1.476 1.476 0 00-.112.584c0 .272.074.499.224.68.154.181.357.336.608.464.25.128.536.243.856.344.32.101.648.211.984.328.336.112.664.245.984.4.32.149.605.341.856.576.25.229.45.512.6.848.154.336.232.744.232 1.224 0 .523-.091 1.013-.272 1.472a3.371 3.371 0 01-.784 1.192c-.342.336-.76.603-1.256.8-.496.192-1.064.288-1.704.288a5.28 5.28 0 01-1.088-.112 5.496 5.496 0 01-1.952-.784 4.486 4.486 0 01-.768-.624l.632-1.032a.618.618 0 01.208-.184.507.507 0 01.272-.08c.133 0 .277.056.432.168.154.107.338.227.552.36.213.133.461.256.744.368.288.107.632.16 1.032.16.613 0 1.088-.144 1.424-.432.336-.293.504-.712.504-1.256 0-.304-.078-.552-.232-.744a1.769 1.769 0 00-.6-.48 4.388 4.388 0 00-.856-.336c-.32-.091-.646-.189-.976-.296a8.513 8.513 0 01-.976-.384 3.144 3.144 0 01-.856-.584 2.703 2.703 0 01-.608-.896c-.15-.363-.224-.808-.224-1.336 0-.421.082-.832.248-1.232.17-.4.416-.755.736-1.064a3.59 3.59 0 011.184-.744c.469-.187 1.008-.28 1.616-.28.682 0 1.312.107 1.888.32a4.263 4.263 0 011.472.896l-.536 1.016z" fill="#fff"/><path d="M609.75 391.917a19.283 19.283 0 00-15.75 8.199 19.283 19.283 0 00-15.75-8.199c-10.255 0-19.25 9.541-19.25 20.416 0 10.599 5.985 21.516 17.309 31.57a93.04 93.04 0 0017.156 12.05c.336.173.734.173 1.07 0a93.12 93.12 0 0017.151-12.05C623.015 433.849 629 422.932 629 412.333c0-10.875-8.995-20.416-19.25-20.416zM594 453.59c-4.285-2.365-32.667-18.885-32.667-41.257 0-9.633 7.904-18.083 16.917-18.083a16.952 16.952 0 0114.734 8.623 1.212 1.212 0 002.032 0c3-5.318 8.628-8.612 14.734-8.623 9.013 0 16.917 8.45 16.917 18.083 0 22.372-28.382 38.892-32.667 41.257zM653 553.562a6.477 6.477 0 00-1.899-4.59 7.243 7.243 0 001.867-5.568c-.341-3.707-3.681-6.612-7.607-6.612h-18.016c.892-2.71 2.322-7.677 2.322-11.667 0-6.326-5.376-11.667-8.75-11.667-3.028 0-5.195 1.707-5.285 1.777a1.456 1.456 0 00-.549 1.14v9.89l-8.403 18.197-.347.178v-.557c0-.805-.653-1.458-1.458-1.458h-14.583a7.299 7.299 0 00-7.292 7.292v23.333a7.299 7.299 0 007.292 7.292h8.75c3.152 0 5.847-2.013 6.862-4.822 2.427 1.249 5.694 1.905 7.721 1.905h26.772c3.176 0 5.956-2.141 6.609-5.092a6.58 6.58 0 00-.525-4.384 6.535 6.535 0 003.602-5.837 6.487 6.487 0 00-.682-2.913 6.538 6.538 0 003.599-5.837zm-6.151 3.6a1.464 1.464 0 00-1.219.988 1.462 1.462 0 00.385 1.523 3.598 3.598 0 011.152 2.639c0 1.841-1.391 3.387-3.232 3.6a1.465 1.465 0 00-1.219.988 1.462 1.462 0 00.385 1.523c.96.904 1.345 2.173 1.056 3.48-.359 1.627-1.94 2.805-3.76 2.805h-26.772c-2.368 0-6.341-1.111-7.717-2.49a1.471 1.471 0 00-1.59-.315 1.458 1.458 0 00-.901 1.347 4.38 4.38 0 01-4.375 4.375h-8.75a4.38 4.38 0 01-4.375-4.375v-23.333a4.38 4.38 0 014.375-4.375h13.125V547c0 .505.262.974.694 1.243.426.256.962.282 1.417.061l2.917-1.459a1.46 1.46 0 00.671-.691l8.75-18.958c.087-.193.134-.403.134-.613v-9.418c.607-.335 1.66-.79 2.917-.79 1.598 0 5.833 3.972 5.833 8.75 0 5.133-2.794 12.533-2.82 12.606-.169.446-.111.951.16 1.347.274.394.723.63 1.202.63h20.069c2.433 0 4.498 1.742 4.702 3.964a4.357 4.357 0 01-2.077 4.127c-.446.274-.711.77-.691 1.298.02.528.324 1 .79 1.243a3.609 3.609 0 011.998 3.222c0 1.841-1.391 3.387-3.234 3.6z" fill="#3B3A3B"/><path d="M604.875 545.542c-.805 0-1.458.653-1.458 1.458v26.25a1.458 1.458 0 002.916 0V547c0-.805-.653-1.458-1.458-1.458z" fill="#3B3A3B"/><g clip-path="url(#clip4)" fill="#3B3A3B"><path d="M650.3 676.022c.354-.666.1-1.494-.566-1.849a21.444 21.444 0 00-23.645 2.361l-2.209-2.209 3.608-3.607a1.368 1.368 0 00-1.934-1.934l-3.607 3.607-8.802-8.802a19.1 19.1 0 003.659-9.197 19.008 19.008 0 00-2.107-11.198 1.367 1.367 0 00-2.415 1.283c2.945 5.542 2.484 12.121-1.094 17.155l-5.801-5.8a3.34 3.34 0 00-3.095-.904 3.342 3.342 0 00-2.428 2.122l-16.655 45.435a3.326 3.326 0 00.778 3.528 3.328 3.328 0 003.527.777l45.436-16.655a3.339 3.339 0 002.122-2.427 3.34 3.34 0 00-.904-3.095l-6.133-6.134a18.703 18.703 0 0120.416-1.891 1.367 1.367 0 001.849-.566zm-45.524 21.529l-12.327-12.327 3.416-9.317 18.228 18.228-9.317 3.416zM598.095 700L590 691.905l1.412-3.851 10.534 10.534-3.851 1.412zm-11.522 4.223a.592.592 0 01-.652-.144.593.593 0 01-.144-.652l3.186-8.692 6.302 6.302-8.692 3.186zm45.829-17.104a.606.606 0 01-.393.449l-8.405 3.081-7.776-7.776a1.369 1.369 0 00-1.934-.001 1.369 1.369 0 000 1.934l6.88 6.88-3.851 1.412-20.021-20.021 1.412-3.851 6.88 6.879a1.364 1.364 0 001.933 0 1.366 1.366 0 000-1.933l-7.776-7.776 3.081-8.405a.606.606 0 01.449-.393.695.695 0 01.142-.015c.125 0 .285.037.431.183l28.78 28.78c.21.209.195.449.168.573zM624.234 647.911c.755 0 1.367-.612 1.367-1.368 0-1.145.932-2.076 2.077-2.076a4.817 4.817 0 004.811-4.811 1.368 1.368 0 00-2.735 0 2.079 2.079 0 01-2.076 2.077 4.816 4.816 0 00-4.811 4.81c0 .756.612 1.368 1.367 1.368zM636.364 660.816a4.974 4.974 0 004.968-4.969 2.237 2.237 0 012.235-2.234 1.367 1.367 0 100-2.734 4.974 4.974 0 00-4.969 4.968 2.236 2.236 0 01-2.234 2.234 1.367 1.367 0 100 2.735zM644.25 663.453a4.38 4.38 0 004.375 4.375 4.38 4.38 0 004.375-4.375 4.38 4.38 0 00-4.375-4.375 4.38 4.38 0 00-4.375 4.375zm4.375-1.641c.905 0 1.641.736 1.641 1.641s-.736 1.641-1.641 1.641c-.904 0-1.64-.736-1.64-1.641s.736-1.641 1.64-1.641z"/><path d="M626.081 660.222a4.38 4.38 0 004.375-4.375 4.38 4.38 0 00-4.375-4.375 4.38 4.38 0 00-4.375 4.375 4.38 4.38 0 004.375 4.375zm0-6.015c.904 0 1.64.736 1.64 1.64 0 .905-.736 1.641-1.64 1.641a1.643 1.643 0 01-1.641-1.641c0-.904.736-1.64 1.641-1.64zM600.5 645.75a4.38 4.38 0 004.375-4.375A4.38 4.38 0 00600.5 637a4.38 4.38 0 00-4.375 4.375 4.38 4.38 0 004.375 4.375zm0-6.016c.905 0 1.641.736 1.641 1.641s-.736 1.641-1.641 1.641c-.904 0-1.64-.736-1.64-1.641s.736-1.641 1.64-1.641zM644.866 684.996a1.368 1.368 0 00-1.934 1.933l1.289 1.289a1.364 1.364 0 001.933 0 1.366 1.366 0 000-1.933l-1.288-1.289zM651.311 691.441a1.368 1.368 0 00-1.934 1.934l1.289 1.289c.267.267.617.4.967.4s.699-.133.966-.4c.534-.534.534-1.4 0-1.934l-1.288-1.289zM650.666 684.996l-1.289 1.289a1.368 1.368 0 001.934 1.934l1.288-1.289a1.368 1.368 0 00-1.933-1.934zM644.221 691.441l-1.289 1.289a1.368 1.368 0 001.933 1.934l1.289-1.289a1.368 1.368 0 00-1.933-1.934zM650.344 641.024c.35 0 .7-.134.967-.401l1.289-1.289a1.366 1.366 0 10-1.934-1.933l-1.289 1.289a1.366 1.366 0 00.967 2.334zM643.899 647.468c.35 0 .699-.133.966-.4l1.289-1.289a1.368 1.368 0 00-1.933-1.934l-1.289 1.289a1.368 1.368 0 00.967 2.334zM651.311 643.845a1.368 1.368 0 00-1.934 1.934l1.289 1.289c.267.267.617.4.967.4s.699-.133.966-.4c.534-.534.534-1.4 0-1.934l-1.288-1.289zM644.221 640.623a1.364 1.364 0 001.933 0 1.366 1.366 0 000-1.933l-1.289-1.289a1.366 1.366 0 10-1.933 1.933l1.289 1.289zM610.51 678.122c-.359 0-.712.146-.966.401a1.374 1.374 0 00-.401.966c0 .36.146.713.401.967.254.254.607.4.966.4.36 0 .712-.146.967-.4.254-.254.4-.607.4-.967 0-.359-.146-.712-.4-.966a1.376 1.376 0 00-.967-.401zM630.458 663.881l-.991.991a1.368 1.368 0 001.933 1.934l.991-.991a1.368 1.368 0 00-1.933-1.934z"/></g><g clip-path="url(#clip5)" fill="#3B3A3B"><path d="M643.074 266.177l2.92-3.51c1.376-1.655.948-4.292-.955-5.875a4.945 4.945 0 00-2.092-1.023c.577-.855.86-1.864.764-2.905a4.46 4.46 0 00-1.6-3.041 4.498 4.498 0 00-6.326.58l-1.209 1.454a4.44 4.44 0 00-1.321-1.904 4.473 4.473 0 00-3.233-1.018 4.51 4.51 0 00-2.262-3.151 4.465 4.465 0 00-3.418-.363 4.458 4.458 0 00-2.674 2.16l-.904 1.66a4.44 4.44 0 00-1.667-1.612 4.498 4.498 0 00-6.092 1.797l-4.715 8.658a6.527 6.527 0 00-5.038.924c-.543.359-.913.91-1.042 1.549a2.42 2.42 0 00.357 1.832l1.854 2.799-.164.301-3.582-3.111a6.55 6.55 0 00-9.253-.047 2.423 2.423 0 00-.723 1.722 2.423 2.423 0 00.706 1.728l2.64 2.667c3.526 3.561 4.158 4.64 3.484 8.988l-.811 4.824a1.12 1.12 0 00-1.505.46l-5.513 10.124a1.128 1.128 0 00.451 1.532l21.092 11.487a1.134 1.134 0 00.86.091 1.13 1.13 0 00.672-.543l.407-.748 1.074.893a1.126 1.126 0 001.589-.145l7.373-8.863a1.128 1.128 0 00-.145-1.59l-.101-.083 1.878-2.259a7.403 7.403 0 005.966-2.664l14.411-17.324a4.016 4.016 0 00-.519-5.649 3.956 3.956 0 00-1.634-.802zm-19.422-17.517a2.233 2.233 0 013.028-.893 2.236 2.236 0 011.153 1.964 4.414 4.414 0 00-.904.802l-11.697 14.061-.152-.195 8.572-15.739zm-8.664 1.847a2.236 2.236 0 013.03-.895 2.236 2.236 0 01.893 3.031l-.086.159-5.257 9.651-1.246-1.605a6.52 6.52 0 00-1.934-1.895l4.6-8.446zM595.65 266.86l-2.64-2.668c-.061-.06-.06-.196.001-.255.813-.806 1.854-1.258 3.036-1.241 1.145.006 2.219.457 3.086 1.328l4.703 4.09a1.129 1.129 0 001.732-.312l.243-.445c1.674 2.801 1.76 4.199.504 7.653l-1.731 4.575a1.124 1.124 0 00-1.564.159l-3.402 4.088-.802-.436.943-5.6c.796-5.137-.161-6.948-4.109-10.936zm15.683 36.48l-19.11-10.408 4.4-8.078c.097.139.216.264.371.349l1.021.556-2.369 2.848a1.132 1.132 0 00.146 1.59l15.621 12.995-.08.148zm3.499-.241l-16.728-13.916 5.883-7.071c.069.155.161.3.297.414l16.249 13.516c.035.029.078.042.115.066l-5.816 6.991zm28.66-31.915l-14.411 17.323a5.153 5.153 0 01-4.59 1.818 1.12 1.12 0 00-1.003.398l-2.251 2.707-14.816-12.324 2.011-5.311c1.777-4.885 1.19-6.847-1.911-11.526l-2.072-3.128c-.047-.071-.021-.204.051-.252a4.252 4.252 0 013.219-.627c1.122.228 2.088.878 2.769 1.902l2.361 3.041.006.008 1.455 1.875c.21.27.531.43.873.436.325-.024.668-.144.887-.407l12.595-15.14a2.22 2.22 0 011.512-.796c.6-.056 1.175.126 1.633.507a2.238 2.238 0 01.291 3.143l-.003.002v.002l-6.45 7.754a1.13 1.13 0 101.735 1.444l6.451-7.755.004-.007 3.682-4.425a2.234 2.234 0 013.434 2.856l-1.764 2.121c-.032.036-.072.061-.104.099-.019.023-.023.051-.04.074l-10.686 12.847a1.129 1.129 0 101.735 1.444l10.811-12.997c.602-.596 1.797-.504 2.688.237.93.775 1.234 2.009.663 2.696l-7.978 9.591-.074.088-.002.001-2.458 2.956a1.128 1.128 0 101.735 1.445l2.454-2.95.002-.001 2.859-3.412a1.755 1.755 0 012.697 2.243z"/><path d="M604.457 286.67a1.923 1.923 0 00.351 3.828 1.923 1.923 0 00-.351-3.828zM602.274 246.687l6.868 2.253a1.13 1.13 0 001.425-.721 1.13 1.13 0 00-.721-1.424l-6.869-2.254a1.13 1.13 0 00-.703 2.146zM610.148 244.742a1.13 1.13 0 001.89-1.235l-3.089-4.725a1.13 1.13 0 00-1.89 1.236l3.089 4.724zM614.932 245.266a1.132 1.132 0 001.337-.874l1.471-7.032a1.129 1.129 0 10-2.21-.463l-1.472 7.032a1.129 1.129 0 00.874 1.337z"/></g><path d="M92.185 610.782s-62.453 60.809-81.94 102.162c-19.485 41.354-8.5 39.57 10.626 52.653 38.25 26.295 120.082 60.129 120.082 60.129s1.615 26.677 15.406 35.598c13.791 8.92 52.742-41.948 47.068-50.571-5.673-8.624-44.624-5.884-44.624-5.884s-19.507-7.795-47.09-30.415a666.129 666.129 0 00-61.624-43.668s34-47.301 52.019-60.214c18.02-12.914 46.962-31.435 46.962-31.435" fill="#fff"/><path d="M92.185 610.782s-62.453 60.809-81.94 102.162c-19.485 41.354-8.5 39.57 10.626 52.653 38.25 26.295 120.082 60.129 120.082 60.129s1.615 26.677 15.406 35.598c13.791 8.92 52.742-41.948 47.068-50.572-5.673-8.623-44.624-5.883-44.624-5.883s-19.507-7.795-47.09-30.415a666.129 666.129 0 00-61.624-43.668s34-47.301 52.019-60.214c18.02-12.914 46.962-31.435 46.962-31.435" stroke="#263238" stroke-width="1.145" stroke-linecap="round" stroke-linejoin="round"/><path d="M357.807 961.723c-37.017 12.404-72.483 21.452-103.295 23.831-2.274.17-4.547.319-6.778.425-.404-7.392-1.063-21.24-1.807-25.488a19.601 19.601 0 00-5.95-10.981l-12.983 6.903L223.381 986c-56.63-.85-92.564-16.992-92.564-16.992l5.122-30.882a92.532 92.532 0 01-3.422-28.567c1.573-57.644 45.496-123.89 45.496-123.89s100.915-71.174 134.341-13.466c33.426 57.708 45.453 189.52 45.453 189.52z" fill="#BFBFBF"/><path d="M357.806 961.723s-12.048-131.685-45.453-189.499c-33.405-57.814-134.341 13.466-134.341 13.466s-60.328 90.926-42.181 152.479l-5.121 30.839" stroke="#263238" stroke-width="1.145" stroke-linecap="round" stroke-linejoin="round"/><path d="M312.12 576.842c6.864 17.437 72.865 103.925 78.263 128.796 5.397 24.872 4.866 46.493-25.5 38.932s-43.073-99.953-76.626-149.208" fill="#fff"/><path d="M312.12 576.842c6.864 17.437 72.865 103.925 78.263 128.796 5.397 24.872 4.866 46.493-25.5 38.932s-43.073-99.953-76.626-149.208" stroke="#263238" stroke-width="1.145" stroke-linecap="round" stroke-linejoin="round"/><path d="M309.038 587.122a13.486 13.486 0 002.656-12.468 80.321 80.321 0 00-8.882-24.999c-6.524-10.62-1.785-20.9-6.163-20.687-4.377.212-5.291 9.812-5.291 9.812s-8.5-9.536-13.77-12.361c-2.401-1.296-17.467-7.476-17.467-7.476l-15.406.743s-.128 7.285 14.025 6.372l9.435 7.476s-8.904 2.634-9.372 6.627c-.467 3.993-5.312 4.248-4.802 9.664.51 5.416-1.997 6.138 2.465 13.041 5.334 8.283 10.774 5.565 10.774 5.565s4.526 23.363 9.435 27.951c2.507 2.315 7.692 2.676 13.366 1.487" fill="#fff"/><path d="M309.038 587.122a13.486 13.486 0 002.656-12.468 80.321 80.321 0 00-8.882-24.999c-6.524-10.62-1.785-20.9-6.163-20.687-4.377.212-5.291 9.812-5.291 9.812s-8.5-9.536-13.77-12.361c-2.401-1.296-17.467-7.476-17.467-7.476l-15.406.743s-.128 7.285 14.025 6.372l9.435 7.476s-8.904 2.634-9.372 6.627c-.467 3.993-5.312 4.248-4.802 9.664.51 5.416-1.997 6.138 2.465 13.041 5.334 8.283 10.774 5.565 10.774 5.565s4.526 23.363 9.435 27.951c2.507 2.315 7.692 2.676 13.366 1.487" stroke="#263238" stroke-width="1.145" stroke-linecap="round" stroke-linejoin="round"/><path d="M258.804 540.246s5.461 12.446 8.691 15.717c3.23 3.271 9.01-.191 11.22-.467 2.847-.34 4.824 0 4.377-1.168-2.422-6.372-9.328-4.758-9.328-4.758s-2.125-6.86-6.12-9.664M291.359 538.78c-.136 3.2.179 6.403.935 9.516 0 0-4.675 10.832-3.846 15.95" stroke="#263238" stroke-width="1.145" stroke-linecap="round" stroke-linejoin="round"/><path d="M254.002 550.823c2.125 4.609 6.672 10.832 10.625 11.788 3.952.956 17.297-2.782 16.235-7.285M270.301 542.561s2.805 0 2.805-4.482M268.176 533.619s5.525 1.954 8.032-2.4" stroke="#263238" stroke-width="1.145" stroke-linecap="round" stroke-linejoin="round"/><path d="M129.691 407.86c13.048-44.731 93.032-43.69 111.413-7.838 18.381 35.853 10.816 27.845 11.9 40.504 1.083 12.659 10.816 21.941 8.67 43.775-2.147 21.834-1.084 30.139-6.503 35.725-5.419 5.586-45.113-.659-53.379-5.65 0 0-94.732-28.588-72.101-106.516z" fill="#fff" stroke="#263238" stroke-width="1.145" stroke-linecap="round" stroke-linejoin="round"/><path d="M157.252 490.375c5.971 12.553 7.926 64.972-4.399 77.419 0 0 32.555 14.06 79.071-2.698 0 0-14.068-17.841-14.068-33.261 0-15.42 17.85-17.565 17.85-17.565" fill="#fff"/><path d="M157.252 490.375c5.971 12.553 7.926 64.972-4.399 77.419 0 0 32.555 14.06 79.071-2.698 0 0-14.068-17.841-14.068-33.261 0-15.42 17.85-17.565 17.85-17.565" stroke="#263238" stroke-width="1.145" stroke-linecap="round" stroke-linejoin="round"/><path d="M252.324 429.312c1.912 1.189-2.805 10.343-8.904 14.06h4.441s-2.422 8.496-4.441 9.261c-2.019.764-7.714-20.56-21.505-9.261 0 0 4.866-30.075 30.409-14.06z" fill="#3B3A3B" stroke="#263238" stroke-width="1.145" stroke-linecap="round" stroke-linejoin="round"/><path d="M211.353 365.784s35.699 5.777 44.624 28.483c8.925 22.705-7.31 46.174-20.272 49.105-20.294 4.588-18.657 27.166-11.369 47.003 7.289 19.838 19.125 33.984 15.959 54.31 0 0-12.601-14.868-21.526-5.522-8.925 9.345-18.976 10.343-38.25 5.968-19.273-4.375-18.763 2.442-27.624 8.071-8.862 5.628-27.88-12.043-29.516 1.614-1.636 13.657-6.885 14.974-6.885 14.974s-25.16-15.569-17.85-37.955c7.31-22.386 14.599-27.909 11.347-46.727-3.251-18.818-8.16-51.761-.807-85.086 7.352-33.324 67.34-49.509 102.169-34.238z" fill="#3B3A3B" stroke="#263238" stroke-width="1.145" stroke-linecap="round" stroke-linejoin="round"/><path d="M238.681 453.185s-2.975-15.951-6.226-15.951-4.59 10.62-4.59 10.62-3.846 4.248-4.058 13.869c-.213 9.622 6.226 12.978 6.226 12.978s2.975 9.196 8.648 7.306c5.674-1.89-5.418-9.197-5.142-31.859" fill="#fff"/><path d="M238.681 453.185s-2.975-15.951-6.226-15.951-4.59 10.62-4.59 10.62-3.846 4.248-4.058 13.869c-.213 9.622 6.226 12.978 6.226 12.978s2.975 9.196 8.648 7.306c5.674-1.89-5.418-9.197-5.142-31.859" stroke="#263238" stroke-width="1.145" stroke-linecap="round" stroke-linejoin="round"/><path d="M238.957 492.584s1.211 14.995 10.625 24.723l-10.625-24.723z" fill="#fff"/><path d="M238.957 492.584s1.211 14.995 10.625 24.723" stroke="#263238" stroke-width="1.145" stroke-linecap="round" stroke-linejoin="round"/><path d="M321.734 650.505v.001c.037 3.376-.951 8.338-2.479 13.923-1.524 5.572-3.572 11.717-5.627 17.438a448.142 448.142 0 01-5.661 14.868 409.509 409.509 0 01-2.392 5.848l-.079.188-.058.139-.036.083-.008.021-.003.006v.001l.46.196-.46-.196-.063.147.034.155 24.55 112.362a811.407 811.407 0 00-11.55-.716c-7.733-.423-18.716-.928-31.719-1.254-26.003-.654-60.092-.596-92.419 2.253-16.431 1.436-26.822 3.756-33.116 5.726-3.148.985-5.273 1.883-6.617 2.539-.313.153-.583.292-.815.417l.26-.919c.384-1.364.937-3.327 1.607-5.72a3660.839 3660.839 0 005.043-18.173c3.775-13.753 7.861-29.034 9.076-35.055.178-.879-.025-2.172-.471-3.753-.453-1.607-1.184-3.599-2.146-5.921-1.922-4.646-4.785-10.664-8.243-17.666-2.343-4.743-4.96-9.94-7.746-15.475-5.446-10.815-11.541-22.919-17.506-35.445-9.017-18.934-17.722-38.801-23.418-56.58-2.848-8.89-4.94-17.245-5.944-24.693-.995-7.379-.918-13.834.524-19.024l.205-.155a47.09 47.09 0 011.006-.733 84.245 84.245 0 014.005-2.662c3.544-2.224 8.822-5.24 15.746-8.393 13.848-6.306 34.277-13.165 60.582-15.358 26.357-2.197 48.224-2.486 65.111-.612 16.913 1.878 28.726 5.916 35.091 12.277 6.425 6.422 15.198 20.935 22.399 36.626 7.204 15.694 12.772 32.433 12.877 43.289z" fill="#009688" stroke="#3B3A3B"/><path d="M391.615 735.798c-5.015 26.061-14.216 20.666-31.514 12.553-17.297-8.114-46.579-37.297-79.261-79.478L316.5 625s31.149 38.478 43.601 51.986c12.453 13.508 19.465 33.983 19.465 33.983" fill="#fff"/><path d="M391.615 735.798c-5.015 26.061-14.216 20.666-31.514 12.553-17.297-8.114-46.579-37.297-79.261-79.478L316.5 625s31.149 38.478 43.601 51.986c12.453 13.508 19.465 33.983 19.465 33.983" stroke="#263238" stroke-width="1.145" stroke-linecap="round" stroke-linejoin="round"/><path d="M126.208 573.984l.039.467a1360.333 1360.333 0 011.096 14.08c.661 9.084 1.453 21.161 1.982 33.135.528 11.977.791 23.838.396 32.495-.198 4.335-.56 7.835-1.126 10.139-.285 1.161-.609 1.96-.948 2.411-.166.221-.313.327-.43.372a.509.509 0 01-.385-.015c-2.268-.872-5.001-.587-7.755.257-2.767.847-5.63 2.282-8.207 3.807-2.581 1.526-4.893 3.153-6.558 4.398a75.073 75.073 0 00-2.476 1.932c-15.872-5.524-26.489-15.712-33.15-24.549a77.069 77.069 0 01-7.2-11.527 58.27 58.27 0 01-1.653-3.545 36.27 36.27 0 01-.4-.982c3.825-3.471 8.27-8.57 13.17-14.381 1.162-1.376 2.35-2.794 3.561-4.24 4.026-4.806 8.321-9.933 12.821-14.96 11.549-12.9 24.352-25.027 37.223-29.294z" fill="#009688" stroke="#3B3A3B"/><path d="M249.434 387.555c.17 3.653.403 7.306.297 10.959M49.92 730.701s-8.734 12.106-22.206 11.618" stroke="#263238" stroke-width="1.145" stroke-linecap="round" stroke-linejoin="round"/><path d="M280.84 668.873s-12.622-23.045-18.869-22.642c-6.248.404-17.935-40.822 6.205-69.389M101.874 602.648s-4.122 46.493 24.31 58.833M94.628 646.231s6.375 16.376 27.795 15.25M239.871 628.921s2.826 19.392 29.07 22.195M177.906 755.02s64.429-11.979 74.82-32.475" stroke="#3B3A3B" stroke-width="1.145" stroke-linecap="round" stroke-linejoin="round"/><defs><clipPath id="clip0"><path fill="#fff" transform="translate(384.423 223.114)" d="M0 0h109.482v105.239H0z"/></clipPath><clipPath id="clip1"><path fill="#fff" transform="translate(287.671 346.176)" d="M0 0h113.725v118.818H0z"/></clipPath><clipPath id="clip2"><path fill="#fff" transform="translate(358.962 435.29)" d="M0 0h145.127v149.372H0z"/></clipPath><clipPath id="clip3"><path fill="#fff" transform="translate(381.876 595.695)" d="M0 0h99.297v112.029H0z"/></clipPath><clipPath id="clip4"><path fill="#fff" transform="translate(583 637)" d="M0 0h70v70H0z"/></clipPath><clipPath id="clip5"><path fill="#fff" transform="translate(583 236)" d="M0 0h70v70H0z"/></clipPath></defs></svg>