<svg width="291" height="265" fill="none" xmlns="http://www.w3.org/2000/svg"><path d="M291 233c0 5 0 8-4 11s-10 5-15 7l-19 2a248 248 0 01-63-9c-6-2-11-4-16-8-2-1-4-3-4-5l4-3h9l23 1h11l5-2c1 0 3-2 2-3l-4-3c-5-3-11-5-18-6l-20-1c-7 0-14 2-21 5l-17 8a126 126 0 01-92-3c-5-2-10-7-10-12 0-6 6-10 11-11l17-4c11 0 23 2 33 8 4 2 11 6 9 11s-9 5-14 5l-19-5-21-5c-13-1-27-2-39 3-6 2-12 6-13 12s5 10 10 12l18 5 20 3c14 0 27-2 39-8s22-15 36-17c10-2 23-1 30 8 1 2 2 5 1 8l-5 5-10 1-11-1-44-5-23-3H46c-1 1-8 1-7 4s5 5 8 6l18 5c27 6 55-1 82-7 25-5 53-10 79-3l17 7c2 1 4 3 3 5s-4 3-6 4l-9 1h-10l-20-2c-13-2-27-4-40-3l-10 2c-1 1-3 2-2 3l5 2c5 3 12 5 18 5l8-2a6 6 0 002-3v-1l-2-1-21-3-28-2-30-1c-13 0-26-1-38-5l-17-8c-6-3-11-7-18-8-12-2-25 2-35 7-2 1-3-1-1-1 10-6 23-10 35-8 7 1 12 4 18 7l17 8c22 8 45 6 68 7l28 1 21 4c2 0 4 1 5 3s-1 4-2 5c-4 3-9 3-14 3-7-1-13-3-19-6-2-1-3-3-2-5 2-3 5-3 7-4l20-1c13 0 27 3 40 4l20 1 9-2c3-3-2-5-4-6-11-5-24-8-37-8-28-1-55 7-83 12-25 5-52 6-76-5-2-2-5-3-6-6-1-2 1-4 3-5l8-2h11l21 2 23 2 22 3 11 1 11 1c3 0 7-1 9-3 3-2 3-5 1-8-4-4-9-6-14-7-13-3-26 3-37 9l-18 10c-6 3-12 4-18 5-13 2-27 0-39-3-6-1-12-2-18-5-4-2-9-5-9-10-1-6 3-11 8-14s11-5 16-6c14-2 28-1 41 2l20 6 10 2 9-1 2-3c1-1 0-3-1-4l-8-5-16-5c-6-2-12-2-18-1-5 0-12 1-17 4-2 2-5 4-5 7-1 3 1 5 3 8 4 4 11 6 17 8a128 128 0 0093-8c6-3 12-6 19-7a97 97 0 0138 4l8 4c2 2 4 4 3 6-2 4-6 5-10 5h-23l-11-1-8 1h-1s-1 0 0 0v1l3 3 8 5 19 5a242 242 0 0064 5c6-1 11-3 16-6l5-4 1-6c-1-1 2-2 2-1z" fill="#3B3A3B"/><path d="M289 234a6 6 0 00-1-1v-1-1c0 1 0 0 0 0a7 7 0 00-1-1h-1a14 14 0 00-1-1h-1l-3-1h-1c1 0 0 0 0 0a13 13 0 00-2 0h-3l-3 1a25 25 0 01-13-1l-5-3-3-2a27 27 0 00-2-1s-1 0 0 0h-1l-6-2h-2l-1-1a1 1 0 012-1l3 1h4l5 3 6 3a18 18 0 003 1l3 1a24 24 0 006 0l6-1a10 10 0 014 0l3 1c3 1 5 2 6 5l1 1-1 1h-1z" fill="#3B3A3B"/><path d="M184 168l22 23c8 7 17 12 28 14l3 1-2 2a2 2 0 012 1 2 2 0 01-1 2 2 2 0 01-2 0 2 2 0 010 3h-4c-13-3-26-6-38-12s-23-14-31-25l-3-6c0-3 1-6 4-7 8-6 16-2 22 4zM83 100c6 4 11 11 12 19 2 8 2 16 1 23l-4 24c-1 14 1 29 6 42v4l-2-1c0 2-3 3-3 0 1 1-1 3-2 3-2 0-2-2-3-3l-4-13c-4-15-11-28-20-40l-15-20c-5-7-8-15-6-23 2-9 8-14 16-16 8-1 15-4 24 1z" fill="#E8E8E8"/><path d="M151 137c-10-10-18-22-28-33-9-11-20-22-33-28-10-4-23-6-32 1-8 6-10 17-10 27-1 25 10 14 31 39 12 14 33 28 60 49 14 11 29-2 47 0 5 0 11 0 14-3 3-4 1-9-1-14-5-10-15-16-25-23l-4-3-8-2c-4-2-8-6-11-10z" fill="#E8E8E8"/><path d="M42 78c-2-4-2-9-1-13 2-12 10-22 16-32 4-6 7-14 4-21C59 5 51 1 44 0c-7 0-14 2-21 6-4 2-9 5-12 9-2 3-3 7 0 10 1 2 4 2 7 1 3 0 6-2 10-4l10-3c4 1 8 3 9 6 1 5-3 9-6 13-6 8-11 18-14 29-2 8-2 18 4 25 2 4 5 6 9 8 6 3 12 5 18 5s12-2 17-6c2-2 5-5 5-8 1-4 1-7-1-10s-6-4-9-4c-4 0-6 3-9 5-5 4-15 1-19-4zM237 143c-7-1-14 0-20 3l-2 1-2 4v14l1 7 1 7c5 5 15-16 16-19l6-17zM159 183l-3-2-2-4c-6-9-7-22-1-31l5-4c2-2 6-3 9-3 6 0 12 3 17 6 7 4 13 9 16 16 2 4 4 9 3 14 0 5 1 9-2 13-2 3-7 4-11 4-5 1-10 0-15-1-6-2-11-4-16-8z" fill="#E8E8E8"/><path d="M223 167c-1 8-5 16-12 21l-6 3c-5 2-11 0-16-2a51 51 0 01-27-23l-5-11v-12c1-5 3-10 7-13 5-3 10-7 16-6 9 2 28 5 40 24 3 6 4 13 3 19z" fill="#E8E8E8"/><path d="M188 105c-7 5-14 11-19 17-4 4-8 9-9 14-2 5-1 12 4 15 5 4 12 2 16-2l7-10c2-3 2-6 3-10v-12l-2-12z" fill="#E8E8E8"/><path d="M186 112c-7 3-13 9-17 15l10-2 6 1 1-2v-4-8zM226 165c0-6-2-11-6-16 1 1 9-2 10-3h4l-1 2-7 17z" fill="#E5CAC6"/><path d="M216 165a7 7 0 01-12 0l-1-5a7 7 0 007 10 7 7 0 006-5z" fill="#E9F1F4"/><path d="M214 168a7 7 0 01-11-8 7 7 0 1111 8z" fill="#fff"/><path d="M215 168a7 7 0 00-7-11 7 7 0 00-6 9 7 7 0 008 5c2 0 3-1 5-3zm-1 0a7 7 0 01-11-7 7 7 0 1111 7z" fill="#E0BA99"/><path d="M213 167a5 5 0 01-8-5 5 5 0 017-1 5 5 0 011 6z" fill="#009688"/><path d="M207 167l3-2 2-4-1 1a11 11 0 00-4 4v1z" fill="#30211F"/><path d="M206 162a1 1 0 000 1 1 1 0 001 0v-1l2-1h-1l-2 1zM210 161h1a1 1 0 00-1-1v1z" fill="#fff"/><path d="M189 140a7 7 0 01-4 4 7 7 0 01-8-3l-1-5a7 7 0 004 10 7 7 0 009-6z" fill="#E9F1F4"/><path d="M188 144a7 7 0 11-9-11 7 7 0 0110 6 7 7 0 01-1 5z" fill="#fff"/><path d="M188 144a7 7 0 00-7-12 7 7 0 00-6 10 7 7 0 008 5c2 0 4-1 5-3zm-1 0a7 7 0 11-8-10 7 7 0 0110 5c0 2 0 4-2 5z" fill="#E0BA99"/><path d="M186 143a5 5 0 11-6-7 5 5 0 017 4l-1 3z" fill="#009688"/><path d="M180 143l3-2 2-4-1 1a12 12 0 00-4 4v1z" fill="#30211F"/><path d="M179 138a1 1 0 000 1h1v-1l2-1h-1a3 3 0 00-2 1zM183 137h1a1 1 0 00-1-1v1z" fill="#fff"/><path d="M192 158a2 2 0 011 1l-1 1-3 1-3 1-1-4v-2l1-1c0-1 2-1 3 1v1a3 3 0 013 1z" fill="#593E39"/><path d="M177 163l4 2 4-2 2-3v1l-2 2-1 2v3a8 8 0 004 4h-1a8 8 0 01-3-5v-2-1l-1 1a5 5 0 01-4 0l-2-2zM178 155a48 48 0 00-27-19v-1a49 49 0 0127 20c1 0 0 0 0 0zM176 157a52 52 0 00-31-12v-1a53 53 0 0131 12v1zM176 160a56 56 0 00-30-3h-1a57 57 0 0131 2v1zM198 168l4 2a206 206 0 0110 6l11 11 4 8-1 1c-1-5-4-10-8-14a61 61 0 00-16-11l-4-2v-1zM195 171l6 4a70 70 0 0110 13c3 5 5 10 5 16 1 0 0 0 0 0a45 45 0 00-9-21l-6-6-6-5v-1zM194 174l7 11c2 4 3 9 3 13l1 8h-1l-1-14a38 38 0 00-10-17l1-1z" fill="#593E39"/><path d="M157 178l22 22c8 7 18 13 28 14l3 1c0 1 0 3-1 2a2 2 0 011 2 2 2 0 01-1 2 2 2 0 01-2-1 2 2 0 011 3h-5c-13-2-26-6-38-12-12-5-23-14-31-24-1-2-3-4-3-7s2-5 4-7c8-6 16-1 22 5z" fill="#E8E8E8"/><path d="M135 173l-2 5 2 7c8 11 18 20 30 26v1c-12-6-23-14-31-25-2-2-3-4-3-7 0-2 1-5 4-7z" fill="#D8D8D8"/><path d="M76 103c6 5 9 13 10 21 0 7-1 15-4 23l-7 22c-3 14-4 29-1 43l-1 3-1-1c0 3-4 3-4 0 1 1-1 3-2 2l-2-3-2-14c-2-14-8-40-14-54-10-26-3-61 5-61 9 0 16 12 23 19z" fill="#E8E8E8"/><path d="M230 209a15 15 0 0017 15 15 15 0 0012-20 15 15 0 00-19-8 15 15 0 00-10 13z" fill="gray"/><path d="M259 213a67 67 0 01-20-16v-2h2a66 66 0 0019 16 1 1 0 010 2 1 1 0 01-1 0z" fill="#3B3A3B"/><path d="M258 217l-5-2a77 77 0 01-16-17v-1a1 1 0 012 0 76 76 0 0014 15h1v1l2 1 3 1 1 2h-2z" fill="#3B3A3B"/><path d="M256 219l-5-2-5-4a80 80 0 01-13-13 1 1 0 011-2 1 1 0 011 1l7 8a141 141 0 0015 12 1 1 0 01-1 0zM253 223a204 204 0 01-23-19 1 1 0 011-2 1 1 0 011 0l4 4a168 168 0 0018 15v1l-1 1z" fill="#3B3A3B"/><path d="M257 199c0 5-1 9-3 13l-3 6a19 19 0 01-10 6 1 1 0 01-1-1 1 1 0 010-1 18 18 0 002 0l1-1a18 18 0 003-2 26 26 0 003-3 17 17 0 003-4 47 47 0 002-6v-7l2-1 1 1z" fill="#3B3A3B"/><path d="M254 196v4a40 40 0 01-3 9 20 20 0 01-10 10l-7 2-1-2 1-1h3a13 13 0 003-1l5-3a17 17 0 004-6v-1a47 47 0 003-8v-2a1 1 0 010-1 1 1 0 012 0z" fill="#3B3A3B"/><path d="M250 195l-1 6-3 6-9 5-6 2-1-1a1 1 0 011-1h1v-1a27 27 0 006-1 19 19 0 003-2h1v-1a15 15 0 002-2 13 13 0 001-1l1-3 2-6a1 1 0 012 0z" fill="#3B3A3B"/></svg>