<svg width="29" height="37" fill="none" xmlns="http://www.w3.org/2000/svg"><g clip-path="url(#clip0)"><path fill-rule="evenodd" clip-rule="evenodd" d="M27.794 0a.484.484 0 01.363.076c.073.546-.44.808-.691 1.158-1.456 2.06-3.01 4.157-4.368 6.466-.382.637-.92 1.237-1.234 1.849-.364.728-.535 1.558-.924 2.308-.39.75-.834 1.333-1.154 2.083.9.178 2.13.021 3.156.072.058-.28-.291-1.238 0-1.54.63.12.578.91.924 1.311 2.595-.655 3.174 1.951.233 1.456.393 3.52-.364 7.376.077 11.013.032.27.196.568.229.845.08.651-.073 1.35 0 2.002.197 1.795.32 3.731.462 5.46 1.092-.017 2.064-.083 2.155.692.16 1.315-1.744.67-2.694 1.158-.862-.364-2.467-.233-4.08-.233-3.501 0-6.788.317-10.624.153-1.3-.055-2.577.022-3.542-.077-1.19-.12-2.333-.546-3.155.077-.874-.335-2.42 0-2.912-.692.215-.688 1.288-.51 2.082-.615-.153-6.531.364-13.328-.08-19.404-1.798.236-2.213-1.402-.23-1.31.208-.365-.2-1.01.31-1.155.728-.062.728.59.844 1.154 1.565.051 2.956-.069 4.466-.076a26.278 26.278 0 00-1.154-3.313c-.425-1.052-1.204-2.163-.924-3.31.728.24 1.237 1.064 1.616 1.693.863 1.457 1.303 3.39 2.078 4.93 2.38.258 4.78.258 7.16 0a35.92 35.92 0 014.39-7.161c1.633-2.14 3.34-4.46 5.539-5.93.557-.357 1.241-.521 1.682-1.14zM18.86 15.716a39.857 39.857 0 00-2.77 7.085c-.309 1.165-.509 2.483-.847 4.08-.171.805-.728 3.113-1.616 3.31-.688.157-1.784-.226-2.155-.845-.266-.444-.317-1.303-.462-1.925-.885-3.841-1.86-8.457-3.003-11.781H3.16c.571 5.92.196 12.789.462 19.018 2.482.411 5.368.23 8.237.23.99 0 1.914.021 2.846 0 .855-.019 1.649-.234 2.464-.306 2.086-.193 4.128.142 6.159 0-.44-6.131-.823-12.462-.54-19.099h-3.77c-.11.022-.087.171-.157.233zm-6.551 9.626c.728-3.546 2.162-6.357 3.156-9.626a20.84 20.84 0 01-5.777-.062c.965 2.833 1.857 6.404 2.632 9.688h-.011z" fill="#3B3A3B"/></g><defs><clipPath id="clip0"><path fill="#fff" d="M0 0h28.183v36.431H0z"/></clipPath></defs></svg>