<svg width="70" height="70" fill="none" xmlns="http://www.w3.org/2000/svg"><g clip-path="url(#clip0)" fill="#3B3A3B"><path d="M60.074 30.177l2.92-3.51c1.376-1.655.948-4.292-.955-5.875a4.946 4.946 0 00-2.092-1.023 4.442 4.442 0 00-.837-5.946 4.499 4.499 0 00-6.325.58l-1.21 1.454a4.437 4.437 0 00-1.32-1.904 4.473 4.473 0 00-3.233-1.018 4.513 4.513 0 00-2.262-3.151 4.47 4.47 0 00-3.418-.363 4.46 4.46 0 00-2.674 2.16l-.904 1.66a4.437 4.437 0 00-1.667-1.612 4.498 4.498 0 00-6.092 1.797l-4.715 8.658a6.521 6.521 0 00-5.038.924c-.543.36-.913.91-1.042 1.549a2.42 2.42 0 00.357 1.832l1.854 2.799-.164.301-3.582-3.111a6.55 6.55 0 00-9.253-.047 2.418 2.418 0 00-.723 1.722 2.422 2.422 0 00.706 1.728l2.64 2.667c3.525 3.562 4.158 4.64 3.484 8.988l-.811 4.824a1.12 1.12 0 00-1.505.46L6.7 56.843a1.13 1.13 0 00.452 1.532l21.092 11.487a1.134 1.134 0 00.86.09c.287-.084.528-.28.672-.542l.407-.748 1.074.893a1.126 1.126 0 001.59-.146l7.372-8.862a1.126 1.126 0 00-.145-1.59l-.101-.083 1.878-2.259a7.403 7.403 0 005.966-2.664l14.411-17.324a4.017 4.017 0 00-.52-5.65 3.956 3.956 0 00-1.633-.801zM40.652 12.66a2.233 2.233 0 013.028-.893 2.237 2.237 0 011.153 1.964 4.415 4.415 0 00-.904.802L32.232 28.594l-.152-.195 8.572-15.739zm-8.664 1.847a2.235 2.235 0 013.03-.895 2.237 2.237 0 01.893 3.03l-.086.16-5.257 9.651-1.246-1.605a6.506 6.506 0 00-1.934-1.895l4.6-8.446zM12.65 30.86l-2.64-2.668c-.06-.06-.06-.195.001-.255.813-.806 1.854-1.258 3.036-1.241 1.145.006 2.219.457 3.086 1.328l4.703 4.09a1.128 1.128 0 001.732-.312l.242-.445c1.675 2.8 1.761 4.2.505 7.653l-1.731 4.575a1.125 1.125 0 00-1.564.159l-3.402 4.089-.802-.437.943-5.6c.796-5.137-.16-6.948-4.109-10.936zm15.683 36.48L9.223 56.931l4.4-8.078c.097.139.216.264.371.349l1.021.556-2.369 2.848a1.128 1.128 0 00.146 1.59l15.621 12.995-.08.148zm3.5-.241L15.103 53.183l5.883-7.071c.07.155.16.3.297.414l16.249 13.516c.035.029.078.042.115.066l-5.816 6.99zm28.659-31.915L46.08 52.507a5.153 5.153 0 01-4.59 1.818 1.119 1.119 0 00-1.003.398l-2.251 2.707L23.42 45.106l2.01-5.311c1.778-4.885 1.191-6.847-1.91-11.526l-2.072-3.128c-.047-.071-.02-.204.05-.252a4.25 4.25 0 013.22-.627c1.122.228 2.088.878 2.77 1.902l2.36 3.041a.059.059 0 01.006.008l1.455 1.875c.21.27.53.43.873.436.325-.024.668-.144.887-.407l12.595-15.14a2.218 2.218 0 011.512-.796c.6-.056 1.175.126 1.633.507a2.237 2.237 0 01.29 3.143l-.002.002v.002l-6.45 7.754a1.129 1.129 0 101.735 1.444l6.451-7.755.004-.007 3.682-4.425a2.235 2.235 0 013.942 1.224 2.22 2.22 0 01-.508 1.632l-1.764 2.121c-.032.036-.072.061-.104.1-.019.022-.023.05-.04.073L45.359 33.843a1.128 1.128 0 101.736 1.444L57.906 22.29c.602-.596 1.797-.504 2.688.237.93.774 1.234 2.01.663 2.696l-7.978 9.59-.074.089-.002.001-2.458 2.956a1.128 1.128 0 101.735 1.445l2.454-2.95.002-.001 2.858-3.412a1.755 1.755 0 012.47-.227c.743.619.845 1.727.227 2.47z"/><path d="M21.457 50.67a1.922 1.922 0 10.352 3.828 1.922 1.922 0 00-.352-3.828zM19.274 10.687l6.868 2.253a1.13 1.13 0 00.703-2.145L19.977 8.54a1.13 1.13 0 00-.703 2.146zM27.148 8.742a1.129 1.129 0 001.89-1.235l-3.089-4.725a1.13 1.13 0 00-1.89 1.236l3.089 4.724zM31.932 9.266a1.13 1.13 0 001.337-.874L34.74 1.36a1.13 1.13 0 00-2.21-.463L31.058 7.93c-.128.611.263 1.21.874 1.337z"/></g><defs><clipPath id="clip0"><path fill="#fff" d="M0 0h70v70H0z"/></clipPath></defs></svg>