<svg width="70" height="70" fill="none" xmlns="http://www.w3.org/2000/svg"><path d="M50.75 2.917A19.285 19.285 0 0035 11.116a19.285 19.285 0 00-15.75-8.2C8.995 2.917 0 12.459 0 23.334c0 10.6 5.985 21.516 17.309 31.57a93.12 93.12 0 0017.155 12.05c.337.173.735.173 1.072 0a93.124 93.124 0 0017.15-12.05C64.016 44.85 70 33.933 70 23.333c0-10.875-8.995-20.416-19.25-20.416zM35 64.59C30.715 62.225 2.333 45.705 2.333 23.333 2.333 13.7 10.237 5.25 19.25 5.25a16.95 16.95 0 0114.734 8.623 1.215 1.215 0 002.032 0A16.95 16.95 0 0150.75 5.25c9.013 0 16.917 8.45 16.917 18.083 0 22.372-28.382 38.892-32.667 41.257z" fill="#3B3A3B"/></svg>