<svg width="65" height="54" fill="none" xmlns="http://www.w3.org/2000/svg"><path d="M43.549 31.472v7.43h-.836v-3.466H39.31v3.466h-.835v-7.43h.835v3.14h3.404v-3.14h.836zm7.607 3.705c0 1.19-.269 2.124-.806 2.805s-1.288 1.022-2.254 1.022c-.977 0-1.732-.335-2.267-1.004-.534-.67-.8-1.614-.8-2.833 0-1.21.265-2.147.796-2.813.53-.666 1.291-.999 2.28-.999.963 0 1.712.338 2.247 1.014.536.676.804 1.612.804 2.808zm-5.247 0c0 .983.186 1.731.558 2.246.372.515.915.773 1.63.773.71 0 1.25-.255 1.62-.763.369-.508.553-1.26.553-2.256 0-.993-.183-1.74-.549-2.244-.366-.503-.904-.754-1.615-.754-.72 0-1.267.255-1.639.764-.372.51-.558 1.255-.558 2.234zm10.326 3.725h-.686l-2.187-6.515h-.037c.046.542.069 1.211.069 2.007v4.508h-.772v-7.43h1.234l2.047 6.088h.037l2.083-6.088h1.225v7.43h-.826v-4.569c0-.508.022-1.153.064-1.936h-.036l-2.215 6.505zm8.528-.823v.823h-3.708v-7.43h3.708v.823H61.89v2.318h2.705v.813H61.89v2.653h2.873zM41.949 41.408h.647v4.029c0 .71-.192 1.268-.575 1.674-.383.406-.909.609-1.579.609-.669 0-1.187-.205-1.553-.614-.367-.408-.55-.97-.55-1.686v-4.012h.647v4.063c0 .52.127.918.38 1.197.254.278.627.417 1.118.417.47 0 .831-.14 1.084-.42.254-.279.38-.68.38-1.203v-4.054zm6.463 0v6.227h-.739l-3.038-5.226h-.031c.04.613.06 1.175.06 1.686v3.54h-.596v-6.227h.73l3.032 5.204h.03a50.256 50.256 0 01-.034-.738 14.54 14.54 0 01-.02-.893v-3.573h.606zm2.175 6.227h-.646v-6.227h.646v6.227zm3.431-2.224l1.27-4.003h.697l-2.005 6.227h-.639l-1.993-6.227h.685l1.278 4.029c.147.463.264.913.35 1.35.091-.46.21-.918.357-1.376zm5.831 1.576v.648h-3.1v-6.227h3.1v.643h-2.453v2.006h2.305v.639h-2.305v2.291h2.453zm3.04-1.942h-1.16v2.59h-.647v-6.227h1.525c.683 0 1.187.146 1.512.439.326.292.49.732.49 1.32 0 .823-.374 1.38-1.12 1.67L65 47.635h-.765l-1.346-2.59zm-1.16-3.003v2.381h.886c.456 0 .791-.101 1.004-.304.213-.203.32-.508.32-.914 0-.411-.109-.708-.325-.89-.217-.182-.565-.273-1.045-.273h-.84z" fill="#fff"/><path d="M31.966 50.435c-2.448-1.485-12.494-7.08-24.755-7.08-2.096 0-4.26.163-6.458.539V1.393c15.699-2.736 29.478 5.554 31.213 6.65v42.392zM64.37.617C48.298-2.33 34.147 6.173 32.342 7.314 30.539 6.173 16.386-2.33.316.617L0 .675v44.208l.437-.08c16.845-3.088 31.565 6.614 31.713 6.712l.569.382V8.043c1.736-1.096 15.515-9.387 31.214-6.65v26.983h.753V.676L64.37.616z" fill="#fff"/><path d="M1.475 46.656l.056.417c15.065-2.567 29.922 6.683 30.07 6.776l.186-.366c-.15-.095-15.115-9.416-30.312-6.827z" fill="#fff"/><path d="M3.044 48.815l.073.413c.102-.023 10.278-2.182 23.242 4.63l.16-.383c-13.074-6.869-23.373-4.683-23.475-4.66z" fill="#fff"/></svg>