<svg width="70" height="70" fill="none" xmlns="http://www.w3.org/2000/svg"><path d="M70 41.563a6.48 6.48 0 00-1.899-4.591 7.241 7.241 0 001.867-5.568c-.341-3.707-3.681-6.612-7.607-6.612H44.345c.892-2.71 2.322-7.677 2.322-11.667 0-6.326-5.376-11.667-8.75-11.667-3.028 0-5.195 1.707-5.285 1.777a1.46 1.46 0 00-.549 1.14v9.89L23.68 32.462l-.347.178v-.557c0-.805-.653-1.458-1.458-1.458H7.292A7.298 7.298 0 000 37.917V61.25a7.298 7.298 0 007.292 7.292h8.75c3.152 0 5.848-2.013 6.862-4.822 2.427 1.249 5.694 1.905 7.721 1.905h26.772c3.176 0 5.956-2.14 6.61-5.093a6.584 6.584 0 00-.526-4.383 6.536 6.536 0 002.92-8.75A6.536 6.536 0 0070 41.562zm-6.151 3.599a1.466 1.466 0 00-1.22.988c-.177.54-.029 1.132.386 1.523a3.6 3.6 0 011.152 2.64c0 1.84-1.392 3.386-3.232 3.599a1.466 1.466 0 00-1.219.988c-.178.54-.03 1.132.385 1.523.96.904 1.345 2.173 1.056 3.48-.359 1.627-1.94 2.805-3.76 2.805H30.625c-2.368 0-6.34-1.11-7.718-2.49a1.458 1.458 0 00-2.49 1.032 4.38 4.38 0 01-4.375 4.375h-8.75a4.38 4.38 0 01-4.375-4.375V37.917a4.38 4.38 0 014.375-4.375h13.125V35c0 .505.262.974.694 1.242a1.49 1.49 0 001.417.062l2.917-1.459c.294-.145.53-.39.67-.69l8.75-18.96c.088-.192.135-.402.135-.612V5.165c.607-.335 1.66-.79 2.917-.79 1.598 0 5.833 3.973 5.833 8.75 0 5.133-2.794 12.533-2.82 12.606-.17.446-.111.95.16 1.347.274.394.723.63 1.202.63h20.07c2.432 0 4.497 1.742 4.7 3.964.156 1.663-.644 3.244-2.076 4.127-.446.274-.711.77-.691 1.298.02.528.324 1 .79 1.243a3.61 3.61 0 011.998 3.222c0 1.84-1.39 3.387-3.234 3.6z" fill="#3B3A3B"/><path d="M21.875 33.542c-.805 0-1.458.653-1.458 1.458v26.25a1.459 1.459 0 002.916 0V35c0-.805-.653-1.458-1.458-1.458z" fill="#3B3A3B"/></svg>