<svg width="45" height="45" fill="none" xmlns="http://www.w3.org/2000/svg"><path d="M29.313 46.687H5.918c-1.746 0-3.166-1.572-3.166-3.504V24.747c0-.673.493-1.22 1.101-1.22s1.101.547 1.101 1.22v18.436c0 .588.432 1.067.964 1.067h23.395c.531 0 .963-.479.963-1.067V24.747c0-.673.493-1.22 1.101-1.22s1.101.547 1.101 1.22v18.436c0 1.932-1.42 3.504-3.165 3.504z" fill="#fff"/><path d="M34.13 29.012c-.282 0-.564-.119-.779-.357L19.659 13.497c-1.127-1.247-2.96-1.247-4.087 0L1.879 28.656a1.027 1.027 0 01-1.557 0 1.313 1.313 0 010-1.724l13.693-15.159c1.985-2.197 5.215-2.197 7.2 0l13.693 15.159c.43.476.43 1.247 0 1.723a1.046 1.046 0 01-.779.357z" fill="#fff"/><path d="M17.352 25.875c-4.782 0-8.68 3.94-8.68 8.824A9.013 9.013 0 0010 39.375h4.17a5.628 5.628 0 01-1.857-2.82 5.976 5.976 0 01.036-3.447 5.606 5.606 0 011.916-2.775 5.04 5.04 0 013.074-1.058 5.04 5.04 0 013.074 1.058 5.605 5.605 0 011.916 2.775 5.976 5.976 0 01.036 3.447 5.628 5.628 0 01-1.858 2.82h4.204a8.993 8.993 0 001.306-4.676c0-4.88-3.881-8.824-8.68-8.824" fill="#fff"/><path d="M14.513 36.137a3.185 3.185 0 001.083 1.6 2.86 2.86 0 001.759.612 2.86 2.86 0 001.758-.612c.51-.397.89-.958 1.083-1.6h-5.683zM31.188 0a.3.3 0 00-.294.305v2.437a.3.3 0 00.294.305c5.99 0 10.863 5.057 10.863 11.273a.3.3 0 00.293.305h2.349a.3.3 0 00.293-.305C44.986 6.424 38.796 0 31.188 0z" fill="#fff"/><path d="M31.188 4.875a.3.3 0 00-.294.305v2.437a.3.3 0 00.294.305c3.4 0 6.165 2.87 6.165 6.398a.3.3 0 00.294.305h2.349a.3.3 0 00.293-.305c0-5.208-4.083-9.445-9.101-9.445z" fill="#fff"/><path d="M32.95 14.625c1.134 0 2.054-.955 2.054-2.133s-.92-2.133-2.055-2.133c-1.135 0-2.055.955-2.055 2.133s.92 2.133 2.055 2.133z" fill="#fff"/></svg>