<svg width="70" height="70" fill="none" xmlns="http://www.w3.org/2000/svg"><g clip-path="url(#clip0)" fill="#3B3A3B"><path d="M67.3 39.022c.354-.666.1-1.494-.566-1.849a21.441 21.441 0 00-23.645 2.361l-2.209-2.209 3.608-3.607a1.367 1.367 0 00-1.934-1.934l-3.607 3.608-8.802-8.803a19.094 19.094 0 003.659-9.197 19.004 19.004 0 00-2.107-11.198 1.367 1.367 0 00-2.415 1.283c2.945 5.542 2.484 12.121-1.094 17.155l-5.8-5.8a3.34 3.34 0 00-3.096-.904 3.34 3.34 0 00-2.428 2.122L.21 65.486a3.323 3.323 0 00.778 3.527 3.324 3.324 0 003.527.777L49.95 53.135a3.34 3.34 0 002.122-2.427 3.34 3.34 0 00-.904-3.095l-6.133-6.133a18.703 18.703 0 0120.416-1.892c.666.355 1.494.101 1.849-.566zM21.775 60.551L9.449 48.224l3.416-9.317 18.228 18.228-9.317 3.416zM15.095 63L7 54.905l1.412-3.851 10.534 10.534L15.095 63zM3.573 67.223a.595.595 0 01-.652-.144.594.594 0 01-.144-.652l3.186-8.692 6.302 6.302-8.692 3.186zM49.402 50.12a.604.604 0 01-.393.449l-8.405 3.08-7.776-7.775a1.367 1.367 0 00-1.934 1.933l6.88 6.88-3.85 1.412-20.022-20.021 1.412-3.851 6.88 6.88a1.363 1.363 0 001.933 0c.534-.534.534-1.4 0-1.934l-7.776-7.776 3.081-8.405a.605.605 0 01.45-.393.595.595 0 01.573.167l28.78 28.781c.209.21.194.449.167.573zM41.234 10.91c.755 0 1.367-.611 1.367-1.366 0-1.145.932-2.077 2.077-2.077a4.816 4.816 0 004.81-4.81 1.367 1.367 0 00-2.734 0 2.079 2.079 0 01-2.076 2.076 4.816 4.816 0 00-4.811 4.81c0 .756.612 1.368 1.367 1.368zM53.364 23.816a4.974 4.974 0 004.969-4.969 2.237 2.237 0 012.234-2.234 1.367 1.367 0 000-2.734 4.974 4.974 0 00-4.969 4.968 2.237 2.237 0 01-2.234 2.234 1.367 1.367 0 000 2.735zM61.25 26.453a4.38 4.38 0 004.375 4.375A4.38 4.38 0 0070 26.453a4.38 4.38 0 00-4.375-4.375 4.38 4.38 0 00-4.375 4.375zm4.375-1.64c.905 0 1.64.735 1.64 1.64 0 .905-.735 1.64-1.64 1.64-.904 0-1.64-.735-1.64-1.64 0-.905.736-1.64 1.64-1.64z"/><path d="M43.08 23.222a4.38 4.38 0 004.376-4.375 4.38 4.38 0 00-4.375-4.375 4.38 4.38 0 00-4.375 4.375 4.38 4.38 0 004.375 4.375zm0-6.016c.906 0 1.642.736 1.642 1.641s-.736 1.64-1.641 1.64-1.64-.735-1.64-1.64c0-.905.735-1.64 1.64-1.64zM17.5 8.75a4.38 4.38 0 004.375-4.375A4.38 4.38 0 0017.5 0a4.38 4.38 0 00-4.375 4.375A4.38 4.38 0 0017.5 8.75zm0-6.016c.905 0 1.64.736 1.64 1.641s-.735 1.64-1.64 1.64c-.904 0-1.64-.735-1.64-1.64 0-.905.736-1.64 1.64-1.64zM61.866 47.996a1.367 1.367 0 00-1.934 1.933l1.289 1.29a1.363 1.363 0 001.933 0c.534-.535.534-1.4 0-1.934l-1.288-1.289zM68.31 54.44a1.368 1.368 0 00-1.933 1.935l1.289 1.288a1.363 1.363 0 001.934 0c.533-.533.533-1.399 0-1.933l-1.29-1.29zM67.666 47.996l-1.289 1.289a1.367 1.367 0 001.934 1.934l1.288-1.29a1.367 1.367 0 00-1.933-1.933zM61.221 54.44l-1.289 1.29a1.367 1.367 0 001.933 1.934l1.29-1.29a1.367 1.367 0 00-1.934-1.933zM67.344 4.024c.35 0 .7-.134.967-.4l1.289-1.29A1.367 1.367 0 1067.666.401L66.377 1.69a1.367 1.367 0 00.967 2.334zM60.899 10.468c.35 0 .7-.133.966-.4l1.29-1.29a1.367 1.367 0 00-1.934-1.933l-1.29 1.29a1.367 1.367 0 00.968 2.333zM68.31 6.845a1.367 1.367 0 00-1.933 1.934l1.289 1.289c.267.267.617.4.967.4s.7-.133.967-.4c.533-.534.533-1.4 0-1.934l-1.29-1.289zM61.22 3.623c.268.267.618.4.968.4s.7-.133.966-.4c.534-.534.534-1.4 0-1.933L61.865.4a1.367 1.367 0 00-1.933 1.934l1.289 1.29zM27.51 41.122c-.36 0-.712.146-.966.4-.255.255-.401.608-.401.967 0 .36.146.713.4.967.255.254.608.4.967.4.36 0 .712-.146.967-.4.254-.254.4-.607.4-.967s-.146-.712-.4-.966a1.377 1.377 0 00-.967-.4zM47.458 26.88l-.991.992a1.368 1.368 0 001.933 1.934l.991-.991a1.367 1.367 0 00-1.933-1.934z"/></g><defs><clipPath id="clip0"><path fill="#fff" d="M0 0h70v70H0z"/></clipPath></defs></svg>