<svg width="1779" height="1355" fill="none" xmlns="http://www.w3.org/2000/svg"><path d="M561.852 220.929c117.899-20.271 252.393-20.069 367.103 11.623 39.508 11.02 77.405 24.306 113.245 39.699 273.17 116.411 283.57 289.667 235.9 373.593-27.28 48.01-101.8 76.746-165.18 102.71-56.11 22.992-154.562 50.596-180.332 93.707-34.786 58.163-82.719 139.572-229.994 110.769-147.276-28.803-261.985-57.606-378.525-192.363C207.53 625.91 163.726 531.747 191.822 445.643c37.923-116.124 194.006-194.525 370.03-224.714z" fill="#92E3A9"/><path opacity=".7" d="M552.258 238.914c117.898-20.272 252.393-20.069 367.103 11.623 39.507 11.02 77.407 24.306 113.249 39.699 273.17 116.411 283.57 289.667 235.9 373.593-27.29 48.01-101.8 76.746-165.18 102.71-56.11 22.992-154.566 50.595-180.336 93.707-34.787 58.163-82.72 139.572-229.995 110.769-147.275-28.803-261.985-57.606-378.524-192.363-116.539-134.757-160.343-228.92-132.247-315.024 37.923-116.124 194.006-194.526 370.03-224.714z" fill="#fff"/><path d="M1082.64 551.967a48.671 48.671 0 015.81 53.772 48.742 48.742 0 01-11.92 14.792 48.684 48.684 0 01-53.78 5.766 48.716 48.716 0 01-14.78-11.921l-33.76-40.626a48.666 48.666 0 016.11-68.564 48.696 48.696 0 0135.56-11.122 48.703 48.703 0 0133.01 17.277l33.75 40.626z" fill="#009688"/><path d="M1006.93 530.275a5.247 5.247 0 01-.69 7.398c-.52.443-1.13.778-1.79.984a5.205 5.205 0 01-3.99-.356 5.208 5.208 0 01-1.594-1.287l-9.769-11.757a5.25 5.25 0 01-.607-5.806c.321-.61.76-1.151 1.29-1.592a5.207 5.207 0 013.827-1.205 5.216 5.216 0 013.552 1.864l9.771 11.757z" fill="#FAF9FC"/><path d="M1006.17 679.42l-30.783-14.087-.089-.045c-3.212-1.466-7.851-.962-12.961.28l-138.279 28.081c-8.297 1.95-13.644 9.362-11.952 16.526 1.692 7.165 9.785 11.385 18.088 9.425l136.23-36.773c.86-.178 1.683-.42 2.508-.655l29.363 13.267c1.865.832 4.305.238 7.325-6.475 3.01-6.713 2.4-8.717.55-9.544z" fill="#80CBC3"/><path d="M850.737 739.877l13.149-31.139.047-.081a.103.103 0 00-.01-.046c1.38-3.242 5.165-6.013 9.737-8.578l120.91-72.719c7.42-4.165 16.34-2.319 19.96 4.118 3.62 6.437.5 14.999-6.94 19.159l-125.284 64.924c-.783.434-1.533.838-2.279 1.217l-12.7 29.627c-.802 1.857-3.001 3.073-9.782.159-6.781-2.914-7.646-4.769-6.808-6.641z" fill="#80CBC3"/><path d="M988.695 624.324c-6.733.025-49.729 12.076-71.083 41.156l-5.828 2.809-6.198 1.909c-35.368-6.977-75.213 13.171-80.187 17.702-4.974 4.531-19.024 11.045-19.024 11.045l7.978 19.177s12.126 7.215 16.01 14.518c3.884 7.303 14.998 34.547 56.777 19.366 41.779-15.18 25.711-52.493 25.245-59.038-.387-5.736 3.927-9.353 5.045-10.186 1.365-.138 7.029-.414 10.583 4.098 4.088 5.154 17.443 43.486 58.523 26.479 41.084-17.006 30.814-44.642 28.744-52.65-2.06-8.007 2.01-21.509 2.01-21.509l-7.09-19.53s-14.781 4.624-21.505 4.654zm-86.071 75.712c8.796 25.064-10.724 43.078-37.759 44.222-27.036 1.144-32.399-34.036-32.399-34.036 7.654-21.613 51.298-29.681 51.298-29.681s10.944-3.02 18.891 19.489l-.031.006zm95.008-7.416c-20.708 17.386-47.262 17.333-57.698-7.095-9.353-21.953.722-27.115.722-27.115s37.586-23.549 57.874-12.786c.028-.021 19.84 29.611-.868 46.99l-.03.006z" fill="#009688"/><path opacity=".5" d="M902.655 700.03c-7.947-22.509-18.86-19.496-18.86-19.496s-43.651 8.038-51.298 29.681c0 0 5.402 35.212 32.399 34.036 26.997-1.176 46.555-19.157 37.759-44.221zM997.662 692.613c20.708-17.378.899-46.995.899-46.995-20.265-10.769-57.874 12.785-57.874 12.785s-10.106 5.169-.722 27.115c10.436 24.428 36.99 24.482 57.697 7.095z" fill="#fff"/><path opacity=".6" d="M860.847 706.291a10.156 10.156 0 01-2.442 11.023 10.16 10.16 0 112.442-11.023z" fill="#fff"/><path opacity=".55" d="M867.212 712.536a6.506 6.506 0 01-1.557 7.056 6.51 6.51 0 01-7.115 1.262 6.503 6.503 0 01.247-12.013 6.529 6.529 0 018.425 3.695z" fill="#fff"/><path opacity=".6" d="M963.986 666.18a10.198 10.198 0 01-18.095 9.209 10.2 10.2 0 01.262-11.343 10.197 10.197 0 0117.833 2.134z" fill="#fff"/><path opacity=".55" d="M970.343 672.426a6.514 6.514 0 01-1.56 7.068 6.513 6.513 0 01-9.836-8.44 6.504 6.504 0 012.978-2.332 6.49 6.49 0 017.056 1.562 6.487 6.487 0 011.362 2.142z" fill="#fff"/><path d="M999.447 313.183c.472.756.923 1.526 1.383 2.296-.46-.77-.911-1.54-1.383-2.296zM1005.64 326.241c.25.742.5 1.478.69 2.234-.19-.756-.44-1.492-.69-2.234zM1002.69 319.039zM1006.69 329.655zM1001.15 316.076zM1004.21 322.418zM1007.54 333.027c.15.694.29 1.388.42 2.081-.13-.714-.27-1.401-.42-2.081zM1008.95 343.317zM1008.67 339.841zM1008.2 336.413zM993.255 304.856a44.017 44.017 0 011.844 2.193 56.235 56.235 0 00-1.844-2.193zM997.581 310.359c.486.694.957 1.388 1.387 2.137a37.053 37.053 0 00-1.387-2.137zM995.536 307.604c.541.694 1.061 1.388 1.575 2.082a63.89 63.89 0 00-1.575-2.082z" fill="#AC522A"/><path d="M946.849 217.285h-2.524c-72.382 0-131.062 58.707-131.062 131.139 0 72.432 58.687 131.139 131.062 131.139.846 0 1.685 0 2.524-.035 71.221-1.339 128.541-59.526 128.541-131.139s-57.32-129.758-128.541-131.104zm81.051 67.665l-13.71 13.724c-.44.429-.9.835-1.39 1.215a82.12 82.12 0 0114.53 41.374 82.193 82.193 0 01-8.81 42.958 82.181 82.181 0 01-29.653 32.297 82.045 82.045 0 01-42.032 12.428c-.478 0-.95.035-1.428.035a82.101 82.101 0 01-58.071-24.068 82.198 82.198 0 01-24.054-58.106 82.193 82.193 0 0124.054-58.105 82.097 82.097 0 0158.071-24.068c.478 0 .95 0 1.428.041a81.56 81.56 0 0144.096 13.739c.422-.577.886-1.122 1.387-1.631l13.712-13.718a15.602 15.602 0 015.02-3.353 15.475 15.475 0 0111.84.002c1.87.778 3.58 1.918 5.01 3.355a15.297 15.297 0 013.35 5.02 15.428 15.428 0 011.18 5.921c0 2.032-.4 4.044-1.18 5.921a15.45 15.45 0 01-3.35 5.019z" fill="#80CBC3"/><path d="M919.229 404.855z" fill="#AC522A"/><path opacity=".5" d="M919.229 404.855z" fill="#fff"/><path d="M916.968 403.78z" fill="#AC522A"/><path opacity=".5" d="M916.968 403.78z" fill="#fff"/><path d="M938.674 410.143l.776.069-.776-.069z" fill="#AC522A"/><path opacity=".5" d="M938.674 410.143l.776.069-.776-.069z" fill="#fff"/><path d="M928.611 408.241z" fill="#AC522A"/><path opacity=".5" d="M928.611 408.241z" fill="#fff"/><path d="M924.562 406.985z" fill="#AC522A"/><path opacity=".5" d="M924.562 406.985z" fill="#fff"/><path d="M927.045 407.763a32.147 32.147 0 01-1.429-.451c.472.187.943.34 1.429.451z" fill="#AC522A"/><path opacity=".5" d="M927.045 407.763a32.147 32.147 0 01-1.429-.451c.472.187.943.34 1.429.451z" fill="#fff"/><path d="M933.195 409.317l-1.123-.229 1.123.229z" fill="#AC522A"/><path opacity=".5" d="M933.195 409.317l-1.123-.229 1.123.229z" fill="#fff"/><path d="M935.948 409.796c-.291-.042-.576-.098-.867-.146.291.048.576.104.867.146z" fill="#AC522A"/><path opacity=".5" d="M935.948 409.796c-.291-.042-.576-.098-.867-.146.291.048.576.104.867.146z" fill="#fff"/><path d="M942.494 410.427l-.846-.049.846.049z" fill="#AC522A"/><path opacity=".5" d="M942.494 410.427l-.846-.049.846.049z" fill="#fff"/><path d="M913.689 402.003a66.955 66.955 0 01-2.406-1.45c.79.5 1.588.965 2.406 1.45z" fill="#795342"/><path opacity=".5" d="M913.689 402.003a66.955 66.955 0 01-2.406-1.45c.79.5 1.588.965 2.406 1.45z" fill="#fff"/><path d="M1008.95 343.317c0-.389-.05-.756-.08-1.138-.05-.784-.12-1.561-.2-2.338-.05-.438-.11-.868-.17-1.305-.09-.694-.19-1.388-.3-2.123-.08-.444-.15-.888-.24-1.332-.13-.694-.27-1.388-.42-2.082-.09-.437-.19-.86-.3-1.29-.16-.694-.35-1.388-.55-2.082-.1-.395-.21-.791-.33-1.18-.22-.756-.47-1.491-.69-2.234-.11-.312-.21-.631-.32-.95-.36-.965-.69-1.915-1.11-2.866l-.09-.229a70.132 70.132 0 00-1.43-3.157l-.06-.104c-.47-.965-.97-1.922-1.49-2.859-.11-.208-.22-.402-.34-.596a35.404 35.404 0 00-1.383-2.297 25.635 25.635 0 01-.444-.694c-.464-.694-.936-1.436-1.386-2.137-.16-.215-.319-.437-.472-.659a101.667 101.667 0 00-1.574-2.082l-.437-.555a56.26 56.26 0 00-1.845-2.193l-.284-.339a65.483 65.483 0 00-7.441-7.057 69.472 69.472 0 01-3.608 75.818 69.406 69.406 0 01-31.36 24.147 69.36 69.36 0 01-39.452 3.073l.111.062h.034a55.35 55.35 0 002.427 1.464l.465.264a65.75 65.75 0 00.021.014c.832.472 1.671.923 2.517 1.388l.257.125a53.31 53.31 0 001.768.853l.492.222a68.733 68.733 0 003.606 1.506l.187.069c.507.194 1.02.375 1.54.555l1.054.354c.471.16.943.312 1.428.451.486.139 1.041.305 1.568.451.527.146 1.151.305 1.726.444.576.139 1.151.278 1.734.403l1.123.229a81.49 81.49 0 001.886.333c.292.048.576.104.867.145.902.132 1.817.25 2.725.347l.777.07c.735.069 1.463.125 2.198.166l.846.049c.971.048 1.942.069 2.92.069.478 0 .95 0 1.428-.035a63.605 63.605 0 0044.075-19.129 63.733 63.733 0 0018.146-44.511 67.542 67.542 0 00-.12-3.518z" fill="#471540"/><path d="M916.67 403.599a65.75 65.75 0 01-2.496-1.346l-.465-.264a55.35 55.35 0 01-2.427-1.464h-.035a64.44 64.44 0 005.465 3.13 44.48 44.48 0 01-2.517-1.388c.818.486 1.643.937 2.475 1.332zm-5.388-3.074c.791.5 1.588.979 2.406 1.451a52.21 52.21 0 01-2.406-1.423v-.028z" fill="#AC522A"/><path opacity=".5" d="M916.67 403.599a65.75 65.75 0 01-2.496-1.346l-.465-.264a55.35 55.35 0 01-2.427-1.464h-.035a64.44 64.44 0 005.465 3.13 44.48 44.48 0 01-2.517-1.388c.818.486 1.643.937 2.475 1.332zm-5.388-3.074c.791.5 1.588.979 2.406 1.451a52.21 52.21 0 01-2.406-1.423v-.028zM911.248 337.474a13.524 13.524 0 01-8.339 12.499 13.504 13.504 0 01-14.731-2.927 13.522 13.522 0 01-2.933-14.738 13.517 13.517 0 0112.487-8.35 13.515 13.515 0 0113.516 13.516z" fill="#fff"/><path opacity=".5" d="M911.137 350.991a7.48 7.48 0 01-8.93 7.344 7.475 7.475 0 01-5.877-5.875 7.484 7.484 0 013.177-7.681 7.475 7.475 0 0111.63 6.212z" fill="#fff"/><path d="M1027.9 284.951a15.448 15.448 0 004.52-10.932 15.447 15.447 0 00-15.45-15.459c-4.09 0-8.02 1.628-10.92 4.528l-13.718 13.717a14.564 14.564 0 00-1.386 1.631 81.563 81.563 0 00-44.097-13.746c-.478 0-.95-.041-1.428-.041a82.097 82.097 0 00-58.071 24.068 82.195 82.195 0 00-24.054 58.105 82.198 82.198 0 0024.054 58.106 82.097 82.097 0 0058.071 24.068c.478 0 .95 0 1.428-.035a82.045 82.045 0 0042.032-12.428 82.058 82.058 0 0029.649-32.296 82.204 82.204 0 008.82-42.959 82.216 82.216 0 00-14.53-41.374c.48-.38.94-.785 1.38-1.214l13.7-13.739zm-81.051 125.512c-.478 0-.95.035-1.428.035-.978 0-1.949 0-2.92-.07l-.846-.048a58.018 58.018 0 01-2.198-.167l-.777-.069a70.906 70.906 0 01-2.725-.347c-.291-.042-.575-.097-.867-.146a81.49 81.49 0 01-1.886-.333l-1.123-.229a69.397 69.397 0 01-1.734-.402c-.575-.139-1.151-.292-1.726-.444a41.746 41.746 0 01-1.568-.451c-.52-.16-.957-.292-1.428-.451l-1.054-.354c-.52-.18-1.033-.361-1.54-.555l-.187-.07a67.874 67.874 0 01-3.606-1.505l-.492-.222a51.409 51.409 0 01-1.768-.854l-.257-.125a64.142 64.142 0 01-5.464-3.129l-.111-.062a63.661 63.661 0 01-25.312-31.287 63.704 63.704 0 01-1.499-40.225 63.67 63.67 0 0122.914-33.085 63.602 63.602 0 0138.167-12.721c.478 0 .95 0 1.428.035a63.47 63.47 0 0146.128 21.336l.285.34a43.566 43.566 0 011.844 2.193l.437.555a98.95 98.95 0 011.574 2.081c.153.222.312.444.472.659.485.694.957 1.388 1.387 2.137.145.229.291.458.444.694.471.757.917 1.527 1.387 2.297.12.194.23.389.34.597.52.936 1.02 1.894 1.49 2.858l.06.104c.49 1.034.97 2.082 1.42 3.158l.09.228c.39.951.76 1.902 1.11 2.866.11.319.22.638.32.951.25.742.5 1.478.7 2.234.11.388.23.784.33 1.179.19.694.38 1.388.55 2.082.11.43.2.853.3 1.291.15.693.29 1.387.41 2.081.09.444.17.888.24 1.332.11.694.22 1.388.31 2.124.05.437.12.867.17 1.304.08.777.14 1.554.2 2.338 0 .382.07.75.08 1.138.07 1.159.1 2.325.1 3.504a63.644 63.644 0 01-18.13 44.484 63.608 63.608 0 01-44.041 19.136z" fill="#009688"/><path d="M945.414 429.126a82.235 82.235 0 01-57.676-24.371 82.33 82.33 0 01-23.826-57.931 82.33 82.33 0 0123.826-57.93 82.235 82.235 0 0157.676-24.371h1.428a81.789 81.789 0 0144.069 13.696c.406-.547.851-1.064 1.331-1.547l13.718-13.718a15.598 15.598 0 0111.03-4.558c2.04.002 4.07.408 5.96 1.193 1.89.786 3.61 1.937 5.05 3.386a15.53 15.53 0 013.38 5.063 15.676 15.676 0 011.18 5.97c0 2.049-.41 4.076-1.19 5.968a15.67 15.67 0 01-3.39 5.057l-13.71 13.724c-.41.408-.85.793-1.3 1.152a82.405 82.405 0 0114.5 41.431 82.343 82.343 0 01-8.86 42.992 82.27 82.27 0 01-29.69 32.317 82.198 82.198 0 01-42.071 12.443h-.561c-.292.021-.583.034-.874.034zm0-164.347a81.977 81.977 0 00-57.495 24.296 82.074 82.074 0 00-23.751 57.749 82.075 82.075 0 0023.751 57.75 81.977 81.977 0 0057.495 24.296h1.421c44.437-.763 80.575-37.552 80.575-82.014a81.499 81.499 0 00-14.68-46.898l-.07-.104.09-.077c.49-.373.95-.773 1.39-1.2l13.71-13.724a15.294 15.294 0 004.31-10.79 15.335 15.335 0 00-4.48-10.719 15.32 15.32 0 00-21.5-.175l-13.716 13.718c-.5.505-.963 1.046-1.387 1.617l-.076.097-.104-.063a81.547 81.547 0 00-44.048-13.71h-.485a9.23 9.23 0 00-.95-.049zm0 145.849c-.957 0-1.914 0-2.926-.076l-.853-.042c-.694 0-1.387-.09-2.199-.173h-.117c-.222 0-.444-.035-.694-.063a82.735 82.735 0 01-2.725-.34l-.617-.104-.257-.048a39.84 39.84 0 01-1.886-.333c-.382-.077-.756-.146-1.124-.229-.513-.104-1.047-.236-1.747-.403-.52-.125-1.082-.27-1.727-.444-.43-.125-.998-.277-1.574-.451-.575-.173-.991-.312-1.428-.451l-1.061-.361a39.656 39.656 0 01-1.54-.555l-.111-.041h-.076a62.662 62.662 0 01-3.606-1.506l-.492-.222a63.637 63.637 0 01-1.775-.854l-.202-.104h-.055a62.008 62.008 0 01-5.478-3.129l-.063-.035-.43-.263a63.791 63.791 0 01-25.103-31.421 63.831 63.831 0 01-1.324-40.206 63.803 63.803 0 0122.982-33.006 63.74 63.74 0 0138.152-12.685H946.787a63.578 63.578 0 0125.345 5.862 63.62 63.62 0 0120.88 15.523l.284.333a63.876 63.876 0 011.845 2.199l.368.465.076.098a79.58 79.58 0 011.574 2.081l.118.167.353.499a65.92 65.92 0 011.429 2.13l.208.326.229.368c.43.694.874 1.436 1.384 2.304l.07.104c.09.159.18.326.27.493.5.888.99 1.824 1.5 2.865v.097c.5 1.02.98 2.082 1.44 3.171l.04.111c.02.038.03.077.05.118.38.923.75 1.887 1.11 2.873.08.236.16.472.24.694l.08.242c.22.653.48 1.437.69 2.235.12.367.21.735.32 1.103v.083c.2.736.39 1.388.54 2.082.12.43.21.86.31 1.297.13.618.27 1.291.41 2.082.09.437.17.888.24 1.332.11.694.21 1.388.31 2.13l.06.444c.04.285.08.576.1.861.08.694.14 1.422.2 2.345v.382c.03.249.05.499.07.749.07 1.235.09 2.38.09 3.518a63.792 63.792 0 01-18.174 44.602 63.74 63.74 0 01-44.163 19.17h-.513l-.756.007zm-34.138-10.234h.041a60.206 60.206 0 005.458 3.122h.055l.201.104c.617.312 1.193.59 1.761.847l.493.222a62.024 62.024 0 003.592 1.499l.083.034h.097c.493.188.971.361 1.547.555.346.125.693.236 1.047.354.353.118.936.305 1.428.451.493.146 1.137.333 1.567.451.638.174 1.2.319 1.72.444a55.13 55.13 0 001.734.403l1.123.229a60.18 60.18 0 001.879.333l.257.041.61.104c.895.132 1.803.243 2.718.34.215 0 .437.042.652.063h.118c.812.076 1.526.132 2.198.173.285 0 .562.035.846.042a44.31 44.31 0 003.821.055h.513c34.236-.756 62.095-29.246 62.095-63.515 0-1.131 0-2.276-.1-3.504 0-.25-.04-.493-.06-.743v-.381a60.39 60.39 0 00-.19-2.339c0-.284-.07-.569-.11-.853l-.06-.451c-.1-.756-.2-1.45-.3-2.116-.08-.444-.15-.889-.24-1.326a64.25 64.25 0 00-.42-2.081c-.09-.437-.19-.861-.29-1.291-.17-.694-.35-1.346-.55-2.081v-.084c-.1-.367-.2-.735-.31-1.096-.24-.798-.5-1.575-.69-2.227l-.08-.25-.24-.694c-.35-.978-.7-1.943-1.11-2.865l-.05-.125-.04-.104a51.884 51.884 0 00-1.43-3.151V318.879c-.51-1.034-.99-1.97-1.49-2.851-.09-.167-.18-.327-.27-.486l-.07-.104a37.616 37.616 0 00-1.383-2.297l-.229-.361-.215-.326c-.506-.791-.97-1.492-1.386-2.13-.111-.166-.229-.326-.347-.493l-.118-.166a67.78 67.78 0 00-1.574-2.082l-.069-.097-.368-.465c-.576-.694-1.193-1.457-1.838-2.185l-.284-.34a63.714 63.714 0 00-46.17-21.191H945.428a63.477 63.477 0 00-38.086 12.7 63.541 63.541 0 00-22.864 33.017 63.577 63.577 0 001.494 40.141 63.536 63.536 0 0025.255 31.224l.049.007z" fill="#F4CE8E"/><path d="M985.737 297.584zM985.564 297.439l.154.133a1.769 1.769 0 00-.154-.133z" fill="#951A45"/><path d="M985.585 297.439a63.367 63.367 0 00-38.736-14.259c-.479 0-.95-.034-1.429-.034a63.6 63.6 0 00-38.167 12.721 63.663 63.663 0 00-22.914 33.085 63.705 63.705 0 001.499 40.225 63.659 63.659 0 0025.312 31.286 69.356 69.356 0 0039.451-3.068 69.406 69.406 0 0031.362-24.142 69.476 69.476 0 003.622-75.814zM989.759 301.193a65.812 65.812 0 013.211 3.323c-1.047-1.151-2.108-2.22-3.211-3.323zM989.107 300.562l.652.631-.652-.631z" fill="#951A45"/><path d="M1099.86 520.997a4.814 4.814 0 01-5.5-3.986l-11.39-70.645c-.1-.624-.08-1.261.07-1.875a4.69 4.69 0 01.78-1.705c.37-.511.84-.944 1.37-1.275.54-.33 1.14-.55 1.76-.649l114.34-18.335a4.803 4.803 0 013.57.858 4.805 4.805 0 011.93 3.128l11.37 70.648c.2 1.26-.11 2.547-.86 3.579a4.804 4.804 0 01-3.13 1.926l-114.31 18.331z" fill="#009688"/><path d="M1137.42 506.172c-5.41.865-10.59-3.38-11.59-9.499l-6.51-40.542c-.98-6.114 2.61-11.768 8.03-12.626l58.53-9.398c5.42-.876 10.62 3.373 11.59 9.494l6.54 40.531c.97 6.12-2.63 11.782-8.05 12.631l-58.54 9.409z" fill="gray"/><path d="M1095.59 484.048l-1.62-11.065c-.12-.826.5-1.602 1.38-1.73l8.39-1.225c.31-.044.59.152.63.44.04.288-.17.557-.48.602l-8.39 1.224a.48.48 0 00-.42.527l1.62 11.065c.04.252.29.424.56.385l8.39-1.224c.3-.045.59.152.63.439.04.288-.17.557-.48.602l-8.39 1.225c-.88.128-1.69-.439-1.82-1.265z" fill="#fff"/><path d="M1103.97 485.153a.523.523 0 01.11-.392l5.95-7.483c.49-.616.36-1.483-.28-1.933l-7.85-5.469a.507.507 0 01-.11-.737.593.593 0 01.79-.114l7.85 5.469c1.13.793 1.36 2.321.49 3.406l-5.95 7.483a.58.58 0 01-.78.115.527.527 0 01-.22-.345z" fill="#fff"/><path d="M1104.24 477.01c-.33-2.263-2.4-3.845-4.62-3.52-.75.115-1.46.441-2.04.938l.29 1.973a2.63 2.63 0 014.13-.556c.37.378.61.862.69 1.384.08.521-.02 1.055-.27 1.524-.25.469-.64.85-1.13 1.09a2.628 2.628 0 01-2.98-.445l.29 1.988c.7.31 1.47.417 2.22.308 2.22-.325 3.75-2.422 3.42-4.692" fill="#fff"/><path d="M1099.37 476.348c-.28.134-.51.351-.65.619-.15.268-.2.573-.16.872.05.299.19.576.4.791.22.216.5.358.81.406l-.4-2.688z" fill="#fff"/><g clip-path="url(#clip0)" fill="#fff"><path d="M1116.97 481.835a.139.139 0 00-.16-.119l-1.1.162a.14.14 0 00-.12.159c.41 2.833-1.55 5.474-4.38 5.887a.14.14 0 00-.12.159l.16 1.111c.01.076.09.13.16.118 3.6-.524 6.09-3.879 5.56-7.477z"/><path d="M1114.75 482.159c-.01-.077-.08-.13-.15-.119l-1.11.162a.14.14 0 00-.12.159 2.95 2.95 0 01-2.49 3.341.148.148 0 00-.12.159l.17 1.111c.01.077.08.13.16.119a4.342 4.342 0 003.66-4.932z"/><path d="M1110.44 483.639a.98.98 0 101.94-.283.98.98 0 10-1.94.283z"/></g><path d="M1126.15 600.868c-1.3-8.079.79-16.61 5.99-24.359 6.68-9.892 17.48-16.782 28.21-17.97 7.28-.808 16.13-.347 25.51.15 25.76 1.344 54.96 2.864 64.61-20.848 6.03-14.788 4.2-31.283-5.13-46.429-.53-.873-1.02-1.726-1.51-2.555-3.03-5.187-5.21-8.94-11.66-8.8-4.07.088-8.43.977-12.65 1.846-2.08.43-4.25.877-6.3 1.201l-.39-2.381c2.03-.319 4.03-.724 6.2-1.181 4.33-.887 8.8-1.806 13.1-1.894 7.85-.164 10.73 4.773 13.75 10 .48.815.98 1.655 1.5 2.502 9.72 15.828 11.63 33.074 5.3 48.599-10.29 25.307-40.4 23.731-66.97 22.351-9.27-.475-18.01-.946-25.09-.164-10.05 1.101-20.2 7.594-26.48 16.914-5.53 8.21-7.29 17.335-4.95 25.668 1.62 5.749 6.29 10.318 10.82 14.739a85.273 85.273 0 016.09 6.349c1.32 1.553 2.59 3.174 3.9 4.776 2.44 3.041 4.94 6.164 7.57 8.909 1.6 1.713 3.7 2.997 5.91 4.363 2.37 1.468 4.82 2.99 6.66 5.064 9.74 11.05 3.39 34.45-5.61 42.728l-1.62-1.771c8.34-7.676 14.07-29.579 5.43-39.368-1.59-1.806-3.79-3.175-6.1-4.618-2.32-1.442-4.56-2.814-6.39-4.737-2.69-2.815-5.23-5.999-7.7-9.066a289.407 289.407 0 00-3.85-4.748c-1.78-2.109-3.9-4.172-5.94-6.168-4.76-4.648-9.67-9.446-11.46-15.812a28.474 28.474 0 01-.75-3.29z" fill="gray"/><path d="M1136.29 616.995l2.14-1.078c7.86 15.6 25.19 9.525 41.94 3.677 8.94-3.128 17.38-6.088 24.4-5.875 14.35.381 18 9.278 19.08 22.532l.14 1.642c.52 7.092 1.02 13.777 8.59 16.767 3.76 1.492 9.92.608 13.47-1.909l1.38 1.96c-4.18 2.967-11.24 3.952-15.75 2.188-8.96-3.53-9.56-11.658-10.09-18.834l-.13-1.616c-1.04-12.611-4.11-19.987-16.74-20.353-6.59-.179-14.83 2.699-23.55 5.743-16.91 5.934-36.08 12.639-44.88-4.844zM1213.39 485.052l-1.06-6.532 17.79-2.846 1.05 6.53-17.78 2.848z" fill="gray"/><path d="M1146.34 630.247l-14.05-11.452 4.81-5.905 14.03 11.438-4.79 5.919z" fill="#009688"/><path d="M1247.76 643.986c-4.41 2.442-6.28 7.503-4.18 11.298 2.1 3.794 7.38 4.887 11.77 2.456l-7.59-13.754z" fill="gray"/><path d="M1253.02 656.087a5.105 5.105 0 01-3.88.443 5.103 5.103 0 01-1.77-.917 5.116 5.116 0 01-1.88-3.425 5.296 5.296 0 01.17-1.981 5.069 5.069 0 012.45-3.037l1.5-.842a5.112 5.112 0 016.93 2.006c.65 1.186.81 2.582.43 3.882a5.065 5.065 0 01-2.43 3.054l-1.52.817zM1165.85 699.704c3.25-3.884 3.19-9.272-.13-12.057-3.32-2.784-8.63-1.938-11.88 1.935l12.01 10.122z" fill="gray"/><path d="M1156.58 690.278a5.103 5.103 0 013.46-1.809c1.34-.12 2.68.3 3.72 1.168a5.143 5.143 0 011.8 3.482 5.12 5.12 0 01-1.19 3.732l-1.1 1.292c-.43.518-.95.945-1.55 1.258-.59.313-1.24.505-1.91.565a5.083 5.083 0 01-3.73-1.18 5.131 5.131 0 01-1.79-3.482 5.155 5.155 0 011.18-3.732l1.11-1.294z" fill="gray"/><path d="M1177.97 466.598c-1.51-10.292-10.9-17.49-21.01-16.014a18.356 18.356 0 00-9.27 4.269l1.32 8.976a11.763 11.763 0 015.25-4.85 12.06 12.06 0 017.15-.964c2.43.416 4.65 1.565 6.35 3.284a11.177 11.177 0 013.16 6.296c.35 2.374-.08 4.8-1.22 6.935a11.721 11.721 0 01-5.14 4.961 12.064 12.064 0 01-7.13 1.12 11.74 11.74 0 01-6.42-3.145l1.32 9.046a18.311 18.311 0 0010.1 1.398c10.1-1.474 17.05-11.019 15.53-21.347" fill="#fff"/><path d="M1155.82 463.588a6.637 6.637 0 00-2.97 2.814 6.386 6.386 0 00-.71 3.97c.2 1.361.84 2.621 1.82 3.6a6.632 6.632 0 003.66 1.847l-1.8-12.231z" fill="#fff"/><path d="M738.819 265.122a2.209 2.209 0 00-1.813 2.496l-.339 7.571c.181 1.192 1.909 1.94 3.862 1.667 1.968-.284 3.422-1.478 3.257-2.681l-2.432-7.124a2.212 2.212 0 00-.883-1.417 2.21 2.21 0 00-1.621-.399l-.031-.113z" fill="#009688"/><path d="M744.307 270.325l18.819 36.618-36.033 5.145 7.879-40.421 9.335-1.342z" fill="#3B3A3B"/><path d="M797.983 559.419l5.233 36.936a17.758 17.758 0 01-8.482 17.878 17.701 17.701 0 01-24.338-6.305 17.736 17.736 0 01-2.256-6.574l-5.232-36.937 35.075-4.998z" fill="#009688"/><path d="M792.708 615.112a18.397 18.397 0 01-4.528 1.29 17.689 17.689 0 01-13.129-3.375 17.73 17.73 0 01-6.896-11.684l-5.232-36.936 14.24-2.041c1.667 17.845.895 44.157 15.545 52.746z" fill="#D9D9D9"/><path d="M763.066 306.987l35.49 249.989-36.044 5.147-35.489-249.989 36.043-5.147z" fill="#009688"/><path d="M768.329 392.705l10.6 74.667-7.038 1.005-10.6-74.667 7.038-1.005z" fill="#D9D9D9"/><path d="M760.111 560.615a.824.824 0 00-.66.937l1.443 10.165a.811.811 0 00.58.693c.103.029.21.038.317.026l48.878-6.977a.822.822 0 00.66-.937l-1.443-10.165a.824.824 0 00-.897-.719l-48.878 6.977z" fill="#868686"/><path d="M794.799 448.378l16.608 116.985-7.038 1.005-16.608-116.985 7.038-1.005z" fill="#868686"/><path d="M787.928 449.318c-1.874.276-2.814 4.577-2.09 9.613.723 5.036 2.804 8.899 4.678 8.624 1.873-.275 2.811-4.564 2.1-9.598-.711-5.033-2.804-8.899-4.688-8.639z" fill="#868686"/><path d="M130.631 976.318a9.364 9.364 0 01-3.706-1.32 9.75 9.75 0 01-2.893-2.747 8.998 8.998 0 01-.854-1.607c-2.002.41-3.974.671-5.294.846a.387.387 0 01-.297-.079.417.417 0 01-.161-.269.4.4 0 01.068-.298.374.374 0 01.256-.154c1.288-.17 3.208-.425 5.151-.817a9.52 9.52 0 01-.379-3.926 9.036 9.036 0 011.247-3.668c.864-1.37 2.56-2.799 4.424-2.319a4.08 4.08 0 012.107 1.092 4.206 4.206 0 011.172 2.091 5.635 5.635 0 01-.292 2.963 5.299 5.299 0 01-1.753 2.329 16.223 16.223 0 01-5.471 2.042c.2.467.443.915.725 1.338a8.814 8.814 0 003.678 3.044 8.285 8.285 0 004.632.619.399.399 0 01.298.069c.088.061.15.155.172.26a.4.4 0 01-.055.301.377.377 0 01-.249.165 8.32 8.32 0 01-2.526.045zm-2.866-15.627c-1.381-.182-2.639.957-3.322 2.042a8.234 8.234 0 00-1.14 3.372 8.683 8.683 0 00.368 3.605 15.65 15.65 0 005.283-1.941 4.49 4.49 0 001.49-1.972c.307-.79.394-1.658.252-2.512a3.315 3.315 0 00-.951-1.688 3.212 3.212 0 00-1.715-.855 2.427 2.427 0 00-.265-.051zM76.611 868.558l2.549 10.243c.125.505.907.397.78-.112l-2.548-10.244c-.126-.504-.907-.397-.78.113zM77.159 1069.21l10.905.21c.505.01.58-.79.07-.8l-10.904-.21c-.505-.01-.582.79-.071.8zM67.844 918.773l5.439-4.888c.374-.336-.133-.977-.51-.639l-5.438 4.888c-.374.336.133.977.509.639zM58.437 784.399l9.576-4.388a.378.378 0 00.194-.221.424.424 0 00-.235-.517.388.388 0 00-.297-.005l-9.576 4.387a.378.378 0 00-.194.221.424.424 0 00.235.517.393.393 0 00.297.006z" fill="#009688"/><path d="M666.165 886.73l83.635 267.2c2.998 9.58 13.18 14.92 22.743 11.94l931.817-290.823c9.56-2.985 14.88-13.168 11.88-22.744l-83.63-267.205c-3-9.576-13.18-14.92-22.74-11.935L678.053 863.986c-9.563 2.984-14.886 13.167-11.888 22.744z" fill="gray"/><path d="M661.027 883.072l83.636 267.208c2.997 9.57 13.18 14.92 22.743 11.93l931.814-290.82c9.56-2.985 14.88-13.168 11.89-22.745l-83.64-267.204c-3-9.577-13.18-14.92-22.74-11.936L672.916 860.328c-9.563 2.985-14.886 13.168-11.889 22.744z" fill="gray"/><path fill-rule="evenodd" clip-rule="evenodd" d="M945.025 1059.98l241.155-75.158-9.22-29.381-241.112 75.129 9.177 29.41zM1264.74 839.387c3.18 10.154 6.4 20.283 9.36 29.841l70.96-22.185c-7.37-23.4-14.65-46.633-21.83-69.7l-50.7 15.814c4.17 13.418 8.28 26.512 12.49 39.905l-20.28 6.325zM748.471 1077.21l91.764-28.62-9.248-29.43-91.693 28.65c3.049 9.92 6.108 19.55 9.177 29.4zM1256.7 886.235c3.22 10.129 6.16 19.758 9.25 29.543l91.56-28.572c-3.23-10.129-6.17-19.758-9.26-29.543l-91.55 28.572zM726.762 1007.39c3.176 10.16 6.22 19.97 9.335 29.8l70.979-22.14c-3.176-10.16-6.189-19.806-9.335-29.799l-70.979 22.139zM764.696 951.709l-50.674 15.859c3.222 10.129 6.159 19.642 9.33 29.68 16.335-5.075 32.508-10.119 48.63-15.254a2.646 2.646 0 001.251-2.131c-2.654-9.432-5.58-18.712-8.537-28.154zM751.883 1087.89l9.197 29.34c.377.07.763.08 1.142.02l45.932-14.23c2.044-.6 1.847-1.8 1.377-3.39-1.909-5.97-3.773-11.97-5.663-18.01l-2.869-9.07-49.116 15.34zM884.147 1079.1l48.903-15.41c-3.176-10.15-6.164-19.76-9.228-29.5l-48.903 15.41 9.228 29.5zM1188.88 951.404c3.17 10.154 6.16 19.758 9.26 29.66l48.9-15.407a5213.605 5213.605 0 01-9.3-29.634l-48.86 15.381zM1360.94 897.815l-48.91 15.406c3.18 10.154 6.12 19.667 9.23 29.498l48.95-15.432c-3.09-9.901-6.15-19.525-9.27-29.472zM813.97 1068.7c2.818 8.98 5.692 17.63 8.196 26.37.834 2.88 1.881 3.37 4.791 2.39 13.989-4.47 28.079-8.77 42.093-13.21.907-.5 2.038-.72 3.228-1.14-3.176-10.16-6.189-19.81-9.284-29.71l-49.024 15.3zM1260.31 961.398c.44.051.88.047 1.31-.012l45.68-14.142c2.29-.687 1.9-2.02 1.36-3.627-2.54-8.179-5.09-16.358-7.71-24.44a20.35 20.35 0 00-1.22-2.182l-48.72 15.305c3.18 9.618 6.22 19.313 9.3 29.098zM1610.69 764.23c-3.22-10.129-6.24-19.894-9.35-29.725l-29.62 9.219c3.17 10.155 6.19 19.804 9.31 29.751l29.66-9.245zM1017.15 916.769c3.13 10.179 6.24 20.01 9.28 29.705l29.5-9.214c-3.18-10.154-6.24-19.894-9.28-29.705l-29.5 9.214zM1527.69 790.107c-3.22-10.129-6.21-19.849-9.31-29.75l-29.71 9.27c3.22 10.129 6.22 19.848 9.34 29.795l29.68-9.315zM1262.06 873.037c-3.22-10.129-6.19-19.804-9.31-29.751l-29.55 9.239c3.18 10.155 6.22 19.849 9.29 29.705l29.57-9.193zM1220.68 886.028a31598.85 31598.85 0 00-9.36-29.841l-29.5 9.214c3.17 10.154 6.22 19.964 9.31 29.866l29.55-9.239zM1140.13 878.382c3.22 10.129 6.19 19.803 9.31 29.751l29.55-9.24c-3.18-10.154-6.22-19.848-9.28-29.704l-29.58 9.193zM1098.94 891.505c3.18 10.154 6.22 19.965 9.31 29.75l29.39-9.628c-3.18-10.154-6.19-19.803-9.31-29.75l-29.39 9.628zM943.345 972.517l29.663-9.244a8395.028 8395.028 0 01-9.33-29.68l-29.592 9.265c3.1 10.018 6.037 19.53 9.259 29.659zM851.078 968.619c3.176 10.154 6.189 19.803 9.309 29.75l29.573-9.193-9.31-29.751-29.572 9.194zM1066.71 933.858l29.5-9.214c-3.22-10.129-6.21-19.848-9.33-29.679l-29.45 9.188c2.87 10.145 5.99 19.976 9.28 29.705zM1032.09 824.011c3.22 10.129 6.24 19.777 9.28 29.588l29.46-9.188c-3.23-10.129-6.21-19.732-9.28-29.589l-29.46 9.189zM910.179 938.863c9.474-2.969 18.792-5.792 28.028-8.867.544-.304 1.165-1.963.914-2.837-1.452-5.154-2.978-9.907-4.536-14.823-1.286-4.112-2.599-8.27-3.891-12.498l-29.799 9.32a4411.046 4411.046 0 009.284 29.705zM859.321 922.019c3.177 10.154 6.139 19.713 9.208 29.569l29.547-9.239c-3.222-10.129-6.209-19.733-9.253-29.544l-29.502 9.214zM856.648 955.365c-3.176-10.154-6.164-19.757-9.202-29.452l-29.451 9.305c3.222 10.129 6.139 19.712 9.203 29.452l29.45-9.305zM1546.53 663.203c3.17 10.154 6.31 20.03 9.33 29.679l29.75-9.295c-2.93-9.396-5.83-18.515-8.6-27.639-.69-2.182-2.04-1.608-3.46-1.171l-17.34 5.4-9.68 3.026zM1472.77 718.927l29.71-9.27-9.25-29.543-29.71 9.27c3.09 9.901 6.1 19.55 9.25 29.543zM1401.94 708.65l-29.66 9.244c3.22 10.129 6.19 19.687 9.23 29.498l29.66-9.244c-3.12-9.947-6.11-19.667-9.23-29.498zM1281.07 746.334c3.18 10.154 6.16 19.757 9.2 29.452l29.5-9.214c-3.22-10.129-6.18-19.687-9.2-29.452l-29.5 9.214zM1239.66 759.164c3.17 10.154 6.24 20.011 9.31 29.751l29.68-9.316c-2.98-9.487-5.86-18.793-8.88-28.022-.28-.5-1.64-1.23-2.26-1.063-9.28 2.682-18.48 5.615-27.85 8.65zM1207.18 801.714l29.78-9.249c-3.22-10.129-6.14-19.713-9.29-29.705-9.47 2.969-18.79 5.792-28.05 8.822-.35.254-.64.595-.82.991-.19.396-.27.834-.24 1.27 2.65 9.316 5.53 18.505 8.62 27.871zM1165.75 814.731l29.89-9.371c-2.82-8.983-5.67-17.707-8.25-26.584-.82-2.642-1.93-2.918-4.36-2.155-7.88 2.618-15.85 4.983-23.82 7.348-.93.338-1.85.73-2.74 1.173l9.28 29.589zM1144.66 788.707c-9.59 2.975-18.93 5.868-28.12 8.918-.55.305-1.09 2.216-.79 3.181 1.59 5.613 3.39 11.17 5.14 16.752l3.18 10.155 29.84-9.346c-2.94-9.629-6.05-19.46-9.25-29.66zM1021.63 827.351l-29.659 9.244a4011.255 4011.255 0 019.249 29.544l29.67-9.245-9.26-29.543zM938.632 853.229l-29.618 9.219c3.177 10.154 6.19 19.803 9.229 29.498l29.617-9.22c-3.12-9.947-6.158-19.641-9.228-29.497zM864.946 908.972c-3.176-10.154-6.215-19.849-9.228-29.498l-29.546 9.239a3742.479 3742.479 0 019.227 29.498l29.547-9.239zM743.038 914.248l9.228 29.497 29.547-9.239c-3.221-10.129-6.184-19.687-9.228-29.497l-29.547 9.239zM1082.88 840.835l29.89-9.371c-2.95-9.326-5.82-18.399-8.6-27.523-.66-2.137-1.9-1.801-3.41-1.313l-24.95 7.983c-.71.302-1.37.676-2 1.115 2.82 9.402 5.85 18.98 9.07 29.109zM1606.17 853.905c9.47-2.969 18.84-5.817 28.07-8.892.55-.305 1.17-1.964.99-2.818-1.16-4.304-2.59-8.573-3.98-12.867l-4.52-14.474-29.84 9.346c3.09 9.902 6.15 19.642 9.28 29.705zM1543.62 840.853l-29.45 9.421c3.18 10.155 6.17 19.758 9.18 29.407l29.66-9.244c-3.45-10.119-6.35-19.773-9.39-29.584zM1461.51 899.1c-3.18-10.155-6.25-20.011-9.29-29.705l-29.8 9.32c2.94 9.397 5.8 18.47 8.61 27.639.55 1.839 1.64 1.766 3.11 1.303l13.83-4.332 13.54-4.225zM1584.27 783.952c3.17 10.154 6.16 19.758 9.2 29.568l29.64-9.289-9.25-29.543-29.59 9.264zM1501.24 809.784c3.22 10.129 6.23 19.778 9.25 29.544l29.67-9.245-9.26-29.543-29.66 9.244zM1448.88 858.735c-3.17-10.154-6.21-19.849-9.22-29.498l-29.58 9.194c3.18 10.154 6.17 19.758 9.23 29.498l29.57-9.194zM1244.63 889.998l-29.66 9.244c3.22 10.129 6.21 19.733 9.25 29.544l29.64-9.29-9.23-29.498zM1170.93 945.509c-3.17-10.155-6.16-19.758-9.26-29.66l-29.63 9.29c3.22 10.129 6.21 19.732 9.28 29.589l29.61-9.219zM1087.75 971.487c-3.22-10.129-6.19-19.803-9.25-29.543l-29.59 9.264c3.17 10.155 6.13 19.713 9.2 29.569l29.64-9.29zM1048.04 983.844c-2.98-9.487-5.85-18.56-8.63-27.684-.64-2.092-1.9-1.801-3.42-1.313l-13.49 4.2-13.58 4.251c3.18 10.154 6.27 19.94 9.36 29.841l29.76-9.295zM997.02 967.029c-9.565 3.021-18.882 5.843-28.119 8.919-.544.304-1.057 2.261-.756 3.226 1.646 5.82 3.499 11.584 5.307 17.373l3.008 9.533 30.17-9.291c-3.45-10.002-6.41-19.56-9.61-29.76zM926.005 989.428c3.176 10.154 6.164 19.762 9.228 29.502l29.618-9.22-9.254-29.546-29.592 9.264zM884.664 1002.28c3.222 10.13 6.19 19.8 9.254 29.54l29.456-9.19-9.254-29.541-29.456 9.191zM881.9 1035.67c-3.222-10.12-6.184-19.68-9.254-29.54l-29.662 9.25c3.221 10.12 6.183 19.68 9.253 29.54l29.663-9.25zM1613.31 730.677c3.17 10.154 6.22 19.965 9.31 29.75l29.34-9.183c-3.18-10.154-6.22-19.849-9.31-29.75l-29.34 9.183zM1569.05 777.187c-3.22-10.129-6.19-19.804-9.31-29.751l-29.45 9.189c3.17 10.154 6.19 19.803 9.31 29.75l29.45-9.188zM848.464 1002.17c-3.222-10.127-6.266-19.938-9.355-29.723l-29.32 9.112c3.176 10.154 6.215 19.851 9.309 29.751l29.366-9.14zM1589.03 694.383l-29.87 9.3c3.22 10.129 6.18 19.687 9.35 29.725 9.48-2.97 18.81-5.863 28.08-8.893.49-.279 1.25-1.594 1.08-2.216-2.79-9.24-5.66-18.429-8.64-27.916zM1515.1 749.904a4201.372 4201.372 0 01-9.28-29.588l-29.41 9.163 8.95 29.533 29.74-9.108zM1394.08 787.665l29.64-9.289c-3.22-10.129-6.19-19.804-9.23-29.498l-29.63 9.29 9.22 29.497zM1189.78 818.837c3.22 10.128 6.21 19.732 9.33 29.679l29.64-9.29c-3.22-10.129-6.21-19.732-9.31-29.634l-29.66 9.245zM1145.85 865.286a3883.21 3883.21 0 01-9.26-29.544l-29.63 9.29 9.22 29.498 29.67-9.244zM1014.46 950.301c-3.22-10.128-6.19-19.803-9.31-29.75l-29.456 9.188a10170.9 10170.9 0 019.264 29.776l29.502-9.214zM1023.85 870.728l9.26 29.543 29.71-9.27-9.26-29.543-29.71 9.27zM983.846 883.19c3.176 10.154 6.138 19.713 9.309 29.751 9.545-2.95 18.925-5.869 28.285-8.949.45-.254.93-1.837.71-2.665-1.18-4.35-2.62-8.619-3.93-12.893-1.32-4.274-3.04-9.578-4.58-14.564l-29.794 9.32zM922.245 946.495l-29.456 9.188c3.176 10.154 6.214 19.849 9.258 29.659l29.457-9.188c-3.146-9.992-6.139-19.712-9.259-29.659zM971.99 887.014l-29.87 9.3c2.956 9.442 5.786 18.657 8.823 27.816.33.59 2.201 1.274 3.119 1 8.38-2.478 16.729-5.116 25.032-7.73a17.138 17.138 0 002.042-1.141c-3.089-9.785-6.077-19.389-9.146-29.245zM1173.65 912.137c3.22 10.129 6.21 19.732 9.23 29.498l29.41-9.163-9.25-29.543-29.39 9.208zM1413.86 704.614c3.18 10.154 6.29 19.985 9.31 29.75l29.62-9.219c-2.96-9.442-5.79-18.657-8.82-27.815-.33-.591-2.16-1.3-3.08-1.026-4.66 1.237-9.23 2.772-13.84 4.216l-13.19 4.094zM1099.81 967.608l29.71-9.27c-3.01-9.533-5.89-18.839-8.9-28.068-.28-.5-1.85-1.174-2.61-.93-8.81 2.66-17.55 5.456-26.31 8.207-.43.159-.82.381-1.18.659 3.16 9.922 6.2 19.5 9.29 29.402zM1555.54 837.051c.01.491.07.979.16 1.461 2.72 8.684 5.5 17.388 8.09 26.077.67 2.254 1.96 2.009 3.61 1.444l24.68-7.83c.69-.292 1.34-.657 1.95-1.09-3.27-10.103-6.13-19.596-9.2-29.336l-29.29 9.274zM793.771 930.864l29.708-9.27c-2.982-9.487-5.817-18.818-8.904-28.068-.305-.545-2.282-.991-3.225-.762-8.173 2.421-16.315 5.004-24.361 7.653-.797.382-1.57.814-2.313 1.293 2.942 9.629 6 19.252 9.095 29.154zM1473.62 894.892a5.72 5.72 0 001.51-.184l25.99-8.03c2.3-.687 1.91-2.02 1.37-3.627-2.35-7.396-4.63-14.771-6.93-22.193-.49-1.515-.96-3.102-1.48-4.663l-29.64 9.291a653.19 653.19 0 009.18 29.406zM867.597 875.161c3.177 10.154 6.246 20.011 9.285 29.705l29.546-9.239c-2.906-9.351-5.684-18.475-8.67-27.543a3.186 3.186 0 00-2.581-1.42c-9.136 2.721-18.12 5.715-27.58 8.497zM1381.17 891.398a3466.17 3466.17 0 019.22 29.498c.5 0 1-.038 1.49-.114 8.67-2.7 17.32-5.446 26.04-8.055 2.22-.706 1.93-1.975 1.37-3.627l-6.85-21.824-1.54-5.102-29.73 9.224zM1534.66 667.33c-.49-.001-.99.038-1.48.114l-26.04 8.055c-2.3.686-1.91 2.02-1.37 3.626 2.41 7.603 4.77 15.232 7.17 22.835.39 1.334.94 2.637 1.44 3.965l29.46-9.188c-3.12-9.947-6.11-19.667-9.18-29.407zM1630.27 681.467l-29.75 9.295c2.98 9.488 5.82 18.819 8.95 28.043.28.5 2.24 1.017 3.15.742 8.2-2.376 16.32-5.004 24.41-7.678.78-.375 1.54-.798 2.27-1.268l-9.03-29.134zM1617.71 641.427c-.4-.029-.79-.026-1.19.007-8.79 2.706-17.57 5.528-26.36 8.117-2.27.732-1.91 2.02-1.41 3.652l7.22 23.577c.56 1 .83 2.223 1.25 3.299l29.46-9.189c-2.99-10.023-5.98-19.743-8.97-29.463z" fill="#3B3A3B"/><path fill-rule="evenodd" clip-rule="evenodd" d="M1260.93 796.783l-29.46 9.188 9.25 29.543 29.43-9.234c-3.11-9.83-6.17-19.57-9.22-29.497zM776.138 947.997c2.982 9.488 5.852 18.561 8.676 27.659.634 2.092 1.9 1.801 3.368 1.338l15.76-4.932 11.149-3.488c-3.131-10.179-6.246-20.01-9.29-29.821l-29.663 9.244zM1095.11 848.552l-29.62 9.219c3.23 10.129 6.16 19.642 9.33 29.68 9.5-2.924 18.77-5.838 28.01-8.797.34-.209.61-.506.79-.859.18-.353.26-.748.23-1.144-2.88-9.306-5.76-18.611-8.74-28.099zM1157.72 861.275c.49.016.98-.038 1.46-.16l26.04-8.055c2.25-.661 1.86-1.995 1.32-3.601l-6.87-21.869-1.59-5.078-29.63 9.29c3.14 9.993 6.18 19.687 9.27 29.473zM1352.69 800.424c.49.003.98-.051 1.46-.16l26.04-8.054c2.3-.687 1.91-2.021 1.37-3.627-2.41-7.603-4.77-15.232-7.17-22.835-.39-1.333-.94-2.636-1.42-3.919l-29.45 9.188c3.09 9.902 6.27 19.52 9.17 29.407zM1435.73 774.825c9.56-3.02 18.88-5.842 28.12-8.918.45-.253 1-2.049.67-2.943-2.49-8.508-5.19-16.959-7.89-25.411a7.41 7.41 0 00-.89-1.591l-29.34 9.184c3.09 9.901 6.15 19.525 9.33 29.679zM1655.17 761.676c-9.54 2.95-18.75 5.767-27.89 8.791-.55.305-1.28 1.969-1.08 2.752 1.02 3.961 2.32 7.77 3.52 11.63 1.54 5.102 3.29 10.452 4.95 15.782l29.76-9.295-9.26-29.66zM989.299 869.942c-3.221-10.129-6.209-19.732-9.304-29.634l-29.365 9.138c3.176 10.154 6.164 19.757 9.259 29.659l29.41-9.163zM1572.35 787.452c-9.52 2.995-18.72 5.813-27.87 8.837-.54.304-1.28 1.969-1.08 2.752.94 3.708 2.21 7.355 3.33 10.962 1.68 5.446 3.42 10.912 5.15 16.449l29.75-9.295c-3.09-9.902-6.08-19.505-9.28-29.705zM1369.84 751.114c-2.99-9.487-5.82-18.702-8.85-27.861-.33-.591-2.16-1.3-3.03-1.05-4.28 1.079-8.43 2.502-12.58 3.809l-14.5 4.525c3.18 10.154 6.22 19.965 9.32 29.867l29.64-9.29zM1638.24 811.164c2.99 9.603 5.87 18.909 8.91 28.184.28.5 2.28.991 3.25.691a822.013 822.013 0 0024.36-7.652c.76-.339 1.49-.746 2.17-1.217-3.22-10.129-6.15-19.642-9.2-29.453l-29.49 9.447zM1556.45 737.171c-3.18-10.154-6.22-19.965-9.31-29.75l-29.6 9.264c2.96 9.442 5.79 18.657 8.83 27.816.3.545 2.13 1.254 3.07 1.025 4.64-1.282 9.23-2.772 13.84-4.216l13.17-4.139zM740.527 947.563c-2.988-9.603-5.868-18.909-8.956-28.159-.279-.5-2.236-1.017-3.199-.717-8.173 2.422-16.315 5.004-24.361 7.653a20.74 20.74 0 00-2.223 1.242c3.222 10.129 6.159 19.642 9.248 29.427l29.491-9.446zM1094.9 775.121l-29.62 9.22a3082.38 3082.38 0 015.05 16.15l29.66-9.244c-1.75-5.466-3.37-10.705-5.09-16.126zM1363.95 691.059c1.75 5.582 3.44 10.957 5.09 16.242l29.59-9.265-5.06-16.196-29.62 9.219zM1141.26 778.377c-1.78-5.628-3.42-10.912-5.09-16.242l-29.32 9.229 5.09 16.241 29.32-9.228zM1148.24 758.372c1.8 5.674 3.44 10.958 5.14 16.333l29.5-9.214a3819.25 3819.25 0 00-5.14-16.332l-29.5 9.213zM1013.3 800.516l-29.663 9.244c1.752 5.582 3.402 10.983 5.092 16.242l29.661-9.245c-1.7-5.491-3.32-10.73-5.09-16.241zM1277.53 735.847l29.66-9.244c-1.75-5.583-3.39-10.867-5.08-16.126l-29.62 9.219c1.79 5.441 3.41 10.68 5.04 16.151zM1265.9 739.543c-1.73-5.537-3.37-10.821-5.09-16.241l-29.62 9.218c1.7 5.492 3.37 10.822 5.12 16.288l29.59-9.265zM935.35 842.776c-1.802-5.673-3.447-10.957-5.142-16.333l-29.547 9.239c1.752 5.583 3.402 10.983 5.072 16.313l29.617-9.219zM1189.57 745.406c1.75 5.582 3.4 10.867 5.12 16.287l29.59-9.264c-1.7-5.492-3.37-10.821-5.09-16.242l-29.62 9.219zM822.636 877.806l29.663-9.244-5.066-16.196-29.663 9.244c1.726 5.537 3.371 10.821 5.066 16.196zM734.569 887.487l5.072 16.313 29.708-9.27-5.072-16.313-29.708 9.27zM1053.26 788.078l-29.57 9.194c1.73 5.537 3.37 10.821 5.09 16.242l29.55-9.239c-1.66-5.517-3.35-10.776-5.07-16.197zM1439.79 685.287l-5.09-16.241-29.06 9.263 5.05 16.267 29.1-9.289zM1357.2 711.356c-1.76-5.582-3.4-10.866-5.05-16.267l-29.46 9.188c1.76 5.583 3.4 10.867 5.12 16.288l29.39-9.209zM971.64 813.542l-29.456 9.189c1.726 5.537 3.371 10.821 5.117 16.287l29.385-9.208a4445.772 4445.772 0 00-5.046-16.268zM893.64 855.712l-5.066-16.196-29.366 9.137c1.727 5.537 3.442 10.842 5.092 16.242l29.34-9.183zM698.206 916.701l29.618-9.219c-1.701-5.491-3.416-10.796-5.066-16.196l-29.618 9.219c1.701 5.491 3.592 10.578 5.066 16.196zM805.689 865.388l-29.456 9.188c1.726 5.537 3.37 10.821 5.091 16.242l29.43-9.234a1904.134 1904.134 0 00-5.065-16.196zM945.025 1059.98l-9.177-29.41 241.112-75.129 9.22 29.381-241.155 75.158z" fill="#3B3A3B"/><path fill-rule="evenodd" clip-rule="evenodd" d="M1264.74 839.387l20.28-6.325c-4.21-13.393-8.32-26.487-12.49-39.905l50.7-15.814c7.22 23.127 14.49 46.361 21.83 69.7l-70.96 22.185c-3.06-9.74-6.11-19.55-9.36-29.841zM748.471 1077.21c-3.069-9.85-6.128-19.48-9.177-29.4l91.693-28.65 9.248 29.43-91.764 28.62zM1256.7 886.235l91.55-28.572c3.09 9.785 6.11 19.551 9.26 29.543l-91.56 28.572c-3.09-9.785-5.97-19.627-9.25-29.543zM726.762 1007.39l70.979-22.139a3877.046 3877.046 0 019.335 29.799l-70.979 22.14c-3.115-9.83-6.184-19.69-9.335-29.8zM764.696 951.709c2.957 9.442 5.883 18.722 8.718 28.053a2.652 2.652 0 01-1.25 2.13c-16.123 5.135-32.296 10.18-48.631 15.255-3.222-10.129-6.209-19.733-9.329-29.68l50.492-15.758zM751.883 1087.89l49.039-15.48 2.87 9.07c1.89 6.05 3.754 12.04 5.663 18.01.47 1.59.666 2.79-1.377 3.4l-45.932 14.22c-.379.06-.765.05-1.142-.02l-9.121-29.2zM884.146 1079.1l-9.254-29.55 48.904-15.4c3.064 9.74 6.153 19.52 9.227 29.49l-48.877 15.46zM1188.88 951.404l48.86-15.381c3.07 9.856 6.15 19.642 9.3 29.634l-48.9 15.407c-3.1-9.902-6.14-19.596-9.26-29.66zM1360.94 897.815c3.22 10.129 6.13 19.596 9.27 29.472l-48.95 15.432a4482.8 4482.8 0 01-9.23-29.498l48.91-15.406zM813.968 1068.7l48.948-15.43c3.095 9.9 6.184 19.68 9.284 29.7-1.089.61-2.194.87-3.228 1.15-14.014 4.43-28.104 8.73-42.093 13.21-2.774.89-3.958.48-4.791-2.39-2.556-8.83-5.429-17.49-8.12-26.24zM1260.31 961.398c-3.09-9.785-6.1-19.434-9.17-29.291l48.72-15.305c.45.703.86 1.431 1.22 2.182 2.57 8.108 5.12 16.287 7.71 24.441.55 1.606.93 2.94-1.36 3.626l-45.68 14.142a5.23 5.23 0 01-1.44.205zM1610.69 764.23l-29.66 9.245a3980.784 3980.784 0 01-9.31-29.751l29.62-9.219c3.11 9.831 6.18 19.687 9.35 29.725zM1017.15 916.769l29.5-9.214c3.04 9.811 6.13 19.596 9.28 29.705l-29.5 9.214c-3.04-9.695-6.13-19.48-9.28-29.705zM1527.69 790.107l-29.58 9.497c-3.22-10.129-6.19-19.803-9.34-29.796l29.71-9.27c3 9.72 6.04 19.531 9.21 29.569zM1262.06 873.036l-29.47 9.376c-3.07-9.856-6.16-19.642-9.28-29.705l29.54-9.239c3.02 9.765 6.07 19.576 9.21 29.568zM1220.68 886.028l-29.55 9.239c-3.09-9.902-6.19-19.803-9.31-29.866l29.5-9.214c3.14 9.992 6.23 19.778 9.36 29.841zM1140.13 878.382l29.58-9.193c3.06 9.856 6.15 19.641 9.28 29.704l-29.55 9.24c-3.12-9.948-6.16-19.758-9.31-29.751zM1098.94 891.505l29.53-9.168a3966.05 3966.05 0 019.31 29.75l-29.53 9.168c-3.21-10.012-6.15-19.945-9.31-29.75zM943.345 972.517c-3.222-10.129-6.159-19.641-9.259-29.659l29.592-9.265c3.064 9.74 6.174 19.633 9.33 29.68l-29.663 9.244zM851.078 968.619l29.572-9.194a5509.971 5509.971 0 019.31 29.751l-29.573 9.193c-3.12-9.947-6.209-19.732-9.309-29.75zM1066.71 933.858c-3.07-9.856-6.18-19.687-9.28-29.705l29.45-9.188c3.12 9.831 6.16 19.641 9.33 29.679l-29.5 9.214zM1032.09 824.011l29.46-9.189c3.07 9.857 6.16 19.642 9.28 29.589l-29.46 9.188c-3.04-9.811-6.13-19.596-9.28-29.588zM910.179 938.863a3408.332 3408.332 0 01-9.284-29.705l29.799-9.32c1.292 4.228 2.605 8.386 3.891 12.498 1.634 5.052 3.313 10.078 4.536 14.823.432.772-.293 2.669-.914 2.837-9.338 2.893-18.554 5.898-28.028 8.867zM859.321 922.019l29.502-9.214a5988.363 5988.363 0 009.253 29.544l-29.547 9.239c-3.069-9.856-6.108-19.551-9.208-29.569zM856.648 955.365l-29.502 9.214c-3.063-9.74-6.057-19.46-9.202-29.452l29.501-9.214c3.039 9.695 6.027 19.298 9.203 29.452zM1546.53 663.203l9.68-3.026 17.34-5.4c1.42-.437 2.77-1.011 3.46 1.171 2.77 9.124 5.67 18.243 8.6 27.639l-29.75 9.295c-3.02-9.649-6.11-19.434-9.33-29.679zM1472.77 718.927c-3.22-10.129-6.16-19.642-9.25-29.543l29.71-9.27 9.25 29.543-29.71 9.27zM1401.94 708.65c3.12 9.831 6.11 19.551 9.23 29.498l-29.66 9.244c-3.04-9.811-6.11-19.55-9.23-29.498l29.66-9.244zM1281.07 746.334l29.5-9.214c3.02 9.765 6.08 19.505 9.2 29.452l-29.5 9.214c-3.04-9.695-6.13-19.48-9.2-29.452zM1239.66 759.164c9.42-2.944 18.62-5.878 27.85-8.65.54-.304 2.12.487 2.26 1.063 3.02 9.229 5.9 18.535 8.88 28.022l-29.68 9.316c-3.12-9.831-6.27-19.521-9.31-29.751zM1207.18 801.714c-2.96-9.442-5.83-18.631-8.62-27.871-.03-.436.05-.874.24-1.27.18-.396.47-.737.82-.991 9.26-3.03 18.58-5.853 28.05-8.822 3.23 10.129 6.17 19.758 9.29 29.705l-29.78 9.249zM1165.75 814.731l-9.2-29.452c.89-.443 1.8-.835 2.74-1.173 7.89-2.502 15.85-4.867 23.82-7.348 2.43-.763 3.53-.487 4.36 2.155 2.58 8.877 5.43 17.601 8.25 26.583l-29.97 9.235zM1144.66 788.707c3.17 10.154 6.18 19.804 9.25 29.66l-29.84 9.346-3.18-10.155c-1.75-5.582-3.55-11.139-5.14-16.752-.48-.863.17-3.013.79-3.181 9.23-3.075 18.52-5.943 28.12-8.918zM1021.63 827.351l9.26 29.543-29.67 9.245a6691.772 6691.772 0 00-9.249-29.544l29.659-9.244zM938.632 853.229c3.07 9.856 6.108 19.55 9.228 29.497l-29.617 9.22c-3.039-9.695-6.128-19.48-9.229-29.498l29.618-9.219zM864.946 908.972l-29.547 9.239a4934.816 4934.816 0 00-9.227-29.498l29.546-9.239c2.785 9.24 6.052 19.344 9.228 29.498zM743.038 914.248l29.547-9.239c3.044 9.81 6.083 19.505 9.228 29.497l-29.547 9.239-9.228-29.497zM1082.88 840.835c-3.07-9.856-6.13-19.48-9.17-29.29.62-.44 1.29-.814 1.99-1.116l24.95-7.982c1.52-.488 2.76-.824 3.42 1.313 2.78 9.123 5.65 18.197 8.6 27.522l-29.79 9.553zM1606.17 853.905c-3.18-10.154-6.19-19.803-9.28-29.705l29.84-9.346 4.52 14.474c1.39 4.294 2.82 8.563 3.98 12.867.18.854-.37 2.65-.99 2.818-9.28 2.984-18.51 5.872-28.07 8.892zM1543.62 840.854c3.04 9.811 6.07 19.389 9.17 29.407l-29.66 9.244c-3.01-9.649-6.08-19.389-9.18-29.406l29.67-9.245zM1461.51 899.1l-13.54 4.225-13.83 4.332c-1.47.463-2.56.536-3.11-1.303-2.81-9.169-5.67-18.242-8.61-27.639l29.8-9.32c3.04 9.694 6.13 19.48 9.29 29.705zM1584.27 783.952l29.59-9.264 9.25 29.543-29.64 9.289c-2.99-9.836-6.03-19.53-9.2-29.568zM1501.24 809.784l29.66-9.244 9.26 29.543-29.67 9.245a3283.36 3283.36 0 00-9.25-29.544zM1448.88 858.735l-29.57 9.194c-3.06-9.74-6.1-19.434-9.23-29.498l29.58-9.194c3.01 9.649 6.07 19.389 9.22 29.498zM1244.63 889.997l9.23 29.498-29.57 9.31c-3.04-9.811-6.11-19.551-9.25-29.543l29.59-9.265zM1170.93 945.509l-29.61 9.219c-3.07-9.857-6.14-19.597-9.28-29.589l29.63-9.29c3.1 9.902 6.14 19.596 9.26 29.66zM1087.75 971.487l-29.64 9.29c-3.07-9.856-6.1-19.551-9.2-29.569l29.59-9.264c3.24 9.639 6.26 19.404 9.25 29.543zM1048.04 983.844l-29.76 9.295c-3.22-10.129-6.18-19.687-9.36-29.841l13.58-4.251 13.49-4.2c1.52-.488 2.78-.779 3.42 1.313 2.78 9.124 5.65 18.197 8.63 27.684zM997.02 967.03c3.18 10.154 6.19 19.803 9.28 29.704l-29.84 9.346-3.008-9.532c-1.808-5.79-3.661-11.554-5.307-17.374-.483-.863.161-3.013.756-3.226 9.236-3.076 18.554-5.898 28.119-8.918zM926.005 989.428l29.592-9.264 9.254 29.546-29.669 9.13c-3.013-9.65-6.051-19.349-9.177-29.412zM884.664 1002.28l29.456-9.191 9.254 29.541-29.456 9.19c-3.2-9.66-6.244-19.47-9.254-29.54zM881.9 1035.67l-29.663 9.25c-3.07-9.86-6.108-19.55-9.253-29.54l29.662-9.25c3.197 10.08 6.108 19.55 9.254 29.54zM1613.31 730.677l29.34-9.183c3.09 9.901 6.18 19.687 9.31 29.75l-29.34 9.183c-3.09-9.785-6.14-19.596-9.31-29.75zM1569.05 777.187l-29.45 9.188c-3.23-10.129-6.21-19.732-9.31-29.75l29.45-9.189c3.15 9.993 6.17 19.758 9.31 29.751zM848.464 1002.17l-29.366 9.14c-3.094-9.9-6.184-19.688-9.309-29.751l29.32-9.112c3.089 9.785 6.133 19.596 9.355 29.723zM1589.03 694.383c2.98 9.487 5.85 18.676 8.64 27.916.3.546-.51 2.074-1.08 2.216-9.27 3.03-18.6 5.923-28.08 8.893-3.22-10.129-6.21-19.733-9.35-29.725l29.87-9.3zM1515.1 749.904l-29.74 9.109-9.25-29.544 29.63-9.29c3.12 9.948 6.21 19.617 9.36 29.725zM1394.08 787.665l-9.22-29.497 29.63-9.29c3.04 9.694 6.09 19.505 9.23 29.498l-29.64 9.289zM1189.78 818.837l29.66-9.245c3.1 9.902 6.16 19.642 9.31 29.634l-29.64 9.29c-3.12-9.947-6.16-19.641-9.33-29.679zM1145.85 865.286l-29.67 9.244-9.22-29.498 29.63-9.29c2.95 9.629 6.04 19.415 9.26 29.544zM1014.46 950.301l-29.502 9.214a7430.212 7430.212 0 01-9.264-29.776l29.456-9.188c3.02 9.765 6.24 19.894 9.31 29.75zM1023.85 870.728l29.71-9.27 9.26 29.543-29.71 9.27-9.26-29.543zM983.846 883.19l29.794-9.32c1.59 5.077 3.02 9.765 4.58 14.564 1.55 4.799 2.75 8.543 3.93 12.893.41.727-.21 2.502-.71 2.665-9.36 3.08-18.74 5.999-28.285 8.949-3.261-9.988-6.209-19.733-9.309-29.751zM922.245 946.495c3.222 10.129 6.113 19.667 9.259 29.659l-29.457 9.188c-3.044-9.81-6.133-19.596-9.258-29.659l29.456-9.188zM971.99 887.014c3.07 9.856 6.057 19.46 9.172 29.29-.654.427-1.336.808-2.041 1.141-8.304 2.614-16.653 5.253-25.032 7.73-.817.456-2.881-.359-3.12-1-3.037-9.159-5.866-18.373-8.823-27.815l29.844-9.346zM1173.65 912.137l29.39-9.208 9.25 29.543-29.41 9.163a5628.07 5628.07 0 00-9.23-29.498zM1413.86 704.614l13.19-4.094c4.61-1.444 9.18-2.979 13.84-4.216.82-.456 2.84.384 3.08 1.026 3.03 9.158 5.86 18.373 8.82 27.815l-29.72 9.037c-2.96-9.558-6.01-19.369-9.21-29.568zM1099.81 967.608c-3.09-9.902-6.12-19.48-9.19-29.22.36-.278.76-.5 1.18-.659 8.76-2.751 17.5-5.547 26.31-8.207.68-.381 2.42.379 2.61.93 3.02 9.23 5.9 18.535 8.9 28.068l-29.81 9.088zM1555.54 837.051l29.37-9.138c3.06 9.74 6.05 19.46 9.19 29.336-.6.433-1.26.799-1.95 1.091l-24.67 7.83c-1.65.564-2.95.809-3.61-1.444-2.6-8.69-5.38-17.394-8.09-26.078a8.616 8.616 0 01-.24-1.597zM793.771 930.864c-3.095-9.902-6.153-19.525-9.222-29.382a21.44 21.44 0 012.313-1.293c8.097-2.557 16.239-5.14 24.361-7.652.943-.229 3.01.166 3.225.762 3.087 9.25 5.922 18.581 8.904 28.068l-29.581 9.497zM1473.62 894.892c-3.04-9.81-6.08-19.505-9.18-29.406l29.64-9.291c.52 1.561.99 3.148 1.48 4.663 2.3 7.422 4.58 14.797 6.93 22.193.54 1.607.93 2.94-1.37 3.627l-25.99 8.03c-.49.128-1 .19-1.51.184zM867.597 875.161c9.384-2.919 18.444-5.776 27.58-8.497a3.186 3.186 0 012.581 1.42c2.986 9.068 5.764 18.192 8.67 27.543l-29.546 9.239c-3.039-9.694-6.057-19.46-9.285-29.705zM1381.17 891.398l29.7-9.27 1.55 5.103 6.84 21.824c.57 1.652.86 2.92-1.37 3.627-8.72 2.609-17.36 5.354-26.04 8.055a9.61 9.61 0 01-1.48.114c-2.95-9.746-6.06-19.46-9.2-29.453zM1534.66 667.33c3.07 9.74 6.06 19.46 9.18 29.407l-29.46 9.188c-.68-1.227-1.05-2.631-1.44-3.965-2.4-7.603-4.76-15.232-7.17-22.835-.54-1.606-.93-2.94 1.37-3.626l26.04-8.055c.49-.076.99-.115 1.48-.114zM1630.27 681.468l9.18 29.407c-.73.47-1.49.893-2.27 1.268-8.17 2.537-16.28 5.166-24.41 7.678-.81.456-3.01-.166-3.15-.742-3.13-9.224-5.97-18.555-8.95-28.043l29.6-9.568zM1617.71 641.427c3.04 9.695 6.03 19.414 9.15 29.362l-29.46 9.188c-.56-1-1.14-2.045-1.25-3.299l-7.22-23.577c-.5-1.631-.86-2.92 1.41-3.652 8.79-2.589 17.57-5.411 26.36-8.116.34.009.67.04 1.01.094z" fill="#3B3A3B"/><path fill-rule="evenodd" clip-rule="evenodd" d="M1260.93 796.783c3.05 9.927 6.11 19.667 9.22 29.497l-29.43 9.234-9.25-29.543 29.46-9.188zM776.138 947.997l29.663-9.244c3.044 9.811 6.108 19.551 9.29 29.821l-11.149 3.488-15.76 4.932c-1.468.463-2.734.754-3.368-1.338-2.824-9.098-5.694-18.171-8.676-27.659zM1095.11 848.552c2.98 9.488 5.91 18.768 8.74 28.099.03.396-.05.791-.23 1.144-.18.353-.45.65-.79.859-9.24 2.959-18.51 5.873-28.01 8.797-3.22-10.129-6.21-19.733-9.33-29.68l29.62-9.219zM1157.72 861.274c-3.09-9.785-6.13-19.48-9.22-29.381l29.63-9.29 1.59 5.077 6.87 21.87c.54 1.606.93 2.94-1.32 3.601l-26.04 8.055c-.5.096-1.01.119-1.51.068zM1352.69 800.424c-3.04-9.811-6.08-19.505-9.17-29.407l29.45-9.188c.66 1.181 1.03 2.586 1.42 3.919 2.4 7.603 4.76 15.232 7.17 22.835.54 1.606.93 2.94-1.37 3.627l-26.04 8.054c-.48.109-.97.163-1.46.16zM1435.73 774.825c-3.18-10.154-6.24-19.778-9.33-29.679l29.34-9.184c.36.491.66 1.025.89 1.591 2.7 8.452 5.4 16.903 7.89 25.411.46.818-.17 2.781-.67 2.943-9.24 3.075-18.56 5.898-28.12 8.918zM1655.17 761.676l9.26 29.66-29.75 9.295c-1.67-5.33-3.34-10.543-4.96-15.782-1.2-3.86-2.5-7.669-3.52-11.63-.38-.681.48-2.538 1.08-2.751 9.33-3.126 18.63-5.762 27.89-8.792zM989.299 869.942l-29.41 9.163c-3.095-9.902-6.159-19.642-9.259-29.659l29.365-9.138a10434.75 10434.75 0 009.304 29.634zM1572.35 787.452c3.18 10.154 6.19 19.803 9.28 29.705l-29.75 9.295c-1.73-5.537-3.47-11.003-5.15-16.449-1.12-3.607-2.39-7.254-3.33-10.962-.38-.682.46-2.584 1.08-2.752 9.24-3.075 18.35-5.842 27.87-8.837zM1369.84 751.114l-29.64 9.29c-3.1-9.902-6.11-19.667-9.32-29.867l14.5-4.525c4.15-1.307 8.3-2.73 12.58-3.809.77-.432 2.79.409 3.03 1.05 3.03 9.159 5.91 18.465 8.85 27.861zM1638.24 811.164l29.62-9.219c3.04 9.81 6.08 19.505 9.2 29.452-.69.471-1.42.879-2.18 1.217-8.14 2.583-16.24 5.14-24.36 7.653-.86.481-3.05-.141-3.24-.692-3.17-9.502-5.95-18.626-9.04-28.411zM1556.45 737.171l-13.17 4.139c-4.61 1.444-9.2 2.933-13.84 4.216l-2.64.702s-.33-1.43-.43-1.728c-3.04-9.158-5.87-18.373-8.83-27.815l29.6-9.264c3.09 9.785 6.13 19.596 9.31 29.75zM740.527 947.563l-29.618 9.219c-3.089-9.785-6.128-19.48-9.248-29.427a20.74 20.74 0 012.223-1.242c8.097-2.558 16.239-5.141 24.361-7.653.862-.482 3.01.166 3.199.717 3.215 9.477 6.095 18.782 9.083 28.386zM1094.9 775.121c1.72 5.421 3.34 10.66 5.09 16.126l-29.66 9.244c-1.55-5.102-3.29-10.568-5.05-16.15l29.62-9.22zM1363.95 691.059l29.62-9.219 5.06 16.196-29.59 9.265c-1.65-5.285-3.34-10.66-5.09-16.242zM1141.26 778.377l-29.5 9.214-5.09-16.242 29.5-9.214c1.72 5.421 3.36 10.705 5.09 16.242zM1148.24 758.372l29.5-9.213c1.72 5.42 3.41 10.795 5.14 16.332l-29.5 9.214c-1.7-5.375-3.34-10.659-5.14-16.333zM1013.3 800.516c1.77 5.511 3.39 10.75 5.09 16.242l-29.799 9.32c-1.588-5.077-3.34-10.659-5.091-16.242l29.8-9.32zM1277.53 735.847c-1.72-5.421-3.34-10.66-5.04-16.151l29.62-9.219c1.58 5.077 3.33 10.543 5.08 16.126l-29.66 9.244zM1265.9 739.543l-29.47 9.492c-1.74-5.466-3.41-10.796-5.11-16.288l29.62-9.219c1.49 5.012 3.23 10.478 4.96 16.015zM935.35 842.776l-29.617 9.219c-1.543-5.103-3.32-10.73-5.072-16.313l29.547-9.239c1.695 5.376 3.34 10.66 5.142 16.333zM1189.57 745.406l29.62-9.219c1.72 5.421 3.39 10.75 5.09 16.242l-29.59 9.264c-1.7-5.375-3.34-10.659-5.12-16.287zM822.636 877.806c-1.695-5.375-3.34-10.659-5.066-16.196l29.663-9.244 5.066 16.196-29.663 9.244zM734.569 887.487l29.708-9.27 5.072 16.313-29.708 9.27-5.072-16.313zM1053.26 788.078c1.72 5.421 3.37 10.705 5.07 16.197l-29.55 9.239c-1.72-5.421-3.36-10.705-5.09-16.242l29.57-9.194zM1439.79 685.287l-29.38 9.209-5.05-16.267 29.34-9.183 5.09 16.241zM1357.2 711.356l-29.39 9.209c-1.72-5.421-3.36-10.705-5.12-16.288l29.46-9.188c1.52 5.173 3.17 10.458 5.05 16.267zM971.64 813.542a4445.772 4445.772 0 015.046 16.268l-29.385 9.208c-1.746-5.466-3.391-10.75-5.117-16.287l29.456-9.189zM893.64 855.712l-29.34 9.183c-1.65-5.4-3.365-10.705-5.092-16.242l29.366-9.137 5.066 16.196zM698.206 916.701c-1.701-5.491-3.365-10.705-5.066-16.196l29.618-9.219c1.65 5.4 3.365 10.705 5.066 16.196l-29.618 9.219zM805.689 865.388c1.72 5.421 3.39 10.75 5.065 16.196l-29.43 9.234c-1.721-5.421-3.365-10.705-5.091-16.242l29.456-9.188z" fill="#3B3A3B"/><path d="M789.73 996.599l-636.951 89.521L11.472 175.021l664.551-93.397L789.73 996.6z" fill="#009688"/><path d="M749.73 957.368l-567.429 79.752L53.854 207.193l589.73-82.881L749.73 957.368z" fill="#FAF9FC"/><path d="M178.752 134.54l30.787 71.224 274.26-38.544 18.028-79.58-64.067 9.239 21.95-68.09L201.393 67.12l36.663 59.084-59.304 8.335z" fill="gray"/><path d="M272.057 89.318L394.95 71.385l-13.469 32.25-90.887 13.499-18.537-27.816z" fill="#80CBC3"/><defs><clipPath id="clip0"><path fill="#fff" transform="matrix(.14493 .98943 -.98953 .1444 1116.95 481.696)" d="M0 0h6.737v6.727H0z"/></clipPath></defs></svg>