<svg width="70" height="70" fill="none" xmlns="http://www.w3.org/2000/svg"><path d="M59.749 10.251C53.139 3.641 44.349 0 34.999 0a34.807 34.807 0 00-19.805 6.142 1.367 1.367 0 001.55 2.253A32.08 32.08 0 0135 2.735C52.79 2.734 67.266 17.208 67.266 35S52.79 67.266 35 67.266C17.209 67.266 2.734 52.79 2.734 35a32.077 32.077 0 015.66-18.256 1.367 1.367 0 00-2.253-1.55A34.801 34.801 0 000 35c0 9.349 3.64 18.138 10.251 24.749 6.61 6.61 15.4 10.25 24.749 10.25 9.35 0 18.138-3.64 24.749-10.25 6.61-6.61 10.25-15.4 10.25-24.75 0-9.348-3.64-18.137-10.25-24.748z" fill="#3B3A3B"/><path d="M11.217 12.586a1.367 1.367 0 10-1.01-2.287h-.001a1.366 1.366 0 001.01 2.287zM42.456 23.524a3.61 3.61 0 013.482-2.672c1.628 0 3.06 1.1 3.482 2.672a1.367 1.367 0 002.641-.707 6.349 6.349 0 00-6.123-4.7 6.348 6.348 0 00-6.124 4.7 1.367 1.367 0 102.642.707zM20.58 23.524a3.61 3.61 0 013.482-2.672 3.61 3.61 0 013.482 2.672 1.368 1.368 0 002.642-.707 6.349 6.349 0 00-6.124-4.7 6.348 6.348 0 00-6.123 4.7 1.367 1.367 0 102.641.707zM16.355 37.975c0 4.055 1.822 8.122 4.997 11.16 3.472 3.32 8.32 5.15 13.648 5.15 5.482 0 10.196-1.683 13.632-4.866 3.233-2.994 5.013-7.058 5.013-11.444 0-.755-.613-1.367-1.368-1.367H17.723c-.755 0-1.367.612-1.367 1.367zm34.48 1.367C50.148 45.612 44.74 51.55 35 51.55c-9.28 0-15.08-5.993-15.827-12.21h31.662z" fill="#3B3A3B"/></svg>